<svg width="100" height="100" viewBox="0 0 100 100" fill="none" xmlns="http://www.w3.org/2000/svg">
<g clip-path="url(#clip0_454_951)">
<path d="M24.635 -0.0341958C24.8292 -0.0343678 25.0234 -0.0346152 25.2176 -0.0349338C25.6221 -0.0353064 26.0265 -0.034772 26.431 -0.0335743C26.9462 -0.0321218 27.4614 -0.0329623 27.9766 -0.0344837C28.3768 -0.0354086 28.7769 -0.0351085 29.1771 -0.0344512C29.367 -0.0342829 29.5569 -0.0344843 29.7467 -0.0350823C30.7616 -0.0375792 31.7245 -0.00399257 32.7127 0.254162C32.8472 0.281068 32.9817 0.307975 33.1202 0.335697C34.8955 0.705993 36.6841 1.15178 38.3064 1.99823C38.6569 2.17234 39.0084 2.2984 39.3794 2.41784C39.3794 2.50184 39.3794 2.58584 39.3794 2.67239C39.5433 2.69241 39.5433 2.69241 39.7106 2.71284C40.135 2.80281 40.3858 2.93024 40.7476 3.17055C40.8627 3.24651 40.9778 3.32247 41.0965 3.40074C41.2148 3.48064 41.3331 3.56054 41.455 3.64286C41.5719 3.71981 41.6888 3.79675 41.8092 3.87603C42.7887 4.52791 43.7133 5.23104 44.5723 6.04518C44.9426 6.39442 45.316 6.73683 45.6989 7.07133C46.1936 7.51724 46.613 8.00783 47.0337 8.52704C47.1431 8.65886 47.2526 8.7906 47.3621 8.92229C47.4765 9.06094 47.5908 9.19965 47.705 9.33842C47.7605 9.40514 47.8161 9.47186 47.8733 9.54061C48.2683 10.0252 48.2683 10.0252 48.2683 10.3089C48.3498 10.3089 48.4313 10.3089 48.5152 10.3089C48.7173 10.5969 48.9036 10.8832 49.0862 11.1839C49.164 11.3082 49.164 11.3082 49.2434 11.435C49.6263 12.0566 49.6263 12.0566 49.6263 12.3453C49.7078 12.3453 49.7893 12.3453 49.8732 12.3453C49.9051 12.2555 49.9369 12.1658 49.9697 12.0733C50.1329 11.678 50.3297 11.3322 50.5522 10.9691C50.6274 10.8449 50.7025 10.7207 50.7799 10.5928C50.8473 10.4991 50.9148 10.4054 50.9843 10.3089C51.0658 10.3089 51.1473 10.3089 51.2313 10.3089C51.2612 10.2388 51.2911 10.1688 51.3219 10.0966C51.6521 9.46949 52.1464 8.94474 52.5893 8.39976C52.6563 8.31461 52.7233 8.22946 52.7923 8.14173C53.1811 7.65475 53.6063 7.2468 54.0727 6.83915C54.2992 6.63458 54.5044 6.42167 54.7112 6.19632C55.7258 5.14569 56.9255 4.34087 58.1371 3.55536C58.2482 3.48249 58.3593 3.40963 58.4738 3.33455C59.0191 2.98752 59.4633 2.7092 60.1201 2.67239C60.1201 2.58839 60.1201 2.50438 60.1201 2.41784C60.4672 2.27695 60.8145 2.13648 61.1618 1.99624C61.2585 1.95694 61.3552 1.91765 61.4548 1.87717C62.1148 1.61117 62.7793 1.36977 63.4535 1.14509C63.6509 1.07815 63.6509 1.07815 63.8523 1.00986C64.8202 0.693511 65.7914 0.457844 66.7868 0.254162C66.9072 0.222891 66.9072 0.222891 67.0301 0.190988C68.0178 -0.0490136 69.0042 -0.039764 70.0126 -0.0386703C70.2051 -0.0391665 70.3976 -0.0397185 70.5901 -0.040323C70.9924 -0.0412681 71.3947 -0.0412392 71.797 -0.0405657C72.3063 -0.0398321 72.8156 -0.041976 73.325 -0.044937C73.7225 -0.0468355 74.12 -0.0469205 74.5176 -0.0465267C74.705 -0.0465909 74.8925 -0.0472375 75.0799 -0.0485391C78.4694 -0.069178 81.7331 1.0181 84.8115 2.41784C84.8115 2.50184 84.8115 2.58584 84.8115 2.67239C84.9159 2.68305 85.0203 2.69372 85.1279 2.7047C85.6209 2.81502 85.9945 3.02859 86.4164 3.30081C86.4964 3.3514 86.5764 3.402 86.6588 3.45412C87.512 4.0013 88.3263 4.60045 89.1325 5.21789C89.2339 5.295 89.3352 5.37211 89.4397 5.45156C90.1023 5.96842 90.712 6.53886 91.3195 7.12204C91.5796 7.38409 91.5796 7.38409 91.8485 7.50884C91.8485 7.59284 91.8485 7.67684 91.8485 7.76339C91.9708 7.80539 92.093 7.84739 92.2189 7.89066C92.4016 8.09839 92.5754 8.3146 92.7436 8.53499C93.0679 8.95536 93.3923 9.36643 93.7467 9.76002C95.8929 12.2785 97.5088 15.4985 98.3918 18.709C98.4524 18.8924 98.514 19.0754 98.5769 19.2579C98.8331 20.0372 99.0098 20.8415 99.1962 21.6409C99.2537 21.8814 99.3162 22.1206 99.3789 22.3597C99.7115 23.7517 99.7912 25.1335 99.7956 26.5623C99.7967 26.7521 99.7978 26.9418 99.799 27.1316C99.801 27.5278 99.802 27.924 99.8023 28.3202C99.8028 28.7193 99.8054 29.1183 99.8099 29.5174C99.8372 31.9739 99.7364 34.2598 99.1325 36.6548C99.0902 36.8267 99.0902 36.8267 99.0471 37.0021C98.8025 37.9917 98.539 38.9632 98.1477 39.9038C97.9917 40.2925 97.8611 40.6879 97.7282 41.0856C97.4718 41.8346 97.1697 42.5476 96.8394 43.2647C96.5934 43.81 96.3785 44.3663 96.1695 44.9277C96.088 44.9277 96.0066 44.9277 95.9226 44.9277C95.9026 45.0667 95.9026 45.0667 95.8821 45.2086C95.7935 45.5885 95.6635 45.833 95.4597 46.1607C95.2109 46.5721 94.9869 46.9782 94.7884 47.4175C94.4394 48.1595 93.9968 48.8373 93.5564 49.5238C93.499 49.6133 93.4417 49.7028 93.3826 49.795C93.3051 49.9148 93.3051 49.9148 93.226 50.037C93.0797 50.2789 92.9559 50.5255 92.8362 50.7823C92.7547 50.7823 92.6732 50.7823 92.5893 50.7823C92.556 50.8762 92.5228 50.97 92.4885 51.0667C92.3474 51.4066 92.1921 51.6646 91.9792 51.9606C91.9077 52.0605 91.8362 52.1604 91.7626 52.2634C91.6485 52.4201 91.6485 52.4201 91.5322 52.5801C91.4541 52.6884 91.376 52.7967 91.2955 52.9083C90.8015 53.5896 90.2953 54.2554 89.7652 54.9074C89.5247 55.2096 89.2956 55.5185 89.0684 55.8315C88.5035 56.608 87.8963 57.3222 87.2483 58.0263C86.857 58.453 86.49 58.8865 86.1387 59.3496C85.5355 60.1304 84.8452 60.819 84.1541 61.5166C84.0655 61.6062 83.9769 61.6958 83.8856 61.7882C83.7653 61.9088 83.7653 61.9088 83.6425 62.0318C83.4423 62.2293 83.4423 62.2293 83.33 62.4917C83.2485 62.4917 83.1671 62.4917 83.0831 62.4917C83.0358 62.6056 83.0358 62.6056 82.9876 62.7218C82.635 63.3713 81.8447 63.8582 81.1724 64.0856C80.0583 64.3025 78.9086 64.3104 77.9138 63.7013C77.0949 63.1049 77.0949 63.1049 76.7868 62.7462C76.7868 62.6622 76.7868 62.5782 76.7868 62.4917C76.7053 62.4917 76.6239 62.4917 76.5399 62.4917C76.4624 62.3354 76.3853 62.1789 76.3084 62.0223C76.2655 61.9352 76.2225 61.8481 76.1782 61.7583C75.6888 60.7032 75.62 59.6296 75.9843 58.5064C76.0455 58.3515 76.1066 58.1966 76.1695 58.037C76.251 58.037 76.3325 58.037 76.4164 58.037C76.4277 57.964 76.439 57.891 76.4507 57.8158C76.5631 57.4531 76.7276 57.2736 76.9797 56.995C77.0792 56.8842 77.1786 56.7735 77.2811 56.6594C77.4043 56.5245 77.5276 56.3898 77.651 56.2552C77.809 56.082 77.9671 55.9088 78.1251 55.7356C78.3835 55.4526 78.642 55.1697 78.9007 54.887C80.9098 52.6941 80.9098 52.6941 82.6978 50.3105C82.7435 50.2562 82.7891 50.2019 82.8362 50.146C82.9177 50.146 82.9992 50.146 83.0831 50.146C83.1156 50.0739 83.148 50.0019 83.1815 49.9277C83.3422 49.6131 83.5263 49.3423 83.7313 49.0562C83.8182 48.9341 83.905 48.8121 83.9946 48.6863C84.2424 48.3408 84.4917 47.9965 84.7411 47.6522C84.8162 47.5481 84.8912 47.444 84.9686 47.3368C85.1173 47.1306 85.2666 46.9248 85.4164 46.7195C86.2958 45.5172 86.2958 45.5172 86.9103 44.164C86.9918 44.164 87.0732 44.164 87.1572 44.164C87.1877 44.0774 87.2183 43.9908 87.2498 43.9015C87.3976 43.5435 87.5757 43.2181 87.7642 42.8817C87.98 42.4865 88.174 42.0808 88.3686 41.6742C88.4549 41.4944 88.5412 41.3146 88.6276 41.1348C88.6706 41.0453 88.7136 40.9558 88.7578 40.8635C88.8778 40.6163 89.0004 40.3707 89.1243 40.1256C89.5883 39.1987 89.949 38.288 90.2436 37.2912C90.3075 37.1001 90.3717 36.9092 90.4365 36.7185C90.6286 36.1297 90.7666 35.5291 90.9043 34.9247C90.9843 34.6184 90.9843 34.6184 91.1078 34.4911C92.1137 30.42 92.0428 25.3128 90.4905 21.3818C90.4406 21.2178 90.3917 21.0534 90.3439 20.8886C90.0592 20.0008 89.6551 19.165 89.256 18.3272C89.1883 18.1845 89.1207 18.0417 89.051 17.8947C88.6261 17.0394 88.1383 16.2878 87.5522 15.5445C87.1572 15.0416 87.1572 15.0416 87.1572 14.7635C87.0757 14.7635 86.9942 14.7635 86.9103 14.7635C86.7318 14.5766 86.7318 14.5766 86.5245 14.3181C85.138 12.6485 83.5688 11.4497 81.6938 10.4276C81.5157 10.3296 81.3401 10.2269 81.1652 10.1229C80.1969 9.57011 79.1107 9.29624 78.0504 8.99037C77.8245 8.92363 77.6006 8.84919 77.3776 8.77264C76.6393 8.58569 75.8912 8.51696 75.1356 8.43954C75.011 8.42675 75.011 8.42675 74.8839 8.4137C73.697 8.29434 72.5587 8.23416 71.3719 8.37186C71.0699 8.40377 70.768 8.42416 70.465 8.44401C68.4648 8.58516 66.5266 8.94943 64.688 9.79979C64.5696 9.84802 64.4512 9.89626 64.3293 9.94596C62.2457 10.7976 60.2637 12.2258 58.8239 14.0078C58.722 14.1312 58.6201 14.2546 58.5152 14.3817C58.4337 14.3817 58.3522 14.3817 58.2683 14.3817C58.2335 14.4564 58.1986 14.5311 58.1627 14.608C58.0333 14.867 57.8933 15.1013 57.7349 15.3422C55.7651 18.3805 54.5419 21.6005 53.9473 25.2001C53.7234 26.5225 53.3718 27.7187 52.3289 28.6027C51.2705 29.3627 50.3114 29.7033 49.009 29.5274C47.669 29.1317 46.8358 28.4612 46.0784 27.2802C45.7497 26.6508 45.6405 26.0407 45.5677 25.3353C45.451 24.3278 45.2078 23.3747 44.935 22.4C44.8755 22.1711 44.8755 22.1711 44.8149 21.9377C44.1424 19.3833 42.9646 16.9083 41.3629 14.8346C41.2313 14.6362 41.2313 14.6362 41.2313 14.3817C41.1498 14.3817 41.0683 14.3817 40.9843 14.3817C40.8189 14.2037 40.8189 14.2037 40.6217 13.9521C39.2396 12.2825 37.5882 11.105 35.6757 10.1816C35.5641 10.124 35.4526 10.0664 35.3376 10.0071C34.3414 9.50683 33.2883 9.19632 32.2189 8.90886C32.139 8.88664 32.0591 8.86442 31.9767 8.84153C31.1274 8.62453 30.2611 8.54656 29.3919 8.46499C29.1281 8.43986 28.8648 8.41229 28.6013 8.3846C27.4009 8.26571 26.26 8.29131 25.0584 8.39976C24.8401 8.41519 24.6218 8.43046 24.4035 8.4455C22.5674 8.59785 20.815 9.01229 19.1325 9.79979C19.0563 9.83439 18.9802 9.86898 18.9017 9.90463C16.8312 10.8478 13.6651 12.5454 12.5893 14.7635C12.5078 14.7635 12.4263 14.7635 12.3424 14.7635C12.3147 14.8285 12.287 14.8935 12.2585 14.9604C12.0768 15.3084 11.864 15.6171 11.641 15.938C10.9381 16.9529 10.362 17.9869 9.85298 19.1171C9.75797 19.3273 9.65951 19.5358 9.56073 19.7441C9.27206 20.3653 9.05613 20.9474 8.942 21.6274C8.88558 21.8909 8.88558 21.8909 8.76743 22.1852C8.49789 22.9013 8.40665 23.6833 8.2683 24.4364C8.24379 24.5582 8.21928 24.6799 8.19403 24.8053C6.93244 31.2695 8.81419 38.2236 12.2069 43.6872C12.3335 43.8949 12.4502 44.1089 12.5661 44.3231C12.8801 44.901 13.2506 45.4414 13.6131 45.9877C13.8239 46.3277 13.8239 46.3277 13.9473 46.7095C16.9621 46.7095 19.9769 46.7095 23.0831 46.7095C23.2664 46.1425 23.2664 46.1425 23.4535 45.5641C23.5997 45.2376 23.7481 44.9199 23.9087 44.6016C23.9967 44.4237 24.0846 44.2459 24.1725 44.0681C24.2171 43.9785 24.2618 43.8889 24.3077 43.7966C24.5198 43.3691 24.7272 42.9392 24.935 42.5095C25.1796 42.0044 25.4246 41.4995 25.6714 40.9956C26.1643 39.9872 26.6386 38.9715 27.1027 37.9487C27.4696 37.147 27.8642 36.3632 28.2784 35.5864C28.5329 35.1038 28.7334 34.6391 28.8856 34.1093C28.9671 34.1093 29.0485 34.1093 29.1325 34.1093C29.1463 34.017 29.1602 33.9246 29.1744 33.8294C29.2596 33.457 29.3862 33.19 29.5723 32.8604C29.6285 32.7599 29.6847 32.6593 29.7425 32.5557C29.7857 32.4804 29.8288 32.4051 29.8732 32.3275C29.9547 32.3275 30.0362 32.3275 30.1201 32.3275C30.1201 32.2435 30.1201 32.1595 30.1201 32.0729C30.2016 32.0729 30.2831 32.0729 30.3671 32.0729C30.3671 31.9889 30.3671 31.9049 30.3671 31.8184C30.6154 31.6354 30.6154 31.6354 30.9458 31.4365C31.0532 31.3709 31.1606 31.3053 31.2713 31.2377C32.2608 30.6896 33.2611 30.6126 34.3548 30.9115C35.7774 31.478 36.532 32.3135 37.1572 33.7275C37.3408 34.1682 37.517 34.6119 37.6905 35.0569C37.9964 35.8401 38.3351 36.6032 38.6859 37.3658C38.859 37.7424 39.0279 38.1205 39.1942 38.5003C39.3995 38.9688 39.6095 39.4348 39.8221 39.8998C40.1202 40.5525 40.4106 41.2052 40.6757 41.8731C40.8896 42.4119 41.1198 42.9384 41.3624 43.464C41.8327 44.4843 42.2582 45.5241 42.6865 46.5637C43.1209 47.6177 43.5684 48.6607 44.0573 49.6891C44.1942 50.0187 44.1942 50.0187 44.1942 50.4005C44.2757 50.4005 44.3572 50.4005 44.4411 50.4005C44.4819 50.6945 44.5226 50.9885 44.5646 51.2914C44.6461 51.2914 44.7276 51.2914 44.8115 51.2914C44.8406 51.1914 44.8698 51.0913 44.8998 50.9882C45.1038 50.3961 45.3589 49.8374 45.6217 49.271C45.6764 49.1525 45.7311 49.0341 45.7875 48.9121C46.1634 48.1084 46.5691 47.3303 47.0024 46.5584C47.3287 45.972 47.6164 45.3748 47.8902 44.7606C48.2503 43.9551 48.6275 43.1612 49.0245 42.3742C49.0733 42.2758 49.1222 42.1774 49.1725 42.076C49.821 40.8028 50.6438 39.6028 52.0308 39.1337C53.1533 38.9152 54.2963 38.9127 55.2976 39.5265C55.6553 39.7834 55.9799 40.0315 56.293 40.3458C56.293 40.4298 56.293 40.5138 56.293 40.6003C56.3745 40.6003 56.456 40.6003 56.5399 40.6003C56.5819 40.6807 56.6239 40.7611 56.6672 40.844C57.022 41.519 57.3849 42.1876 57.759 42.8515C58.1769 43.596 58.5566 44.3563 58.9224 45.1291C59.0931 45.4889 59.2674 45.8379 59.4696 46.1801C59.6263 46.455 59.6263 46.455 59.6263 46.7095C59.7445 46.7084 59.8627 46.7073 59.9844 46.7061C61.1014 46.6958 62.2184 46.6882 63.3354 46.6832C63.9096 46.6805 64.4837 46.6769 65.0579 46.6711C65.6126 46.6656 66.1674 46.6626 66.7221 46.6612C66.9331 46.6603 67.1441 46.6585 67.3551 46.6557C69.4652 46.6292 69.4652 46.6292 70.3671 47.2186C70.4426 47.2639 70.5181 47.3091 70.596 47.3557C70.8069 47.4891 70.8069 47.4891 71.1078 47.7277C71.1078 47.8118 71.1078 47.8958 71.1078 47.9823C71.1893 47.9823 71.2708 47.9823 71.3547 47.9823C72.324 49.2121 72.4802 50.3869 72.3424 51.9278C72.231 52.3535 72.0743 52.7004 71.8485 53.0733C71.8043 53.1519 71.7601 53.2305 71.7145 53.3114C71.5862 53.5267 71.5862 53.5267 71.3547 53.837C71.2732 53.837 71.1918 53.837 71.1078 53.837C71.1078 53.921 71.1078 54.005 71.1078 54.0915C70.8594 54.2745 70.8594 54.2745 70.5291 54.4733C70.4217 54.539 70.3143 54.6046 70.2036 54.6722C69.4481 55.0906 68.8672 55.1486 68.0194 55.1507C67.8953 55.152 67.7711 55.1532 67.6432 55.1545C67.2328 55.1583 66.8225 55.16 66.4121 55.1614C66.1259 55.1629 65.8397 55.1643 65.5535 55.1658C64.9531 55.1685 64.3528 55.17 63.7524 55.1709C62.9859 55.1722 62.2196 55.1784 61.4532 55.1856C60.8616 55.1904 60.2701 55.1917 59.6785 55.1921C59.3962 55.1928 59.1138 55.1949 58.8314 55.1982C55.993 55.2296 55.993 55.2296 54.8115 54.3461C54.722 54.28 54.6325 54.2139 54.5403 54.1459C54.0202 53.7401 53.7556 53.2798 53.4535 52.6915C53.372 52.6495 53.2905 52.6075 53.2066 52.5642C53.1822 52.6757 53.1822 52.6757 53.1574 52.7895C53.0869 53.0588 52.9977 53.2892 52.882 53.5406C52.8434 53.6251 52.8048 53.7096 52.7651 53.7967C52.7249 53.8835 52.6847 53.9703 52.6433 54.0597C52.5823 54.1928 52.5823 54.1928 52.5201 54.3286C52.4201 54.5468 52.3196 54.7646 52.2189 54.9824C52.1374 54.9824 52.056 54.9824 51.972 54.9824C51.9632 55.0851 51.9545 55.1878 51.9455 55.2937C51.8191 55.8837 51.5666 56.3493 51.2853 56.8756C51.1721 57.092 51.0591 57.3084 50.9462 57.5249C50.8899 57.6326 50.8336 57.7403 50.7756 57.8512C50.5433 58.3012 50.3233 58.7571 50.1047 59.2143C49.7823 59.8869 49.4475 60.5509 49.1016 61.2109C48.751 61.8803 48.4313 62.554 48.1448 63.2553C48.0634 63.2553 47.9819 63.2553 47.8979 63.2553C47.8776 63.3419 47.8572 63.4286 47.8362 63.5178C47.4499 64.2978 46.6824 64.884 45.8995 65.2077C44.6859 65.5013 43.3026 65.4521 42.2189 64.7826C41.9369 64.5858 41.721 64.3966 41.4782 64.1462C41.4782 64.0622 41.4782 63.9782 41.4782 63.8917C41.3967 63.8917 41.3152 63.8917 41.2313 63.8917C40.9792 63.5219 40.8609 63.3315 40.8609 62.8735C40.7794 62.8735 40.6979 62.8735 40.614 62.8735C40.5596 62.7372 40.5596 62.7372 40.5042 62.5981C40.1106 61.6169 39.6993 60.6451 39.2791 59.6757C39.1827 59.4524 39.1827 59.4524 39.0844 59.2245C38.7913 58.5457 38.4972 57.8675 38.1993 57.1908C38.1531 57.0852 38.1068 56.9796 38.0591 56.8707C37.9745 56.6777 37.8893 56.4849 37.8035 56.2924C37.6396 55.9176 37.5276 55.6532 37.5276 55.237C37.4461 55.237 37.3646 55.237 37.2806 55.237C37.2267 55.0866 37.2267 55.0866 37.1717 54.9332C36.8528 54.0597 36.5052 53.2102 36.1199 52.3658C35.9051 51.8889 35.7009 51.408 35.4982 50.9255C35.2183 50.2597 34.9281 49.6004 34.6263 48.9448C34.2656 48.1602 33.9393 47.3638 33.6259 46.5579C33.4251 46.044 33.2072 45.5476 32.9597 45.055C32.7358 45.5349 32.5121 46.0148 32.2884 46.4948C32.2207 46.6397 32.1531 46.7847 32.0835 46.9341C31.7319 47.6888 31.3829 48.4445 31.0392 49.203C30.6194 50.1271 30.1863 51.0438 29.7343 51.9517C29.687 52.0492 29.6396 52.1467 29.5908 52.2472C28.9669 53.4813 28.0938 54.4883 26.8203 54.9996C25.9448 55.2383 25.0236 55.1825 24.1239 55.1796C23.8926 55.1807 23.6613 55.182 23.4299 55.1836C22.8045 55.187 22.1791 55.1871 21.5536 55.1865C21.0302 55.1862 20.5068 55.1874 19.9835 55.1887C18.7481 55.1915 17.5127 55.1916 16.2774 55.1901C15.0056 55.1885 13.734 55.1917 12.4623 55.1971C11.3678 55.2016 10.2734 55.2031 9.179 55.2023C8.52647 55.2018 7.87399 55.2025 7.22147 55.206C6.60756 55.2092 5.99375 55.2087 5.37983 55.2054C5.15549 55.2048 4.93114 55.2055 4.70681 55.2076C3.17096 55.221 2.1649 54.9877 0.860888 54.0915C0.860888 54.0075 0.860888 53.9235 0.860888 53.837C0.779407 53.837 0.697925 53.837 0.613974 53.837C-0.0891552 53.0935 -0.360304 52.3801 -0.382812 51.3529C-0.379799 51.2119 -0.376785 51.0709 -0.37368 50.9255C-0.372019 50.7793 -0.370358 50.6331 -0.368646 50.4825C-0.325692 49.4193 -0.166522 48.774 0.559962 47.9922C0.70892 47.8613 0.70892 47.8613 0.860888 47.7277C0.937277 47.6562 1.01367 47.5847 1.09237 47.511C2.08578 46.686 3.08745 46.6573 4.31768 46.7095C4.27566 46.6321 4.23365 46.5547 4.19036 46.4749C3.37836 44.961 2.62501 43.4381 2.02408 41.8219C1.89248 41.4786 1.75349 41.1474 1.60404 40.8126C1.34386 40.2145 1.15403 39.6063 0.976629 38.9776C0.94475 38.866 0.912872 38.7544 0.880027 38.6394C0.508346 37.3218 0.228834 35.9945 -0.00315875 34.6441C-0.0827694 34.1718 -0.0827694 34.1718 -0.250223 33.7275C-0.262852 33.4464 -0.267315 33.165 -0.268157 32.8836C-0.268571 32.7969 -0.268986 32.7101 -0.269413 32.6207C-0.27059 32.3326 -0.270828 32.0444 -0.27096 31.7562C-0.271357 31.5551 -0.271772 31.354 -0.272205 31.1528C-0.272946 30.7299 -0.273173 30.3069 -0.2731 29.884C-0.273087 29.3463 -0.274763 28.8086 -0.2769 28.2708C-0.278285 27.8545 -0.278522 27.4381 -0.278457 27.0217C-0.278602 26.8238 -0.279138 26.6259 -0.280102 26.4279C-0.286954 24.8735 -0.15138 23.3958 0.243604 21.8909C0.280048 21.7362 0.316492 21.5815 0.35404 21.4221C0.96609 18.8418 1.76443 16.4862 2.95965 14.1271C3.00165 14.0438 3.04364 13.9604 3.08691 13.8745C3.62116 12.8242 4.21875 11.838 4.88867 10.8737C4.95363 10.7798 5.01859 10.6859 5.08552 10.5891C5.46923 10.049 5.87894 9.57448 6.34543 9.10919C6.67887 8.76571 6.94429 8.37412 7.22132 7.98264C7.28164 7.91029 7.34195 7.83793 7.4041 7.76339C7.48558 7.76339 7.56706 7.76339 7.65101 7.76339C7.65101 7.67939 7.65101 7.59539 7.65101 7.50884C7.95503 7.18464 8.30296 6.9065 8.63867 6.61791C8.73574 6.53227 8.83282 6.44663 8.93284 6.35839C10.2423 5.22307 11.6484 4.20733 13.1063 3.2849C13.2172 3.21341 13.2172 3.21341 13.3304 3.14047C13.7807 2.8628 14.1664 2.72707 14.688 2.67239C14.688 2.58839 14.688 2.50438 14.688 2.41784C15.6426 1.9872 16.6049 1.61844 17.5951 1.28777C17.9218 1.17843 18.2454 1.06407 18.5692 0.94622C20.5642 0.263256 22.54 -0.0408142 24.635 -0.0341958Z" fill="white"/>
<path d="M27.7744 67.3617C28.1682 67.6927 28.5339 68.0392 28.8961 68.4058C29.3242 68.8385 29.7947 69.209 30.2725 69.5816C30.3804 69.6798 30.3804 69.6798 30.4904 69.7799C30.4904 69.8639 30.4904 69.9479 30.4904 70.0345C30.5563 70.0617 30.6222 70.089 30.6901 70.117C31.0942 70.3533 31.4072 70.6759 31.7404 71.005C32.3389 71.5878 32.9519 72.1292 33.6101 72.6406C33.6806 72.7046 33.7511 72.7686 33.8238 72.8345C33.8238 72.9185 33.8238 73.0025 33.8238 73.0891C33.8893 73.1162 33.9549 73.1432 34.0225 73.1711C34.4314 73.4101 34.7508 73.7357 35.0892 74.0675C35.2333 74.2068 35.3775 74.346 35.5218 74.4851C35.591 74.5521 35.6603 74.619 35.7316 74.688C36.0376 74.9812 36.3527 75.2629 36.6686 75.5446C36.9578 75.8047 37.2426 76.0695 37.5275 76.3346C37.8955 76.6769 38.2648 77.0172 38.6386 77.3528C39.0124 77.6884 39.3817 78.0286 39.7497 78.371C40.4846 79.0535 41.2188 79.7272 41.9951 80.3597C42.4279 80.7142 42.8252 81.0755 43.2065 81.4892C43.7594 82.073 44.323 82.6292 44.9238 83.1602C45.3203 83.5262 45.6895 83.919 46.0605 84.3122C46.2778 84.552 46.2778 84.552 46.5398 84.6711C46.5398 84.7551 46.5398 84.8391 46.5398 84.9257C46.6117 84.9585 46.6837 84.9913 46.7578 85.0251C47.0559 85.1927 47.258 85.3776 47.4966 85.6257C47.5724 85.7031 47.6481 85.7806 47.7262 85.8603C47.8978 86.0711 47.8978 86.0711 47.8978 86.3257C47.9793 86.3257 48.0608 86.3257 48.1448 86.3257C48.3362 86.526 48.3362 86.526 48.5537 86.795C48.896 87.2106 49.2467 87.6009 49.6262 87.9803C50.0413 87.7988 50.2727 87.5802 50.5599 87.2246C51.1108 86.5478 51.1108 86.5478 51.3546 86.3257C51.4361 86.3257 51.5176 86.3257 51.6015 86.3257C51.6334 86.2515 51.6652 86.1774 51.698 86.101C51.8606 85.7936 52.0399 85.5853 52.2806 85.3393C52.3557 85.2612 52.4308 85.1831 52.5082 85.1027C52.7127 84.9257 52.7127 84.9257 52.9596 84.9257C52.9596 84.8417 52.9596 84.7577 52.9596 84.6711C53.1366 84.4916 53.1366 84.4916 53.384 84.2813C53.7753 83.9391 54.143 83.5848 54.5028 83.2074C55.1164 82.5672 55.7653 81.9807 56.4395 81.4097C56.7846 81.1179 56.7846 81.1179 57.0722 80.8131C57.4136 80.4611 57.765 80.1223 58.1216 79.7869C58.1868 79.7255 58.2519 79.6641 58.319 79.6008C58.7503 79.1953 59.1862 78.7961 59.6272 78.4018C59.9176 78.14 60.2041 77.8739 60.4904 77.6073C60.9297 77.1991 61.3692 76.7915 61.8166 76.3928C62.0376 76.1953 62.2562 75.9958 62.4744 75.7952C63.6778 74.7003 64.6302 74.0916 66.2929 74.1073C67.5176 74.194 68.3495 74.7791 69.1787 75.6823C70.0373 76.7508 70.1373 77.8304 70.0306 79.1913C69.841 80.65 68.7189 81.6497 67.6509 82.5074C67.5694 82.5074 67.488 82.5074 67.404 82.5074C67.404 82.5914 67.404 82.6754 67.404 82.762C67.2149 82.9366 67.0177 83.102 66.8176 83.2631C66.199 83.771 65.616 84.3047 65.0442 84.8677C64.5906 85.3075 64.5906 85.3075 64.3176 85.3075C64.3176 85.3915 64.3176 85.4755 64.3176 85.562C64.1536 85.7326 64.1536 85.7326 63.9164 85.9359C63.5868 86.2234 63.2629 86.5146 62.9475 86.8184C62.8819 86.8815 62.8163 86.9446 62.7487 87.0096C62.618 87.1357 62.4877 87.2622 62.3578 87.3891C62.0643 87.6709 61.8637 87.8478 61.4781 87.9803C61.4781 88.0643 61.4781 88.1483 61.4781 88.2348C61.3141 88.4053 61.3141 88.4053 61.0769 88.6087C59.7629 89.7562 58.5366 90.9922 57.3216 92.2487C57.0683 92.5105 56.8143 92.7717 56.5603 93.0327C56.3986 93.1995 56.237 93.3663 56.0754 93.5331C55.9997 93.6109 55.9239 93.6888 55.8459 93.7689C55.4679 94.1478 55.4679 94.1478 55.1818 94.5986C55.1003 94.5986 55.0188 94.5986 54.9349 94.5986C54.9061 94.6688 54.8773 94.739 54.8476 94.8114C54.646 95.1856 54.3925 95.4629 54.1093 95.7759C53.7285 96.1994 53.3532 96.6245 52.9904 97.0645C52.4405 97.7153 51.7616 98.4534 50.9067 98.5996C50.5312 98.609 50.1562 98.615 49.7806 98.6157C49.5867 98.6227 49.5867 98.6227 49.389 98.6299C48.438 98.6354 47.8804 98.412 47.1571 97.7804C47.0629 97.6986 46.9687 97.6167 46.8716 97.5324C46.4438 97.0781 46.0452 96.6114 45.6602 96.1179C45.2197 95.5534 44.7594 95.0164 44.279 94.4877C44.2042 94.4053 44.1295 94.3229 44.0524 94.238C43.2572 93.3664 42.4407 92.517 41.6187 91.6723C41.3672 91.4137 41.1164 91.1545 40.8656 90.8952C40.7023 90.7269 40.539 90.5587 40.3757 90.3905C40.3025 90.3148 40.2293 90.2391 40.1539 90.1611C39.5512 89.5432 38.9347 88.9217 38.2388 88.4157C38.167 88.356 38.0953 88.2963 38.0213 88.2348C38.0213 88.1508 38.0213 88.0668 38.0213 87.9803C37.9115 87.9298 37.9115 87.9298 37.7995 87.8783C37.5176 87.7201 37.3455 87.5597 37.1262 87.32C36.5904 86.751 36.0291 86.2008 35.3993 85.743C35.3275 85.6833 35.2557 85.6236 35.1818 85.562C35.1818 85.478 35.1818 85.394 35.1818 85.3075C35.115 85.2791 35.0481 85.2507 34.9792 85.2215C34.5954 84.9994 34.2956 84.7025 33.9781 84.3927C33.8454 84.2653 33.7126 84.1381 33.5797 84.0109C33.5156 83.9492 33.4514 83.8875 33.3853 83.8239C32.6931 83.1618 31.9689 82.5522 31.2196 81.9601C31.1419 81.8887 31.0643 81.8173 30.9843 81.7438C30.9843 81.6598 30.9843 81.5758 30.9843 81.4892C30.9174 81.4609 30.8506 81.4325 30.7817 81.4032C30.3979 81.1811 30.098 80.8843 29.7806 80.5744C29.6477 80.4468 29.5148 80.3191 29.3817 80.1916C29.3175 80.1299 29.2533 80.0682 29.1872 80.0046C28.8902 79.7215 28.5841 79.4497 28.2783 79.1769C27.8288 78.7691 27.39 78.349 26.9497 77.9305C26.6856 77.669 26.6856 77.669 26.4164 77.5437C26.4164 77.4597 26.4164 77.3757 26.4164 77.2892C26.3505 77.2619 26.2846 77.2347 26.2167 77.2066C25.8126 76.9703 25.4996 76.6478 25.1664 76.3187C24.5679 75.7358 23.9549 75.1944 23.2967 74.683C23.2262 74.619 23.1557 74.555 23.083 74.4891C23.083 74.4051 23.083 74.3211 23.083 74.2346C22.9608 74.1926 22.8386 74.1506 22.7127 74.1073C22.7127 74.0233 22.7127 73.9393 22.7127 73.8527C22.6312 73.8527 22.5497 73.8527 22.4657 73.8527C22.2883 73.6245 22.2883 73.6245 22.0954 73.3198C22.0317 73.2208 21.9681 73.1219 21.9025 73.02C21.3549 72.0552 21.3517 70.9977 21.4781 69.9072C21.8487 68.61 22.7912 67.6234 23.9183 66.9834C25.184 66.394 26.619 66.6355 27.7744 67.3617Z" fill="white"/>
</g>
<defs>
<clipPath id="clip0_454_951">
<rect width="100" height="100" fill="white"/>
</clipPath>
</defs>
</svg>
