<svg width="300" height="300" viewBox="0 0 300 300" fill="none" xmlns="http://www.w3.org/2000/svg">
<g clip-path="url(#clip0_454_769)">
<path d="M91.4058 51.5623C92.9044 52.3841 94.4029 53.2059 95.9469 54.0525C104.65 58.0087 114.793 55.3038 123.751 52.6609C141.964 48.779 162.919 50.4764 180.789 55.1878C187.085 56.7188 192.79 56.862 199.218 56.2498C202.699 53.9295 202.699 53.9295 206.25 51.5623C218.012 50.4732 225.046 51.2291 234.375 58.5936C246.069 70.6843 249.275 80.2576 249.105 96.7802C247.834 108.851 243.555 119.785 234.86 128.366C228.144 132.11 224.218 131.611 216.65 130.664C214.423 130.41 212.197 130.156 209.903 129.895C203.906 128.906 203.906 128.906 196.875 126.562C188.707 137.253 189.053 145.956 189.55 158.789C189.732 165.241 189.83 171.668 189.843 178.125C187.5 180.469 187.5 180.469 182.144 180.697C176.117 180.621 170.089 180.545 164.062 180.469C164.062 192.844 164.062 205.219 164.062 217.969C165.609 217.969 167.156 217.969 168.75 217.969C168.75 220.289 168.75 222.609 168.75 225C165.656 225 162.562 225 159.375 225C159.375 230.414 159.375 235.828 159.375 241.406C162.468 241.406 165.562 241.406 168.75 241.406C168.75 243.726 168.75 246.047 168.75 248.437C156.375 248.437 144 248.437 131.25 248.437C131.25 246.117 131.25 243.797 131.25 241.406C134.343 241.406 137.437 241.406 140.625 241.406C140.625 235.992 140.625 230.578 140.625 225C137.531 225 134.437 225 131.25 225C131.25 222.68 131.25 220.359 131.25 217.969C132.796 217.969 134.343 217.969 135.937 217.969C135.937 205.594 135.937 193.219 135.937 180.469C128.203 180.469 120.468 180.469 112.5 180.469C112.439 177.559 112.379 174.65 112.316 171.652C112.185 167.804 112.05 163.955 111.914 160.107C111.88 158.193 111.847 156.279 111.813 154.307C111.321 142.147 109.854 135.472 100.781 126.562C97.1554 127.722 97.1554 127.722 93.4566 128.906C82.5187 131.949 74.3137 133.483 64.0133 127.734C52.6236 115.421 50.2829 101.584 50.9121 85.1255C52.5682 71.2703 60.048 62.6916 70.541 54.2173C77.7 49.9543 83.3419 50.3451 91.4058 51.5623Z" fill="white"/>
<path d="M91.4068 58.5937C93.2558 59.8354 95.1048 61.0771 97.0098 62.3565C102.869 66.2623 102.869 66.2623 109.104 64.7735C111.24 64.0393 113.376 63.3052 115.577 62.5488C144.853 54.2766 171.138 57.1978 199.219 67.9687C199.219 66.4218 199.219 64.8749 199.219 63.2812C207.952 57.4596 212.314 57.7021 222.657 58.5937C231.462 61.9956 233.926 64.8343 238.624 73.0956C241.763 83.1758 241.957 90.3188 241.407 100.781C237.926 99.621 237.926 99.621 234.376 98.4374C233.99 96.022 233.99 96.022 233.597 93.5577C233.226 91.4458 232.854 89.334 232.471 87.1581C232.118 85.0644 231.764 82.9707 231.4 80.8135C229.531 74.4651 227.929 71.8877 222.657 67.9687C215.549 67.0802 210.803 66.7067 204.493 70.3124C197.53 81.4521 196.663 95.2045 194.825 107.959C193.215 118.398 190.705 124.483 184.736 133.282C180.064 145.429 182.217 160.575 182.813 173.437C180.493 173.437 178.172 173.437 175.782 173.437C175.498 171.996 175.214 170.555 174.921 169.07C174.332 166.229 174.332 166.229 173.731 163.33C173.16 160.516 173.16 160.516 172.577 157.645C171.224 151.751 171.224 151.751 166.407 145.312C162.459 124.159 171.174 102.359 180.854 83.8439C183.313 79.3933 183.313 79.3933 182.813 72.6562C171.761 68.2939 161.894 67.3181 150.147 67.5292C148.559 67.5307 146.972 67.5322 145.336 67.5338C134.941 67.6235 125.072 68.6456 114.844 70.3124C115.991 73.2445 115.991 73.2445 117.161 76.2359C120.332 84.4038 123.456 92.5885 126.563 100.781C127.336 102.781 128.11 104.781 128.907 106.842C135.784 125.688 135.01 138.449 126.563 157.031C125.613 162.473 124.78 167.942 124.219 173.437C121.899 173.437 119.579 173.437 117.188 173.437C117.297 171.09 117.406 168.742 117.518 166.324C117.606 163.177 117.691 160.031 117.774 156.885C117.883 153.812 117.992 150.739 118.104 147.574C117.198 138.387 115.01 133.872 110.12 126.223C105.84 118.156 105.157 109.3 104.004 100.342C102.39 84.5633 102.39 84.5633 96.0943 70.3124C89.5348 67.0327 84.5982 67.3765 77.3443 67.9687C70.1371 73.2783 68.9838 78.546 67.5298 87.1581C67.1582 89.27 66.7866 91.3818 66.4037 93.5577C66.1469 95.168 65.8901 96.7783 65.6255 98.4374C63.3052 99.2109 60.9849 99.9843 58.5943 100.781C57.8589 86.8081 58.8515 77.9634 65.6255 65.6249C73.2402 57.1945 80.4405 57.4393 91.4068 58.5937Z" fill="#EC5E80"/>
<path d="M147.363 72.3625C150.232 72.3489 150.232 72.3489 153.159 72.3351C155.011 72.3381 156.863 72.3411 158.771 72.3442C160.459 72.3469 162.148 72.3495 163.887 72.3522C168.887 72.6641 173.314 73.6351 178.125 74.9992C174.684 85.8948 170.533 96.3983 166.177 106.951C161.606 118.945 160.378 130.184 161.719 142.968C163.987 147.693 166.326 152.384 168.75 157.03C169.189 166.113 169.189 166.113 168.75 173.437C167.203 173.437 165.656 173.437 164.062 173.437C159.019 165.871 158.904 163.396 159.375 154.687C157.055 154.687 154.734 154.687 152.344 154.687C152.344 149.273 152.344 143.859 152.344 138.28C150.797 138.28 149.25 138.28 147.656 138.28C147.656 142.921 147.656 147.562 147.656 152.343C144.176 153.503 144.176 153.503 140.625 154.687C140.722 156.475 140.818 158.264 140.918 160.107C140.625 166.405 140.625 166.405 135.938 173.437C134.391 173.437 132.844 173.437 131.25 173.437C130.704 164.344 130.5 158.468 134.766 150.292C141.849 135.535 138.922 122.546 134.033 107.372C130.581 97.7288 126.637 88.7347 121.875 79.6867C121.875 78.1399 121.875 76.593 121.875 74.9992C129.78 71.047 138.679 72.3218 147.363 72.3625Z" fill="#EC5E80"/>
<path d="M91.4062 51.5623C93.6541 52.795 93.6541 52.795 95.9473 54.0525C104.651 58.0087 114.793 55.3038 123.752 52.6609C141.965 48.779 162.92 50.4764 180.789 55.1878C187.085 56.7188 192.791 56.862 199.219 56.2498C201.539 54.7029 203.859 53.1561 206.25 51.5623C218.012 50.4732 225.047 51.2291 234.375 58.5936C246.065 70.6802 249.29 80.2579 249.097 96.7802C248.033 107.022 244.73 115.636 239.062 124.219C232.617 129.053 232.617 129.053 227.344 131.25C231.738 119.824 231.738 119.824 234.375 117.187C234.47 113.282 234.475 109.374 234.375 105.469C229.734 104.695 225.094 103.922 220.312 103.125C222.633 99.6443 222.633 99.6443 225 96.0936C226.26 85.1088 226.26 85.1088 221.924 75.4393C218.302 72.8906 214.622 70.4251 210.938 67.9686C216.211 66.2107 216.211 66.2107 222.656 65.6248C228.023 69.9478 231.297 73.5317 234.375 79.6873C234.689 85.9507 234.476 92.1619 234.375 98.4373C235.922 98.4373 237.469 98.4373 239.062 98.4373C239.873 85.1921 238.316 77.0723 232.031 65.6248C224.342 59.3089 215.847 60.4138 206.25 60.9373C203.93 61.7107 201.609 62.4842 199.219 63.2811C199.219 64.8279 199.219 66.3748 199.219 67.9686C195.898 67.2377 192.578 66.5049 189.258 65.7713C187.409 65.3634 185.56 64.9556 183.655 64.5353C180.359 63.7877 177.076 62.9651 173.84 61.9902C166.315 60.4338 158.825 60.3902 151.172 60.3514C149.517 60.3387 147.862 60.3261 146.157 60.313C133.039 60.436 121.552 62.8385 109.103 67.1171C101.059 68.2628 97.9964 65.3811 91.4062 60.9373C81.4157 59.6885 76.869 59.6205 68.5547 65.4783C66.8145 67.0735 65.0742 68.6688 63.2812 70.3123C60.9609 71.0857 58.6406 71.8592 56.25 72.6561C62.4084 56.0283 74.4476 49.364 91.4062 51.5623Z" fill="white"/>
<path d="M208.594 65.625C216.614 68.5658 222.204 72.8954 227.344 79.6875C228.223 88.1836 228.223 88.1836 227.344 96.0938C225.797 97.6406 224.25 99.1875 222.656 100.781C227.297 102.328 231.938 103.875 236.719 105.469C238.046 116.752 233.966 122.351 227.344 131.25C223.583 130.918 219.824 130.574 216.064 130.225C213.971 130.034 211.877 129.844 209.72 129.648C203.906 128.906 203.906 128.906 196.875 126.562C195.86 128.061 194.845 129.56 193.799 131.104C189.844 135.938 189.844 135.938 182.812 138.281C183.828 135.888 183.828 135.888 184.863 133.447C190.772 118.019 193.324 103.301 195.328 86.9202C196.968 79.2523 199.342 74.306 203.906 67.9688C205.453 67.1953 207 66.4219 208.594 65.625Z" fill="white"/>
<path d="M150 64.8918C151.577 64.8541 153.154 64.8163 154.779 64.7774C166.718 64.7659 174.671 67.4811 185.156 72.6555C183.634 81.941 180.783 89.937 177.1 98.5832C175.581 102.177 175.581 102.177 174.033 105.843C171.633 111.279 169.128 116.595 166.406 121.874C164.859 121.874 163.313 121.874 161.719 121.874C163.507 104.106 170.385 90.9741 178.125 74.9992C159.562 74.9992 141 74.9992 121.875 74.9992C124.969 81.1867 128.062 87.3742 131.25 93.7492C131.25 95.2961 131.25 96.843 131.25 98.4367C128.93 99.2102 126.609 99.9836 124.219 100.78C122.634 97.4705 121.077 94.1476 119.531 90.8196C118.661 88.9706 117.791 87.1216 116.895 85.2165C114.844 79.6867 114.844 79.6867 114.844 70.3117C126.725 66.4288 137.459 64.8318 150 64.8918Z" fill="white"/>
<path d="M82.0305 70.3125C93.4563 74.4141 93.4563 74.4141 96.093 79.6875C96.4352 83.5836 96.6107 87.4957 96.6789 91.4062C96.7696 94.5242 96.7696 94.5242 96.862 97.7051C96.6083 99.4937 96.3545 101.282 96.093 103.125C93.7727 104.672 91.4524 106.219 89.0618 107.812C88.2883 105.492 87.5149 103.172 86.718 100.781C79.6669 97.9097 79.6669 97.9097 72.6555 96.0938C71.5017 81.0937 71.5017 81.0937 77.343 73.9746C78.8899 72.7661 80.4368 71.5576 82.0305 70.3125Z" fill="#EC5E80"/>
<path d="M213.281 70.3125C224.707 74.4141 224.707 74.4141 227.344 79.6875C227.438 85.1554 227.445 90.6259 227.344 96.0938C225.072 96.7222 222.8 97.3506 220.459 97.998C218.09 98.9165 215.722 99.835 213.281 100.781C212.508 103.102 211.734 105.422 210.937 107.812C208.617 106.266 206.297 104.719 203.906 103.125C202.383 95.2476 202.694 87.6017 203.906 79.6875C208.594 73.5352 208.594 73.5352 213.281 70.3125Z" fill="#EC5E80"/>
<path d="M142.969 173.438C147.609 173.438 152.25 173.438 157.031 173.438C157.031 188.133 157.031 202.828 157.031 217.969C152.391 217.969 147.75 217.969 142.969 217.969C142.969 203.273 142.969 188.578 142.969 173.438Z" fill="#EC5E80"/>
<path d="M213.281 65.625C220.02 65.918 220.02 65.918 227.344 67.9688C233.707 74.9678 234.766 80.6401 234.814 89.7949C234.669 92.647 234.524 95.499 234.375 98.4375C241.581 96.6178 241.581 96.6178 246.094 91.4062C246.878 104.214 245.344 112.956 239.062 124.219C232.764 128.76 232.764 128.76 227.344 131.25C231.738 119.824 231.738 119.824 234.375 117.188C234.47 113.282 234.475 109.374 234.375 105.469C229.734 104.695 225.094 103.922 220.312 103.125C221.859 100.805 223.406 98.4844 225 96.0938C226.26 85.109 226.26 85.109 221.924 75.4395C218.302 72.8908 214.622 70.4253 210.938 67.9688C211.711 67.1953 212.484 66.4219 213.281 65.625Z" fill="white"/>
<path d="M234.375 103.125C236.719 105.469 236.719 105.469 237.305 111.036C236.719 117.188 236.719 117.188 234.082 121.436C227.87 125.37 222.815 124.699 215.625 124.219C213.867 118.946 213.867 118.946 213.281 112.5C219.342 103.876 223.955 101.717 234.375 103.125Z" fill="#EC5E80"/>
<path d="M65.6242 103.125C73.6809 103.711 73.6809 103.711 82.0305 105.469C86.718 112.5 86.718 112.5 85.8391 118.799C85.3557 120.587 84.8723 122.376 84.3742 124.219C71.651 125.067 71.651 125.067 65.9172 121.436C62.4282 115.814 62.5966 111.965 63.2805 105.469C64.0539 104.695 64.8274 103.922 65.6242 103.125Z" fill="#EC5E80"/>
<path d="M213.281 58.5938C222.485 59.2359 226.706 60.4127 233.936 66.3574C242.958 77.4415 241.637 86.9482 241.406 100.781C239.086 100.008 236.766 99.2344 234.375 98.4375C234.118 96.8272 233.861 95.2169 233.597 93.5577C233.225 91.4459 232.854 89.334 232.471 87.1582C232.117 85.0645 231.764 82.9708 231.4 80.8136C229.531 74.469 227.861 71.9491 222.656 67.9688C216.548 66.2766 216.548 66.2766 210.938 65.625C211.711 63.3047 212.484 60.9844 213.281 58.5938Z" fill="#EC5E80"/>
<path d="M75.0005 58.5938C76.5474 59.3672 78.0943 60.1406 79.688 60.9375C77.3443 67.9688 77.3443 67.9688 73.8561 71.1639C69.1617 76.2466 68.6718 80.3944 67.5298 87.1582C67.1582 89.2701 66.7866 91.3819 66.4037 93.5577C66.1469 95.1681 65.8901 96.7784 65.6255 98.4375C63.3052 99.2109 60.9849 99.9844 58.5943 100.781C57.8589 86.8082 58.8515 77.9635 65.6255 65.625C70.7525 61.084 70.7525 61.084 75.0005 58.5938Z" fill="#EC5E80"/>
<path d="M138.281 65.6257C143.163 65.4987 148.046 65.4081 152.93 65.3328C157.008 65.2512 157.008 65.2512 161.169 65.168C168.347 65.6014 172.13 66.5439 178.125 70.3132C177.352 71.8601 176.578 73.407 175.781 75.0007C162.633 74.2273 149.484 73.4539 135.938 72.657C136.711 70.3367 137.484 68.0164 138.281 65.6257Z" fill="white"/>
<path d="M175.781 70.3125C178.875 71.0859 181.969 71.8594 185.156 72.6562C183.923 81.5341 181.919 87.1208 175.781 93.75C174.234 93.75 172.688 93.75 171.094 93.75C171.432 92.4509 171.771 91.1517 172.119 89.8132C172.554 88.1153 172.989 86.4174 173.438 84.668C173.873 82.9821 174.308 81.2963 174.756 79.5593C175.953 75.0167 175.953 75.0167 175.781 70.3125Z" fill="white"/>
<path d="M77.3438 65.625C78.8906 66.3984 80.4375 67.1719 82.0312 67.9688C82.0312 69.5156 82.0312 71.0625 82.0312 72.6562C80.9194 73.5747 79.8076 74.4932 78.6621 75.4395C73.25 81.7175 73.4167 88.033 72.6562 96.0938C71.8828 96.0938 71.1094 96.0938 70.3125 96.0938C69.9741 94.2568 69.6357 92.4199 69.2871 90.5273C68.2547 84.4589 68.2547 84.4589 65.625 79.6875C71.2731 68.6603 71.2731 68.6603 77.3438 65.625Z" fill="white"/>
<path d="M140.625 154.688C141.096 163.397 140.981 165.872 135.938 173.438C134.391 173.438 132.844 173.438 131.25 173.438C131.25 168.023 131.25 162.609 131.25 157.031C135.938 154.688 135.938 154.688 140.625 154.688Z" fill="#EC5E80"/>
<path d="M75 58.5938C76.5469 59.3672 78.0937 60.1406 79.6875 60.9375C77.304 68.0879 75.6529 70.0869 70.3125 75C68.7656 76.5469 67.2188 78.0937 65.625 79.6875C64.0781 78.9141 62.5313 78.1406 60.9375 77.3438C63.9127 68.1702 66.8242 63.7717 75 58.5938Z" fill="#EC5E80"/>
</g>
<defs>
<clipPath id="clip0_454_769">
<rect width="300" height="300" fill="white"/>
</clipPath>
</defs>
</svg>
