<svg width="300" height="300" viewBox="0 0 300 300" fill="none" xmlns="http://www.w3.org/2000/svg">
<path d="M61.0834 47.4609C69.102 47.5499 71.8167 48.4044 77.6453 54.0619C82.5905 60.8652 87.0422 67.81 91.4057 75C94.5297 79.8346 97.6547 84.6686 100.781 89.502C103.133 93.2563 105.48 97.014 107.812 100.781C108.921 99.8749 110.03 98.9685 111.172 98.0347C133.163 80.7163 154.719 72.6938 182.812 75C210.077 80.714 229.129 97.0155 244.665 119.577C254.578 137.832 253.147 160.899 249.398 180.762C242.553 202.969 227.273 219.509 207.421 231.152C186.771 240.486 161.427 240.252 139.892 233.643C133.008 230.868 127.801 227.102 121.874 222.656C115.622 222.067 115.622 222.067 110.156 222.656C110.011 225.122 109.866 227.587 109.716 230.127C107.436 240.826 104.937 244.437 96.0932 250.781C87.9804 251.606 82.3558 252.116 74.9994 248.438C75.7729 246.117 76.5463 243.797 77.3432 241.406C82.1771 239.795 82.1772 239.795 86.7182 239.062C86.5822 237.195 86.4463 235.328 86.3062 233.405C85.335 210.595 85.335 210.595 92.5775 202.148C94.5111 200.408 96.4447 198.668 98.4369 196.875C97.3281 194.944 96.2193 193.014 95.0769 191.025C91.0254 181.962 89.781 173.674 88.9154 163.916C87.9002 153.091 86.4916 143.609 82.0307 133.594C81.7376 132.15 81.4445 130.705 81.1426 129.218C79.3654 123.115 76.5119 119.105 72.793 113.956C70.7423 111.003 70.7423 111.003 68.6502 107.991C65.7811 103.907 62.8763 99.8469 59.9344 95.8145C49.8261 81.0719 46.5072 69.4443 49.2182 51.5625C52.8026 47.9781 56.102 48.042 61.0834 47.4609Z" fill="white"/>
<path d="M194.092 99.9017C214.487 110.469 224.832 123.715 232.031 145.312C235.012 165.2 228.79 180.32 217.968 196.874C207.013 209.873 193.304 216.878 176.468 218.627C162.665 219.08 152.805 217.433 140.625 210.937C141.398 208.617 142.172 206.296 142.968 203.906C145.482 202.939 147.996 201.972 150.586 200.976C160.91 196.867 166.591 190.594 171.093 180.468C172.417 173.487 172.073 168.939 171.093 161.718C162.758 156.161 159.831 155.896 150 157.031C144.142 159.736 139.053 162.911 133.593 166.406C128.599 158.082 127.735 150.171 126.562 140.624C126.079 138.546 125.595 136.467 125.097 134.326C124.142 128.436 124.748 125.154 126.562 119.531C126.792 118.02 127.021 116.509 127.258 114.953C129.443 108.592 132.241 107.193 137.988 103.857C139.625 102.881 141.263 101.905 142.95 100.9C158.34 92.8454 178.21 93.3141 194.092 99.9017Z" fill="#EC5E80"/>
<path d="M208.594 91.4067C226.399 104.522 239.375 118.391 243.75 140.625C245.73 166.404 243.304 186.502 226.904 206.983C214.023 220.697 198.455 228.902 179.718 230.246C160.936 230.613 145.84 229.238 128.906 220.313C133.072 217.768 133.072 217.768 138.281 215.625C142.725 217.341 147.164 219.069 151.566 220.89C168.372 226.323 185.119 223.387 200.885 216.23C219.29 206.116 227.835 193.057 234.375 173.438C235.959 153.463 236.14 134.467 225 117.188C211.213 101.058 196.999 93.318 176.221 90.5187C156.894 89.3359 142.789 95.2682 126.562 105.469C125.016 107.016 123.469 108.563 121.875 110.157C116.895 109.278 116.895 109.278 112.5 107.813C138.82 81.6396 174.855 71.0761 208.594 91.4067Z" fill="#EC5E80"/>
<path d="M218.015 90.0696C232.898 101.871 246.433 117.103 250.781 135.938C253.309 161.134 251.813 184.104 237.076 205.508C224.873 220.413 210.569 230.619 192.188 236.719C188.707 235.559 188.707 235.559 185.156 234.375C186.316 230.895 186.316 230.895 187.5 227.344C192.279 225.101 192.279 225.101 198.34 223.096C217.387 215.868 227.369 205.736 236.847 187.848C244.353 170.79 244.714 147.571 238.477 130.078C227.716 108.557 214.559 94.3953 191.785 85.9772C176.836 82.364 160.119 82.3197 145.312 86.7188C146.086 83.625 146.859 80.5313 147.656 77.3438C172.752 70.6516 196.666 75.8374 218.015 90.0696Z" fill="white"/>
<path d="M168.75 89.0625C191.522 89.9958 207.999 95.4114 223.727 112.436C237.607 130.673 239.276 151.149 236.719 173.438C232.28 190.345 222.353 205.424 207.33 214.554C191.579 222.656 191.579 222.656 185.156 222.656C188.687 213.938 188.687 213.938 193.909 210.974C195.468 210.382 197.027 209.79 198.633 209.18C213.081 202.493 219.541 190.764 227.051 177.246C232.427 159.922 231.301 145.18 223.105 128.989C214.812 114.823 205.377 106.342 189.844 100.781C182.081 98.8322 174.313 97.3251 166.406 96.0938C167.18 93.7734 167.953 91.4531 168.75 89.0625Z" fill="white"/>
<path d="M56.2498 56.25C60.8904 56.25 65.531 56.25 70.3123 56.25C66.8318 62.0508 66.8318 62.0508 63.281 67.9688C67.1482 67.1953 71.0154 66.4219 74.9998 65.625C74.9998 72.6562 74.9998 72.6562 72.656 79.6875C76.5232 78.9141 80.3904 78.1406 84.3748 77.3438C82.8279 81.9844 81.281 86.625 79.6873 91.4062C83.5545 89.8594 87.4216 88.3125 91.406 86.7188C92.1795 89.0391 92.9529 91.3594 93.7498 93.75C91.4294 96.0703 89.1091 98.3906 86.7185 100.781C90.5857 100.008 94.4529 99.2344 98.4373 98.4375C99.2107 100.758 99.9841 103.078 100.781 105.469C98.4607 107.789 96.1404 110.109 93.7498 112.5C97.6169 111.727 101.484 110.953 105.469 110.156C106.242 112.477 107.015 114.797 107.812 117.188C102.398 120.281 96.9841 123.375 91.406 126.562C85.0576 118.037 78.829 109.434 72.656 100.781C71.0397 98.5395 69.4233 96.2977 67.7579 93.988C58.6766 80.7281 54.1159 72.4067 56.2498 56.25Z" fill="#EC5E80"/>
<path d="M187.5 114.844C192.998 119.81 194.286 122.819 195.557 130.078C194.531 135.938 194.531 135.938 190.869 141.358C183.062 146.762 178.049 146.496 168.75 145.313C164.209 142.969 164.209 142.969 161.719 138.282C160.641 131.813 160.537 125.991 161.719 119.532C168.863 110.101 176.864 111.943 187.5 114.844Z" fill="white"/>
<path d="M164.062 161.719C166.406 164.063 166.406 164.063 167.139 170.361C166.054 181.86 160.358 188.861 152.344 196.875C145.459 197.754 145.459 197.754 138.281 196.875C133.887 192.774 133.887 192.774 131.25 187.5C131.25 184.406 131.25 181.313 131.25 178.125C132.797 178.125 134.344 178.125 135.938 178.125C137.484 181.992 139.031 185.859 140.625 189.844C142.172 189.844 143.719 189.844 145.312 189.844C142.992 183.656 140.672 177.469 138.281 171.094C153.002 160.139 153.002 160.139 164.062 161.719Z" fill="#EC5E80"/>
<path d="M128.906 199.219C131.227 199.219 133.547 199.219 135.938 199.219C135.205 203.613 135.205 203.613 133.594 208.594C126.182 213.535 123.031 214.074 114.404 214.746C112.292 214.921 110.181 215.097 108.005 215.277C106.394 215.392 104.784 215.507 103.125 215.625C103.01 217.066 102.895 218.507 102.777 219.992C102.602 221.886 102.427 223.781 102.246 225.732C102.083 227.609 101.92 229.485 101.752 231.418C100.781 236.719 100.781 236.719 96.0938 243.75C94.5469 242.977 93 242.203 91.4062 241.406C91.5476 236.912 91.7559 232.42 91.9922 227.93C92.101 225.428 92.2097 222.927 92.3218 220.349C94.0445 211.824 96.1278 208.983 103.125 203.906C109.085 202.56 109.085 202.56 115.283 202.295C122.812 202.522 122.812 202.522 128.906 199.219Z" fill="#EC5E80"/>
<path d="M89.0625 215.625C89.8359 215.625 90.6094 215.625 91.4062 215.625C92.1797 224.133 92.9531 232.641 93.75 241.406C94.5234 240.633 95.2969 239.859 96.0938 239.062C99.2188 235.937 102.344 232.812 105.469 229.687C104.736 237.598 104.736 237.598 103.125 246.094C94.5266 251.826 89.8312 251.335 79.6875 250.781C78.1406 250.008 76.5938 249.234 75 248.437C75.7734 246.117 76.5469 243.797 77.3438 241.406C82.1777 239.795 82.1777 239.795 86.7188 239.062C86.6916 237.567 86.6644 236.071 86.6364 234.531C86.6152 232.594 86.5941 230.657 86.5723 228.662C86.5451 226.732 86.5179 224.801 86.4899 222.812C86.7188 217.969 86.7188 217.969 89.0625 215.625Z" fill="white"/>
<path d="M110.155 157.031C125.957 162.777 125.957 162.777 128.905 169.043C128.905 170.493 128.905 171.943 128.905 173.438C128.132 174.211 127.359 174.984 126.562 175.781C126.394 178.951 126.365 182.129 126.415 185.303C126.464 188.348 126.512 191.394 126.562 194.531C118.516 191.849 118.038 190.905 114.403 183.691C109.926 174.26 109.295 167.355 110.155 157.031Z" fill="#EC5E80"/>
<path d="M98.4379 145.312C99.9848 146.086 101.532 146.859 103.125 147.656C103.766 152.701 103.766 152.701 104.004 159.229C104.968 173.125 108.994 184.33 114.844 196.875C110.486 196.353 110.486 196.353 105.469 194.531C96.2784 180.49 94.071 164.074 96.0942 147.656C96.8676 146.883 97.641 146.109 98.4379 145.312Z" fill="#EC5E80"/>
<path d="M176.807 119.092C182.812 119.531 182.812 119.531 187.5 124.219C186.727 131.946 186.041 135.053 180.469 140.625C173.591 139.765 171.412 138.599 166.406 133.594C168.093 119.762 168.093 119.762 176.807 119.092Z" fill="#EC5E80"/>
<path d="M210.205 136.67C212.888 137.468 212.888 137.468 215.625 138.281C217.236 143.701 217.236 143.701 217.969 150C215.332 154.395 215.332 154.395 210.938 157.031C204.639 156.299 204.639 156.299 199.219 154.688C197.607 149.268 197.607 149.268 196.875 142.969C200.827 136.381 202.523 135.777 210.205 136.67Z" fill="white"/>
<path d="M138.281 128.906C148.958 130.208 148.958 130.208 152.343 133.594C152.783 139.307 152.783 139.307 152.343 145.312C150.796 146.859 149.25 148.406 147.656 150C136.979 148.698 136.979 148.698 133.593 145.312C133.154 139.6 133.154 139.6 133.593 133.594C135.14 132.047 136.687 130.5 138.281 128.906Z" fill="white"/>
<path d="M119.531 117.188C118.708 123.83 117.692 126.132 112.509 130.554C110.621 131.751 108.733 132.947 106.787 134.18C104.905 135.4 103.023 136.621 101.083 137.878C96.0938 140.625 96.0938 140.625 91.4062 140.625C92.2294 133.982 93.2459 131.68 98.4283 127.258C100.317 126.062 102.205 124.865 104.15 123.633C106.974 121.802 106.974 121.802 109.854 119.934C114.844 117.188 114.844 117.188 119.531 117.188Z" fill="#EC5E80"/>
<path d="M114.844 133.594C120.71 140.48 122.975 145.732 124.219 154.688C116.637 153.38 112.55 151.472 107.812 145.312C107.812 142.992 107.812 140.672 107.812 138.281C110.133 136.734 112.453 135.188 114.844 133.594Z" fill="#EC5E80"/>
</svg>
