<svg width="300" height="300" viewBox="0 0 300 300" fill="none" xmlns="http://www.w3.org/2000/svg">
<g clip-path="url(#clip0_454_809)">
<path d="M213.281 44.5312C215.602 45.3047 217.922 46.0781 220.312 46.875C218.766 60.7969 217.219 74.7188 215.625 89.0625C217.172 89.0625 218.719 89.0625 220.312 89.0625C221.859 85.9687 223.406 82.875 225 79.6875C231.826 79.8883 235.706 81.0448 240.628 85.8398C244.127 89.9623 247.51 94.1323 250.781 98.4375C247.542 105.962 243.928 110.272 237.598 115.43C236.117 116.65 234.637 117.871 233.112 119.128C231.982 120.035 230.852 120.941 229.688 121.875C232.3 135.095 232.3 135.095 236.252 147.94C247.28 177.26 244.421 211.156 232.709 239.648C230.216 244.966 227.687 250.246 225 255.469C221.52 254.309 221.52 254.309 217.969 253.125C219.514 243.571 222.662 235.403 226.318 226.465C237.032 196.449 232.621 170.952 222.876 141.531C220.312 133.594 220.312 133.594 220.312 128.906C216.089 127.054 216.089 127.054 210.938 126.562C204.285 130.916 199.233 136.584 194.531 142.969C193.144 149.533 193.144 149.533 194.531 154.688C191.051 155.848 191.051 155.848 187.5 157.031C186.05 155.146 184.6 153.261 183.105 151.318C178.731 145.222 178.731 145.222 173.438 142.969C173.438 140.648 173.438 138.328 173.438 135.938C175.419 136.276 177.401 136.614 179.443 136.963C189.908 135.631 193.899 131.659 200.931 124.091C204.672 119.37 204.672 119.37 203.32 111.914C202.74 109.787 202.16 107.66 201.562 105.469C202.676 104.384 203.789 103.299 204.936 102.181C209.02 98.7286 209.02 98.7286 209.318 93.7002C209.251 91.9311 209.184 90.162 209.116 88.3392C209.072 86.3951 209.028 84.4509 208.983 82.4478C208.863 79.4137 208.863 79.4137 208.74 76.3184C208.599 72.3182 208.479 68.3173 208.383 64.3158C208.314 62.544 208.245 60.7723 208.173 58.9468C208.653 53.1912 210.414 49.4974 213.281 44.5312Z" fill="white"/>
<path d="M82.0312 44.5312C84.3516 45.3047 86.6719 46.0781 89.0625 46.875C91.9538 55.5489 91.8486 63.6216 91.8457 72.6562C91.8557 74.438 91.8657 76.2198 91.876 78.0556C91.8168 88.602 90.8078 98.0935 88.3301 108.398C86.8434 114.258 86.8434 114.258 86.7188 119.531C92.1879 126.174 92.1879 126.174 98.4375 131.25C97.9541 133.474 97.4707 135.697 96.9727 137.988C95.3152 145.179 95.3152 145.179 99.0509 149.854C106.091 157.428 110.082 161.411 120.557 162.744C122.539 162.406 124.521 162.067 126.562 161.719C126.562 168.75 126.562 168.75 123.138 172.513C120.918 174.348 120.918 174.348 118.652 176.221C117.184 177.462 115.716 178.704 114.203 179.984C110.156 182.812 110.156 182.812 105.469 182.812C105.807 180.831 106.146 178.849 106.494 176.807C105.159 166.314 101.08 162.367 93.4753 155.347C89.0434 151.706 89.0434 151.706 82.4707 152.49C80.7788 153.215 79.0869 153.94 77.3438 154.688C75.7969 154.688 74.25 154.688 72.6562 154.688C70.3359 161.648 68.0156 168.609 65.625 175.781C64.0781 175.781 62.5313 175.781 60.9375 175.781C60.483 162.828 61.5282 152.915 65.625 140.625C64.2231 139.997 62.8213 139.368 61.377 138.721C56.1423 135.879 52.7358 133.719 49.2188 128.906C50.4901 119.401 55.1011 114.708 61.7981 108.27C65.625 105.469 65.625 105.469 72.3633 104.59C74.0068 104.88 75.6504 105.17 77.3438 105.469C82.5164 88.011 83.52 71.7847 80.7129 53.7598C80.3745 51.4878 80.0361 49.2158 79.6875 46.875C80.4609 46.1016 81.2344 45.3281 82.0312 44.5312Z" fill="white"/>
<path d="M121.875 199.219C129.825 200.608 134.088 203.361 140.039 208.74C142.196 210.666 142.196 210.666 144.397 212.631C146.01 214.113 146.01 214.113 147.656 215.625C154.05 212.67 159.013 209.524 164.209 204.785C171.094 199.219 171.094 199.219 178.125 199.219C176.809 207.509 174.151 210.92 167.725 216.211C166.277 217.432 164.83 218.652 163.339 219.91C159.375 222.656 159.375 222.656 154.688 222.656C154.688 232.711 154.688 242.766 154.688 253.125C151.594 253.125 148.5 253.125 145.312 253.125C145.312 243.07 145.312 233.016 145.312 222.656C142.219 221.109 139.125 219.563 135.938 217.969C130.759 214.37 126.53 210.588 121.875 206.25C121.875 203.93 121.875 201.609 121.875 199.219Z" fill="white"/>
<path d="M60.9375 203.906C63.2578 204.68 65.5781 205.453 67.9688 206.25C70.5414 212.814 70.5414 212.814 72.8027 221.045C75.6691 231.701 75.6691 231.701 79.9713 241.8C82.0312 246.094 82.0312 246.094 82.0312 255.469C79.7109 255.469 77.3906 255.469 75 255.469C67.099 239.606 60.1371 224.109 58.5938 206.25C59.3672 205.477 60.1406 204.703 60.9375 203.906Z" fill="white"/>
<path d="M67.9688 114.844C75.696 117.42 77.4532 119.405 82.4707 125.537C83.7124 127.039 84.9542 128.54 86.2335 130.087C87.1671 131.244 88.1006 132.402 89.0625 133.594C87.5156 136.688 85.9688 139.781 84.375 142.969C75.5177 142.969 73.9194 140.632 67.5293 134.766C65.8525 133.243 64.1757 131.72 62.4481 130.151C61.1762 128.967 59.9042 127.783 58.5938 126.562C61.6875 122.695 64.7812 118.828 67.9688 114.844Z" fill="#EC5E80"/>
<path d="M227.344 89.0625C231.885 90.8203 231.885 90.8203 236.719 93.75C237.492 96.8438 238.266 99.9375 239.062 103.125C232.875 108.539 226.688 113.953 220.312 119.531C217.219 117.211 214.125 114.891 210.938 112.5C214.846 103.262 220.845 96.5876 227.344 89.0625Z" fill="#EC5E80"/>
</g>
<defs>
<clipPath id="clip0_454_809">
<rect width="300" height="300" fill="white"/>
</clipPath>
</defs>
</svg>
