<svg width="300" height="300" viewBox="0 0 300 300" fill="none" xmlns="http://www.w3.org/2000/svg">
<path d="M77.3447 44.5312C79.4475 46.7791 79.4475 46.7791 81.5928 49.0723C91.0271 55.1768 98.3508 55.3216 109.388 55.838C114.845 56.25 114.845 56.25 117.188 58.5937C117.844 65.7013 117.732 72.8463 117.774 79.9805C117.823 81.9564 117.871 83.9322 117.921 85.968C118.002 98.9984 116.132 107.927 110.157 119.531C107.79 112.167 108.252 108.15 110.157 100.781C110.484 97.5779 110.728 94.3653 110.899 91.1499C110.997 89.3825 111.095 87.615 111.196 85.7941C111.288 83.9723 111.381 82.1504 111.476 80.2734C111.577 78.4154 111.678 76.5573 111.782 74.6429C112.03 70.0749 112.267 65.5062 112.501 60.9375C103.22 60.9375 93.9385 60.9375 84.376 60.9375C92.1103 62.4844 99.8447 64.0312 107.813 65.625C108.005 71.9253 108.143 78.2197 108.253 84.5215C108.312 86.2844 108.371 88.0473 108.431 89.8636C108.594 102.343 106.423 110.727 100.782 121.875C102.329 121.875 103.876 121.875 105.47 121.875C103.209 130.918 100.921 133.495 93.165 139.014C85.4847 143.47 79.1156 143.913 70.3135 142.969C64.5731 139.444 64.5731 139.444 59.3271 134.619C57.5778 133.069 55.8285 131.519 54.0262 129.922C41.0887 114.57 41.2596 100.292 41.749 81.0059C41.7807 78.6206 41.8125 76.2353 41.8451 73.7778C41.9275 67.9339 42.0427 62.0926 42.1885 56.25C44.1372 56.1896 46.0859 56.1291 48.0936 56.0669C51.914 55.8675 51.914 55.8675 55.8115 55.6641C59.6047 55.5009 59.6047 55.5009 63.4745 55.3345C70.5887 54.5401 70.5887 54.5401 74.7355 49.1089C75.5965 47.5983 76.4576 46.0876 77.3447 44.5312Z" fill="#EC5E80"/>
<path d="M185.156 58.5938C186.703 58.5938 188.25 58.5938 189.844 58.5938C190.101 60.2917 190.357 61.9896 190.622 63.739C192.982 78.3504 192.982 78.3504 198.486 91.9922C202.587 100.585 201.188 105.655 199.219 114.844C198.566 118.832 198.566 118.832 197.9 122.9C197.562 124.882 197.224 126.864 196.875 128.906C199.969 128.133 203.062 127.359 206.25 126.562C204.703 121.922 203.156 117.281 201.562 112.5C203.883 112.5 206.203 112.5 208.594 112.5C209.754 120.621 209.754 120.621 210.938 128.906C202.69 133.065 194.436 137.212 186.182 141.357C183.86 142.528 181.538 143.699 179.146 144.905C159.707 154.657 159.707 154.657 149.652 158.762C141.888 162.197 141.557 163.668 138.281 171.094C126.529 182.812 126.529 182.812 119.531 182.812C119.531 184.359 119.531 185.906 119.531 187.5C123.258 186.227 126.965 184.897 130.664 183.545C132.731 182.811 134.797 182.077 136.926 181.32C143.319 178.491 143.319 178.491 147.169 172.512C153.072 165.547 157.887 162.984 166.177 159.274C168.844 158.064 171.51 156.854 174.257 155.608C177.032 154.386 179.807 153.163 182.666 151.904C185.432 150.655 188.198 149.406 191.048 148.119C202.287 143.062 213.529 138.104 225 133.594C220.869 112.941 214.448 93.3063 206.836 73.6816C203.906 65.625 203.906 65.625 203.906 58.5938C205.453 58.5938 207 58.5938 208.594 58.5938C211.956 67.7166 215.293 76.848 218.607 85.988C219.737 89.0934 220.874 92.1963 222.018 95.2967C223.664 99.7645 225.286 104.241 226.904 108.719C227.886 111.407 228.868 114.095 229.88 116.864C231.88 123.703 232.494 128.877 232.031 135.938C225.884 139.074 219.732 142.197 213.574 145.312C211.825 146.207 210.076 147.101 208.273 148.022C205.758 149.291 205.758 149.291 203.192 150.586C201.646 151.371 200.099 152.157 198.506 152.966C194.531 154.688 194.531 154.688 189.844 154.688C193.221 178.004 198.759 199.253 207.596 221.135C212.197 232.732 214.578 243.017 215.625 255.469C214.078 255.469 212.531 255.469 210.938 255.469C210.228 253.17 209.518 250.87 208.786 248.502C207.795 245.306 206.803 242.111 205.811 238.916C205.289 237.228 204.767 235.541 204.229 233.802C201.585 225.311 198.871 216.862 195.914 208.475C190.158 192.101 185.608 176.836 185.156 159.375C179.916 161.836 174.696 164.33 169.482 166.846C168.016 167.53 166.549 168.214 165.038 168.919C157.342 172.667 152.317 175.809 146.191 182.007C139.971 188.145 136.679 189.329 128.174 190.576C126.104 190.905 124.035 191.235 121.902 191.574C120.347 191.777 118.791 191.979 117.188 192.188C116.414 188.32 115.641 184.453 114.844 180.469C117.164 179.164 119.484 177.858 121.875 176.514C124.195 174.725 126.516 172.937 128.906 171.094C129.688 165.037 129.688 165.037 128.906 159.375C134.584 153.697 139.539 153.083 147.184 151.299C162.822 147.362 182.805 141.379 191.409 127.112C195.668 112.157 193.803 102.653 188.525 88.4766C184.97 78.0699 184.56 69.531 185.156 58.5938Z" fill="white"/>
<path d="M154.687 58.5938C156.234 58.5938 157.781 58.5938 159.375 58.5938C156.681 69.3675 154.462 75.2997 147.656 84.375C155.39 82.8281 163.125 81.2813 171.093 79.6875C173.414 72.7266 175.734 65.7656 178.125 58.5938C179.672 58.5938 181.218 58.5938 182.812 58.5938C182.286 68.9392 181.693 75.289 176.367 84.2285C166.082 90.7553 157.225 90.5868 145.221 90.8478C137.843 90.8756 137.843 90.8756 131.25 96.0938C129.49 101.748 129.49 101.748 131.25 107.812C138.056 113.328 138.056 113.328 145.312 117.188C140.076 122.974 134.99 126.181 128.027 129.639C115.103 136.615 106.365 145.538 100.781 159.375C99.1034 175.846 98.3225 194.312 107.812 208.594C120.153 221.799 131.171 229.849 149.414 231.152C151.722 231.328 154.03 231.503 156.408 231.683C159.037 231.856 159.037 231.856 161.718 232.031C161.718 233.578 161.718 235.125 161.718 236.719C145.744 237.499 133.778 237.286 119.531 229.688C118.758 238.195 117.984 246.703 117.187 255.469C115.64 255.469 114.093 255.469 112.5 255.469C112.636 253.263 112.772 251.058 112.912 248.785C114.531 230.359 114.531 230.359 107.08 214.453C103.962 211.553 103.962 211.553 100.781 208.594C91.1773 192.816 92.0712 177.318 93.7497 159.375C98.6307 139.667 115.758 128.702 131.25 117.188C130.041 115.979 128.833 114.771 127.588 113.525C124.218 107.812 124.218 107.812 123.926 99.7559C127.107 89.6813 130.044 88.3721 138.62 83.1207C146.591 76.8276 150.417 67.6268 154.687 58.5938Z" fill="white"/>
<path d="M77.3447 44.5312C79.4475 46.7791 79.4475 46.7791 81.5928 49.0723C91.0271 55.1768 98.3508 55.3216 109.388 55.838C114.845 56.25 114.845 56.25 117.188 58.5937C117.844 65.7013 117.732 72.8463 117.774 79.9805C117.823 81.9564 117.871 83.9322 117.921 85.968C118.002 98.9984 116.132 107.927 110.157 119.531C107.79 112.167 108.252 108.15 110.157 100.781C110.484 97.5779 110.728 94.3653 110.899 91.1499C110.997 89.3825 111.095 87.615 111.196 85.7941C111.288 83.9723 111.381 82.1504 111.476 80.2734C111.577 78.4154 111.678 76.5573 111.782 74.6429C112.03 70.0749 112.267 65.5062 112.501 60.9375C110.749 60.9919 108.996 61.0463 107.191 61.1023C104.883 61.1446 102.574 61.1869 100.196 61.2305C97.9122 61.2848 95.6282 61.3392 93.2749 61.3953C86.6737 60.9343 82.9475 59.6383 77.3447 56.25C75.0244 57.7969 72.7041 59.3437 70.3135 60.9375C63.9872 61.3953 63.9872 61.3953 56.9834 61.2305C53.4893 61.167 53.4893 61.167 49.9247 61.1023C48.1452 61.0479 46.3657 60.9935 44.5322 60.9375C44.2235 95.7441 44.2235 95.7441 58.5947 126.562C66.433 133.89 70.0101 135.889 80.7139 136.084C91.0301 133.007 97.0769 128.555 105.47 121.875C103.209 130.918 100.921 133.495 93.165 139.014C85.4847 143.47 79.1156 143.913 70.3135 142.969C64.5731 139.444 64.5731 139.444 59.3271 134.619C57.5778 133.069 55.8285 131.519 54.0262 129.922C41.0887 114.57 41.2596 100.292 41.749 81.0059C41.7807 78.6206 41.8125 76.2353 41.8451 73.7778C41.9275 67.9339 42.0427 62.0926 42.1885 56.25C44.1372 56.1896 46.0859 56.1291 48.0936 56.0669C51.914 55.8675 51.914 55.8675 55.8115 55.6641C59.6047 55.5009 59.6047 55.5009 63.4745 55.3345C70.5887 54.5401 70.5887 54.5401 74.7355 49.1089C75.5965 47.5983 76.4576 46.0876 77.3447 44.5312Z" fill="white"/>
<path d="M77.3447 58.5938C78.9883 59.2705 80.6318 59.9473 82.3252 60.6445C90.8884 63.9953 98.6763 64.5973 107.813 65.625C109.582 108.859 109.582 108.859 98.4385 124.219C92.8539 129.803 88.3101 132.882 81.1533 136.084C71.4532 135.853 65.5429 130.668 58.5947 124.219C49.744 112.123 48.9257 102.06 49.0732 87.3047C49.0944 84.5614 49.1155 81.8181 49.1373 78.9917C49.1645 76.901 49.1917 74.8103 49.2197 72.6562C50.7666 72.6562 52.3135 72.6562 53.9072 72.6562C53.9948 74.8618 54.0824 77.0673 54.1727 79.3396C54.3268 82.2581 54.4809 85.1766 54.6396 88.1836C54.7756 91.0659 54.9115 93.9481 55.0516 96.9177C56.7215 108.824 60.4817 116.657 68.8486 125.244C74.6493 129.347 74.6493 129.347 80.8603 129.199C90.4083 124.903 96.1001 117.177 100.782 107.812C101.327 101.455 101.765 95.1381 102.101 88.7695C102.202 87.0021 102.303 85.2347 102.407 83.4137C102.656 79.0471 102.892 74.6799 103.126 70.3125C100.933 70.3669 98.7391 70.4213 96.4792 70.4773C89.0635 70.3125 89.0635 70.3125 82.9111 67.6758C81.0742 66.999 79.2373 66.3223 77.3447 65.625C74.1983 67.144 71.0767 68.7146 67.9697 70.3125C61.6617 70.75 55.5541 70.5236 49.2197 70.3125C49.2197 68.7656 49.2197 67.2188 49.2197 65.625C50.8572 65.3138 52.4947 65.0026 54.1819 64.682C57.3814 64.0611 57.3814 64.0611 60.6455 63.4277C62.7664 63.0199 64.8873 62.612 67.0725 62.1918C72.6562 61.1727 72.6562 61.1727 77.3447 58.5938Z" fill="white"/>
<path d="M89.0625 82.0304C90.6094 83.5773 92.1563 85.1241 93.75 86.7179C91.64 89.1444 89.4822 91.5295 87.3047 93.8956C86.1083 95.228 84.9119 96.5603 83.6792 97.9331C79.6875 100.78 79.6875 100.78 74.5239 100.039C73.1342 99.5101 71.7444 98.9814 70.3125 98.4366C72.6328 101.917 72.6328 101.917 75 105.468C81.9237 102.253 87.7502 98.4633 93.75 93.7491C93.0176 100.487 93.0176 100.487 91.4063 107.812C84.375 112.499 84.375 112.499 76.1719 112.206C67.9688 110.155 67.9688 110.155 63.2813 106.2C60.0256 98.6717 60.8081 94.4671 63.2813 86.7179C70.9366 77.5903 78.1572 79.405 89.0625 82.0304Z" fill="#EC5E80"/>
<path d="M56.2497 91.4062C57.0231 91.4062 57.7966 91.4062 58.5934 91.4062C59.5853 96.1365 60.5771 100.867 61.5689 105.597C63.1007 111.025 63.1007 111.025 70.3122 114.844C77.1441 116.212 77.1441 116.212 84.3747 114.844C91.8904 108.695 97.1068 102.768 100.781 93.75C101.554 94.5234 102.328 95.2969 103.125 96.0938C102.863 109.173 99.2643 116.419 90.4813 125.62C86.7185 128.906 86.7185 128.906 81.0056 131.982C70.9921 130.761 64.9204 124.767 58.5934 117.188C54.7679 107.942 52.4348 100.944 56.2497 91.4062Z" fill="#EC5E80"/>
<path d="M77.3438 44.5312C79.4465 46.7791 79.4465 46.7791 81.5918 49.0723C91.0261 55.1768 98.3499 55.3216 109.387 55.838C114.844 56.25 114.844 56.25 117.188 58.5938C117.843 65.7013 117.731 72.8463 117.773 79.9805C117.822 81.9564 117.87 83.9323 117.92 85.968C118.001 98.9985 116.131 107.927 110.156 119.531C107.789 112.167 108.251 108.15 110.156 100.781C110.483 97.5779 110.727 94.3653 110.898 91.1499C110.996 89.3825 111.094 87.6151 111.195 85.7941C111.288 83.9723 111.38 82.1505 111.475 80.2734C111.576 78.4154 111.677 76.5573 111.781 74.6429C112.029 70.0749 112.266 65.5062 112.5 60.9375C110.748 60.9919 108.995 61.0463 107.19 61.1023C104.882 61.1446 102.573 61.1869 100.195 61.2305C97.9113 61.2849 95.6272 61.3392 93.2739 61.3953C86.602 60.9293 83.1499 59.3059 77.3438 56.25C72.1062 58.0854 72.1062 58.0854 67.9688 60.9375C70.7902 55.0931 73.721 49.9654 77.3438 44.5312Z" fill="white"/>
<path d="M203.906 58.5938C205.453 58.5938 207 58.5938 208.594 58.5938C211.956 67.7166 215.293 76.848 218.607 85.988C219.737 89.0934 220.874 92.1963 222.018 95.2967C223.664 99.7645 225.286 104.241 226.904 108.719C227.886 111.407 228.868 114.095 229.88 116.864C232.031 124.219 232.031 124.219 232.031 135.938C220.43 141.738 220.43 141.738 208.594 147.656C207.047 146.109 205.5 144.563 203.906 142.969C210.867 139.875 217.828 136.781 225 133.594C220.869 112.941 214.448 93.3063 206.836 73.6816C203.906 65.625 203.906 65.625 203.906 58.5938Z" fill="white"/>
<path d="M82.0312 58.5938C92.0859 59.3672 102.141 60.1406 112.5 60.9375C112.628 67.1882 112.72 73.4361 112.793 79.6875C112.832 81.4308 112.872 83.174 112.912 84.9701C113.019 97.2785 111.228 107.699 107.812 119.531C106.266 117.211 104.719 114.891 103.125 112.5C103.898 110.18 104.672 107.859 105.469 105.469C105.806 102.343 106.045 99.2058 106.21 96.0663C106.309 94.2913 106.407 92.5163 106.508 90.6876C106.6 88.8461 106.692 87.0047 106.787 85.1074C106.888 83.2388 106.99 81.3701 107.094 79.4449C107.342 74.8387 107.578 70.2319 107.812 65.625C104.864 65.77 101.915 65.915 98.877 66.0645C93.8507 66.3116 93.8507 66.3116 89.0625 65.625C86.7422 63.3047 84.4219 60.9844 82.0312 58.5938Z" fill="#EC5E80"/>
<path d="M77.3438 58.5938C83.2031 60.9375 83.2031 60.9375 89.0625 63.2812C94.514 64.1749 99.9823 64.9795 105.469 65.625C105.469 76.4531 105.469 87.2812 105.469 98.4375C104.695 98.4375 103.922 98.4375 103.125 98.4375C103.125 89.1562 103.125 79.875 103.125 70.3125C98.4844 70.3125 93.8437 70.3125 89.0625 70.3125C87.0322 69.4424 85.002 68.5723 82.9102 67.6758C81.0732 66.999 79.2363 66.3223 77.3438 65.625C74.1974 67.144 71.0758 68.7146 67.9688 70.3125C61.6608 70.75 55.5531 70.5236 49.2188 70.3125C49.2188 68.7656 49.2188 67.2188 49.2188 65.625C50.8563 65.3138 52.4938 65.0026 54.1809 64.682C57.3804 64.0611 57.3804 64.0611 60.6445 63.4277C62.7654 63.0199 64.8864 62.612 67.0715 62.1918C72.6552 61.1727 72.6552 61.1727 77.3438 58.5938Z" fill="white"/>
<path d="M60.9375 91.4062C63.5479 94.3066 63.5479 94.3066 66.2109 97.2656C72.3606 104.176 72.3606 104.176 82.0312 103.125C88.4348 98.6283 88.4348 98.6283 93.75 93.75C93.0176 100.488 93.0176 100.488 91.4062 107.812C84.375 112.5 84.375 112.5 76.1719 112.207C67.9688 110.156 67.9688 110.156 63.4277 105.908C60.9375 100.781 60.9375 100.781 60.9375 91.4062Z" fill="#EC5E80"/>
<path d="M196.875 199.219C209.733 212.077 214.563 237.769 215.625 255.469C214.078 255.469 212.531 255.469 210.938 255.469C209.079 249.561 207.224 243.653 205.371 237.744C204.851 236.093 204.332 234.442 203.796 232.741C200.552 222.388 197.468 212.007 194.531 201.562C195.305 200.789 196.078 200.016 196.875 199.219Z" fill="white"/>
<path d="M77.3438 44.5312C79.4465 46.7791 79.4465 46.7791 81.5918 49.0723C92.2188 55.9486 102.418 55.8148 114.844 56.25C114.07 57.7969 113.297 59.3437 112.5 60.9375C108.399 61.0648 104.297 61.1553 100.195 61.2305C97.9113 61.2849 95.6272 61.3392 93.2739 61.3953C86.602 60.9293 83.1499 59.3059 77.3438 56.25C72.1062 58.0854 72.1062 58.0854 67.9688 60.9375C70.7902 55.0931 73.721 49.9654 77.3438 44.5312Z" fill="white"/>
<path d="M185.157 58.5938C186.704 58.5938 188.25 58.5938 189.844 58.5938C190.155 60.3461 190.467 62.0984 190.787 63.9038C191.201 66.212 191.615 68.5203 192.041 70.8984C192.653 74.3245 192.653 74.3245 193.277 77.8198C194.375 84.2097 194.375 84.2097 196.152 89.6118C196.391 90.9774 196.63 92.343 196.875 93.75C195.329 95.2969 193.782 96.8437 192.188 98.4375C186.813 84.6155 184.347 73.4389 185.157 58.5938Z" fill="white"/>
<path d="M128.906 110.156C133.547 111.703 138.188 113.25 142.969 114.844C142.969 117.164 142.969 119.484 142.969 121.875C134.848 125.355 134.848 125.355 126.562 128.906C125.016 127.359 123.469 125.813 121.875 124.219C124.969 121.898 128.062 119.578 131.25 117.188C130.477 114.867 129.703 112.547 128.906 110.156Z" fill="white"/>
<path d="M131.25 166.406C132.023 168.727 132.797 171.047 133.594 173.438C130.571 176.662 127.437 179.784 124.219 182.812C122.672 182.812 121.125 182.812 119.531 182.812C119.531 184.359 119.531 185.906 119.531 187.5C122.625 188.273 125.719 189.047 128.906 189.844C125.039 190.617 121.172 191.391 117.188 192.188C116.414 188.32 115.641 184.453 114.844 180.469C117.116 179.019 119.388 177.568 121.729 176.074C128.973 171.898 128.973 171.898 131.25 166.406Z" fill="white"/>
<path d="M199.219 107.812C205.232 113.825 205.173 118.305 206.25 126.562C202.383 128.109 198.516 129.656 194.531 131.25C195.605 123.119 196.62 115.608 199.219 107.812Z" fill="#EC5E80"/>
<path d="M178.125 58.5938C179.672 58.5938 181.219 58.5938 182.812 58.5938C181.659 75.9014 181.659 75.9014 175.635 83.2031C174.136 84.3633 172.638 85.5234 171.094 86.7188C169.547 85.1719 168 83.625 166.406 82.0312C167.47 81.2095 168.533 80.3877 169.629 79.541C174.953 73.1931 176.175 66.5439 178.125 58.5938Z" fill="white"/>
<path d="M154.688 58.5938C156.234 58.5938 157.781 58.5938 159.375 58.5938C156.751 69.9628 154.375 76.8232 145.312 84.375C144.539 82.8281 143.766 81.2813 142.969 79.6875C145.303 74.6155 145.303 74.6155 148.682 68.8477C149.79 66.9322 150.899 65.0167 152.042 63.0432C152.915 61.5749 153.788 60.1066 154.688 58.5938Z" fill="white"/>
<path d="M91.4062 93.75C93.0176 97.998 93.0176 97.998 93.75 103.125C91.1133 107.227 91.1133 107.227 86.7188 110.156C80.4199 110.596 80.4199 110.596 75 110.156C80.4687 104.688 85.9375 99.2187 91.4062 93.75Z" fill="#EC5E80"/>
<path d="M178.125 142.968C171.438 148.416 165.139 151.759 157.031 154.687C155.484 153.14 153.938 151.593 152.344 149.999C155.307 148.359 158.289 146.755 161.279 145.165C162.938 144.268 164.597 143.371 166.306 142.446C171.094 140.624 171.094 140.624 178.125 142.968Z" fill="white"/>
<path d="M189.844 126.562C190.617 128.109 191.391 129.656 192.188 131.25C194.508 132.023 196.828 132.797 199.219 133.594C187.088 141.147 187.088 141.147 182.812 142.969C180.492 142.195 178.172 141.422 175.781 140.625C177.667 139.61 179.552 138.595 181.494 137.549C188.153 134.051 188.153 134.051 189.844 126.562Z" fill="white"/>
<path d="M77.3438 147.656C78.8906 147.656 80.4375 147.656 82.0312 147.656C84.375 154.688 86.7188 161.719 89.0625 168.75C84.5215 167.432 84.5215 167.432 79.6875 164.062C77.9297 155.566 77.9297 155.566 77.3438 147.656Z" fill="white"/>
<path d="M203.906 58.5938C205.453 58.5938 207 58.5938 208.594 58.5938C212.899 67.4575 213.652 72.5289 210.938 82.0312C206.522 74.3778 205.095 67.3099 203.906 58.5938Z" fill="white"/>
<path d="M96.0942 168.75C96.8676 168.75 97.6411 168.75 98.4379 168.75C99.2114 178.031 99.9848 187.313 100.782 196.875C98.4614 198.035 98.4614 198.035 96.0942 199.219C93.8287 191.902 93.7741 186.279 94.7758 178.711C95.0145 176.838 95.2532 174.965 95.4991 173.035C95.6955 171.621 95.8918 170.207 96.0942 168.75Z" fill="white"/>
<path d="M133.595 159.375C138.235 160.535 138.235 160.535 142.97 161.719C138.868 170.801 138.868 170.801 133.595 173.438C130.958 164.648 130.958 164.648 133.595 159.375Z" fill="white"/>
<path d="M93.75 119.531C96.0703 120.305 98.3906 121.078 100.781 121.875C93.8203 127.676 93.8203 127.676 86.7188 133.594C85.1719 132.047 83.625 130.5 82.0312 128.906C87.4512 124.072 87.4512 124.072 93.75 119.531Z" fill="white"/>
<path d="M189.844 77.3438C193.912 83.4449 195.964 86.6881 196.876 93.75C195.329 95.2969 193.782 96.8437 192.188 98.4375C188.393 92.4091 187.397 89.8203 188.38 82.6172C188.863 80.877 189.346 79.1367 189.844 77.3438Z" fill="white"/>
<path d="M83.7891 60.6442C86.3994 61.9494 86.3994 61.9494 89.0625 63.281C87.5156 64.8278 85.9688 66.3747 84.375 67.9685C82.0547 67.195 79.7344 66.4216 77.3438 65.6247C75.0234 66.3981 72.7031 67.1716 70.3125 67.9685C69.5391 66.4216 68.7656 64.8747 67.9688 63.281C74.3649 59.0169 76.2562 58.2474 83.7891 60.6442Z" fill="white"/>
</svg>
