<svg width="300" height="300" viewBox="0 0 300 300" fill="none" xmlns="http://www.w3.org/2000/svg">
<g clip-path="url(#clip0_454_849)">
<path d="M120.85 47.0215C131.722 53.1496 139.701 61.4327 145.312 72.6563C146.122 84.5665 145.369 96.1124 142.969 107.813C145.434 107.039 147.899 106.266 150.439 105.469C157.942 103.501 163.456 102.662 171.094 103.125C171.094 104.672 171.094 106.219 171.094 107.813C166.453 110.133 161.812 112.453 157.031 114.844C158.191 116.342 159.352 117.841 160.547 119.385C165.188 128.86 165.495 137.257 164.062 147.656C161.673 152.994 161.673 152.994 159.375 157.031C161.502 157.611 163.629 158.191 165.82 158.789C173.68 161.812 177.368 164.812 182.812 171.094C191.758 167.449 197.325 161.635 203.906 154.688C201.117 142.834 194.058 138.612 184.406 132.257C183.106 131.151 181.807 130.046 180.469 128.906C180.469 126.586 180.469 124.266 180.469 121.875C191.895 126.27 191.895 126.27 194.531 128.906C199.391 128.937 199.391 128.937 204.932 128.32C206.814 128.163 208.696 128.006 210.635 127.844C216.513 126.927 216.513 126.927 220.312 119.531C221.37 114.728 221.37 114.728 221.777 109.717C222.212 105.294 222.212 105.294 222.656 100.781C216.926 101.223 216.926 101.223 210.937 103.125C207.75 107.737 207.75 107.737 206.25 112.5C188.839 110.156 188.839 110.156 180.469 107.813C180.469 105.492 180.469 103.172 180.469 100.781C188.6 101.855 196.111 102.87 203.906 105.469C204.245 103.97 204.583 102.472 204.932 100.928C206.25 96.0938 206.25 96.0938 208.594 93.75C213.28 93.6544 217.97 93.6503 222.656 93.75C224.977 98.3907 224.977 98.3907 227.344 103.125C230.002 102.69 232.661 102.255 235.4 101.807C239.533 101.299 239.533 101.299 243.75 100.781C249.988 107.019 246.84 124.506 246.914 133.443C246.953 136.839 247.017 140.235 247.107 143.63C247.944 175.433 247.944 175.433 240.179 186.31C238.264 188.25 236.348 190.189 234.375 192.188C230.895 191.027 230.895 191.027 227.344 189.844C229.238 187.451 231.132 185.058 233.084 182.593C241.928 168.443 240.893 153.334 240.967 137.109C241.026 134.064 241.085 131.019 241.145 127.881C241.283 120.409 241.368 112.941 241.406 105.469C238.312 107.016 235.219 108.563 232.031 110.156C232.046 111.774 232.061 113.392 232.076 115.06C232.097 122.461 231.992 129.855 231.885 137.256C231.91 139.801 231.936 142.347 231.963 144.969C231.686 157.989 231.285 166.49 221.759 175.928C218.941 178.232 216.115 180.527 213.281 182.813C211.021 185.445 208.818 188.129 206.689 190.869C204.998 192.851 203.306 194.833 201.562 196.875C200.016 196.875 198.469 196.875 196.875 196.875C198.433 184.857 207.508 178.124 215.552 169.775C220.044 164.384 221.771 161.518 222.656 154.688C209.418 159.348 199.969 166.338 192.187 178.125C191.173 184.932 191.438 190.931 191.949 197.781C192.433 210.213 187.323 217.94 179.004 227.051C177.167 228.694 175.33 230.338 173.437 232.031C169.728 235.741 170.28 239.954 169.775 245.068C169.579 247.005 169.383 248.942 169.18 250.937C169.038 252.432 168.896 253.928 168.75 255.469C167.203 255.469 165.656 255.469 164.062 255.469C164.062 249.281 164.062 243.094 164.062 236.719C154.781 236.719 145.5 236.719 135.937 236.719C135.937 242.906 135.937 249.094 135.937 255.469C134.391 255.469 132.844 255.469 131.25 255.469C131.19 254.028 131.129 252.587 131.067 251.102C130.702 239.174 130.702 239.174 124.072 229.981C121.824 228.675 121.824 228.675 119.531 227.344C119.531 225.024 119.531 222.703 119.531 220.313C126.497 222.948 132.034 225.523 138.281 229.688C149.736 231.383 159.212 230.827 169.775 226.025C179.196 217.064 182.242 208.471 183.838 195.703C182.581 185.652 179.902 178.887 173.437 171.094C162.516 163.22 151.344 161.979 138.281 164.063C129.747 168.172 125.391 171.835 119.824 179.443C116.115 190.778 116.62 201.461 117.187 213.281C113.707 212.121 113.707 212.121 110.156 210.938C106.983 204.591 108.337 200.256 108.984 193.213C109.118 183.938 108.686 179.42 103.455 171.661C92.2033 160.017 92.2033 160.017 77.3437 154.688C81.5012 167.434 89.5337 174.954 98.6755 184.442C103.125 189.844 103.125 189.844 103.125 196.875C94.1406 193.257 89.1021 187.677 82.7637 180.469C80.9177 178.39 79.0717 176.312 77.1698 174.17C70.601 166.282 69.9594 161.913 69.5709 151.813C69.4727 149.396 69.3745 146.979 69.2734 144.489C69.1812 141.957 69.0891 139.425 68.9941 136.816C68.8929 134.267 68.7917 131.717 68.6874 129.089C68.4383 122.779 68.1992 116.468 67.9687 110.156C64.875 108.609 61.7812 107.063 58.5937 105.469C58.5937 116.297 58.5937 127.125 58.5937 138.281C57.0469 138.281 55.5 138.281 53.9062 138.281C53.9062 126.68 53.9062 115.078 53.9062 103.125C56.2266 102.352 58.5469 101.578 60.9375 100.781C60.7744 99.3341 60.6112 97.887 60.4431 96.3959C59.49 81.4867 62.01 72.7152 70.9625 60.7361C84.7444 45.423 100.969 41.0922 120.85 47.0215Z" fill="white"/>
<path d="M119.585 53.2828C128.852 58.0532 134.677 62.9039 138.28 72.6554C139.667 88.0432 139.098 104.284 133.52 118.78C128.905 124.218 128.905 124.218 120.016 125.362C116.581 125.285 113.146 125.145 109.716 124.95C107.959 124.897 106.202 124.845 104.392 124.79C100.061 124.652 95.7328 124.442 91.4054 124.218C91.4054 126.538 91.4054 128.859 91.4054 131.249C94.8859 130.089 94.8859 130.089 98.4367 128.905C114.628 127.386 127.973 129.852 142.968 135.937C142.968 133.616 142.968 131.296 142.968 128.905C139.487 127.745 139.487 127.745 135.937 126.562C136.71 122.694 137.484 118.827 138.28 114.843C146.919 115.323 149.579 116.733 155.566 123.193C160.606 133.855 159.683 138.629 157.03 149.999C151.863 155.167 149.27 155.853 142.382 157.763C131.668 161.121 125.288 165.751 117.187 173.437C107.92 169.39 102.686 163.66 96.038 156.225C90.2298 151.358 84.5784 149.694 77.3429 147.655C77.2009 145.03 77.0589 142.404 76.9126 139.699C76.7148 136.248 76.5164 132.796 76.3175 129.345C76.2254 127.615 76.1332 125.886 76.0383 124.103C75.5996 116.646 75.0292 110.245 72.6554 103.124C71.1086 103.124 69.5617 103.124 67.9679 103.124C66.5172 80.4765 66.5172 80.4765 71.63 69.4328C85.5521 54.4398 98.7768 45.7307 119.585 53.2828Z" fill="#EC5E80"/>
<path d="M215.771 93.6035C219.179 93.676 219.179 93.676 222.656 93.75C224.203 96.8438 225.75 99.9375 227.344 103.125C230.002 102.69 232.661 102.255 235.4 101.807C239.533 101.299 239.533 101.299 243.75 100.781C249.988 107.019 246.84 124.506 246.914 133.443C246.953 136.839 247.017 140.235 247.107 143.63C247.944 175.433 247.944 175.433 240.179 186.31C238.264 188.249 236.349 190.189 234.375 192.188C230.895 191.027 230.895 191.027 227.344 189.844C229.238 187.451 231.132 185.058 233.084 182.593C241.928 168.443 240.893 153.333 240.967 137.109C241.026 134.064 241.085 131.019 241.145 127.881C241.283 120.409 241.368 112.941 241.406 105.469C236.766 107.789 236.766 107.789 232.031 110.156C232.046 111.774 232.061 113.392 232.076 115.059C232.097 122.461 231.992 129.855 231.885 137.256C231.91 139.801 231.936 142.347 231.963 144.969C231.686 157.989 231.285 166.49 221.759 175.928C218.941 178.232 216.115 180.527 213.281 182.812C211.021 185.445 208.818 188.129 206.689 190.869C204.998 192.851 203.306 194.833 201.562 196.875C200.016 196.875 198.469 196.875 196.875 196.875C198.411 184.808 207.659 178.087 215.781 169.775C221.284 164.054 221.284 164.054 220.312 154.688C217.992 153.141 215.672 151.594 213.281 150C217.148 150 221.016 150 225 150C225 143.039 225 136.078 225 128.906C223.646 130.066 222.293 131.227 220.898 132.422C215.625 135.938 215.625 135.938 206.25 135.938C207.797 139.805 209.344 143.672 210.938 147.656C201.562 147.656 201.562 147.656 195.703 142.236C193.77 140.158 191.836 138.079 189.844 135.938C188.055 134.681 186.267 133.424 184.424 132.129C183.119 131.065 181.813 130.002 180.469 128.906C180.469 126.586 180.469 124.266 180.469 121.875C191.895 126.27 191.895 126.27 194.531 128.906C199.391 128.937 199.391 128.937 204.932 128.32C207.755 128.085 207.755 128.085 210.635 127.844C216.513 126.926 216.513 126.926 220.312 119.531C221.37 114.728 221.37 114.728 221.777 109.717C222.067 106.768 222.357 103.819 222.656 100.781C216.926 101.223 216.926 101.223 210.938 103.125C207.75 107.737 207.75 107.737 206.25 112.5C188.839 110.156 188.839 110.156 180.469 107.812C180.469 105.492 180.469 103.172 180.469 100.781C188.6 101.855 196.111 102.87 203.906 105.469C204.245 103.97 204.583 102.472 204.932 100.928C207.02 93.2687 207.433 93.7737 215.771 93.6035Z" fill="white"/>
<path d="M220.312 128.906C221.859 128.906 223.406 128.906 225 128.906C226.173 136.237 226.557 142.707 225 150C219.587 155.938 213.014 159.796 206.25 164.062C200.415 168.164 195.749 171.882 192.188 178.125C191.516 184.738 191.754 190.984 192.114 197.617C192.26 210.142 187.428 217.825 179.004 227.051C176.249 229.516 176.249 229.516 173.438 232.031C169.728 235.741 170.28 239.954 169.775 245.068C169.579 247.005 169.383 248.942 169.18 250.937C168.967 253.18 168.967 253.18 168.75 255.469C167.203 255.469 165.656 255.469 164.062 255.469C164.062 249.281 164.062 243.094 164.062 236.719C154.781 236.719 145.5 236.719 135.938 236.719C135.938 242.906 135.938 249.094 135.938 255.469C134.391 255.469 132.844 255.469 131.25 255.469C131.19 254.028 131.129 252.586 131.067 251.102C130.702 239.174 130.702 239.174 124.072 229.98C122.574 229.11 121.075 228.24 119.531 227.344C119.531 225.023 119.531 222.703 119.531 220.312C126.497 222.948 132.034 225.523 138.281 229.688C149.736 231.383 159.212 230.827 169.775 226.025C179.196 217.064 182.242 208.471 183.838 195.703C182.297 183.376 177.763 174.818 168.164 166.553C166.811 165.731 165.457 164.909 164.062 164.062C168.164 162.305 168.164 162.305 173.438 161.719C178.711 166.26 178.711 166.26 182.812 171.094C190.551 167.748 195.467 163.699 201.123 157.471C202.588 155.909 204.054 154.347 205.563 152.737C209.256 147.704 209.256 147.704 207.889 141.183C207.078 138.587 207.078 138.587 206.25 135.938C208.135 135.212 210.021 134.487 211.963 133.74C217.713 131.805 217.713 131.805 220.312 128.906Z" fill="white"/>
<path d="M140.625 173.438C146.813 173.438 153 173.438 159.375 173.438C159.375 178.078 159.375 182.719 159.375 187.5C164.016 187.5 168.656 187.5 173.438 187.5C173.438 193.688 173.438 199.875 173.438 206.25C168.797 206.25 164.156 206.25 159.375 206.25C159.375 210.891 159.375 215.531 159.375 220.312C153.187 220.312 147 220.312 140.625 220.312C140.625 215.672 140.625 211.031 140.625 206.25C135.984 206.25 131.344 206.25 126.562 206.25C126.562 200.062 126.562 193.875 126.562 187.5C131.203 187.5 135.844 187.5 140.625 187.5C140.625 182.859 140.625 178.219 140.625 173.438Z" fill="white"/>
<path d="M53.9056 147.656C55.4525 147.656 56.9994 147.656 58.5931 147.656C58.4904 148.995 58.3877 150.333 58.2818 151.712C58.3558 174.981 74.4596 190.967 89.5746 207.12C99.18 217.847 101.759 224.596 101.806 239.209C101.545 243.853 101.231 248.496 100.781 253.125C97.3002 254.285 97.3002 254.285 93.7494 255.469C94.0485 253.819 94.3476 252.17 94.6557 250.47C96.1562 235.544 94.2698 226.327 85.2361 214.581C78.084 205.934 70.7296 197.528 63.125 189.276C53.0829 177.613 52.618 168.41 53.4112 153.149C53.5744 151.337 53.7375 149.524 53.9056 147.656Z" fill="white"/>
<path d="M145.312 178.125C148.406 178.125 151.5 178.125 154.688 178.125C154.688 182.766 154.688 187.406 154.688 192.188C159.328 192.188 163.969 192.188 168.75 192.188C168.75 195.281 168.75 198.375 168.75 201.562C164.109 201.562 159.469 201.562 154.688 201.562C154.688 206.203 154.688 210.844 154.688 215.625C151.594 215.625 148.5 215.625 145.312 215.625C145.312 210.984 145.312 206.344 145.312 201.562C140.672 201.562 136.031 201.562 131.25 201.562C131.25 198.469 131.25 195.375 131.25 192.188C135.891 192.188 140.531 192.188 145.312 192.188C145.312 187.547 145.312 182.906 145.312 178.125Z" fill="#EC5E80"/>
<path d="M180.469 217.969C181.242 219.516 182.016 221.062 182.812 222.656C179.985 224.904 179.985 224.904 177.1 227.197C169.326 236.487 169.032 243.687 168.75 255.469C167.203 255.469 165.656 255.469 164.062 255.469C164.062 249.281 164.062 243.094 164.062 236.719C154.781 236.719 145.5 236.719 135.938 236.719C135.938 242.906 135.938 249.094 135.938 255.469C134.391 255.469 132.844 255.469 131.25 255.469C131.19 254.028 131.129 252.586 131.067 251.102C130.702 239.174 130.702 239.174 124.072 229.98C122.574 229.11 121.075 228.24 119.531 227.344C119.531 225.023 119.531 222.703 119.531 220.312C126.497 222.948 132.034 225.523 138.281 229.688C151.148 231.859 161.451 230.818 172.559 223.828C175.232 221.926 177.884 219.99 180.469 217.969Z" fill="white"/>
<path d="M236.719 100.781C241.553 101.807 241.553 101.807 246.094 103.125C246.385 113.172 246.597 123.216 246.737 133.266C246.796 136.678 246.876 140.09 246.978 143.501C247.91 175.509 247.91 175.509 240.189 186.319C238.27 188.256 236.352 190.192 234.375 192.188C232.055 191.414 229.734 190.641 227.344 189.844C229.238 187.451 231.132 185.058 233.084 182.593C241.928 168.443 240.893 153.333 240.967 137.109C241.026 134.064 241.085 131.019 241.145 127.881C241.283 120.409 241.368 112.941 241.406 105.469C239.086 104.695 236.766 103.922 234.375 103.125C235.148 102.352 235.922 101.578 236.719 100.781Z" fill="white"/>
<path d="M215.332 92.8711C218.958 93.3062 218.958 93.3062 222.656 93.75C227.051 99.6094 227.051 99.6094 229.688 105.469C228.141 105.469 226.594 105.469 225 105.469C224.227 107.789 223.453 110.109 222.656 112.5C222.656 108.633 222.656 104.766 222.656 100.781C216.926 101.223 216.926 101.223 210.938 103.125C207.75 107.737 207.75 107.737 206.25 112.5C188.839 110.156 188.839 110.156 180.469 107.812C180.469 105.492 180.469 103.172 180.469 100.781C188.6 101.855 196.111 102.87 203.906 105.469C204.245 103.97 204.583 102.472 204.932 100.928C206.943 93.5542 207.445 93.8998 215.332 92.8711Z" fill="white"/>
<path d="M220.312 196.875C221.859 196.875 223.406 196.875 225 196.875C223.639 205.459 220.169 209.371 214.306 215.625C205.043 226.95 204.8 235.791 205.673 250.058C205.863 251.844 206.054 253.629 206.25 255.469C203.929 254.695 201.609 253.922 199.218 253.125C197.693 239.606 196.384 227.615 203.311 215.497C207.967 209.77 212.724 204.408 217.968 199.219C218.742 198.445 219.515 197.672 220.312 196.875Z" fill="white"/>
<path d="M180.469 121.875C191.895 126.27 191.895 126.27 194.531 128.906C198.092 129.075 201.66 129.103 205.225 129.053C207.161 129.032 209.098 129.01 211.093 128.989C213.336 128.948 213.336 128.948 215.625 128.906C215.625 131.227 215.625 133.547 215.625 135.938C212.531 135.938 209.438 135.938 206.25 135.938C207.797 139.805 209.344 143.672 210.938 147.656C201.562 147.656 201.562 147.656 195.703 142.236C193.77 140.158 191.836 138.079 189.844 135.938C188.055 134.681 186.267 133.424 184.424 132.129C183.119 131.065 181.813 130.002 180.469 128.906C180.469 126.586 180.469 124.266 180.469 121.875Z" fill="white"/>
<path d="M63.2812 84.375C64.0547 84.375 64.8281 84.375 65.625 84.375C65.8667 86.937 66.1084 89.499 66.3574 92.1387C67.9056 100.443 68.4438 102.967 75 107.812C72.6797 108.586 70.3594 109.359 67.9688 110.156C64.875 108.609 61.7813 107.063 58.5938 105.469C58.5938 116.297 58.5938 127.125 58.5938 138.281C57.0469 138.281 55.5 138.281 53.9062 138.281C53.9062 126.68 53.9062 115.078 53.9062 103.125C56.2266 102.352 58.5469 101.578 60.9375 100.781C60.8892 98.5093 60.8408 96.2373 60.791 93.8965C60.9375 86.7188 60.9375 86.7188 63.2812 84.375Z" fill="white"/>
<path d="M140.625 100.781C141.398 103.102 142.172 105.422 142.969 107.812C145.434 107.039 147.899 106.266 150.439 105.469C157.942 103.501 163.456 102.662 171.094 103.125C171.094 104.672 171.094 106.219 171.094 107.812C166.453 110.133 161.812 112.453 157.031 114.844C158.191 116.681 159.352 118.518 160.547 120.41C164.062 126.562 164.062 126.562 164.062 131.25C161.742 131.25 159.422 131.25 157.031 131.25C153.766 126.659 150.65 121.96 147.656 117.188C146.303 115.931 144.949 114.674 143.555 113.379C140.625 110.156 140.625 110.156 140.625 100.781Z" fill="white"/>
<path d="M222.656 157.031C224.977 160.125 227.297 163.219 229.688 166.406C228.639 167.427 227.591 168.449 226.511 169.501C219.532 176.375 212.8 183.203 206.689 190.869C204.998 192.851 203.306 194.833 201.562 196.875C200.016 196.875 198.469 196.875 196.875 196.875C198.125 187.258 203.223 182.498 209.766 175.635C217.854 167.337 217.854 167.337 222.656 157.031Z" fill="white"/>
<path d="M140.625 79.6875C142.172 79.6875 143.719 79.6875 145.312 79.6875C144.979 83.0087 144.635 86.3288 144.287 89.6484C144.097 91.4974 143.906 93.3464 143.71 95.2515C143.024 100.368 141.983 105.181 140.625 110.156C142.172 110.93 143.719 111.703 145.312 112.5C138.352 118.301 138.352 118.301 131.25 124.219C133.149 114.577 135.191 104.969 137.256 95.3613C138.203 90.9518 138.203 90.9518 139.169 86.4532C139.65 84.2206 140.13 81.9879 140.625 79.6875Z" fill="white"/>
<path d="M222.656 131.25C222.656 136.664 222.656 142.078 222.656 147.656C217.09 147.949 217.09 147.949 210.938 147.656C209.391 146.109 207.844 144.563 206.25 142.969C206.25 140.648 206.25 138.328 206.25 135.938C217.383 131.25 217.383 131.25 222.656 131.25Z" fill="#EC5E80"/>
<path d="M97.5586 86.4258C99.3955 86.5225 101.232 86.6191 103.125 86.7188C103.125 88.2656 103.125 89.8125 103.125 91.4062C100.031 91.4062 96.9375 91.4062 93.75 91.4062C95.2969 97.5938 96.8437 103.781 98.4375 110.156C95.3437 109.383 92.25 108.609 89.0625 107.812C87.5977 99.9023 87.5977 99.9023 86.7188 91.4062C91.4062 86.7188 91.4062 86.7188 97.5586 86.4258Z" fill="white"/>
<path d="M128.906 117.188C131.227 117.961 133.547 118.734 135.938 119.531C136.711 121.852 137.484 124.172 138.281 126.562C139.828 127.336 141.375 128.109 142.969 128.906C142.969 131.227 142.969 133.547 142.969 135.938C132.527 133.617 132.527 133.617 121.875 131.25C123.422 130.477 124.969 129.703 126.562 128.906C128.099 122.983 128.099 122.983 128.906 117.188Z" fill="white"/>
<path d="M187.5 196.875C188.273 196.875 189.047 196.875 189.844 196.875C189.07 203.836 188.297 210.797 187.5 217.969C184.406 218.742 181.313 219.516 178.125 220.312C179.239 216.843 180.364 213.377 181.494 209.912C182.12 207.982 182.745 206.051 183.389 204.062C185.156 199.219 185.156 199.219 187.5 196.875Z" fill="white"/>
<path d="M107.813 187.5C112.581 190.817 114.619 193.476 115.833 199.173C116.397 203.864 116.802 208.573 117.188 213.281C114.867 212.508 112.547 211.734 110.156 210.938C106.389 203.403 107.678 195.853 107.813 187.5Z" fill="white"/>
<path d="M67.9688 70.3125C70.4689 77.8129 70.1917 81.7628 69.2871 89.502C69.0484 91.6138 68.8098 93.7256 68.5638 95.9015C68.3675 97.5118 68.1711 99.1221 67.9688 100.781C67.1953 100.781 66.4219 100.781 65.625 100.781C65.1174 97.5908 65.1174 97.5908 64.5996 94.3359C63.5451 87.0474 63.5451 87.0474 61.5234 81.5918C61.3301 80.1899 61.1367 78.7881 60.9375 77.3438C64.3066 73.2422 64.3066 73.2422 67.9688 70.3125Z" fill="white"/>
<path d="M241.406 173.438C242.18 175.758 242.953 178.078 243.75 180.469C239.209 186.768 239.209 186.768 234.375 192.188C232.055 191.414 229.734 190.641 227.344 189.844C236.133 176.074 236.133 176.074 241.406 173.438Z" fill="white"/>
<path d="M213.281 93.75C218.848 94.3359 218.848 94.3359 225 96.0938C228.076 100.928 228.076 100.928 229.688 105.469C228.141 105.469 226.594 105.469 225 105.469C224.227 107.789 223.453 110.109 222.656 112.5C222.656 108.633 222.656 104.766 222.656 100.781C218.789 100.008 214.922 99.2344 210.938 98.4375C211.711 96.8906 212.484 95.3438 213.281 93.75Z" fill="white"/>
<path d="M222.656 157.031C224.977 160.125 227.297 163.219 229.688 166.406C225.047 169.5 220.406 172.594 215.625 175.781C215.625 167.401 218.176 163.938 222.656 157.031Z" fill="white"/>
<path d="M140.625 79.6875C142.172 79.6875 143.719 79.6875 145.312 79.6875C144.539 86.6484 143.766 93.6094 142.969 100.781C140.648 100.781 138.328 100.781 135.938 100.781C137.484 93.8203 139.031 86.8594 140.625 79.6875Z" fill="white"/>
<path d="M97.5586 86.4258C99.3955 86.5225 101.232 86.6191 103.125 86.7188C103.125 88.2656 103.125 89.8125 103.125 91.4062C100.031 91.4062 96.9375 91.4062 93.75 91.4062C92.9766 94.5 92.2031 97.5937 91.4062 100.781C89.8594 97.6875 88.3125 94.5938 86.7188 91.4062C91.4062 86.7188 91.4062 86.7188 97.5586 86.4258Z" fill="white"/>
<path d="M220.312 196.875C221.859 196.875 223.406 196.875 225 196.875C224.561 201.27 224.561 201.27 222.656 206.25C216.65 209.18 216.65 209.18 210.938 210.938C213.637 205.153 215.737 201.45 220.312 196.875Z" fill="white"/>
</g>
<defs>
<clipPath id="clip0_454_849">
<rect width="300" height="300" fill="white"/>
</clipPath>
</defs>
</svg>
