<svg width="194" height="212" viewBox="0 0 194 212" fill="none" xmlns="http://www.w3.org/2000/svg">
<g clip-path="url(#clip0_456_2284)">
<mask id="mask0_456_2284" style="mask-type:luminance" maskUnits="userSpaceOnUse" x="-53" y="-44" width="300" height="300">
<path d="M247 -44H-53V256H247V-44Z" fill="white"/>
</mask>
<g mask="url(#mask0_456_2284)">
<path d="M40.75 0.53125C46.164 0.53125 51.578 0.53125 57.156 0.53125C61.572 8.18475 62.999 15.2526 64.187 23.9687C70.616 16.469 75.04 9.89455 78.25 0.53125C83.664 0.53125 89.078 0.53125 94.656 0.53125C93.727 10.9796 91.501 19.2423 87.478 28.9493C81.27 45.1891 79.727 63.5551 85.281 80.2191C87.58 99.3241 81.6 111.522 71.219 127.094C72.717 129.221 74.216 131.348 75.76 133.539C82.002 143.375 83.253 150.153 83.084 161.664C83.063 163.537 83.042 165.41 83.02 167.34C82.993 168.754 82.965 170.168 82.937 171.625C80.617 171.625 78.297 171.625 75.906 171.625C75.846 169.927 75.785 168.229 75.723 166.48C74.901 152.46 73.94 142.648 64.187 131.781C59.265 128.527 59.265 128.527 54.812 127.094C53.991 128.109 53.169 129.124 52.322 130.17C47.781 134.125 47.781 134.125 39.4316 137.494C31.5431 140.392 31.5431 140.392 28.0058 145.111C25.2281 156.531 25.685 165.961 29.0312 177.045C34.7211 184.691 39.2167 186.276 48.157 188.874C52.469 190.375 52.469 190.375 57.156 195.062C63.972 189.861 68.765 185.852 73.562 178.656C75.109 178.656 76.656 178.656 78.25 178.656C77.744 187.512 76.159 190.134 69.607 196.381C67.042 198.316 64.454 200.22 61.844 202.094C59.523 203.882 57.203 205.671 54.812 207.514C46.5343 212.17 43.0568 213.15 33.7187 211.469C19.9907 204.977 9.7285 196.644 3.0577 182.749C-1.5327 169.017 -1.8946 151.811 4.2754 138.666C5.4838 136.394 6.6923 134.122 7.9375 131.781C8.2905 127.198 8.5211 122.606 8.6699 118.012C9.5709 103.173 14.2113 95.4551 24.3437 84.9061C26.374 82.6831 28.4043 80.459 30.4961 78.168C35.4004 73.78 39.3866 70.965 45.4375 68.5C43.039 77.295 39.152 82.144 32.6933 88.275C23.1191 97.432 17.4931 106.936 14.9687 120.062C17.289 118.902 17.289 118.902 19.6562 117.719C20.2846 115.64 20.913 113.562 21.5605 111.42C25.7232 99.808 33.0447 92.252 42.2148 84.174C55.655 68.966 55.779 50.2659 55.252 30.8535C55.22 28.6012 55.188 26.3488 55.156 24.0283C55.074 18.5382 54.959 13.0511 54.812 7.56255C52.492 7.56255 50.172 7.56255 47.781 7.56255C48.555 9.64115 49.328 11.7198 50.125 13.8614C54.388 28.5841 54.971 46.93 50.125 61.4691C48.578 61.4691 47.031 61.4691 45.4375 61.4691C45.2955 58.8371 45.1535 56.206 45.0072 53.4945C44.0243 35.7733 42.992 18.1472 40.75 0.53125Z" fill="white"/>
<path d="M145.193 0.384766C147.852 0.433066 150.511 0.481366 153.25 0.531166C152.863 3.23827 152.477 5.94527 152.078 8.73437C147.85 42.51 147.85 42.51 157.132 74.13C161.768 79.642 166.952 84.108 172.742 88.376C179.942 94.875 183.345 101.112 184.753 110.706C184.894 114.322 184.894 114.322 185.037 118.012C185.437 129.115 185.437 129.115 190.75 138.812C190.75 141.133 190.75 143.453 190.75 145.844C181.313 142.698 179.613 137.671 174.344 129.438C168.928 122.846 164.648 121.191 156.326 119.623C153.485 119.066 153.485 119.066 150.586 118.497C149.145 118.24 147.704 117.983 146.219 117.719C146.219 120.813 146.219 123.906 146.219 127.094C148.297 127.239 150.376 127.384 152.518 127.533C163.584 130.248 168.544 136.384 175.076 145.404C178.603 156.627 177.888 166.159 173.758 176.898C168.14 185.726 164.179 191.656 153.836 194.477C152.096 194.67 150.355 194.863 148.562 195.062C147.789 198.156 147.016 201.25 146.219 204.438C165.047 200.469 165.047 200.469 179.278 188.251C184.03 177.129 184.876 164.813 186.062 152.875C188.383 152.875 190.703 152.875 193.094 152.875C194.291 169.104 193.46 181.605 183.719 195.062C176.493 202.843 168.34 208.932 157.938 211.469C149.002 210.59 149.002 210.59 141.531 209.125C141.531 207.578 141.531 206.031 141.531 204.438C140.274 204.292 139.018 204.147 137.723 203.998C126.254 200.075 119.667 193.05 113.699 182.904C108.213 164.311 110.13 149.239 118.094 131.781C119.641 129.461 121.187 127.141 122.781 124.75C121.331 123.058 119.881 121.366 118.387 119.623C108.513 106.555 108.096 96.097 108.719 80.219C117.304 87.311 117.463 94.555 118.973 105.121C120.623 111.392 122.283 113.893 127.469 117.719C135.626 117.107 139.307 115.295 146.219 110.688C152.64 110.761 158.604 111.988 164.969 113.031C159.857 103.108 153.239 96.432 145.102 88.999C141.171 84.493 140.133 81.369 139.188 75.531C143.729 77.436 143.729 77.436 148.562 80.219C149.336 82.539 150.109 84.859 150.906 87.25C152.26 87.878 153.613 88.507 155.008 89.154C165.455 94.668 170.926 103.237 175.076 113.91C175.874 116.956 175.874 116.956 176.688 120.062C175.14 103.815 167.288 94.415 156.619 82.709C141.677 65.586 140.759 52.1265 140.826 30.1119C141.513 21.8469 143.239 15.2677 146.219 7.56247C143.898 7.56247 141.578 7.56247 139.188 7.56247C138.414 19.9375 137.641 32.3125 136.844 45.0625C128.106 42.1501 126.91 38.3133 122.735 30.4598C120.415 26.0042 120.415 26.0042 116.482 21.332C112.783 16.0478 111.942 11.551 111.062 5.21877C108.742 4.44527 106.422 3.67187 104.031 2.87497C109.405 2.14257 109.405 2.14257 115.75 2.87497C119.971 8.00197 119.971 8.00197 123.514 14.5938C124.713 16.769 125.913 18.9443 127.148 21.1855C128.027 22.8774 128.907 24.5693 129.812 26.3125C130.124 24.6478 130.435 22.9831 130.755 21.2679C131.169 19.1138 131.583 16.9597 132.01 14.7402C132.418 12.5921 132.826 10.444 133.246 8.23077C135.275 -0.433434 135.701 0.551266 145.193 0.384766Z" fill="white"/>
<path d="M99.3438 0.53125C104.758 0.53125 110.172 0.53125 115.75 0.53125C114.203 2.07815 112.656 3.62505 111.062 5.21885C116.915 17.7919 122.729 27.8398 132.156 38.0312C132.93 38.0312 133.703 38.0312 134.5 38.0312C136.047 27.9766 137.594 17.9219 139.187 7.56255C141.508 7.56255 143.828 7.56255 146.219 7.56255C145.666 10.5173 145.666 10.5173 145.102 13.5317C141.461 37.5525 140.797 59.9981 155.594 80.2191C159.661 84.6691 163.874 88.8081 168.292 92.9081C175.479 100.113 178.814 107.361 179.471 117.426C179.253 119.891 179.253 119.891 179.031 122.406C172 117.719 172 117.719 169.949 111.273C164.498 95.527 151.766 85.7531 139.187 75.5311C145.577 86.0101 152.645 93.935 161.709 102.219C164.969 106 164.969 106 164.969 113.031C162.117 112.886 159.265 112.741 156.326 112.592C147.028 112.526 142.348 115.048 134.5 120.062C128.597 119.715 125.975 118.373 121.316 114.789C117.426 109.837 115.485 104.884 113.406 98.969C112.633 98.969 111.859 98.969 111.062 98.969C111.124 97.341 111.185 95.713 111.248 94.036C113.677 54.4323 113.677 54.4324 101.907 17.4869C98.9368 11.4202 98.8708 7.20115 99.3438 0.53125Z" fill="white"/>
<path d="M54.812 124.75C65.097 128.791 71.018 136.07 75.905 145.844C76.07 150.235 76.103 154.633 76.052 159.027C76.031 161.378 76.01 163.728 75.988 166.15C75.961 167.957 75.933 169.764 75.905 171.625C78.226 172.398 80.546 173.172 82.937 173.969C81.39 173.969 79.843 173.969 78.249 173.969C78.249 175.516 78.249 177.062 78.249 178.656C71.154 186.563 64.14 192.342 54.812 197.406C53.265 195.086 51.718 192.766 50.124 190.375C47.466 189.65 44.8068 188.925 42.0676 188.178C33.2058 185.535 30.997 184.215 26.6867 176.312C22.573 163.971 22.6519 154.336 27.8586 142.621C35.7154 134.371 41.4663 134.126 52.468 131.781C53.241 129.461 54.015 127.141 54.812 124.75Z" fill="#EC5E80"/>
<path d="M134.5 124.75C136.821 125.523 139.141 126.297 141.532 127.094C141.532 128.641 141.532 130.187 141.532 131.781C145.882 132.506 145.882 132.506 150.321 133.246C158.243 135.269 160.219 136.402 166.141 142.621C170.365 152.124 171.366 159.065 169.657 169.281C165.99 178.709 164.062 182.386 155.594 188.031C153.226 188.805 150.857 189.578 148.416 190.375C141.343 192.218 141.343 192.218 136.844 197.406C127.207 190.073 121.742 185.841 118.094 173.969C116.566 160.764 116.254 149.461 122.342 137.494C130.75 128.125 130.75 128.125 134.5 124.75Z" fill="#EC5E80"/>
<path d="M40.75 0.53125C46.1641 0.53125 51.578 0.53125 57.156 0.53125C61.572 8.18475 62.999 15.2527 64.188 23.9689C70.616 16.4691 75.04 9.89455 78.25 0.53125C83.664 0.53125 89.078 0.53125 94.656 0.53125C93.515 13.3736 89.827 24.1304 85.254 36.1545C82.041 45.2608 80.112 54.3451 78.25 63.812C77.477 63.812 76.703 63.812 75.906 63.812C75.906 56.852 75.906 49.8907 75.906 42.7189C74.359 42.7189 72.813 42.7189 71.219 42.7189C71.219 44.2657 71.219 45.8125 71.219 47.4062C68.898 48.9531 66.578 50.5001 64.188 52.0939C63.801 53.6891 63.414 55.2843 63.016 56.9281C62.629 58.4261 62.242 59.9251 61.844 61.4691C59.523 62.2421 57.203 63.016 54.812 63.812C54.812 45.25 54.812 26.6875 54.812 7.56255C52.492 7.56255 50.172 7.56255 47.781 7.56255C48.555 9.64115 49.328 11.7198 50.125 13.8614C54.388 28.5841 54.971 46.93 50.125 61.4691C48.578 61.4691 47.031 61.4691 45.4375 61.4691C45.2955 58.8371 45.1535 56.206 45.0072 53.4945C44.0243 35.7733 42.992 18.1472 40.75 0.53125Z" fill="white"/>
<path d="M120.438 45.0625C126.151 48.038 126.151 48.038 132.157 52.0938C133.382 56.612 134.582 61.144 135.499 65.735C139.518 80.992 150.351 92.113 161.793 102.384C164.97 106 164.97 106 164.97 113.031C162.117 112.886 159.265 112.741 156.327 112.592C147.029 112.526 142.349 115.048 134.501 120.062C128.405 119.704 125.886 118.338 121.171 114.496C112.934 104.298 114.976 90.219 116.221 77.914C117.48 66.944 118.935 56.002 120.438 45.0625Z" fill="#EC5E80"/>
<path d="M73.562 45.0625C80.851 98.1 80.851 98.1 75.027 110.541C71.219 115.375 71.2191 115.375 66.5311 120.062C59.2071 119.184 59.2071 119.184 52.4691 117.719C52.4691 116.172 52.4691 114.625 52.4691 113.031C44.7345 113.031 37.0001 113.031 29.0312 113.031C31.5385 103.002 32.9892 101.442 40.3106 94.867C51.9051 83.687 57.9781 72.577 61.9901 57.074C65.5941 45.0625 65.594 45.0625 73.562 45.0625Z" fill="#EC5E80"/>
<path d="M47.781 117.719C47.781 120.813 47.781 123.907 47.781 127.094C45.2186 128.109 42.6566 129.124 40.0169 130.17C31.5115 133.84 26.8899 137.538 21.5599 145.112C17.5748 156.454 18.4141 166.148 22.7318 177.045C29.7994 188.301 34.8581 191.33 47.781 195.063C47.781 198.157 47.781 201.25 47.781 204.438C35.3142 205.625 29.3474 202.859 19.6556 195.063C7.12544 181.178 7.11854 169.625 7.28684 151.447C8.10224 141.48 10.3333 136.6 17.3119 129.438C18.3602 128.311 19.4086 127.184 20.4888 126.023C29.2894 117.458 35.8453 116.526 47.781 117.719Z" fill="#EC5E80"/>
<path d="M139.187 7.5625C141.507 7.5625 143.828 7.5625 146.218 7.5625C145.85 9.5323 145.481 11.5022 145.101 13.5317C141.46 37.5524 140.796 59.998 155.593 80.219C159.66 84.669 163.874 88.808 168.292 92.908C175.479 100.113 178.814 107.361 179.47 117.426C179.253 119.891 179.253 119.891 179.031 122.406C171.999 117.719 171.999 117.719 169.949 111.273C165.939 99.69 158.543 92.193 149.441 84.174C133.868 66.552 135.565 43.9696 136.843 21.625C137.544 16.9248 138.298 12.2307 139.187 7.5625Z" fill="#EC5E80"/>
<path d="M141.531 21.625C148.38 29.2553 149.365 34.3427 149.588 44.4766C150.556 59.494 153.182 71.067 164.3 81.729C167.135 84.096 170 86.426 172.897 88.715C177.995 93.049 180.938 97.605 183.719 103.656C183.719 105.977 183.719 108.297 183.719 110.688C181.399 110.688 179.078 110.688 176.688 110.688C174.014 107.245 174.014 107.245 171.414 102.484C167.047 94.98 162.377 88.781 156.473 82.416C139.619 63.323 140.689 45.8706 141.531 21.625Z" fill="white"/>
<path d="M40.75 0.53125C46.1641 0.53125 51.578 0.53125 57.156 0.53125C60.58 6.73615 61.844 9.65895 61.844 16.9375C60.297 16.9375 58.75 16.9375 57.156 16.9375C56.383 18.4844 55.609 20.0312 54.812 21.625C54.812 16.9844 54.812 12.3437 54.812 7.56255C52.492 7.56255 50.172 7.56255 47.781 7.56255C48.555 9.64115 49.328 11.7198 50.125 13.8614C54.388 28.5841 54.971 46.93 50.125 61.4691C48.578 61.4691 47.031 61.4691 45.4375 61.4691C45.2955 58.8371 45.1535 56.206 45.0072 53.4945C44.0243 35.7733 42.992 18.1472 40.75 0.53125Z" fill="white"/>
<path d="M78.2495 0.53125C83.6635 0.53125 89.0775 0.53125 94.6555 0.53125C93.4655 10.651 91.8505 19.3586 87.6245 28.6562C84.5305 27.8828 81.4375 27.1094 78.2495 26.3125C77.6695 27.7144 77.0895 29.1163 76.4915 30.5606C73.1785 36.359 69.6935 39.0478 64.1875 42.7189C65.5805 35.3117 67.9075 31.0628 72.6835 25.2872C77.7815 18.6888 77.7815 18.6887 77.6635 10.3457C77.0835 8.65385 76.5035 6.96195 75.9055 5.21885C76.6795 3.67195 77.4525 2.12505 78.2495 0.53125Z" fill="white"/>
<path d="M122.781 143.5C123.554 145.047 124.328 146.594 125.125 148.188C128.226 149.06 131.353 149.843 134.5 150.531C136.843 152.875 136.843 152.875 137.072 157.205C136.958 164.415 136.958 164.415 136.843 171.625C136.07 170.078 135.297 168.531 134.5 166.938C127.091 170.148 125.142 171.599 120.437 178.656C117.197 172.177 117.87 166.829 117.947 159.613C117.968 157.045 117.989 154.477 118.011 151.831C118.038 149.855 118.065 147.88 118.093 145.844C119.64 145.07 121.187 144.297 122.781 143.5Z" fill="#EC5E80"/>
<path d="M71.2188 42.7188C72.7658 42.7188 74.3118 42.7188 75.9058 42.7188C76.6798 46.5859 77.4527 50.453 78.2497 54.4374C79.0227 54.4374 79.7967 54.4374 80.5937 54.4374C89.1807 95.4559 89.1807 95.4559 80.5937 110.688C79.0467 110.688 77.4998 110.688 75.9058 110.688C75.9878 108.335 75.9877 108.335 76.0707 105.936C76.4727 84.557 74.0247 63.8619 71.2188 42.7188Z" fill="white"/>
<path d="M45.4382 68.5C46.9851 71.594 48.532 74.687 50.126 77.875C43.8145 86.29 37.2597 92.473 29.032 98.969C24.3656 105.968 22.1384 112.086 19.657 120.062C18.1101 120.062 16.5632 120.062 14.9695 120.062C14.6836 106.913 18.6529 101.296 27.5671 91.645C29.4222 89.753 31.2772 87.862 33.1884 85.913C38.2334 80.408 41.8422 75.019 45.4382 68.5Z" fill="#EC5E80"/>
<path d="M139.188 7.5625C141.509 7.5625 143.829 7.5625 146.219 7.5625C145.836 9.4296 145.452 11.2968 145.057 13.2205C143.623 23.4249 143.623 33.3119 143.729 43.5977C143.74 45.5464 143.75 47.4951 143.761 49.5028C143.789 54.2728 143.831 59.043 143.876 63.812C142.329 64.586 140.782 65.359 139.188 66.156C136.351 57.283 136.533 48.7577 136.552 39.4961C136.545 36.4809 136.539 33.4657 136.533 30.3591C136.813 22.5217 137.689 15.2477 139.188 7.5625Z" fill="#EC5E80"/>
<path d="M47.7812 7.5625C50.1023 7.5625 52.4222 7.5625 54.8122 7.5625C56.9712 18.4735 57.4423 29.0004 57.3033 40.082C57.2923 41.6954 57.2823 43.3087 57.2713 44.9709C57.2433 48.9078 57.2013 52.8446 57.1562 56.781C54.8363 57.555 52.5163 58.328 50.1253 59.125C50.1663 55.6037 50.1663 55.6037 50.2073 52.0114C50.2293 48.865 50.2513 45.7186 50.2713 42.5723C50.2993 39.4997 50.3262 36.4271 50.3542 33.2614C50.1362 24.3992 49.2213 16.2831 47.7812 7.5625Z" fill="#EC5E80"/>
<path d="M172 159.906C172.773 159.906 173.547 159.906 174.344 159.906C175.315 167.841 175.671 173.925 171.707 181.055C165.537 188.929 162.558 192.424 152.371 193.744C149.326 193.237 149.326 193.237 146.219 192.719C148.562 188.031 148.562 188.031 155.154 185.541C165.588 179.199 168.012 171.098 172 159.906Z" fill="white"/>
<path d="M57.156 143.5C60.25 143.5 63.344 143.5 66.531 143.5C66.531 145.047 66.531 146.594 66.531 148.188C64.211 149.734 61.891 151.281 59.5 152.875C57.731 157.298 57.731 157.298 56.863 162.25C55.769 167.474 54.865 171.521 52.469 176.312C50.148 176.312 47.828 176.312 45.4375 176.312C46.4913 171.718 47.57 167.129 48.66 162.543C49.258 159.987 49.857 157.431 50.473 154.798C52.469 148.188 52.469 148.188 57.156 143.5Z" fill="white"/>
<path d="M127.469 143.5C133.035 144.086 133.035 144.086 139.188 145.844C143.264 152.366 144.971 158.868 146.512 166.352C146.904 168.225 147.297 170.098 147.702 172.028C148.128 174.149 148.128 174.149 148.562 176.312C146.242 176.312 143.922 176.312 141.531 176.312C138.16 170.292 136.328 165.036 134.5 158.295C133.727 155.733 132.953 153.171 132.156 150.531C130.609 149.758 129.063 148.984 127.469 148.188C127.469 146.641 127.469 145.094 127.469 143.5Z" fill="white"/>
<path d="M45.4376 129.437C45.4376 130.984 45.4376 132.531 45.4376 134.125C43.3106 134.802 41.1837 135.478 38.9923 136.176C28.0837 143.308 25.8526 152.515 22.0001 164.594C21.2266 164.594 20.4532 164.594 19.6563 164.594C18.6234 144.28 18.6234 144.28 26.6876 134.125C34.253 129.081 36.7282 128.966 45.4376 129.437Z" fill="white"/>
<path d="M186.062 152.875C188.383 152.875 190.703 152.875 193.094 152.875C193.959 177.621 193.959 177.621 188.406 188.031C186.859 186.484 185.313 184.938 183.719 183.344C183.774 176.221 183.774 176.221 184.598 167.816C184.857 165.031 185.117 162.245 185.385 159.375C185.609 157.23 185.832 155.085 186.062 152.875Z" fill="white"/>
<path d="M141.531 21.625C149.858 30.1083 149.825 39.0579 150.173 50.3359C150.253 52.0822 150.334 53.8285 150.416 55.6277C150.608 59.917 150.761 64.209 150.906 68.5C149.359 68.5 147.812 68.5 146.218 68.5C141.272 58.471 140.965 49.4251 141.238 38.4707C141.259 36.8468 141.28 35.2229 141.302 33.5497C141.357 29.5745 141.441 25.5996 141.531 21.625Z" fill="white"/>
<path d="M82.9375 7.5625C84.4835 7.5625 86.0305 7.5625 87.6245 7.5625C83.4145 22.2974 77.3415 34.262 64.1875 42.7188C65.5905 35.5269 67.8015 30.9399 72.2435 25.1406C76.4605 19.4741 80.0775 14.0613 82.9375 7.5625Z" fill="#EC5E80"/>
<path d="M106.375 7.5625C113.406 9.9062 113.406 9.9062 116.775 16.3516C117.984 18.8652 119.192 21.3789 120.438 23.9688C123.048 27.0867 123.048 27.0867 125.711 30.2676C127.064 32.0562 128.418 33.8447 129.812 35.6875C129.039 38.0078 128.266 40.3281 127.469 42.7188C106.375 19.6453 106.375 19.6453 106.375 7.5625Z" fill="#EC5E80"/>
<path d="M115.75 52.0938C116.523 52.0938 117.297 52.0938 118.094 52.0938C118.959 84.0469 118.959 84.0469 113.406 98.9689C112.633 98.9689 111.859 98.9689 111.062 98.9689C110.508 82.4809 111.559 68.07 115.75 52.0938Z" fill="white"/>
<path d="M52.4691 113.031C52.4691 114.578 52.4691 116.125 52.4691 117.719C54.7891 118.492 57.1091 119.266 59.5001 120.062C53.3481 131.488 53.3481 131.488 45.4376 134.125C45.4376 132.578 45.4376 131.031 45.4376 129.438C43.1173 128.664 40.797 127.891 38.4062 127.094C41.5001 127.094 44.5938 127.094 47.7811 127.094C47.7811 124 47.7811 120.906 47.7811 117.719C44.6876 116.945 41.5938 116.172 38.4062 115.375C43.2709 114.078 47.4151 113.031 52.4691 113.031Z" fill="white"/>
<path d="M50.126 23.9688C50.899 23.9688 51.673 23.9688 52.469 23.9688C52.533 28.9001 52.578 33.8318 52.616 38.7636C52.643 41.5099 52.67 44.2562 52.698 47.0857C52.469 54.4374 52.469 54.4374 50.126 61.4689C48.579 61.4689 47.032 61.4689 45.4382 61.4689C45.312 56.0979 45.2209 50.7268 45.1453 45.3554C45.0909 42.3643 45.0365 39.3733 44.9805 36.2916C45.4382 28.6561 45.4382 28.6561 50.126 23.9688Z" fill="white"/>
<path d="M108.718 80.2188C116.104 86.1467 117.128 91.3927 118.533 100.58C119.09 104.074 119.09 104.074 119.659 107.639C119.916 109.418 120.172 111.198 120.437 113.031C118.117 113.031 115.796 113.031 113.406 113.031C107.783 102.136 108.251 92.1458 108.718 80.2188Z" fill="white"/>
<path d="M47.7812 7.5625C50.1023 7.5625 52.4222 7.5625 54.8122 7.5625C55.5862 14.5234 56.3593 21.4844 57.1562 28.6562C55.6092 28.6562 54.0633 28.6562 52.4693 28.6562C50.9223 21.6953 49.3752 14.7344 47.7812 7.5625Z" fill="#EC5E80"/>
<path d="M78.2502 0.53125C83.6642 0.53125 89.0782 0.53125 94.6562 0.53125C92.3363 1.69145 92.3362 1.69145 89.9692 2.87505C89.1952 5.19535 88.4222 7.51565 87.6252 9.90625C83.7582 9.90625 79.8912 9.90625 75.9062 9.90625C76.6802 6.81255 77.4532 3.71885 78.2502 0.53125Z" fill="white"/>
<path d="M141.531 155.219C142.305 155.219 143.078 155.219 143.875 155.219C145.422 162.18 146.969 169.141 148.562 176.312C146.242 176.312 143.922 176.312 141.531 176.312C138.895 169.721 138.895 169.721 136.844 162.25C138.391 159.93 139.937 157.609 141.531 155.219Z" fill="white"/>
<path d="M127.469 166.938C129.789 166.938 132.109 166.938 134.5 166.938C134.5 169.257 134.5 171.577 134.5 173.968C132.953 173.968 131.406 173.968 129.812 173.968C129.812 175.515 129.812 177.062 129.812 178.656C127.492 178.656 125.172 178.656 122.781 178.656C124.832 169.574 124.832 169.573 127.469 166.938Z" fill="white"/>
<path d="M149.002 113.91C151.177 114.393 153.353 114.877 155.594 115.375C154.095 115.616 152.597 115.858 151.053 116.107C148.66 116.905 148.66 116.905 146.219 117.718C145.445 120.039 144.672 122.359 143.875 124.75C143.102 123.203 142.328 121.656 141.531 120.062C139.984 121.609 138.438 123.156 136.844 124.75C136.07 122.429 135.297 120.109 134.5 117.718C141.531 113.031 141.531 113.031 149.002 113.91Z" fill="white"/>
<path d="M172 103.656C175.515 106.439 175.515 106.439 179.031 110.688C179.47 116.986 179.47 116.986 179.031 122.406C176.71 120.859 174.39 119.313 172 117.719C171.56 110.395 171.56 110.395 172 103.656Z" fill="#EC5E80"/>
<path d="M17.3124 103.656C18.8593 103.656 20.4061 103.656 21.9999 103.656C21.9999 108.297 21.9999 112.938 21.9999 117.719C19.6796 118.492 17.3593 119.266 14.9688 120.062C15.7422 114.648 16.5155 109.234 17.3124 103.656Z" fill="#EC5E80"/>
<path d="M139.188 7.5625C141.507 7.5625 143.827 7.5625 146.218 7.5625C144.46 21.0391 144.46 21.0391 139.188 26.3125C139.188 20.125 139.188 13.9375 139.188 7.5625Z" fill="#EC5E80"/>
</g>
</g>
<defs>
<clipPath id="clip0_456_2284">
<rect width="194" height="212" fill="white"/>
</clipPath>
</defs>
</svg>
