<svg width="100" height="145" viewBox="0 0 100 145" fill="none" xmlns="http://www.w3.org/2000/svg">
<g clip-path="url(#clip0_454_939)">
<path d="M30.4869 -0.158262C30.6607 -0.160086 30.8346 -0.16191 31.0137 -0.16379C31.5957 -0.168355 32.1774 -0.163992 32.7594 -0.159644C33.1769 -0.161045 33.5943 -0.162981 34.0117 -0.165412C35.1451 -0.17035 36.2784 -0.167402 37.4118 -0.162761C38.4772 -0.159321 39.5425 -0.161 40.6079 -0.162388C42.8462 -0.165027 45.0846 -0.160148 47.3229 -0.152599C49.2434 -0.146283 51.1637 -0.146 53.0841 -0.150227C55.3149 -0.155132 57.5455 -0.156604 59.7763 -0.152381C60.9569 -0.150198 62.1375 -0.149395 63.3181 -0.152223C64.4278 -0.15462 65.5374 -0.151751 66.6471 -0.144788C67.0548 -0.143084 67.4625 -0.143208 67.8701 -0.145277C68.4259 -0.147798 68.9812 -0.143745 69.537 -0.13799C69.78 -0.141392 69.78 -0.141392 70.028 -0.144863C71.0821 -0.12434 71.0821 -0.12434 71.5505 0.219276C72.0046 0.725335 72.2552 1.17844 72.2508 1.85713C72.2527 2.07795 72.2527 2.07795 72.2545 2.30324C72.2513 2.46136 72.2481 2.61947 72.2448 2.78238C72.2449 2.95148 72.2451 3.12059 72.2452 3.29481C72.2446 3.85144 72.2377 4.4078 72.2306 4.96439C72.229 5.35121 72.2277 5.73803 72.2268 6.12485C72.2234 7.14122 72.2146 8.15749 72.2048 9.17382C72.1956 10.2116 72.1915 11.2494 72.187 12.2872C72.1775 14.3222 72.1623 16.3572 72.1435 18.3921C72.3714 18.3909 72.5993 18.3897 72.8341 18.3885C74.9883 18.3776 77.1425 18.3696 79.2967 18.3644C80.404 18.3616 81.5113 18.3578 82.6187 18.3517C83.6885 18.3459 84.7583 18.3427 85.8282 18.3413C86.2351 18.3403 86.642 18.3384 87.049 18.3355C90.8984 18.3091 94.0645 18.7584 96.9649 21.6064C96.9649 21.7243 96.9649 21.8421 96.9649 21.9636C97.0827 21.9636 97.2006 21.9636 97.322 21.9636C97.5997 22.3152 97.8535 22.6642 98.1033 23.035C98.1756 23.141 98.2479 23.247 98.3223 23.3562C98.8335 24.1165 99.2693 24.8754 99.6435 25.7136C99.7072 25.8362 99.7708 25.9588 99.8365 26.0851C100.082 26.8639 100.051 27.6172 100.049 28.429C100.049 28.6152 100.05 28.8014 100.051 28.9932C100.053 29.6213 100.053 30.2493 100.053 30.8774C100.054 31.3306 100.056 31.7838 100.057 32.237C100.06 33.3545 100.062 34.4721 100.063 35.5897C100.064 36.9282 100.067 38.2667 100.07 39.6052C100.077 42.8407 100.081 46.0763 100.084 49.3118C100.086 50.8427 100.088 52.3737 100.09 53.9046C100.096 59.1458 100.101 64.387 100.104 69.6282C100.104 69.9573 100.104 70.2863 100.104 70.6154C100.105 70.7786 100.105 70.9418 100.105 71.1099C100.105 71.9367 100.106 72.7634 100.106 73.5902C100.106 73.7543 100.106 73.9183 100.106 74.0874C100.109 79.4053 100.117 84.7232 100.129 90.0411C100.141 95.6644 100.148 101.288 100.15 106.911C100.15 107.528 100.15 108.146 100.15 108.764C100.15 108.916 100.15 109.068 100.15 109.224C100.151 111.669 100.157 114.114 100.164 116.559C100.171 119.018 100.173 121.477 100.17 123.936C100.168 125.396 100.17 126.856 100.178 128.316C100.183 129.408 100.181 130.499 100.176 131.591C100.175 132.032 100.177 132.472 100.181 132.913C100.211 136.243 99.6772 138.754 97.322 141.249C96.2502 142.33 95.1203 143.253 93.7506 143.928C93.6449 143.986 93.5391 144.045 93.4302 144.105C91.8739 144.858 90.2605 144.743 88.5727 144.735C88.2259 144.736 87.8791 144.738 87.5323 144.739C86.5818 144.743 85.6314 144.742 84.681 144.741C83.6549 144.74 82.6289 144.743 81.6028 144.746C79.5937 144.75 77.5845 144.751 75.5753 144.75C73.9421 144.749 72.3088 144.75 70.6755 144.752C70.443 144.752 70.2105 144.752 69.971 144.752C69.4986 144.753 69.0262 144.753 68.5539 144.754C65.3825 144.756 62.2112 144.758 59.0399 144.756C58.8539 144.756 58.8539 144.756 58.6643 144.756C58.036 144.756 57.4078 144.756 56.7796 144.755C56.6549 144.755 56.5301 144.755 56.4016 144.755C56.1493 144.755 55.897 144.755 55.6447 144.755C51.7195 144.753 47.7944 144.756 43.8692 144.762C39.4565 144.77 35.0438 144.773 30.6311 144.772C28.2957 144.771 25.9603 144.772 23.6249 144.777C21.6367 144.782 19.6485 144.782 17.6603 144.778C16.6463 144.776 15.6323 144.775 14.6183 144.779C13.6891 144.783 12.7601 144.782 11.8309 144.777C11.4957 144.776 11.1604 144.777 10.8251 144.78C8.78545 144.796 7.33067 144.625 5.53632 143.571C5.39868 143.495 5.26104 143.42 5.11923 143.342C4.83809 143.186 4.56135 143.023 4.28632 142.856C4.28632 142.739 4.28632 142.621 4.28632 142.499C4.18687 142.459 4.08743 142.418 3.98498 142.377C3.4479 142.072 3.10185 141.701 2.67917 141.249C2.58111 141.15 2.48305 141.051 2.38202 140.949C1.46234 139.974 0.900518 138.896 0.357745 137.678C0.295148 137.558 0.232551 137.438 0.168057 137.314C-0.0799768 136.53 -0.0495641 135.776 -0.0468358 134.959C-0.0480157 134.679 -0.0480136 134.679 -0.0492173 134.393C-0.0514273 133.764 -0.051083 133.134 -0.0507568 132.505C-0.051807 132.051 -0.0530097 131.596 -0.0543535 131.142C-0.0572484 130.022 -0.0584644 128.902 -0.0589693 127.782C-0.0596614 126.441 -0.0624049 125.099 -0.0651763 123.758C-0.0717672 120.516 -0.0746905 117.273 -0.0771191 114.031C-0.0782873 112.497 -0.0798638 110.963 -0.0814733 109.429C-0.0869603 104.177 -0.0915519 98.9262 -0.093495 93.6748C-0.0936194 93.3451 -0.0937435 93.0155 -0.0938683 92.6858C-0.09393 92.5223 -0.0939927 92.3588 -0.0940563 92.1903C-0.0943694 91.362 -0.0946853 90.5336 -0.0950045 89.7053C-0.095067 89.5409 -0.0951282 89.3765 -0.0951925 89.2072C-0.09725 83.8781 -0.104276 78.549 -0.114244 73.2199C-0.124764 67.5854 -0.130732 61.951 -0.131533 56.3165C-0.131638 55.6978 -0.131763 55.0791 -0.131901 54.4604C-0.131933 54.308 -0.131963 54.1557 -0.131996 53.9987C-0.132618 51.5483 -0.137381 49.0979 -0.143636 46.6475C-0.149823 44.1837 -0.151376 41.7199 -0.148244 39.2561C-0.146519 37.793 -0.148248 36.33 -0.154988 34.8669C-0.159638 33.7733 -0.157728 32.6799 -0.153301 31.5863C-0.152526 31.1447 -0.153858 30.703 -0.15753 30.2614C-0.176426 27.8373 -0.129698 25.9804 1.2506 23.9278C1.39233 23.6887 1.39233 23.6887 1.53691 23.4448C2.34728 22.1131 3.53276 21.0339 4.82203 20.1778C4.99847 20.057 4.99847 20.057 5.17848 19.9337C6.9681 18.7546 8.85186 18.3354 10.9747 18.3516C11.2467 18.3515 11.2467 18.3515 11.5243 18.3514C12.1194 18.3517 12.7146 18.3544 13.3098 18.3572C13.7241 18.3579 14.1384 18.3584 14.5528 18.3588C15.6401 18.3601 16.7275 18.3636 17.8148 18.3676C18.9257 18.3713 20.0365 18.3729 21.1474 18.3747C23.3246 18.3785 25.5019 18.3846 27.6792 18.3921C27.6756 18.0741 27.6756 18.0741 27.672 17.7497C27.6502 15.7503 27.6342 13.7509 27.6237 11.7514C27.6181 10.7235 27.6105 9.69566 27.5983 8.66778C27.5867 7.67551 27.5803 6.68332 27.5775 5.69098C27.5755 5.31271 27.5717 4.93445 27.5659 4.55622C27.5581 4.02564 27.557 3.49545 27.5575 2.96483C27.5537 2.80903 27.5498 2.65322 27.5459 2.4927C27.5556 1.5235 27.7564 0.976449 28.4101 0.259877C29.046 -0.22683 29.7132 -0.172192 30.4869 -0.158262ZM32.1435 4.10641C32.1435 12.5921 32.1435 21.0778 32.1435 29.8207C43.9292 29.8207 55.7149 29.8207 67.8577 29.8207C67.8577 21.335 67.8577 12.8493 67.8577 4.10641C56.072 4.10641 44.2863 4.10641 32.1435 4.10641ZM5.71489 25.1778C4.45183 26.9702 4.08015 28.537 4.08428 30.6991C4.08391 30.8776 4.08354 31.056 4.08316 31.2399C4.08215 31.8406 4.08241 32.4413 4.08267 33.042C4.0822 33.476 4.08167 33.91 4.08106 34.3439C4.07977 35.4133 4.07931 36.4826 4.07921 37.5519C4.07905 38.8327 4.07786 40.1136 4.07665 41.3944C4.07379 44.49 4.07273 47.5856 4.07188 50.6812C4.07146 52.1458 4.07081 53.6103 4.07014 55.0748C4.06785 60.0883 4.06594 65.1019 4.06532 70.1154C4.06528 70.4301 4.06524 70.7448 4.0652 71.0595C4.06516 71.3749 4.06513 71.6904 4.06509 72.0058C4.06501 72.6387 4.06493 73.2715 4.06485 73.9044C4.06483 74.0613 4.06481 74.2182 4.06479 74.3799C4.06414 79.4677 4.06129 84.5556 4.05713 89.6435C4.05274 95.0231 4.05029 100.403 4.05008 105.782C4.05005 106.373 4.05001 106.964 4.04997 107.554C4.04996 107.7 4.04994 107.845 4.04993 107.995C4.04973 110.335 4.04776 112.674 4.04516 115.014C4.0426 117.366 4.04202 119.718 4.04346 122.07C4.04425 123.467 4.04356 124.864 4.04073 126.261C4.03879 127.304 4.03965 128.348 4.04159 129.391C4.04194 129.813 4.04138 130.235 4.03983 130.657C3.98539 134.726 3.98539 134.726 5.89346 138.214C7.83562 140.167 9.98614 140.583 12.656 140.606C13.0983 140.607 13.5405 140.605 13.9828 140.603C14.3074 140.604 14.632 140.604 14.9566 140.606C15.8423 140.608 16.728 140.607 17.6137 140.605C18.5713 140.604 19.5289 140.606 20.4866 140.607C22.36 140.61 24.2335 140.609 26.107 140.607C27.63 140.606 29.153 140.606 30.676 140.607C31.0016 140.607 31.0016 140.607 31.3337 140.607C31.7747 140.607 32.2157 140.607 32.6567 140.607C36.7882 140.609 40.9197 140.607 45.0512 140.604C48.5939 140.602 52.1365 140.602 55.6792 140.605C59.7965 140.608 63.9139 140.609 68.0313 140.607C68.4705 140.607 68.9098 140.607 69.3491 140.607C69.5652 140.607 69.7813 140.607 70.004 140.606C71.5247 140.606 73.0454 140.607 74.5662 140.608C76.4201 140.61 78.2739 140.609 80.1278 140.606C81.0731 140.605 82.0184 140.604 82.9637 140.606C83.8301 140.608 84.6963 140.607 85.5627 140.604C85.8751 140.603 86.1875 140.604 86.4999 140.605C88.825 140.614 91.1093 140.572 93.0363 139.106C93.2683 138.946 93.2683 138.946 93.5051 138.783C95.1227 137.293 95.772 135.45 95.9264 133.288C95.9389 132.821 95.9412 132.356 95.9389 131.889C95.9395 131.711 95.94 131.534 95.9406 131.351C95.9421 130.76 95.9411 130.169 95.94 129.578C95.9405 129.148 95.9412 128.719 95.9421 128.29C95.9435 127.358 95.9439 126.425 95.9432 125.493C95.9423 124.107 95.9434 122.721 95.9449 121.335C95.9476 118.716 95.9479 116.096 95.9474 113.476C95.9471 111.453 95.9474 109.43 95.9482 107.406C95.9483 107.115 95.9484 106.825 95.9485 106.534C95.9487 106.095 95.9488 105.657 95.949 105.219C95.9505 101.144 95.9513 97.0701 95.9505 92.9958C95.9505 92.8423 95.9505 92.6887 95.9505 92.5305C95.9503 91.7524 95.9502 90.9742 95.95 90.196C95.95 90.0415 95.9499 89.8869 95.9499 89.7277C95.9499 89.4152 95.9498 89.1027 95.9497 88.7901C95.9488 83.9275 95.9502 79.0648 95.9535 74.2022C95.9572 68.7367 95.9591 63.2712 95.9584 57.8057C95.9583 57.2227 95.9582 56.6398 95.9582 56.0568C95.9582 55.9132 95.9581 55.7697 95.9581 55.6218C95.9579 53.4567 95.9591 51.2917 95.961 49.1266C95.9632 46.6638 95.9634 44.2009 95.9612 41.7381C95.96 40.3607 95.9603 38.9833 95.9628 37.6059C95.9644 36.5762 95.9632 35.5465 95.961 34.5168C95.9605 34.1012 95.961 33.6855 95.9624 33.2699C95.9807 28.6033 95.9807 28.6033 93.6725 24.6644C91.9979 23.0933 90.107 22.8272 87.8951 22.8361C87.6388 22.8361 87.6388 22.8361 87.3773 22.8361C86.816 22.8362 86.2546 22.8376 85.6933 22.839C85.3027 22.8393 84.9121 22.8396 84.5216 22.8397C83.4961 22.8404 82.4707 22.8422 81.4453 22.8441C80.3979 22.846 79.3505 22.8468 78.3031 22.8477C76.2499 22.8496 74.1967 22.8527 72.1435 22.8564C72.1435 25.1546 72.1435 27.4528 72.1435 29.8207C73.8101 29.8245 73.8101 29.8245 75.5105 29.8284C76.2145 29.8319 76.9184 29.8358 77.6223 29.8406C78.7396 29.8481 79.8569 29.8547 80.9742 29.8556C81.8751 29.8564 82.7758 29.8615 83.6766 29.8695C84.0203 29.8718 84.364 29.8726 84.7076 29.8718C85.1891 29.8709 85.6702 29.8756 86.1517 29.8815C86.2937 29.88 86.4358 29.8784 86.5822 29.8768C87.3179 29.8921 87.6367 29.9638 88.2099 30.4419C88.3294 30.5905 88.4489 30.739 88.572 30.8921C88.631 30.9511 88.6899 31.01 88.7506 31.0707C88.769 31.6047 88.7754 32.1346 88.7746 32.6686C88.775 32.8392 88.7754 33.0098 88.7758 33.1856C88.777 33.7648 88.777 34.344 88.7769 34.9232C88.7775 35.3396 88.7781 35.7561 88.7789 36.1725C88.7805 37.2018 88.7812 38.2311 88.7816 39.2604C88.7822 40.4926 88.7837 41.7248 88.7853 42.9569C88.789 45.9356 88.7909 48.9143 88.7925 51.893C88.7932 53.3013 88.7941 54.7097 88.7951 56.1181C88.7983 60.9365 88.8009 65.7549 88.8023 70.5733C88.8024 70.876 88.8024 71.1786 88.8025 71.4813C88.8026 71.6314 88.8026 71.7815 88.8027 71.9361C88.8029 72.6966 88.8031 73.457 88.8033 74.2175C88.8034 74.3684 88.8034 74.5193 88.8034 74.6748C88.8048 79.5695 88.809 84.4642 88.8148 89.359C88.821 94.5306 88.8245 99.7022 88.8251 104.874C88.8251 105.441 88.8252 106.009 88.8253 106.576C88.8253 106.716 88.8254 106.855 88.8254 106.999C88.8258 109.251 88.8286 111.502 88.8323 113.754C88.8359 116.016 88.8369 118.277 88.8352 120.539C88.8343 121.765 88.8346 122.992 88.8381 124.218C88.8413 125.339 88.8411 126.46 88.8383 127.582C88.8379 127.988 88.8387 128.395 88.8408 128.802C88.8435 129.353 88.8418 129.903 88.839 130.454C88.8408 130.614 88.8426 130.774 88.8445 130.938C88.8364 131.663 88.8114 132.044 88.4214 132.672C87.6819 133.369 87.2613 133.437 86.2631 133.439C86.1358 133.439 86.0085 133.44 85.8774 133.441C85.4476 133.442 85.0179 133.442 84.5881 133.441C84.2782 133.442 83.9683 133.443 83.6583 133.444C82.8041 133.446 81.9499 133.447 81.0957 133.447C80.1754 133.447 79.2552 133.449 78.3349 133.451C76.3216 133.455 74.3083 133.457 72.2949 133.458C71.0386 133.458 69.7822 133.459 68.5259 133.461C65.0495 133.464 61.5731 133.467 58.0967 133.468C57.8741 133.468 57.6515 133.468 57.4221 133.468C56.9709 133.468 56.5196 133.468 56.0683 133.468C55.8443 133.468 55.6203 133.468 55.3895 133.468C55.053 133.468 55.053 133.468 54.7098 133.468C51.0736 133.469 47.4374 133.474 43.8012 133.48C40.0707 133.487 36.3402 133.491 32.6098 133.491C30.5141 133.491 28.4185 133.492 26.3228 133.497C24.5387 133.502 22.7546 133.503 20.9705 133.5C20.0597 133.499 19.149 133.499 18.2382 133.503C17.405 133.507 16.5719 133.507 15.7388 133.503C15.4368 133.502 15.1348 133.503 14.8328 133.506C14.4232 133.509 14.014 133.507 13.6045 133.503C13.3767 133.503 13.149 133.503 12.9144 133.503C12.1685 133.363 11.9087 133.072 11.4292 132.499C11.3702 132.44 11.3113 132.381 11.2506 132.321C11.2322 131.786 11.2258 131.255 11.2266 130.72C11.2262 130.549 11.2258 130.378 11.2254 130.202C11.2242 129.622 11.2242 129.042 11.2243 128.461C11.2237 128.044 11.2231 127.627 11.2223 127.21C11.2207 126.179 11.22 125.148 11.2196 124.116C11.219 122.882 11.2175 121.648 11.2159 120.413C11.2122 117.43 11.2103 114.446 11.2087 111.462C11.208 110.051 11.2071 108.64 11.2061 107.229C11.2029 102.402 11.2003 97.5752 11.1989 92.7482C11.1988 92.445 11.1988 92.1418 11.1987 91.8387C11.1986 91.6883 11.1986 91.538 11.1985 91.383C11.1983 90.6212 11.1981 89.8594 11.1979 89.0976C11.1978 88.8708 11.1978 88.8708 11.1978 88.6395C11.1964 83.7361 11.1922 78.8327 11.1864 73.9293C11.1802 68.7486 11.1767 63.5678 11.1761 58.387C11.1761 57.8186 11.176 57.2503 11.1759 56.6819C11.1758 56.4719 11.1758 56.4719 11.1758 56.2578C11.1754 54.0023 11.1726 51.7468 11.1689 49.4913C11.1653 47.2255 11.1643 44.9597 11.166 42.6939C11.1669 41.4656 11.1666 40.2373 11.1631 39.009C11.1599 37.8857 11.1601 36.7624 11.1629 35.6391C11.1633 35.2316 11.1625 34.8241 11.1604 34.4166C11.1577 33.8648 11.1594 33.3131 11.1622 32.7613C11.1604 32.6013 11.1586 32.4412 11.1567 32.2763C11.1649 31.5406 11.1905 31.1662 11.5909 30.5298C12.2689 29.8917 12.8848 29.969 13.7723 29.9626C13.9971 29.9599 13.9971 29.9599 14.2264 29.9572C14.723 29.9516 15.2196 29.9472 15.7163 29.9428C16.0601 29.9391 16.4039 29.9353 16.7477 29.9315C17.6536 29.9217 18.5596 29.9128 19.4655 29.9042C20.552 29.8937 21.6384 29.8819 22.7248 29.8702C24.3763 29.8527 26.0277 29.8369 27.6792 29.8207C27.6792 27.5225 27.6792 25.2243 27.6792 22.8564C25.4221 22.8483 23.1651 22.8418 20.908 22.8379C19.8599 22.836 18.8118 22.8335 17.7638 22.8295C16.7518 22.8256 15.7399 22.8234 14.7279 22.8225C14.3423 22.8219 13.9567 22.8206 13.5711 22.8186C13.03 22.816 12.4889 22.8157 11.9478 22.8159C11.7893 22.8146 11.6308 22.8133 11.4675 22.812C9.26604 22.8192 7.21212 23.5135 5.71489 25.1778ZM15.3577 34.1064C15.3577 65.5153 15.3577 96.9243 15.3577 129.285C38.1631 129.226 60.9685 129.167 84.4649 129.106C84.4649 97.7564 84.4649 66.4064 84.4649 34.1064C61.6595 34.1064 38.8542 34.1064 15.3577 34.1064Z" fill="white"/>
<path d="M50.7319 97.4526C50.9509 97.4513 51.1699 97.4501 51.3956 97.4488C51.6369 97.4492 51.8782 97.4496 52.1196 97.4501C52.3748 97.4493 52.6301 97.4484 52.8853 97.4473C53.5775 97.4449 54.2696 97.4448 54.9617 97.4453C55.54 97.4455 56.1182 97.4446 56.6964 97.4438C58.0607 97.4418 59.425 97.4417 60.7893 97.4428C62.196 97.4439 63.6025 97.4417 65.0091 97.4379C66.2177 97.4347 67.4262 97.4336 68.6348 97.4342C69.3562 97.4345 70.0776 97.4341 70.799 97.4316C71.4775 97.4293 72.156 97.4297 72.8345 97.432C73.0831 97.4324 73.3317 97.432 73.5804 97.4305C73.9205 97.4286 74.2606 97.4304 74.6007 97.4323C74.8859 97.4323 74.8859 97.4323 75.1768 97.4322C75.9956 97.5343 76.5834 97.8653 77.2089 98.392C77.6508 99.2079 77.66 99.9851 77.4991 100.892C77.0644 101.468 76.6666 101.745 76.0705 102.142C75.5887 102.187 75.5887 102.187 74.9952 102.189C74.7704 102.19 74.5455 102.191 74.3139 102.192C74.0643 102.192 73.8146 102.192 73.565 102.191C73.3025 102.192 73.0399 102.193 72.7774 102.194C72.0639 102.196 71.3503 102.196 70.6368 102.196C70.0412 102.196 69.4457 102.197 68.8502 102.197C67.4451 102.199 66.0401 102.199 64.635 102.198C63.1854 102.197 61.7358 102.199 60.2862 102.203C59.0419 102.206 57.7976 102.208 56.5532 102.207C55.81 102.207 55.0667 102.207 54.3234 102.21C53.6243 102.212 52.9252 102.211 52.226 102.209C51.9695 102.209 51.713 102.209 51.4566 102.211C51.1062 102.213 50.7558 102.211 50.4054 102.209C50.1114 102.209 50.1114 102.209 49.8115 102.209C49.2131 102.133 48.8701 101.97 48.3919 101.606C48.3919 101.488 48.3919 101.371 48.3919 101.249C48.2741 101.249 48.1562 101.249 48.0348 101.249C47.5601 99.7433 47.5601 99.7433 47.8897 98.95C48.5842 97.7526 49.3523 97.4553 50.7319 97.4526Z" fill="white"/>
<path d="M51.7063 52.2084C51.9724 52.2074 52.2386 52.2061 52.5047 52.2045C53.2256 52.2012 53.9465 52.2035 54.6674 52.207C55.4225 52.2099 56.1775 52.2084 56.9326 52.2074C58.2003 52.2066 59.468 52.2095 60.7357 52.2145C62.2008 52.2202 63.6659 52.2202 65.1311 52.2171C66.5415 52.2143 67.9518 52.2155 69.3622 52.2185C69.962 52.2197 70.5618 52.2196 71.1617 52.2182C71.868 52.2169 72.5743 52.219 73.2807 52.2239C73.5397 52.2252 73.7988 52.2252 74.0579 52.2239C74.4117 52.2223 74.7656 52.2256 75.1195 52.2292C75.3174 52.2297 75.5154 52.2302 75.7193 52.2307C76.3767 52.3426 76.6677 52.5759 77.1429 53.0353C77.6734 53.831 77.6121 54.6022 77.5001 55.5353C77.1245 56.1925 76.7657 56.5081 76.0715 56.7853C75.5683 56.8313 75.5683 56.8313 74.9759 56.8331C74.6387 56.8354 74.6387 56.8354 74.2947 56.8377C74.046 56.8376 73.7973 56.8374 73.5486 56.8372C73.2863 56.8383 73.0241 56.8395 72.7618 56.8409C72.0497 56.844 71.3376 56.8448 70.6256 56.8451C70.1806 56.8453 69.7356 56.8461 69.2906 56.847C67.7379 56.8503 66.1851 56.8518 64.6324 56.8515C63.1855 56.8513 61.7387 56.8551 60.2918 56.8607C59.0491 56.8654 57.8065 56.8673 56.5638 56.8671C55.8218 56.867 55.0798 56.868 54.3379 56.8718C53.6399 56.8752 52.942 56.8753 52.244 56.8727C51.9881 56.8723 51.7323 56.8731 51.4765 56.8753C49.0593 56.8944 49.0593 56.8944 48.2144 56.0711C47.6629 55.1921 47.6383 54.5863 47.8342 53.6087C48.6587 51.9939 50.1046 52.1944 51.7063 52.2084Z" fill="white"/>
<path d="M50.3603 74.974C50.5851 74.973 50.8099 74.972 51.0416 74.9709C51.2912 74.9707 51.5409 74.9705 51.7905 74.9703C52.053 74.9695 52.3155 74.9686 52.5781 74.9676C53.2916 74.9653 54.0052 74.9642 54.7187 74.9634C55.1645 74.9628 55.6102 74.9621 56.0559 74.9613C57.4504 74.9589 58.8448 74.9571 60.2392 74.9564C61.8492 74.9556 63.4592 74.9525 65.0693 74.9473C66.3136 74.9435 67.5579 74.9417 68.8022 74.9414C69.5455 74.9413 70.2888 74.9402 71.0321 74.937C71.7312 74.9341 72.4303 74.9337 73.1295 74.9352C73.386 74.9354 73.6425 74.9346 73.8989 74.9328C74.2493 74.9306 74.5997 74.9319 74.9501 74.9335C75.1461 74.9332 75.3421 74.933 75.544 74.9327C76.2938 75.0272 76.7625 75.3263 77.2816 75.8648C77.6965 76.5975 77.6283 77.4007 77.4993 78.2134C76.9995 78.9131 76.5163 79.1979 75.7136 79.4634C75.1972 79.5093 75.1972 79.5093 74.6181 79.5111C74.2876 79.5134 74.2876 79.5134 73.9505 79.5158C73.7078 79.5156 73.4651 79.5155 73.2224 79.5153C72.9656 79.5163 72.7089 79.5176 72.4522 79.5189C71.756 79.5221 71.0598 79.5229 70.3636 79.5231C69.9283 79.5234 69.493 79.5241 69.0577 79.5251C67.5384 79.5284 66.019 79.5299 64.4997 79.5296C63.0847 79.5294 61.6698 79.5331 60.2549 79.5388C59.0389 79.5434 57.823 79.5454 56.607 79.5451C55.8812 79.545 55.1556 79.546 54.4298 79.5498C53.7471 79.5533 53.0644 79.5533 52.3817 79.5507C52.1317 79.5503 51.8816 79.5512 51.6317 79.5533C49.2542 79.5726 49.2542 79.5726 48.2136 78.7491C47.7395 78.0165 47.6258 77.5048 47.7783 76.6621C47.9617 75.9974 48.1784 75.5929 48.7493 75.1777C49.3288 74.9845 49.7505 74.9757 50.3603 74.974Z" fill="white"/>
<path d="M42.1423 50.3574C42.858 50.9617 43.3394 51.4844 43.5039 52.4221C43.4677 53.5317 42.6694 54.2146 41.9637 55.0002C41.6946 55.3111 41.4272 55.6234 41.1599 55.9358C40.9746 56.1522 40.7888 56.3681 40.6024 56.5835C39.9711 57.3145 39.374 58.0636 38.8039 58.8437C38.727 58.9307 38.6501 59.0177 38.5709 59.1074C38.453 59.1074 38.3352 59.1074 38.2137 59.1074C38.1644 59.2135 38.1151 59.3197 38.0644 59.429C37.8677 59.8007 37.6664 60.0756 37.3892 60.3895C37.2965 60.4953 37.2038 60.6012 37.1083 60.7102C37.009 60.8221 36.9098 60.934 36.8075 61.0493C36.5986 61.2876 36.3898 61.526 36.1811 61.7643C36.0744 61.8857 35.9678 62.007 35.8579 62.132C35.3452 62.7169 34.837 63.3056 34.3298 63.8953C34.2382 64.0011 34.1466 64.1068 34.0523 64.2158C33.5837 64.7524 33.5837 64.7524 33.2137 65.3574C33.0959 65.3574 32.978 65.3574 32.8566 65.3574C32.8161 65.4531 32.7756 65.5489 32.7338 65.6476C32.1866 66.6378 31.6075 67.2849 30.5352 67.6788C29.7682 67.8322 29.3431 67.6474 28.7048 67.2435C27.9131 66.6811 27.206 66.0382 26.495 65.3783C26.1214 65.0452 25.7472 64.7571 25.3343 64.4757C25.1648 64.3541 24.9954 64.2326 24.8209 64.1074C24.8209 63.9895 24.8209 63.8717 24.8209 63.7502C24.7182 63.704 24.6155 63.6577 24.5098 63.61C24.0738 63.3754 23.7405 63.1069 23.37 62.7793C23.187 62.6194 23.187 62.6194 23.0003 62.4563C22.429 61.9011 22.2657 61.5148 22.2539 60.7368C22.2661 60.0909 22.3015 59.8537 22.6445 59.286C23.4264 58.5711 23.8988 58.5056 24.9185 58.5249C25.4757 58.5844 25.8263 58.7406 26.2494 59.1074C26.2494 59.2252 26.2494 59.3431 26.2494 59.4645C26.355 59.5131 26.4605 59.5616 26.5692 59.6116C26.9555 59.8173 27.2375 60.0334 27.5615 60.3253C27.6696 60.4208 27.7777 60.5164 27.889 60.6148C28.114 60.8162 28.3386 61.018 28.5628 61.2202C28.6707 61.3153 28.7785 61.4104 28.8896 61.5083C28.987 61.5958 29.0844 61.6833 29.1848 61.7735C29.481 62.015 29.481 62.015 29.9994 61.9645C30.364 61.5899 30.6953 61.2176 31.0262 60.815C31.1691 60.6451 31.1691 60.6451 31.3149 60.4717C31.9546 59.7067 32.5708 58.9262 33.1593 58.1211C33.2362 58.034 33.3131 57.947 33.3923 57.8574C33.5102 57.8574 33.628 57.8574 33.7494 57.8574C33.7983 57.7518 33.8472 57.6461 33.8976 57.5373C34.0992 57.157 34.3099 56.8727 34.5928 56.5502C34.7359 56.386 34.7359 56.386 34.8819 56.2185C35.034 56.0464 35.034 56.0464 35.1892 55.8708C35.293 55.752 35.3968 55.6333 35.5037 55.5109C36.1056 54.8239 36.7161 54.1456 37.332 53.4712C37.7532 53.0092 38.135 52.5591 38.4704 52.0315C38.5625 51.8915 38.6546 51.7516 38.7494 51.6074C38.8673 51.6074 38.9852 51.6074 39.1066 51.6074C39.1508 51.5006 39.195 51.3938 39.2405 51.2837C39.5535 50.7361 39.922 50.4633 40.5017 50.2235C41.0958 50.1556 41.5606 50.2145 42.1423 50.3574Z" fill="white"/>
<path d="M41.785 73.0349C42.4585 73.34 42.9091 73.7284 43.3029 74.3518C43.4483 75.1153 43.4156 75.7288 43.012 76.4117C42.4029 77.2465 41.7026 78.0083 41.0059 78.7701C40.7031 79.0901 40.7031 79.0901 40.535 79.4634C40.4172 79.4634 40.2993 79.4634 40.1779 79.4634C40.1286 79.5696 40.0793 79.6757 40.0285 79.7851C39.8318 80.1568 39.6305 80.4317 39.3534 80.7455C39.2607 80.8514 39.168 80.9572 39.0724 81.0663C38.9732 81.1782 38.8739 81.2901 38.7716 81.4054C38.5628 81.6437 38.354 81.882 38.1452 82.1204C38.0386 82.2417 37.932 82.3631 37.8221 82.4881C37.3094 83.073 36.8011 83.6617 36.2939 84.2514C36.2024 84.3571 36.1108 84.4629 36.0164 84.5718C35.5478 85.1085 35.5478 85.1085 35.1779 85.7134C35.06 85.7134 34.9422 85.7134 34.8207 85.7134C34.7777 85.8136 34.7346 85.9137 34.6903 86.0169C34.4168 86.5125 34.0804 86.8742 33.6935 87.2871C33.2167 87.8043 32.7734 88.306 32.3877 88.8943C31.8365 89.634 31.2803 90.2188 30.3599 90.4421C29.6327 90.4941 29.1733 90.3404 28.5707 89.9322C28.3939 89.7775 28.2172 89.6228 28.035 89.4634C28.035 89.3456 28.035 89.2277 28.035 89.1063C27.9312 89.0596 27.8274 89.0128 27.7204 88.9647C27.2981 88.737 26.9927 88.4817 26.6399 88.1576C26.1704 87.7348 25.7 87.3527 25.1779 86.9969C25.0011 86.868 24.8243 86.7391 24.6422 86.6063C24.6422 86.4884 24.6422 86.3706 24.6422 86.2492C24.5377 86.2011 24.4331 86.1529 24.3255 86.1034C23.9277 85.8919 23.6205 85.6617 23.2806 85.3675C23.1751 85.2775 23.0697 85.1875 22.9611 85.0947C22.5703 84.7164 22.3372 84.4129 22.267 83.867C22.2663 83.714 22.2656 83.5609 22.2649 83.4032C22.2619 83.2506 22.2589 83.0979 22.2559 82.9407C22.3332 82.4142 22.4918 82.1673 22.8564 81.7849C22.9743 81.7849 23.0922 81.7849 23.2136 81.7849C23.2136 81.667 23.2136 81.5492 23.2136 81.4277C23.9943 81.0255 24.5109 81.0198 25.3564 81.2492C26.1154 81.6816 26.7511 82.2902 27.4065 82.8619C27.5172 82.958 27.6279 83.0542 27.742 83.1532C27.9645 83.3474 28.1858 83.5429 28.4058 83.74C28.509 83.8307 28.6123 83.9214 28.7186 84.0149C28.8105 84.0969 28.9024 84.179 28.9971 84.2635C29.3258 84.4917 29.6088 84.5677 29.9993 84.642C30.0967 84.5209 30.194 84.3999 30.2944 84.2751C31.1354 83.2371 31.9955 82.2311 32.9011 81.2485C33.2221 80.9126 33.2221 80.9126 33.3922 80.5349C33.51 80.5349 33.6279 80.5349 33.7493 80.5349C33.823 80.3759 33.823 80.3759 33.8983 80.2136C34.0966 79.8392 34.3005 79.5625 34.5801 79.2465C34.6736 79.1398 34.7671 79.0332 34.8635 78.9233C34.9636 78.8106 35.0636 78.6979 35.1667 78.5818C35.3775 78.3417 35.5882 78.1015 35.7987 77.8612C35.9044 77.7408 36.0101 77.6204 36.119 77.4963C36.5742 76.9742 37.0203 76.4446 37.4658 75.9143C40.1009 72.79 40.1009 72.79 41.785 73.0349Z" fill="white"/>
<path d="M41.6067 95.5358C42.5639 96.0144 42.9792 96.5414 43.3924 97.5C43.3924 99.1282 42.1386 100.259 41.0968 101.365C40.7114 101.75 40.7114 101.75 40.5353 102.143C40.4174 102.143 40.2996 102.143 40.1781 102.143C40.1342 102.244 40.0902 102.345 40.0449 102.449C39.7825 102.927 39.4679 103.273 39.0955 103.672C38.5154 104.304 37.9594 104.946 37.4214 105.614C36.7318 106.467 36.0037 107.274 35.2611 108.081C34.834 108.557 34.4295 109.044 34.0286 109.542C33.4251 110.289 32.8006 111.01 32.1536 111.719C32.0691 111.812 31.9846 111.905 31.8976 112.001C31.3135 112.635 30.9693 112.894 30.1112 112.969C28.8156 112.969 27.8638 112.107 26.9638 111.25C26.9638 111.132 26.9638 111.014 26.9638 110.893C26.8589 110.845 26.7539 110.796 26.6457 110.747C26.2521 110.537 25.9586 110.313 25.6253 110.018C25.5107 109.918 25.3962 109.817 25.2782 109.714C25.1605 109.61 25.0427 109.505 24.9214 109.397C24.6874 109.191 24.4533 108.985 24.219 108.779C24.1081 108.682 23.9972 108.584 23.8829 108.483C23.616 108.253 23.34 108.034 23.0625 107.817C22.6781 107.5 22.6781 107.5 22.321 106.964C22.2861 106.482 22.2861 106.482 22.2987 105.949C22.3019 105.771 22.3051 105.594 22.3084 105.411C22.3126 105.275 22.3167 105.14 22.321 105C22.4388 105 22.5567 105 22.6781 105C22.7186 104.893 22.7592 104.786 22.8009 104.676C23.1081 104.164 23.3862 103.996 23.9281 103.75C24.7949 103.639 25.321 103.857 26.071 104.286C26.071 104.404 26.071 104.521 26.071 104.643C26.1815 104.698 26.292 104.753 26.4058 104.81C26.6513 104.933 26.8969 105.056 27.1424 105.179C27.1424 105.296 27.1424 105.414 27.1424 105.536C27.2437 105.579 27.345 105.623 27.4493 105.668C28.0831 106.018 28.5524 106.535 29.0676 107.039C29.4324 107.356 29.4324 107.356 29.8301 107.324C30.3006 107.079 30.5202 106.776 30.8366 106.35C31.484 105.505 32.1731 104.717 32.8951 103.934C33.2218 103.593 33.2218 103.593 33.3924 103.214C33.5103 103.214 33.6281 103.214 33.7496 103.214C33.7887 103.12 33.8278 103.026 33.8681 102.928C34.1943 102.343 34.6265 101.863 35.0665 101.362C35.2605 101.138 35.4544 100.915 35.6483 100.691C35.7478 100.577 35.8473 100.463 35.9498 100.345C36.3336 99.9032 36.7138 99.4581 37.0937 99.0128C37.4454 98.6008 37.7986 98.1901 38.1521 97.7797C38.3753 97.52 38.5974 97.2593 38.8193 96.9985C39.0058 96.7827 39.0058 96.7827 39.196 96.5625C39.301 96.4401 39.4059 96.3176 39.5141 96.1915C40.1516 95.5713 40.7278 95.4303 41.6067 95.5358Z" fill="white"/>
<path d="M50.892 8.5707C51.5093 8.93601 51.7453 9.22566 52.142 9.8207C52.1826 10.3405 52.1826 10.3405 52.1769 10.9668C52.1757 11.1906 52.1746 11.4145 52.1734 11.6451C52.1704 11.8791 52.1674 12.1131 52.1643 12.3542C52.1626 12.5926 52.1609 12.8311 52.1595 13.0695C52.1552 13.6533 52.1494 14.237 52.142 14.8207C52.2888 14.817 52.4356 14.8132 52.5868 14.8094C53.2533 14.7945 53.9197 14.7852 54.5862 14.7761C54.8172 14.7701 55.0482 14.7641 55.2862 14.7579C55.6203 14.7545 55.6203 14.7545 55.9611 14.7509C56.1659 14.7472 56.3707 14.7435 56.5817 14.7396C57.2651 14.8385 57.546 15.0568 58.0349 15.535C58.5395 16.292 58.5099 16.9673 58.392 17.8564C58.0258 18.4626 57.7304 18.7141 57.142 19.1064C56.6222 19.147 56.6222 19.147 55.996 19.1413C55.7721 19.1401 55.5482 19.139 55.3176 19.1378C55.0836 19.1348 54.8496 19.1318 54.6085 19.1287C54.3701 19.1269 54.1317 19.1253 53.8932 19.1238C53.3094 19.1196 52.7257 19.1138 52.142 19.1064C52.1458 19.2532 52.1495 19.4 52.1534 19.5512C52.1682 20.2177 52.1775 20.8841 52.1867 21.5506C52.1926 21.7816 52.1986 22.0126 52.2048 22.2506C52.2071 22.4733 52.2094 22.696 52.2118 22.9255C52.2155 23.1303 52.2193 23.3351 52.2231 23.5461C52.1242 24.2295 51.9059 24.5104 51.4277 24.9993C50.6323 25.5296 49.8602 25.4902 48.9277 25.3564C48.2274 24.8561 47.9466 24.3727 47.6777 23.5707C47.6344 23.098 47.6344 23.098 47.6366 22.5976C47.6369 22.4168 47.6373 22.236 47.6376 22.0497C47.6409 21.7695 47.6409 21.7695 47.6443 21.4836C47.6444 21.2948 47.6445 21.1059 47.6446 20.9113C47.6526 19.5137 47.6526 19.5137 47.8563 19.1064C47.6361 19.1106 47.6361 19.1106 47.4115 19.1149C46.745 19.1261 46.0786 19.133 45.4121 19.1399C45.1811 19.1444 44.9501 19.1489 44.7121 19.1535C44.4894 19.1552 44.2667 19.1569 44.0372 19.1587C43.7301 19.1629 43.7301 19.1629 43.4167 19.1672C42.7937 19.0996 42.464 18.94 41.9634 18.5707C41.5338 17.9163 41.4277 17.2571 41.4277 16.4836C41.6423 15.773 41.9329 15.4689 42.4992 14.9993C43.0024 14.7476 43.4228 14.8007 43.9849 14.8033C44.2094 14.8038 44.4338 14.8044 44.665 14.805C44.9005 14.8065 45.136 14.808 45.3786 14.8095C45.6179 14.8104 45.8571 14.8112 46.0964 14.812C46.683 14.8141 47.2697 14.817 47.8563 14.8207C47.7974 14.7028 47.7384 14.585 47.6777 14.4636C47.6248 13.8025 47.6281 13.1398 47.6219 12.4769C47.6168 12.2946 47.6116 12.1123 47.6062 11.9245C47.5968 10.7897 47.6895 9.85549 48.392 8.92784C49.187 8.39785 49.9595 8.45738 50.892 8.5707Z" fill="white"/>
<path d="M51.3656 61.0216C51.6245 61.0202 51.6245 61.0202 51.8886 61.0188C52.4583 61.0163 53.028 61.0165 53.5978 61.0169C53.9943 61.0162 54.3908 61.0154 54.7874 61.0146C55.6182 61.0133 56.4491 61.0133 57.2799 61.0143C58.3442 61.0153 59.4083 61.0123 60.4726 61.0081C61.2914 61.0055 62.1102 61.0053 62.929 61.0059C63.3214 61.0058 63.7137 61.0049 64.1061 61.0031C64.6549 61.0009 65.2036 61.0021 65.7525 61.0041C65.9142 61.0028 66.0759 61.0014 66.2425 61C67.3691 61.0094 68.139 61.1981 68.9835 61.997C69.3681 62.6378 69.483 63.1831 69.4634 63.9278C69.296 64.4635 69.296 64.4635 69.1063 64.8206C68.9884 64.8206 68.8706 64.8206 68.7492 64.8206C68.7492 64.9385 68.7492 65.0563 68.7492 65.1778C67.9381 65.871 67.0742 65.7893 66.0643 65.7828C65.8845 65.7837 65.7046 65.7847 65.5194 65.7856C64.9255 65.788 64.3318 65.7864 63.738 65.7846C63.325 65.785 62.9121 65.7855 62.4991 65.7862C61.6339 65.787 60.7687 65.7858 59.9034 65.7833C58.7943 65.7803 57.6853 65.782 56.5762 65.7852C55.7235 65.7872 54.8709 65.7866 54.0182 65.7852C53.6092 65.7848 53.2003 65.7852 52.7913 65.7865C52.2198 65.7879 51.6484 65.7858 51.0769 65.7828C50.9078 65.7839 50.7388 65.785 50.5646 65.7861C49.6923 65.7776 49.1003 65.7455 48.392 65.1778C47.86 64.6268 47.7225 64.153 47.6777 63.392C47.8434 62.5184 48.038 61.9764 48.7492 61.4278C49.5974 60.9738 50.4285 61.019 51.3656 61.0216Z" fill="white"/>
<path d="M51.5452 83.7013C51.7158 83.7003 51.8864 83.6994 52.0621 83.6985C52.6243 83.696 53.1863 83.6962 53.7485 83.6966C54.1403 83.6959 54.5321 83.6951 54.924 83.6943C55.7446 83.6929 56.5652 83.693 57.3859 83.6939C58.4363 83.695 59.4866 83.6919 60.537 83.6878C61.346 83.6852 62.155 83.685 62.9641 83.6856C63.3513 83.6855 63.7385 83.6845 64.1257 83.6828C64.6677 83.6805 65.2095 83.6818 65.7514 83.6838C65.9106 83.6825 66.0697 83.6811 66.2336 83.6797C67.2066 83.6879 67.8807 83.842 68.7492 84.286C68.7492 84.4039 68.7492 84.5217 68.7492 84.6432C68.867 84.6432 68.9849 84.6432 69.1063 84.6432C69.4965 85.3547 69.5238 85.9603 69.4188 86.7463C69.1452 87.5571 68.4184 88.0228 67.6777 88.3932C67.4358 88.411 67.1931 88.4181 66.9505 88.4194C66.7222 88.4214 66.7222 88.4214 66.4893 88.4233C66.2383 88.424 66.2383 88.424 65.9822 88.4248C65.8062 88.4259 65.6302 88.4271 65.4489 88.4283C64.8646 88.4319 64.2804 88.4339 63.6961 88.4357C63.4969 88.4364 63.2976 88.4372 63.0923 88.4379C62.0374 88.4416 60.9825 88.4442 59.9277 88.4459C58.8376 88.4478 57.7476 88.454 56.6575 88.4611C55.8198 88.4658 54.9822 88.4672 54.1445 88.4679C53.7427 88.4688 53.3408 88.4708 52.939 88.4741C52.3764 88.4785 51.814 88.4783 51.2514 88.4771C51.0026 88.4805 51.0026 88.4805 50.7487 88.484C49.7247 88.4758 49.1859 88.334 48.392 87.6789C48.2852 87.6015 48.1784 87.5242 48.0684 87.4445C47.7125 86.9389 47.6981 86.5035 47.6777 85.8932C47.9114 85.1921 48.1301 84.5431 48.7492 84.1075C49.6912 83.7094 50.541 83.6985 51.5452 83.7013Z" fill="white"/>
<path d="M49.8623 106.58C50.0205 106.578 50.1787 106.577 50.3417 106.575C50.5158 106.574 50.6898 106.574 50.8691 106.573C51.0521 106.571 51.235 106.57 51.4235 106.568C52.0309 106.564 52.6384 106.561 53.2458 106.558C53.453 106.557 53.6601 106.556 53.8736 106.556C54.9701 106.551 56.0667 106.547 57.1632 106.545C58.2966 106.542 59.4298 106.534 60.5631 106.525C61.4339 106.519 62.3046 106.517 63.1754 106.516C63.5931 106.514 64.0109 106.512 64.4287 106.507C65.0135 106.502 65.5981 106.502 66.183 106.503C66.3556 106.5 66.5282 106.497 66.706 106.494C67.5008 106.502 68.042 106.526 68.6721 107.04C69.3231 107.727 69.4695 107.943 69.454 108.906C69.3283 109.726 68.9732 110.135 68.3937 110.714C67.9809 110.921 67.7417 110.917 67.2822 110.92C67.124 110.922 66.9658 110.923 66.8028 110.925C66.6288 110.926 66.4547 110.927 66.2754 110.927C66.001 110.93 66.001 110.93 65.721 110.932C65.1136 110.936 64.5062 110.939 63.8987 110.942C63.6915 110.943 63.4844 110.944 63.2709 110.945C62.1744 110.949 61.0779 110.953 59.9813 110.955C58.848 110.958 57.7147 110.966 56.5814 110.976C55.7107 110.982 54.8399 110.984 53.9692 110.985C53.5514 110.986 53.1336 110.989 52.7158 110.993C52.131 110.998 51.5464 110.998 50.9615 110.997C50.7026 111.002 50.7026 111.002 50.4385 111.006C49.6478 110.999 49.1021 110.974 48.4725 110.466C47.8432 109.793 47.6738 109.416 47.6906 108.493C47.9005 107.696 48.1788 107.372 48.7508 106.786C49.1636 106.579 49.4028 106.583 49.8623 106.58Z" fill="white"/>
</g>
<defs>
<clipPath id="clip0_454_939">
<rect width="100" height="144.643" fill="white"/>
</clipPath>
</defs>
</svg>
