<svg width="100" height="99" viewBox="0 0 100 99" fill="none" xmlns="http://www.w3.org/2000/svg">
<g clip-path="url(#clip0_454_928)">
<path d="M84.7287 -0.0552468C85.0229 -0.0567782 85.3166 -0.0631538 85.6107 -0.0697179C87.2387 -0.0880546 88.5382 0.317427 89.923 1.19158C90.1349 1.32274 90.1349 1.32274 90.3511 1.45656C90.4533 1.5323 90.5554 1.60803 90.6607 1.68607C90.6607 1.77167 90.6607 1.85727 90.6607 1.94547C90.7357 1.97724 90.8108 2.009 90.8882 2.04173C92.2925 2.82816 93.046 4.64889 93.5141 6.09593C94.2518 8.78135 93.568 11.2003 92.3468 13.6186C92.2612 13.6186 92.1756 13.6186 92.0874 13.6186C92.0528 13.6944 92.0182 13.7701 91.9825 13.8481C91.3839 14.9688 90.2353 15.9306 89.2811 16.7477C88.482 17.4419 87.7545 18.2099 87.0153 18.9665C86.9038 19.0795 86.7923 19.1924 86.6774 19.3088C86.5263 19.4631 86.5263 19.4631 86.3722 19.6206C86.1211 19.8443 86.1211 19.8443 85.8617 19.8443C85.8189 19.9727 85.7761 20.1011 85.732 20.2334C85.6464 20.2334 85.5608 20.2334 85.4726 20.2334C85.4298 20.3618 85.387 20.4902 85.3429 20.6225C85.2573 20.6225 85.1717 20.6225 85.0835 20.6225C85.0407 20.7509 84.9979 20.8793 84.9538 21.0116C91.7592 21.0758 91.7592 21.0758 98.7022 21.1413C98.7022 22.3398 98.7022 23.5382 98.7022 24.773C97.908 24.7666 97.908 24.7666 97.0978 24.7602C95.3449 24.7473 93.592 24.743 91.8391 24.7431C90.7767 24.7429 89.7144 24.7398 88.652 24.7298C87.7254 24.7211 86.7989 24.718 85.8722 24.7213C85.382 24.7229 84.8922 24.7218 84.4021 24.7141C82.1229 24.5779 82.1229 24.5779 80.1083 25.4198C79.7848 25.7449 79.519 26.0893 79.2469 26.4591C79.0649 26.6445 78.8798 26.8269 78.6905 27.0049C78.5306 27.1665 78.3711 27.3284 78.2118 27.4906C78.0353 27.6688 77.8587 27.847 77.6821 28.0251C77.4115 28.299 77.1411 28.5731 76.871 28.8475C76.6051 29.1172 76.3385 29.3862 76.0718 29.655C75.9904 29.7381 75.9091 29.8212 75.8253 29.9067C75.6305 30.1027 75.4289 30.292 75.2262 30.4798C75.1406 30.4798 75.055 30.4798 74.9668 30.4798C74.924 30.6082 74.8812 30.7367 74.8371 30.8689C74.7515 30.8689 74.6659 30.8689 74.5777 30.8689C74.5777 30.9546 74.5777 31.0402 74.5777 31.1284C74.3934 31.3093 74.3934 31.3093 74.1348 31.522C73.3796 32.164 72.6986 32.8759 72.0074 33.5853C71.9076 33.6866 71.8078 33.7878 71.705 33.8921C71.6151 33.9841 71.5253 34.0762 71.4327 34.171C71.2054 34.3709 71.2054 34.3709 70.946 34.3709C70.946 34.4565 70.946 34.5421 70.946 34.6303C70.7328 34.8069 70.516 34.9791 70.2975 35.1491C69.9765 35.4701 69.9765 35.4701 69.649 35.7976C73.8007 35.8404 77.9525 35.8832 82.2301 35.9273C82.2301 37.1258 82.2301 38.3242 82.2301 39.559C81.6369 39.5597 81.6369 39.5597 81.0318 39.5604C77.3996 39.565 73.7675 39.5721 70.1353 39.582C69.6585 39.5833 69.1817 39.5846 68.705 39.5859C68.5626 39.5863 68.5626 39.5863 68.4173 39.5866C66.8838 39.5907 65.3503 39.5929 63.8167 39.5944C62.2413 39.596 60.6659 39.5996 59.0904 39.605C58.2063 39.6079 57.3222 39.61 56.4381 39.6098C55.6049 39.6097 54.7716 39.612 53.9384 39.6162C53.6337 39.6173 53.3289 39.6175 53.0241 39.6168C50.4721 39.6115 48.2748 39.7845 46.33 41.5916C45.9692 41.9716 45.7458 42.3287 45.5245 42.8015C45.4389 42.8015 45.3533 42.8015 45.2651 42.8015C45.249 42.9165 45.233 43.0316 45.2164 43.1501C45.1354 43.5797 45.1354 43.5797 45.0138 43.8796C44.4335 45.3475 44.5273 46.761 45.0057 48.249C45.2367 48.7437 45.5035 49.2078 45.7839 49.6757C45.8721 49.8477 45.9592 50.0204 46.0433 50.1945C46.1289 50.1945 46.2145 50.1945 46.3027 50.1945C46.5135 50.3728 46.5135 50.3728 46.6918 50.5836C46.6918 50.6692 46.6918 50.7548 46.6918 50.843C46.8004 50.8954 46.8004 50.8954 46.9112 50.9489C47.1158 51.0538 47.3168 51.1661 47.5141 51.2843C47.6809 51.3829 47.6809 51.3829 47.851 51.4834C47.9592 51.5488 48.0673 51.6142 48.1788 51.6815C49.5495 52.2767 50.9532 52.3232 52.4231 52.3073C52.6282 52.3065 52.8334 52.306 53.0385 52.3056C53.4768 52.3045 53.9151 52.3023 54.3533 52.2992C55.0474 52.2946 55.7414 52.2938 56.4355 52.2937C58.4079 52.2931 60.3803 52.2893 62.3527 52.2773C63.4448 52.2707 64.5368 52.2683 65.6288 52.2705C66.3179 52.2717 67.0067 52.2678 67.6957 52.2601C68.125 52.2566 68.5542 52.258 68.9836 52.2607C69.1815 52.261 69.3795 52.2593 69.5774 52.2555C70.5695 52.2372 71.3065 52.2726 72.0823 52.9598C72.2707 53.1574 72.4544 53.3595 72.6321 53.5667C72.7147 53.6553 72.7973 53.7439 72.8823 53.8352C73.4103 54.4167 73.4103 54.4167 73.4103 54.7341C73.4959 54.7341 73.5816 54.7341 73.6697 54.7341C73.8474 54.9359 74.016 55.1456 74.1804 55.3582C74.9247 56.2901 75.7589 57.1068 76.6225 57.929C76.9123 58.236 76.9123 58.236 77.042 58.6251C77.2143 58.7128 77.3874 58.799 77.5608 58.8845C77.7867 59.0878 78.0077 59.2967 78.2255 59.5087C80.3733 61.5327 82.9234 62.992 85.5916 64.2084C85.8191 64.3125 86.0455 64.4192 86.2716 64.5265C88.1763 65.4242 90.1708 65.9495 92.2171 66.4072C92.2975 66.4277 92.3779 66.4483 92.4607 66.4694C93.4004 66.6998 94.3521 66.7796 95.3137 66.8693C95.4821 66.8856 95.6504 66.9019 95.8239 66.9187C96.783 67.0111 97.7426 67.0982 98.7022 67.1854C98.7022 68.3839 98.7022 69.5823 98.7022 70.8171C96.6271 70.8432 94.6562 70.799 92.6234 70.3545C92.3501 70.2989 92.0808 70.2634 91.8037 70.2334C91.312 70.1689 90.8771 70.047 90.4013 69.9092C90.1508 69.8484 89.9003 69.7876 89.6495 69.7283C88.8517 69.5382 88.0957 69.3251 87.3406 68.9997C86.9957 68.8578 86.6473 68.7475 86.2913 68.6365C85.3302 68.3218 84.4342 67.8876 83.5271 67.4448C83.3932 67.3805 83.2592 67.3161 83.1213 67.2498C81.2414 66.3311 79.5462 65.2384 77.8497 64.0192C77.6617 63.8851 77.4724 63.7529 77.2816 63.6229C77.0677 63.4762 76.8596 63.3213 76.6529 63.1647C76.6529 63.0791 76.6529 62.9935 76.6529 62.9053C76.5365 62.8491 76.5365 62.8491 76.4178 62.7918C76.1341 62.6459 76.1341 62.6459 75.745 62.3865C75.745 62.3009 75.745 62.2153 75.745 62.1271C75.6699 62.0945 75.5948 62.0618 75.5175 62.0283C75.1895 61.8474 74.9753 61.6422 74.7155 61.3732C74.6314 61.2867 74.5473 61.2003 74.4606 61.1112C74.3708 61.0184 74.2811 60.9256 74.1886 60.83C73.854 60.4933 73.5172 60.1593 73.1773 59.8279C72.4383 59.1049 71.7465 58.3707 71.1056 57.5571C70.9624 57.3795 70.9624 57.3795 70.8163 57.1984C70.7645 57.1139 70.7128 57.0294 70.6594 56.9424C70.3278 56.4651 70.0711 56.2019 69.4975 56.057C68.9689 56.0091 68.448 55.994 67.9177 55.9899C67.7147 55.9847 67.5118 55.979 67.3089 55.973C66.7589 55.9582 66.209 55.9501 65.6589 55.944C65.3141 55.9399 64.9693 55.9345 64.6245 55.9286C63.4181 55.9084 62.2118 55.894 61.0052 55.8846C59.8864 55.8757 58.7684 55.8531 57.6499 55.8243C56.6856 55.8 55.7214 55.7861 54.7567 55.7797C54.1823 55.7757 53.6087 55.7677 53.0345 55.7491C50.1126 55.6092 50.1126 55.6092 47.6556 56.9775C47.2372 57.428 46.8518 57.8913 46.4938 58.3911C46.4307 58.4683 46.3677 58.5456 46.3027 58.6251C46.2171 58.6251 46.1315 58.6251 46.0433 58.6251C46.0005 58.7535 45.9577 58.8819 45.9136 59.0142C45.828 59.0142 45.7424 59.0142 45.6542 59.0142C45.6542 59.0998 45.6542 59.1854 45.6542 59.2736C45.4813 59.4431 45.4813 59.4431 45.2316 59.647C44.7559 60.0513 44.3099 60.4784 43.8718 60.9228C43.8071 60.9882 43.7424 61.0536 43.6758 61.121C43.4068 61.3934 43.1384 61.6665 42.8705 61.94C42.6725 62.1419 42.4737 62.343 42.2748 62.544C42.1578 62.6632 42.0408 62.7824 41.9203 62.9052C41.6334 63.1647 41.6334 63.1647 41.374 63.1647C41.3312 63.2931 41.2884 63.4215 41.2443 63.5538C41.1587 63.5538 41.0731 63.5538 40.9849 63.5538C40.9421 63.6822 40.8993 63.8106 40.8552 63.9429C40.6646 64.1322 40.6646 64.1322 40.4154 64.337C39.7213 64.9268 39.0722 65.5576 38.4233 66.1964C38.3024 66.3125 38.1815 66.4285 38.057 66.5481C36.948 67.6428 36.4527 68.5966 36.4291 70.1605C36.4548 71.5996 36.8456 72.805 37.864 73.8651C39.0556 74.9612 40.3501 75.2662 41.9405 75.2467C42.3922 75.2205 42.7656 75.1247 43.1898 74.9675C43.2756 74.9403 43.3614 74.913 43.4498 74.8849C44.1113 74.6423 44.571 74.2818 45.0852 73.8028C45.1531 73.7397 45.2209 73.6766 45.2908 73.6116C45.9885 72.959 46.6663 72.2867 47.3404 71.6099C47.4748 71.4755 47.6092 71.3411 47.7436 71.2067C48.1032 70.8472 48.4623 70.4873 48.8214 70.1273C49.1987 69.7492 49.5764 69.3715 49.954 68.9937C50.6667 68.2806 51.379 67.5672 52.0912 66.8537C52.903 66.0404 53.7153 65.2275 54.5275 64.4146C56.1962 62.7446 57.8644 61.0741 59.5323 59.4033C60.1819 59.7138 60.6214 60.1803 61.1292 60.6841C61.2269 60.7776 61.3247 60.871 61.4253 60.9673C61.5171 61.0581 61.6088 61.1489 61.7032 61.2424C61.7876 61.325 61.8719 61.4076 61.9588 61.4927C62.1263 61.7379 62.1263 61.7379 62.1107 62.0086C61.9569 62.343 61.7058 62.5153 61.42 62.7376C61.1344 62.9751 60.9242 63.2594 60.6996 63.5538C60.4888 63.7889 60.4888 63.7889 60.3105 63.9429C60.2249 63.9429 60.1393 63.9429 60.0511 63.9429C60.0083 64.0713 59.9655 64.1997 59.9214 64.332C59.8358 64.332 59.7502 64.332 59.662 64.332C59.662 64.4176 59.662 64.5032 59.662 64.5914C59.4836 64.8022 59.4836 64.8022 59.2729 64.9805C59.1873 64.9805 59.1017 64.9805 59.0135 64.9805C58.9707 65.1089 58.9278 65.2373 58.8838 65.3696C58.7981 65.3696 58.7125 65.3696 58.6243 65.3696C58.6243 65.4552 58.6243 65.5408 58.6243 65.629C58.5387 65.629 58.4531 65.629 58.3649 65.629C58.3649 65.7146 58.3649 65.8002 58.3649 65.8884C58.1494 66.0621 57.9331 66.2349 57.7164 66.4072C57.5397 66.6203 57.3664 66.8363 57.1976 67.0557C56.9869 67.2908 56.9869 67.2908 56.8085 67.4448C56.7229 67.4448 56.6373 67.4448 56.5491 67.4448C56.5491 67.5304 56.5491 67.616 56.5491 67.7042C56.3708 67.915 56.3708 67.915 56.16 68.0933C56.0744 68.0933 55.9888 68.0933 55.9006 68.0933C55.8578 68.2217 55.815 68.3501 55.7709 68.4824C55.6853 68.4824 55.5997 68.4824 55.5115 68.4824C55.4687 68.6108 55.4259 68.7392 55.3818 68.8715C55.2962 68.8715 55.2106 68.8715 55.1224 68.8715C55.0796 68.9999 55.0368 69.1284 54.9927 69.2606C54.9071 69.2606 54.8215 69.2606 54.7333 69.2606C54.7333 69.3463 54.7333 69.4319 54.7333 69.5201C54.6477 69.5201 54.5621 69.5201 54.4739 69.5201C54.4311 69.6485 54.3883 69.7769 54.3442 69.9092C54.2586 69.9092 54.173 69.9092 54.0848 69.9092C54.0848 69.9948 54.0848 70.0804 54.0848 70.1686C53.8692 70.3422 53.6529 70.515 53.4363 70.6874C53.3427 70.8051 53.249 70.9228 53.1526 71.044C53.075 71.1403 52.9974 71.2367 52.9175 71.3359C52.8319 71.3359 52.7463 71.3359 52.6581 71.3359C52.6153 71.4643 52.5725 71.5927 52.5284 71.725C52.4428 71.725 52.3572 71.725 52.269 71.725C52.269 71.8106 52.269 71.8962 52.269 71.9844C52.1834 71.9844 52.0978 71.9844 52.0096 71.9844C51.9668 72.1128 51.924 72.2412 51.8799 72.3735C51.7943 72.3735 51.7087 72.3735 51.6205 72.3735C51.6205 72.4591 51.6205 72.5447 51.6205 72.6329C51.4064 72.8085 51.1902 72.9814 50.9719 73.1517C50.9291 73.2373 50.8863 73.3229 50.8422 73.4111C50.7566 73.4111 50.671 73.4111 50.5828 73.4111C50.5828 73.4967 50.5828 73.5823 50.5828 73.6705C50.3673 73.8442 50.151 74.017 49.9343 74.1893C49.7576 74.4024 49.5843 74.6184 49.4155 74.8378C49.2048 75.0729 49.2048 75.0729 49.0264 75.2269C48.9408 75.2269 48.8552 75.2269 48.767 75.2269C48.767 75.3125 48.767 75.3981 48.767 75.4863C48.6814 75.4863 48.5958 75.4863 48.5076 75.4863C48.4648 75.6147 48.422 75.7431 48.3779 75.8754C48.2923 75.8754 48.2067 75.8754 48.1185 75.8754C48.0757 76.0038 48.0329 76.1322 47.9888 76.2645C47.9032 76.2645 47.8176 76.2645 47.7294 76.2645C47.6853 76.3649 47.6853 76.3649 47.6402 76.4672C47.4933 76.7401 47.3386 76.9659 47.1539 77.213C46.278 78.4247 46.2649 79.6734 46.3189 81.104C46.4936 81.8402 46.857 82.4738 47.2106 83.1387C47.2564 83.237 47.3022 83.3353 47.3494 83.4366C47.5095 83.7299 47.6893 83.7808 47.9888 83.9169C48.0721 84.0065 48.0721 84.0065 48.157 84.0978C49.091 84.9783 50.4369 85.1199 51.6554 85.1035C53.2924 85.0145 54.5101 84.1277 55.6412 83.009C55.7276 82.9238 55.8139 82.8385 55.9029 82.7506C56.4685 82.1906 57.0307 81.6273 57.5907 81.0616C58.1181 80.53 58.6488 80.0017 59.1792 79.4731C59.8394 78.815 60.4994 78.1565 61.1591 77.4978C61.5573 77.1004 61.9555 76.703 62.3541 76.306C62.7411 75.9203 63.1278 75.5344 63.5143 75.1482C63.6611 75.0017 63.808 74.8552 63.9551 74.7089C64.1608 74.5041 64.3662 74.2989 64.5714 74.0936C64.6881 73.9771 64.8048 73.8607 64.9251 73.7408C65.2234 73.4276 65.4909 73.1025 65.7579 72.7626C65.8972 72.6338 66.0405 72.5094 66.1876 72.3897C67.0122 71.6864 67.7602 70.9002 68.5219 70.1304C68.8101 69.8395 69.0997 69.55 69.3896 69.2606C70.0437 69.5506 70.4847 70.0436 70.9865 70.5415C71.0843 70.6349 71.182 70.7284 71.2827 70.8247C71.3744 70.9155 71.4661 71.0062 71.5606 71.0998C71.6449 71.1823 71.7292 71.2649 71.8161 71.35C71.9836 71.5953 71.9836 71.5953 71.9695 71.8644C71.7807 72.2722 71.4224 72.4881 71.0757 72.7626C71.0329 72.8482 70.9901 72.9338 70.946 73.022C70.8604 73.022 70.7748 73.022 70.6866 73.022C70.6438 73.1504 70.601 73.2788 70.5569 73.4111C70.4713 73.4111 70.3857 73.4111 70.2975 73.4111C70.2547 73.5395 70.2119 73.6679 70.1678 73.8002C70.0822 73.8002 69.9966 73.8002 69.9084 73.8002C69.9084 73.8858 69.9084 73.9714 69.9084 74.0596C69.6951 74.2653 69.6951 74.2653 69.4139 74.4974C69.1221 74.7387 68.8833 74.9505 68.6585 75.2563C68.6001 75.3322 68.5418 75.4081 68.4817 75.4863C68.3961 75.4863 68.3105 75.4863 68.2223 75.4863C68.1795 75.6147 68.1367 75.7431 68.0926 75.8754C68.007 75.8754 67.9214 75.8754 67.8332 75.8754C67.8332 75.961 67.8332 76.0466 67.8332 76.1348C67.6192 76.3104 67.4029 76.4833 67.1847 76.6536C67.1419 76.7392 67.0991 76.8248 67.055 76.913C66.9694 76.913 66.8838 76.913 66.7956 76.913C66.7528 77.0415 66.71 77.1699 66.6659 77.3022C66.5803 77.3022 66.4947 77.3022 66.4065 77.3022C66.3637 77.4306 66.3208 77.559 66.2767 77.6913C66.1911 77.6913 66.1055 77.6913 66.0173 77.6913C66.0173 77.7769 66.0173 77.8625 66.0173 77.9507C65.8233 78.1371 65.8233 78.1371 65.5715 78.3398C65.2194 78.618 65.2194 78.618 64.9797 78.9883C64.8941 78.9883 64.8085 78.9883 64.7203 78.9883C64.6775 79.1167 64.6347 79.2451 64.5906 79.3774C64.505 79.3774 64.4194 79.3774 64.3312 79.3774C64.3312 79.463 64.3312 79.5486 64.3312 79.6368C64.1172 79.8124 63.9009 79.9853 63.6827 80.1556C63.6399 80.2412 63.5971 80.3268 63.553 80.415C63.4674 80.415 63.3818 80.415 63.2936 80.415C63.2508 80.5434 63.208 80.6718 63.1639 80.8041C63.0783 80.8041 62.9927 80.8041 62.9045 80.8041C62.8617 80.9325 62.8189 81.0609 62.7748 81.1932C62.6892 81.1932 62.6036 81.1932 62.5154 81.1932C62.4726 81.3216 62.4298 81.45 62.3857 81.5823C62.3001 81.5823 62.2145 81.5823 62.1263 81.5823C62.1263 81.6679 62.1263 81.7535 62.1263 81.8417C61.8183 82.1822 61.8183 82.1822 61.4778 82.4902C61.3922 82.4902 61.3066 82.4902 61.2184 82.4902C61.1756 82.6186 61.1328 82.747 61.0887 82.8793C61.0031 82.8793 60.9175 82.8793 60.8293 82.8793C60.7865 83.0077 60.7437 83.1361 60.6996 83.2684C60.614 83.2684 60.5284 83.2684 60.4402 83.2684C60.4402 83.354 60.4402 83.4396 60.4402 83.5278C60.2262 83.7034 60.0099 83.8763 59.7917 84.0466C59.7489 84.1322 59.7061 84.2178 59.662 84.306C59.5764 84.306 59.4908 84.306 59.4026 84.306C59.3598 84.4344 59.317 84.5629 59.2729 84.6951C59.1873 84.6951 59.1017 84.6951 59.0135 84.6951C58.9707 84.8236 58.9278 84.952 58.8838 85.0843C58.7981 85.0843 58.7125 85.0843 58.6243 85.0843C58.6243 85.1699 58.6243 85.2555 58.6243 85.3437C58.4328 85.5061 58.2407 85.6681 58.0417 85.8214C57.8114 86.0074 57.8114 86.0074 57.5867 86.3813C57.5011 86.3813 57.4155 86.3813 57.3273 86.3813C57.2792 86.4816 57.2792 86.4816 57.2301 86.5839C57.0976 86.8422 56.9545 87.095 56.8085 87.3459C56.1029 88.5813 55.9614 90.0559 56.2897 91.4396C56.9155 92.9144 57.6335 93.9274 59.0783 94.6498C60.627 95.2029 62.0938 94.9829 63.553 94.2931C64.5004 93.7404 65.1914 92.9357 65.8998 92.113C66.2851 91.67 66.6823 91.2378 67.0783 90.8043C67.3191 90.5489 67.3191 90.5489 67.4441 90.2723C67.5297 90.2723 67.6153 90.2723 67.7035 90.2723C67.7385 90.196 67.7736 90.1196 67.8097 90.0409C68.0616 89.5683 68.4284 89.2048 68.7897 88.8132C68.8646 88.7289 68.9395 88.6446 69.0167 88.5578C69.0899 88.4782 69.1632 88.3987 69.2386 88.3167C69.3049 88.2439 69.3712 88.1711 69.4394 88.0961C69.649 87.9377 69.649 87.9377 70.1678 87.9377C70.1678 88.0233 70.1678 88.1089 70.1678 88.1971C70.24 88.2292 70.3123 88.2613 70.3867 88.2944C70.7416 88.4862 71.0338 88.7074 71.3351 88.9753C71.3351 89.0609 71.3351 89.1465 71.3351 89.2347C71.41 89.2668 71.4849 89.2989 71.5621 89.332C71.9072 89.5237 72.1309 89.6994 72.3727 90.0129C72.3322 90.5464 72.1515 90.8296 71.7972 91.2208C71.6771 91.3564 71.6771 91.3564 71.5545 91.4949C71.3351 91.699 71.3351 91.699 71.0757 91.699C71.0236 91.8138 71.0236 91.8138 70.9704 91.931C70.8148 92.2207 70.6521 92.4205 70.4257 92.6576C70.3492 92.7384 70.2728 92.8192 70.194 92.9025C70.0727 93.0291 70.0727 93.0291 69.9489 93.1582C69.783 93.3335 69.6171 93.509 69.4514 93.6846C69.3725 93.768 69.2937 93.8514 69.2124 93.9373C68.9713 94.1945 68.7368 94.4564 68.506 94.7227C68.4388 94.8 68.3716 94.8772 68.3023 94.9568C68.1449 95.14 67.9891 95.3247 67.8342 95.51C67.1063 96.3571 66.3195 97.0744 65.3688 97.6653C65.2404 97.6653 65.112 97.6653 64.9797 97.6653C64.9797 97.7509 64.9797 97.8365 64.9797 97.9247C63.7303 98.5262 62.6791 98.6768 61.3124 98.6578C61.0154 98.6543 60.7191 98.6578 60.4222 98.6619C58.3613 98.6668 56.6192 97.8587 55.089 96.4676C53.3072 94.6618 52.3674 92.6473 52.3743 90.1183C52.3792 89.694 52.3871 89.2698 52.3987 88.8456C52.2295 88.8501 52.0603 88.8546 51.8859 88.8593C49.3957 88.907 47.3212 88.4257 45.4515 86.6974C45.212 86.4662 44.979 86.2304 44.7463 85.9922C44.6695 85.9196 44.5928 85.847 44.5137 85.7723C43.1193 84.3442 42.5128 82.1906 42.517 80.261C42.5219 79.8798 42.5307 79.4991 42.5413 79.118C42.4663 79.1161 42.3913 79.1142 42.3139 79.1122C39.4602 79.0319 37.2006 78.5012 35.1483 76.3942C35.0132 76.2653 35.0132 76.2653 34.8753 76.1338C33.76 74.9991 33.0393 73.3942 32.684 71.8547C32.6215 71.9202 32.5589 71.9858 32.4945 72.0533C32.4126 72.1376 32.3307 72.2218 32.2463 72.3086C32.165 72.3929 32.0838 72.4772 32 72.564C31.7761 72.7626 31.7761 72.7626 31.5167 72.7626C31.5156 72.8654 31.5146 72.9683 31.5135 73.0742C31.5034 74.0437 31.4921 75.0132 31.4794 75.9826C31.4729 76.481 31.4669 76.9794 31.462 77.4778C31.4572 77.9589 31.4512 78.4399 31.4443 78.9209C31.4419 79.1044 31.44 79.2879 31.4384 79.4714C31.4363 79.7285 31.4323 79.9855 31.4283 80.2426C31.4266 80.3889 31.4249 80.5352 31.4231 80.686C31.388 81.0531 31.318 81.2707 31.1276 81.5823C31.042 81.5823 30.9564 81.5823 30.8682 81.5823C30.8327 81.6599 30.7972 81.7375 30.7606 81.8175C30.6138 82.0918 30.4728 82.2697 30.2544 82.4885C30.1823 82.5612 30.1103 82.634 30.0361 82.7089C29.9574 82.7871 29.8787 82.8653 29.7976 82.9458C29.7145 83.0294 29.6314 83.113 29.5458 83.1991C29.2712 83.4748 28.9956 83.7496 28.72 84.0243C28.529 84.2155 28.3381 84.4067 28.1472 84.5979C27.7473 84.9982 27.3468 85.3981 26.9461 85.7976C26.4314 86.3108 25.9179 86.8252 25.4047 87.3399C25.0109 87.7347 24.6164 88.1289 24.2217 88.5229C24.0321 88.7124 23.8426 88.9021 23.6533 89.092C23.3894 89.3565 23.1246 89.6203 22.8596 89.8838C22.7809 89.9631 22.7022 90.0423 22.6211 90.1239C22.0781 90.6614 22.0781 90.6614 21.7891 90.6614C21.7463 90.7898 21.7035 90.9182 21.6594 91.0505C21.5738 91.0505 21.4882 91.0505 21.4 91.0505C21.4 91.1361 21.4 91.2217 21.4 91.3099C21.2039 91.4883 21.2039 91.4883 20.9217 91.699C20.8157 91.779 20.7097 91.8589 20.6005 91.9412C20.4184 92.0781 20.4184 92.0781 20.2326 92.2178C20.0936 92.326 19.9548 92.4344 19.8162 92.5431C17.7456 94.1634 17.7456 94.1634 17.2495 94.1634C17.2495 94.249 17.2495 94.3346 17.2495 94.4228C16.6893 94.7289 16.1272 95.0312 15.5634 95.3307C15.353 95.4425 15.353 95.4425 15.1383 95.5567C13.2386 96.537 11.2849 97.2926 9.208 97.795C8.76064 97.9203 8.31519 98.0499 7.87046 98.1841C6.8425 98.4629 5.86491 98.6147 4.79967 98.6214C4.68213 98.6225 4.56459 98.6237 4.44349 98.6249C4.1975 98.6268 3.95152 98.6279 3.70553 98.6284C3.3295 98.63 2.95374 98.6364 2.57777 98.6429C2.33753 98.6441 2.0973 98.6451 1.85706 98.6457C1.74532 98.6482 1.63358 98.6507 1.51845 98.6534C1.41363 98.6526 1.3088 98.6518 1.20079 98.651C1.10937 98.6516 1.01795 98.6523 0.923761 98.653C0.446073 98.515 0.285531 98.3341 -0.000815155 97.9247C-0.0955262 97.3845 -0.0826502 96.8505 -0.0744373 96.3033C-0.074532 96.1387 -0.0746247 95.9742 -0.0747223 95.8046C-0.0749081 95.3544 -0.0711003 94.9044 -0.0665685 94.4542C-0.0625099 93.9834 -0.0621366 93.5125 -0.0613674 93.0417C-0.0593531 92.1505 -0.0540327 91.2594 -0.0475217 90.3683C-0.0402689 89.3536 -0.0367086 88.3389 -0.0334543 87.3242C-0.0266787 85.2373 -0.0152707 83.1504 -0.000815155 81.0635C0.123326 81.0076 0.123326 81.0076 0.249975 80.9505C0.576314 80.7722 0.619311 80.612 0.777395 80.2853C0.9058 80.2425 1.0342 80.1997 1.1665 80.1556C1.2093 80.0272 1.2521 79.8988 1.2962 79.7665C1.3818 79.7665 1.46741 79.7665 1.55561 79.7665C1.59841 79.6381 1.64121 79.5097 1.68531 79.3774C1.77091 79.3774 1.85651 79.3774 1.94471 79.3774C1.98751 79.249 2.03031 79.1206 2.07441 78.9883C2.16002 78.9883 2.24562 78.9883 2.33382 78.9883C2.37662 78.8599 2.41942 78.7315 2.46352 78.5992C2.54912 78.5992 2.63472 78.5992 2.72292 78.5992C2.76305 78.4948 2.76305 78.4948 2.80398 78.3884C3.05139 77.9611 3.37768 77.6143 3.76053 77.3022C3.84614 77.3022 3.93174 77.3022 4.01994 77.3022C4.06274 77.1737 4.10554 77.0453 4.14964 76.913C4.23524 76.913 4.32085 76.913 4.40904 76.913C4.46121 76.7887 4.46121 76.7887 4.51442 76.6617C4.66845 76.3942 4.66845 76.3942 5.05755 76.2645C5.10035 76.1361 5.14315 76.0077 5.18725 75.8754C5.27286 75.8754 5.35846 75.8754 5.44666 75.8754C5.48946 75.747 5.53226 75.6186 5.57636 75.4863C5.66196 75.4863 5.74756 75.4863 5.83576 75.4863C5.87856 75.3579 5.92136 75.2295 5.96546 75.0972C6.05107 75.0972 6.13667 75.0972 6.22487 75.0972C6.25162 75.0277 6.27837 74.9581 6.30593 74.8865C6.55334 74.4591 6.87963 74.1123 7.26248 73.8002C7.34808 73.8002 7.43369 73.8002 7.52188 73.8002C7.56468 73.6718 7.60749 73.5434 7.65158 73.4111C7.73719 73.4111 7.82279 73.4111 7.91099 73.4111C7.95379 73.2827 7.99659 73.1543 8.04069 73.022C8.12629 73.022 8.2119 73.022 8.30009 73.022C8.35226 72.8976 8.35226 72.8976 8.40548 72.7707C8.5595 72.5032 8.5595 72.5032 8.9486 72.3735C8.9914 72.2451 9.0342 72.1167 9.0783 71.9844C9.16391 71.9844 9.24951 71.9844 9.33771 71.9844C9.36446 71.9155 9.39121 71.8466 9.41877 71.7756C9.67229 71.3349 10.0149 71.0103 10.3753 70.6549C10.4817 70.5471 10.4817 70.5471 10.5901 70.4371C11.1207 69.9092 11.1207 69.9092 11.4129 69.9092C11.4557 69.7808 11.4985 69.6523 11.5426 69.5201C11.6282 69.5201 11.7138 69.5201 11.802 69.5201C11.8542 69.3957 11.8542 69.3957 11.9074 69.2688C12.0614 69.0012 12.0614 69.0012 12.4505 68.8715C12.4853 68.8 12.5201 68.7284 12.5559 68.6547C12.7849 68.2059 13.1318 67.8935 13.4882 67.5421C13.5945 67.4343 13.5945 67.4343 13.703 67.3242C14.2335 66.7963 14.2335 66.7963 14.5258 66.7963C14.5686 66.6679 14.6114 66.5395 14.6555 66.4072C14.7411 66.4072 14.8267 66.4072 14.9149 66.4072C14.9577 66.2788 15.0005 66.1504 15.0446 66.0181C15.1302 66.0181 15.2158 66.0181 15.304 66.0181C15.3468 65.8897 15.3896 65.7613 15.4337 65.629C15.5193 65.629 15.6049 65.629 15.6931 65.629C15.7256 65.5544 15.7581 65.4798 15.7916 65.4029C15.9742 65.0707 16.1836 64.8455 16.451 64.5772C16.5485 64.4794 16.646 64.3816 16.7464 64.2808C16.8482 64.18 16.9501 64.0792 17.055 63.9753C17.2077 63.8211 17.2077 63.8211 17.3635 63.6637C17.461 63.5666 17.5585 63.4694 17.6589 63.3694C17.7482 63.2803 17.8376 63.1912 17.9297 63.0994C18.1574 62.9053 18.1574 62.9053 18.4168 62.9053C18.4596 62.7769 18.5024 62.6485 18.5465 62.5162C18.6321 62.5162 18.7177 62.5162 18.8059 62.5162C18.8487 62.3878 18.8915 62.2593 18.9356 62.1271C19.0212 62.1271 19.1068 62.1271 19.195 62.1271C19.2378 61.9986 19.2806 61.8702 19.3247 61.7379C19.4103 61.7379 19.4959 61.7379 19.5841 61.7379C19.6149 61.6651 19.6457 61.5922 19.6774 61.5171C19.8811 61.1518 20.1308 60.8975 20.4272 60.6031C20.5302 60.4994 20.6332 60.3957 20.7393 60.2889C21.0109 60.0518 21.0109 60.0518 21.2703 60.0518C21.3131 59.9234 21.3559 59.795 21.4 59.6627C21.315 59.6437 21.2301 59.6246 21.1426 59.605C19.3528 59.1651 17.5542 58.2309 16.3416 56.8093C16.3416 56.7237 16.3416 56.6381 16.3416 56.5499C16.256 56.5499 16.1704 56.5499 16.0822 56.5499C15.7444 56.0973 15.4631 55.6081 15.1743 55.1232C15.1226 55.0397 15.071 54.9563 15.0177 54.8703C13.9411 52.9616 13.8626 50.5542 14.407 48.4773C14.7508 47.3103 15.3713 46.2476 16.0822 45.2658C16.1678 45.2658 16.2534 45.2658 16.3416 45.2658C16.3744 45.191 16.4072 45.1161 16.4409 45.039C16.6206 44.7113 16.8234 44.4909 17.0866 44.2258C17.1877 44.1234 17.2888 44.021 17.393 43.9155C17.504 43.8044 17.6151 43.6933 17.7295 43.5788C17.8463 43.4609 17.9632 43.3429 18.0836 43.2214C18.4037 42.8984 18.7247 42.5763 19.0459 42.2544C19.2465 42.0534 19.4469 41.8522 19.6473 41.6509C20.346 40.949 21.0455 40.2478 21.7456 39.5472C22.3988 38.8936 23.0502 38.2383 23.7008 37.5822C24.2593 37.0192 24.8191 36.4574 25.3799 35.8966C25.7148 35.5615 26.0493 35.2259 26.3825 34.8891C26.7536 34.5139 27.1272 34.1414 27.5012 33.7691C27.667 33.6004 27.667 33.6004 27.8361 33.4284C27.9379 33.3278 28.0398 33.2272 28.1447 33.1236C28.2328 33.0352 28.321 32.9468 28.4118 32.8557C28.6633 32.6848 28.6633 32.6848 28.9387 32.7086C29.2686 32.8521 29.4639 33.0526 29.7151 33.3095C29.8129 33.4085 29.9107 33.5076 30.0114 33.6097C30.1123 33.7137 30.2131 33.8178 30.317 33.925C30.4198 34.0296 30.5226 34.1342 30.6285 34.242C30.8823 34.5002 31.135 34.7594 31.387 35.0194C31.2009 35.4448 30.9728 35.7241 30.6437 36.0498C30.4926 36.2003 30.4926 36.2003 30.3385 36.3538C30.1725 36.5172 30.1725 36.5172 30.0032 36.6838C29.8245 36.8613 29.6457 37.0388 29.467 37.2164C29.2749 37.4069 29.0825 37.5972 28.8901 37.7873C28.488 38.1846 28.0871 38.583 27.6864 38.9817C26.5468 40.115 25.4056 41.2469 24.2633 42.3776C23.6323 43.0022 23.0022 43.6278 22.3731 44.2544C21.9759 44.6499 21.5775 45.0443 21.1783 45.4378C20.8701 45.7422 20.5636 46.0483 20.2568 46.3542C20.0925 46.5151 20.0925 46.5151 19.9248 46.6794C18.7542 47.8538 18.0563 49.0412 17.898 50.7133C17.957 52.2842 18.4346 53.6476 19.5841 54.7341C20.7382 55.7367 22.1074 55.9922 23.6049 55.9014C24.7238 55.7374 25.7187 55.2764 26.5348 54.4969C26.7177 54.345 26.7177 54.345 26.9771 54.345C27.0079 54.2721 27.0387 54.1992 27.0704 54.1241C27.2741 53.7588 27.5238 53.5045 27.8202 53.2101C27.9232 53.1064 28.0262 53.0027 28.1323 52.8959C28.4039 52.6588 28.4039 52.6588 28.6633 52.6588C28.698 52.5759 28.7328 52.493 28.7686 52.4075C28.9227 52.14 28.9227 52.14 29.3118 52.0103C29.3546 51.8819 29.3974 51.7535 29.4415 51.6212C29.5271 51.6212 29.6127 51.6212 29.7009 51.6212C29.7437 51.4928 29.7865 51.3644 29.8306 51.2321C29.9162 51.2321 30.0018 51.2321 30.09 51.2321C30.1328 51.1037 30.1756 50.9753 30.2197 50.843C30.3053 50.843 30.3909 50.843 30.4791 50.843C30.5219 50.7146 30.5647 50.5862 30.6088 50.4539C30.6944 50.4539 30.78 50.4539 30.8682 50.4539C30.8949 50.3843 30.9217 50.3148 30.9492 50.2431C31.1967 49.8158 31.5229 49.469 31.9058 49.1569C31.9914 49.1569 32.077 49.1569 32.1652 49.1569C32.208 49.0285 32.2508 48.9001 32.2949 48.7678C32.3805 48.7678 32.4661 48.7678 32.5543 48.7678C32.5891 48.6849 32.6239 48.6019 32.6597 48.5165C32.8137 48.249 32.8137 48.249 33.2028 48.1193C33.2456 47.9909 33.2884 47.8625 33.3325 47.7302C33.4181 47.7302 33.5037 47.7302 33.5919 47.7302C33.6347 47.6018 33.6775 47.4734 33.7216 47.3411C33.8072 47.3411 33.8928 47.3411 33.981 47.3411C34.0238 47.2127 34.0666 47.0843 34.1107 46.952C34.1963 46.952 34.2819 46.952 34.3701 46.952C34.4103 46.8476 34.4103 46.8476 34.4512 46.7412C34.6986 46.3139 35.0249 45.967 35.4077 45.6549C35.4933 45.6549 35.579 45.6549 35.6671 45.6549C35.71 45.5265 35.7528 45.3981 35.7969 45.2658C35.8825 45.2658 35.9681 45.2658 36.0563 45.2658C36.0991 45.1374 36.1419 45.009 36.186 44.8767C36.2716 44.8767 36.3572 44.8767 36.4454 44.8767C36.4801 44.7938 36.5149 44.7109 36.5507 44.6254C36.7048 44.3579 36.7048 44.3579 37.0939 44.2282C37.1367 44.0998 37.1795 43.9714 37.2236 43.8391C37.3092 43.8391 37.3948 43.8391 37.483 43.8391C37.5258 43.7107 37.5686 43.5823 37.6127 43.45C37.6983 43.45 37.7839 43.45 37.8721 43.45C37.9028 43.3771 37.9336 43.3042 37.9653 43.2291C38.169 42.8639 38.4187 42.6096 38.7151 42.3151C38.8181 42.2115 38.9211 42.1078 39.0272 42.001C39.2988 41.7639 39.2988 41.7639 39.5582 41.7639C39.601 41.6355 39.6438 41.5071 39.6879 41.3748C39.7735 41.3748 39.8591 41.3748 39.9473 41.3748C39.9473 41.2892 39.9473 41.2036 39.9473 41.1154C40.1256 40.9046 40.1256 40.9046 40.3364 40.7263C40.422 40.7263 40.5076 40.7263 40.5958 40.7263C40.6386 40.5979 40.6814 40.4695 40.7255 40.3372C40.8111 40.3372 40.8967 40.3372 40.9849 40.3372C41.0157 40.2643 41.0464 40.1914 41.0781 40.1163C41.2819 39.7511 41.5316 39.4968 41.828 39.2023C41.931 39.0986 42.034 38.995 42.1401 38.8882C42.4116 38.651 42.4116 38.651 42.671 38.651C42.7138 38.5226 42.7566 38.3942 42.8007 38.2619C42.8863 38.2619 42.9719 38.2619 43.0601 38.2619C43.1029 38.1335 43.1457 38.0051 43.1898 37.8728C43.2754 37.8728 43.3611 37.8728 43.4493 37.8728C43.4921 37.7444 43.5349 37.616 43.579 37.4837C43.6646 37.4837 43.7502 37.4837 43.8384 37.4837C43.8731 37.4008 43.9079 37.3179 43.9437 37.2324C44.0978 36.9649 44.0978 36.9649 44.4869 36.8352C44.5297 36.7068 44.5725 36.5784 44.6166 36.4461C44.7022 36.4461 44.7878 36.4461 44.876 36.4461C44.9067 36.3732 44.9375 36.3003 44.9692 36.2252C45.1729 35.86 45.4226 35.6057 45.719 35.3112C45.822 35.2076 45.925 35.1039 46.0311 34.9971C46.3027 34.76 46.3027 34.76 46.5621 34.76C46.6049 34.6316 46.6477 34.5032 46.6918 34.3709C46.7774 34.3709 46.863 34.3709 46.9512 34.3709C46.994 34.2425 47.0368 34.1141 47.0809 33.9818C47.1665 33.9818 47.2521 33.9818 47.3403 33.9818C47.3831 33.8534 47.4259 33.725 47.47 33.5927C47.5556 33.5927 47.6412 33.5927 47.7294 33.5927C47.7619 33.5181 47.7944 33.4435 47.8279 33.3666C48.0105 33.0344 48.2199 32.8092 48.4874 32.5409C48.5848 32.4431 48.6823 32.3453 48.7827 32.2445C48.8845 32.1437 48.9864 32.0429 49.0913 31.939C49.1931 31.8362 49.2949 31.7333 49.3998 31.6274C49.4973 31.5303 49.5948 31.4331 49.6952 31.333C49.7846 31.244 49.8739 31.1549 49.966 31.0631C50.1937 30.8689 50.1937 30.8689 50.4531 30.8689C50.4959 30.7405 50.5387 30.6121 50.5828 30.4798C50.6684 30.4798 50.754 30.4798 50.8422 30.4798C50.885 30.3514 50.9278 30.223 50.9719 30.0907C51.0576 30.0907 51.1432 30.0907 51.2314 30.0907C51.2801 29.9788 51.2801 29.9788 51.3299 29.8646C51.5125 29.5324 51.7218 29.3073 51.9893 29.0389C52.0868 28.9411 52.1842 28.8433 52.2847 28.7425C52.3865 28.6417 52.4883 28.5409 52.5932 28.437C52.695 28.3342 52.7969 28.2314 52.9018 28.1255C52.9992 28.0283 53.0967 27.9312 53.1971 27.8311C53.2865 27.742 53.3759 27.6529 53.4679 27.5612C53.6957 27.367 53.6957 27.367 53.9551 27.367C53.9979 27.2386 54.0407 27.1102 54.0848 26.9779C54.1704 26.9779 54.256 26.9779 54.3442 26.9779C54.387 26.8495 54.4298 26.7211 54.4739 26.5888C54.5595 26.5888 54.6451 26.5888 54.7333 26.5888C54.7761 26.4604 54.8189 26.332 54.863 26.1997C54.9486 26.1997 55.0342 26.1997 55.1224 26.1997C55.1625 26.0954 55.1625 26.0954 55.2035 25.9889C55.3745 25.6936 55.5401 25.5093 55.7821 25.2725C55.8527 25.2031 55.9233 25.1336 55.9961 25.0621C56.0772 24.9832 56.0772 24.9832 56.16 24.9027C55.0041 24.8936 53.8483 24.8867 52.6924 24.8825C52.1553 24.8805 51.6183 24.8778 51.0813 24.8733C46.7156 24.838 43.0596 25.2195 39.2988 27.6264C39.2132 27.6264 39.1276 27.6264 39.0394 27.6264C39.0394 27.712 39.0394 27.7976 39.0394 27.8858C38.8674 28.0336 38.6876 28.1724 38.5054 28.3073C37.565 29.0411 36.7466 29.8912 35.9103 30.7392C35.7476 30.9033 35.5848 31.0673 35.4219 31.2312C35.0274 31.6286 34.6337 32.0267 34.2404 32.4254C33.5863 32.1354 33.1453 31.6424 32.6435 31.1446C32.5458 31.0511 32.448 30.9576 32.3473 30.8613C32.2556 30.7706 32.1639 30.6798 32.0694 30.5862C31.9851 30.5037 31.9008 30.4211 31.8139 30.336C31.6464 30.0907 31.6464 30.0907 31.6808 29.839C31.8388 29.3963 32.1885 29.1069 32.5173 28.7836C32.6284 28.6724 32.6284 28.6724 32.7417 28.559C32.8982 28.4029 33.0551 28.2472 33.2124 28.092C33.4539 27.8536 33.6936 27.6135 33.9331 27.3731C34.0853 27.2217 34.2375 27.0703 34.3899 26.9191C34.4619 26.847 34.5339 26.7749 34.6081 26.7005C35.1184 26.1997 35.1184 26.1997 35.4077 26.1997C35.4077 26.1141 35.4077 26.0285 35.4077 25.9403C35.6242 25.7371 35.8503 25.544 36.0806 25.3566C36.2055 25.2536 36.3304 25.1506 36.459 25.0445C36.7987 24.7988 37.0881 24.6464 37.483 24.5136C37.483 24.428 37.483 24.3424 37.483 24.2542C37.753 24.0586 37.753 24.0586 38.1072 23.8488C38.223 23.779 38.3389 23.7091 38.4583 23.6371C38.78 23.476 38.78 23.476 39.1691 23.476C39.1691 23.3903 39.1691 23.3047 39.1691 23.2165C41.7362 21.9756 44.3894 21.0987 47.2641 21.1061C47.4028 21.1055 47.5416 21.1048 47.6846 21.1041C47.9826 21.1028 48.2807 21.102 48.5788 21.1018C49.0503 21.1013 49.5218 21.0991 49.9933 21.0965C51.3327 21.0893 52.6722 21.0853 54.0116 21.0821C54.8334 21.0801 55.6551 21.0762 56.4768 21.0711C56.7896 21.0696 57.1025 21.0689 57.4153 21.0689C57.8508 21.0688 58.2863 21.0665 58.7219 21.0636C58.8515 21.0642 58.981 21.0648 59.1145 21.0654C59.292 21.0635 59.292 21.0635 59.4731 21.0616C59.5759 21.0613 59.6788 21.0611 59.7847 21.0608C60.1159 20.9997 60.2177 20.8663 60.4402 20.6225C60.5258 20.6225 60.6114 20.6225 60.6996 20.6225C60.7344 20.5396 60.7691 20.4567 60.805 20.3712C60.959 20.1037 60.959 20.1037 61.3481 19.974C61.3909 19.8456 61.4337 19.7172 61.4778 19.5849C61.5634 19.5849 61.649 19.5849 61.7372 19.5849C61.78 19.4565 61.8228 19.3281 61.8669 19.1958C61.9525 19.1958 62.0381 19.1958 62.1263 19.1958C62.1691 19.0674 62.2119 18.939 62.256 18.8067C62.3416 18.8067 62.4272 18.8067 62.5154 18.8067C62.5462 18.7338 62.5769 18.6609 62.6086 18.5858C62.8123 18.2206 63.0621 17.9663 63.3585 17.6718C63.5129 17.5163 63.5129 17.5163 63.6706 17.3577C63.9421 17.1206 63.9421 17.1206 64.2015 17.1206C64.2443 16.9922 64.2871 16.8638 64.3312 16.7315C64.4168 16.7315 64.5024 16.7315 64.5906 16.7315C64.6254 16.6485 64.6602 16.5656 64.696 16.4802C64.85 16.2127 64.85 16.2127 65.2391 16.083C65.2819 15.9546 65.3247 15.8261 65.3688 15.6939C65.4544 15.6939 65.54 15.6939 65.6282 15.6939C65.671 15.5654 65.7138 15.437 65.7579 15.3047C65.8435 15.3047 65.9291 15.3047 66.0173 15.3047C66.0601 15.1763 66.1029 15.0479 66.147 14.9156C66.2326 14.9156 66.3183 14.9156 66.4065 14.9156C66.4332 14.8461 66.46 14.7765 66.4875 14.7049C66.7349 14.2775 67.0612 13.9307 67.4441 13.6186C67.5297 13.6186 67.6153 13.6186 67.7035 13.6186C67.7463 13.4902 67.7891 13.3618 67.8332 13.2295C67.9188 13.2295 68.0044 13.2295 68.0926 13.2295C68.1354 13.1011 68.1782 12.9727 68.2223 12.8404C68.3079 12.8404 68.3935 12.8404 68.4817 12.8404C68.4817 12.7548 68.4817 12.6692 68.4817 12.581C68.5673 12.581 68.6529 12.581 68.7411 12.581C68.7839 12.4526 68.8267 12.3242 68.8708 12.1919C68.9564 12.1919 69.042 12.1919 69.1302 12.1919C69.173 12.0635 69.2158 11.9351 69.2599 11.8028C69.3455 11.8028 69.4311 11.8028 69.5193 11.8028C69.5621 11.6744 69.6049 11.546 69.649 11.4137C69.7346 11.4137 69.8202 11.4137 69.9084 11.4137C69.9405 11.3388 69.9726 11.2639 70.0057 11.1867C70.1954 10.8452 70.3803 10.6193 70.6866 10.3761C71.1396 10.361 71.4403 10.6604 71.7703 10.9471C72.0938 11.2613 72.382 11.6027 72.6696 11.9497C72.8851 12.2038 72.8851 12.2038 73.1783 12.3854C73.2549 12.45 73.3314 12.5145 73.4103 12.581C73.4103 13.0998 73.4103 13.0998 73.2168 13.3162C73.1291 13.386 73.0414 13.4558 72.951 13.5277C72.4108 13.9741 71.9149 14.4477 71.4207 14.9441C71.2859 15.0788 71.2859 15.0788 71.1484 15.2161C70.8502 15.5141 70.5524 15.8126 70.2547 16.111C70.0399 16.3259 69.8251 16.5407 69.6102 16.7555C69.029 17.3366 68.4482 17.9182 67.8675 18.4998C67.3214 19.0466 66.7751 19.5931 66.2287 20.1396C65.1471 21.2214 64.0659 22.3036 62.9848 23.3859C61.9352 24.4367 60.8854 25.4874 59.8355 26.5378C59.7707 26.6027 59.7059 26.6675 59.6391 26.7343C59.3139 27.0597 58.9887 27.385 58.6635 27.7104C55.9696 30.4057 53.276 33.1015 50.5828 35.7976C52.3507 35.8307 54.1185 35.8561 55.8866 35.8715C56.7077 35.879 57.5287 35.889 58.3497 35.9052C59.1427 35.9208 59.9356 35.9293 60.7288 35.933C61.0306 35.9356 61.3325 35.9407 61.6342 35.9485C63.4703 36.0633 63.4703 36.0633 65.0417 35.2774C65.3017 34.9911 65.5284 34.6818 65.7579 34.3709C65.8435 34.3709 65.9291 34.3709 66.0173 34.3709C66.0601 34.2425 66.1029 34.1141 66.147 33.9818C66.2326 33.9818 66.3183 33.9818 66.4065 33.9818C66.4065 33.8962 66.4065 33.8106 66.4065 33.7224C66.5992 33.5324 66.5992 33.5324 66.8645 33.3125C67.4091 32.8491 67.9147 32.3586 68.4168 31.8498C68.505 31.7611 68.5932 31.6724 68.6841 31.5811C68.9628 31.3008 69.2411 31.0201 69.5193 30.7392C69.8864 30.3687 70.2539 29.9985 70.6218 29.6287C70.745 29.5038 70.745 29.5038 70.8708 29.3764C71.3566 28.888 71.859 28.4293 72.3802 27.9791C72.7773 27.6276 73.1477 27.2516 73.5188 26.873C73.6797 26.7105 73.8406 26.5479 74.0016 26.3854C74.2512 26.1326 74.5005 25.8795 74.7496 25.6262C74.9927 25.3792 75.2365 25.133 75.4805 24.887C75.5553 24.8104 75.6302 24.7338 75.7073 24.6549C75.8879 24.4731 76.0753 24.2981 76.2638 24.1245C76.3494 24.1245 76.435 24.1245 76.5232 24.1245C76.566 23.9961 76.6088 23.8677 76.6529 23.7354C76.7385 23.7354 76.8241 23.7354 76.9123 23.7354C76.9123 23.6498 76.9123 23.5641 76.9123 23.476C76.9979 23.476 77.0835 23.476 77.1717 23.476C77.1717 23.3903 77.1717 23.3047 77.1717 23.2165C77.3559 23.0356 77.3559 23.0356 77.6145 22.8229C78.3698 22.1809 79.0507 21.469 79.7419 20.7596C79.8417 20.6583 79.9415 20.5571 80.0444 20.4528C80.1342 20.3608 80.2241 20.2687 80.3166 20.1739C80.5439 19.974 80.5439 19.974 80.8033 19.974C80.8461 19.8456 80.8889 19.7172 80.933 19.5849C81.0186 19.5849 81.1042 19.5849 81.1924 19.5849C81.1924 19.4993 81.1924 19.4137 81.1924 19.3255C81.3842 19.1365 81.3842 19.1365 81.6487 18.9174C82.2042 18.4448 82.719 17.9433 83.2312 17.4246C83.3223 17.333 83.4133 17.2414 83.5072 17.1471C83.7951 16.8575 84.0827 16.5676 84.3701 16.2775C84.7494 15.8948 85.1291 15.5125 85.5091 15.1305C85.5941 15.0444 85.6791 14.9583 85.7667 14.8696C86.2674 14.3662 86.7828 13.8882 87.3211 13.4251C88.5135 12.3963 89.715 11.1687 89.9453 9.54366C90.0607 7.90579 89.9213 6.55068 88.9148 5.19156C88.0401 4.22092 86.8033 3.6907 85.5147 3.60981C83.2041 3.59269 81.6705 4.60301 80.0646 6.17952C79.6779 6.56832 79.3045 6.96412 78.9531 7.38534C77.248 9.40915 77.248 9.40915 76.3935 10.1167C76.3079 10.1167 76.2223 10.1167 76.1341 10.1167C76.1341 10.2023 76.1341 10.2879 76.1341 10.3761C75.9201 10.4189 75.7061 10.4617 75.4856 10.5058C75.0965 10.0194 75.0965 10.0194 75.0965 9.72757C75.0109 9.72757 74.9253 9.72757 74.8371 9.72757C74.6177 9.4859 74.6177 9.4859 74.375 9.16823C74.2946 9.06441 74.2142 8.96058 74.1313 8.85361C73.9292 8.56026 73.9292 8.56026 73.7994 8.17115C73.7138 8.17115 73.6282 8.17115 73.54 8.17115C73.5096 7.87527 73.5096 7.87527 73.54 7.52264C73.7488 7.28351 73.7488 7.28351 74.0264 7.06869C74.4437 6.73005 74.7709 6.39644 75.0965 5.96622C75.3721 5.66629 75.3721 5.66629 75.6153 5.44742C75.7009 5.44742 75.7865 5.44742 75.8747 5.44742C75.9208 5.33814 75.9208 5.33814 75.9679 5.22665C76.1721 4.86041 76.4216 4.60745 76.7177 4.3105C76.8328 4.19514 76.9478 4.07977 77.0663 3.96091C77.2469 3.78185 77.2469 3.78185 77.4311 3.59917C77.6117 3.41709 77.6117 3.41709 77.7959 3.23134C77.9109 3.11665 78.0259 3.00195 78.1445 2.88378C78.2501 2.77841 78.3558 2.67303 78.4647 2.56447C78.7281 2.33458 78.7281 2.33458 78.9875 2.33458C78.9875 2.24897 78.9875 2.16337 78.9875 2.07517C79.2594 1.87579 79.529 1.69409 79.8144 1.51583C79.8969 1.46366 79.9794 1.41148 80.0644 1.35773C81.6219 0.385435 82.8827 -0.050713 84.7287 -0.0552468ZM40.1262 46.0749C40.063 46.1344 39.9997 46.1938 39.9346 46.2551C39.72 46.4571 39.5059 46.6596 39.2918 46.8622C39.1376 47.0077 38.9834 47.1531 38.8292 47.2986C38.4032 47.7008 37.9777 48.1035 37.5524 48.5064C37.2805 48.7641 37.0084 49.0216 36.7363 49.2791C33.2774 52.554 29.8512 55.8622 26.4386 59.1853C25.8781 59.7311 25.3173 60.2767 24.7563 60.822C24.5889 60.9848 24.5889 60.9848 24.418 61.151C22.6238 62.8943 20.8092 64.6148 18.9857 66.3274C17.1061 68.0936 15.2511 69.883 13.4156 71.6949C12.387 72.7091 11.3507 73.7106 10.2853 74.6862C4.83047 79.6779 4.83047 79.6779 2.84827 86.5682C2.74415 89.3679 2.9859 92.1704 3.37143 94.9416C3.63657 94.9449 3.90171 94.9472 4.16687 94.9492C4.38834 94.9513 4.38834 94.9513 4.6143 94.9535C5.25521 94.9363 5.85863 94.8119 6.48427 94.6822C6.64478 94.6608 6.80528 94.6394 6.97065 94.6173C7.42914 94.5468 7.85831 94.4298 8.30009 94.2931C8.48242 94.2389 8.48242 94.2389 8.66843 94.1836C9.10904 94.0512 9.54778 93.9137 9.98621 93.7743C10.1298 93.7291 10.2735 93.684 10.4214 93.6375C11.6021 93.2434 12.6606 92.698 13.7476 92.0979C14.0063 91.9588 14.2682 91.8293 14.5324 91.7011C15.0451 91.4469 15.5191 91.1515 15.993 90.8317C16.0772 90.7751 16.1613 90.7184 16.248 90.6601C17.2769 89.9587 18.2117 89.1702 19.1225 88.3221C19.6891 87.7984 20.2687 87.2947 20.8623 86.8019C21.9182 85.9222 22.9452 85.0131 23.9535 84.0791C24.0438 83.9954 24.1341 83.9118 24.2272 83.8256C26.3935 81.8011 28.1526 79.9959 28.2835 76.919C28.3106 75.5488 28.1865 74.1342 27.9317 72.7893C27.8326 72.1728 27.7713 71.7789 28.1086 71.2346C28.407 70.8992 28.7184 70.598 29.0524 70.2983C29.1948 70.1524 29.3363 70.0056 29.4764 69.8575C29.6046 69.7285 29.7331 69.5998 29.862 69.4714C29.9314 69.4019 30.0008 69.3324 30.0723 69.2607C30.2162 69.1168 30.3602 68.973 30.5044 68.8293C30.7251 68.6093 30.9451 68.3886 31.1651 68.1678C31.3062 68.0268 31.4474 67.8857 31.5886 67.7448C31.6539 67.6792 31.7192 67.6137 31.7864 67.5462C32.0745 67.26 32.3445 67.0226 32.684 66.7963C32.684 66.7107 32.684 66.6251 32.684 66.5369C32.787 66.4975 32.787 66.4975 32.892 66.4573C33.3397 66.1983 33.6653 65.8442 34.0251 65.476C34.1034 65.397 34.1818 65.318 34.2625 65.2366C34.5125 64.9843 34.7616 64.7312 35.0105 64.4779C35.2592 64.2257 35.508 63.9737 35.7572 63.722C35.912 63.5656 36.0665 63.4088 36.2206 63.2517C36.5405 62.9279 36.8521 62.6321 37.2112 62.3504C37.3009 62.2767 37.3906 62.203 37.483 62.1271C37.483 62.0415 37.483 61.9558 37.483 61.8677C37.5531 61.8399 37.6232 61.8122 37.6954 61.7836C38.1119 61.5452 38.4206 61.2188 38.7526 60.8782C38.8233 60.8069 38.8939 60.7356 38.9666 60.6621C39.1915 60.435 39.4154 60.207 39.6393 59.9789C39.8641 59.7504 40.0892 59.5221 40.3147 59.2942C40.4548 59.1526 40.5945 59.0105 40.7339 58.8681C41.2153 58.3802 41.2153 58.3802 41.5037 58.236C41.5037 58.1504 41.5037 58.0648 41.5037 57.9766C41.6963 57.9124 41.6963 57.9124 41.8928 57.8469C41.8928 57.7613 41.8928 57.6757 41.8928 57.5875C42.0004 57.5434 42.0004 57.5434 42.1101 57.4984C42.501 57.2776 42.7709 56.9978 43.0865 56.6786C43.1491 56.6156 43.2117 56.5526 43.2762 56.4878C43.475 56.2875 43.6729 56.0863 43.8708 55.8852C44.0058 55.7488 44.1409 55.6125 44.2761 55.4763C44.6064 55.1431 44.936 54.8091 45.2651 54.4747C45.1127 54.0175 44.9923 53.9528 44.6085 53.6802C43.1533 52.575 42.0636 51.0284 41.5037 49.2866C41.4393 49.1321 41.4393 49.1321 41.3735 48.9745C40.9564 47.8884 40.9246 46.6745 40.8552 45.5252C40.5815 45.5252 40.3058 45.9056 40.1262 46.0749Z" fill="white"/>
<path d="M97.0171 72.7617C97.5912 72.8273 97.8819 73.0364 98.3141 73.4102C98.4426 73.4744 98.4426 73.4744 98.5736 73.5399C98.5736 73.6255 98.5736 73.7111 98.5736 73.7993C98.6404 73.8314 98.7073 73.8635 98.7762 73.8966C99.1925 74.1101 99.5951 74.3438 100 74.5775C100.052 75.0344 100.018 75.2 99.7571 75.5908C99.6661 75.6845 99.5752 75.7781 99.4815 75.8746C99.3959 75.8746 99.3103 75.8746 99.2221 75.8746C99.1779 75.9819 99.1779 75.9819 99.1329 76.0914C98.9124 76.4825 98.6322 76.7581 98.3141 77.0743C98.1416 77.2478 98.1416 77.2478 97.9656 77.4249C97.6656 77.6904 97.6656 77.6904 97.4062 77.6904C97.4062 77.776 97.4062 77.8616 97.4062 77.9498C94.5105 80.4141 94.5105 80.4141 93.2558 80.4141C93.2558 80.4997 93.2558 80.5853 93.2558 80.6735C92.1671 81.1051 91.0769 81.5008 89.9484 81.8165C89.8539 81.8433 89.7595 81.8701 89.6622 81.8977C89.5707 81.9226 89.4792 81.9474 89.385 81.9731C89.3058 81.9946 89.2267 82.0161 89.1451 82.0383C88.0794 82.2588 87.0356 82.2394 85.9514 82.2299C85.5866 82.2293 85.2217 82.2299 84.8568 82.2304C84.2844 82.2313 83.7121 82.2305 83.1397 82.2233C82.6742 82.2175 82.209 82.2175 81.7435 82.2212C81.482 82.2218 81.2206 82.2164 80.9592 82.2109C80.0793 82.2059 80.0793 82.2059 79.3352 82.6151C79.1069 82.909 78.9195 83.2077 78.7292 83.527C78.5281 83.759 78.5281 83.759 78.3401 83.9161C78.2545 83.9161 78.1689 83.9161 78.0807 83.9161C78.0529 83.9853 78.0252 84.0545 77.9966 84.1258C77.7558 84.5504 77.427 84.8792 77.0917 85.2293C76.5079 85.8488 75.9583 86.4813 75.4375 87.1556C75.2483 87.3917 75.0664 87.6085 74.8381 87.8071C74.7525 87.8071 74.6669 87.8071 74.5787 87.8071C74.5359 87.9355 74.4931 88.0639 74.449 88.1962C73.8787 88.1304 73.5581 87.7964 73.152 87.418C73.152 87.3324 73.152 87.2468 73.152 87.1586C73.0764 87.1233 73.0009 87.0881 72.923 87.0517C72.4625 86.8094 72.0759 86.5059 71.7253 86.121C71.628 85.7886 71.628 85.7886 71.7253 85.4725C71.9928 85.1644 71.9928 85.1644 72.3738 84.824C72.9164 84.2994 73.427 83.757 73.9196 83.1855C74.2623 82.7958 74.6148 82.4157 74.9678 82.0354C75.6341 81.3168 76.2851 80.5873 76.921 79.8416C77.0576 79.6836 77.0576 79.6836 77.1971 79.5224C77.2792 79.4265 77.3613 79.3305 77.4459 79.2316C77.8996 78.7807 78.2794 78.6957 78.9104 78.6928C79.051 78.6915 79.1915 78.6902 79.3363 78.6888C79.4884 78.6885 79.6405 78.6883 79.7972 78.688C80.1242 78.6847 80.4511 78.6814 80.7781 78.6781C81.2896 78.6744 81.8012 78.6713 82.3127 78.6688C86.2734 78.6459 89.659 78.3644 93.1342 76.3528C93.4719 76.1588 93.7983 76.0074 94.1637 75.8746C94.1637 75.789 94.1637 75.7034 94.1637 75.6152C94.378 75.4323 94.378 75.4323 94.6744 75.2179C95.5896 74.525 96.4304 73.7567 97.0171 72.7617Z" fill="white"/>
<path d="M23.6066 74.1855C23.9637 74.3708 24.1698 74.6147 24.4319 74.9192C24.5331 75.0364 24.6342 75.1536 24.7384 75.2743C24.8836 75.4436 24.8836 75.4436 25.0318 75.6163C25.1139 75.7038 25.196 75.7912 25.2806 75.8813C25.7992 76.4393 25.7992 76.4393 25.8586 76.9052C25.8346 77.0376 25.8346 77.0376 25.81 77.1727C25.5532 77.2369 25.5532 77.2369 25.2912 77.3024C25.2912 77.388 25.2912 77.4736 25.2912 77.5618C25.086 77.7402 25.086 77.7402 24.7967 77.9509C24.1543 78.4332 23.5769 78.9644 22.9935 79.515C22.6972 79.7668 22.6972 79.7668 22.4378 79.7668C22.4378 79.8524 22.4378 79.938 22.4378 80.0262C22.2391 80.2041 22.0319 80.3727 21.8217 80.5369C21.2723 80.9757 20.7466 81.4271 20.2328 81.9069C19.6216 82.4763 18.9898 83.0111 18.3359 83.5317C18.0221 83.783 18.0221 83.783 17.7442 84.0799C17.5091 84.3063 17.5091 84.3063 17.2497 84.3063C17.2497 84.3919 17.2497 84.4775 17.2497 84.5657C16.6698 85.0845 16.6698 85.0845 16.3418 85.0845C16.3418 85.1701 16.3418 85.2557 16.3418 85.3439C16.0978 85.5556 15.8542 85.7507 15.596 85.9438C15.5194 86.0017 15.4428 86.0597 15.3639 86.1193C14.6288 86.6701 13.8741 87.1852 13.0992 87.6786C12.8843 87.8185 12.8843 87.8185 12.665 87.9613C11.3254 88.8133 9.89866 89.4194 8.42997 90.0132C8.25081 90.087 8.25081 90.087 8.06804 90.1624C7.95156 90.2099 7.83509 90.2575 7.71509 90.3066C7.55692 90.3714 7.55692 90.3714 7.39556 90.4376C7.13295 90.532 7.13295 90.532 6.87355 90.532C6.85148 90.4534 6.82941 90.3749 6.80667 90.2939C6.63599 89.7037 6.44947 89.1359 6.20883 88.5703C5.97484 88.0058 5.88098 87.5084 5.83594 86.9004C6.01049 86.8482 6.01049 86.8482 6.18856 86.795C8.69469 86.0079 11.0018 84.7198 13.0612 83.0939C13.3586 82.8796 13.3586 82.8796 13.618 82.8796C13.618 82.794 13.618 82.7084 13.618 82.6202C13.8194 82.4395 14.0292 82.2682 14.2422 82.1014C14.8998 81.5758 15.524 81.0245 16.1447 80.4553C17.3208 79.3777 17.3208 79.3777 17.6388 79.3777C17.6388 79.2921 17.6388 79.2065 17.6388 79.1183C17.8375 78.9403 18.0447 78.7718 18.2549 78.6076C18.8043 78.1688 19.3299 77.7174 19.8437 77.2376C20.443 76.6798 21.0616 76.1559 21.7016 75.6447C22.1773 75.2503 22.6199 74.8233 23.0614 74.3912C23.3457 74.1896 23.3457 74.1896 23.6066 74.1855Z" fill="white"/>
<path d="M65.1108 24.9023C65.6254 25.1104 65.9758 25.4683 66.3612 25.8543C66.4638 25.956 66.4638 25.956 66.5684 26.0598C66.7121 26.2028 66.8556 26.3462 66.9987 26.4899C67.2184 26.71 67.4398 26.9283 67.6613 27.1465C67.8009 27.2858 67.9404 27.4253 68.0798 27.5648C68.1462 27.63 68.2127 27.6953 68.2812 27.7626C68.7425 28.23 68.7425 28.23 68.7425 28.6637C68.5611 28.8547 68.5611 28.8547 68.3047 29.0609C67.7237 29.5417 67.217 30.0759 66.7057 30.6295C66.4078 30.8686 66.4078 30.8686 66.1773 30.8638C65.7436 30.6759 65.4533 30.3508 65.1291 30.0169C65.0578 29.9452 64.9866 29.8734 64.9132 29.7994C64.6863 29.5704 64.4608 29.34 64.2353 29.1095C64.0816 28.9538 63.9277 28.7982 63.7738 28.6427C63.397 28.2616 63.0214 27.8793 62.6465 27.4964C62.7892 27.0683 62.8835 26.9873 63.222 26.7101C63.8899 26.1453 64.4984 25.526 65.1108 24.9023Z" fill="white"/>
<path d="M79.896 10.1172C80.4105 10.3253 80.761 10.6831 81.1464 11.0692C81.2489 11.1709 81.2489 11.1709 81.3535 11.2746C81.4973 11.4177 81.6407 11.561 81.7839 11.7047C82.0036 11.9248 82.2249 12.1431 82.4464 12.3614C82.586 12.5007 82.7255 12.6401 82.8649 12.7796C82.9314 12.8449 82.9978 12.9102 83.0663 12.9774C83.5276 13.4448 83.5276 13.4448 83.5276 13.8785C83.3462 14.0695 83.3462 14.0695 83.0899 14.2757C82.5088 14.7565 82.0022 15.2907 81.4909 15.8443C81.193 16.0835 81.193 16.0835 80.9625 16.0787C80.5287 15.8907 80.2385 15.5656 79.9142 15.2318C79.843 15.16 79.7717 15.0882 79.6983 15.0143C79.4715 14.7852 79.246 14.5548 79.0205 14.3244C78.8667 14.1687 78.7129 14.013 78.5589 13.8575C78.1821 13.4764 77.8066 13.0941 77.4316 12.7112C77.5743 12.2831 77.6686 12.2022 78.0072 11.9249C78.675 11.3601 79.2836 10.7409 79.896 10.1172Z" fill="white"/>
<path d="M60.0514 29.832C60.6304 29.8859 60.9471 30.2894 61.3302 30.6837C61.4014 30.7555 61.4727 30.8273 61.5461 30.9012C61.773 31.1303 61.9984 31.3607 62.2239 31.5911C62.3777 31.7468 62.5315 31.9025 62.6855 32.058C63.0623 32.4391 63.4378 32.8213 63.8128 33.2043C63.5228 33.8584 63.0298 34.2994 62.532 34.8012C62.4385 34.899 62.345 34.9967 62.2488 35.0974C62.158 35.1891 62.0672 35.2808 61.9736 35.3753C61.8911 35.4596 61.8085 35.5439 61.7234 35.6308C61.4781 35.7983 61.4781 35.7983 61.2332 35.8024C60.8299 35.6054 60.543 35.3051 60.2323 34.9887C60.1642 34.9207 60.0962 34.8527 60.0261 34.7827C59.8827 34.639 59.7398 34.4948 59.5974 34.3502C59.3792 34.129 59.1593 33.9095 58.9391 33.6901C58.7999 33.5502 58.6608 33.4102 58.5219 33.2701C58.4561 33.2045 58.3903 33.1388 58.3225 33.0711C58.027 32.7696 57.8523 32.5732 57.7168 32.1667C57.7999 32.0929 57.883 32.0192 57.9686 31.9432C59.1437 31.0009 59.1437 31.0009 60.0514 29.832Z" fill="white"/>
<path d="M74.8377 15.0449C75.4123 15.1007 75.7319 15.4938 76.1165 15.8829C76.1878 15.9538 76.259 16.0246 76.3324 16.0977C76.4824 16.2474 76.632 16.3977 76.781 16.5484C77.0099 16.7793 77.2407 17.0081 77.4718 17.2367C77.6173 17.3825 77.7627 17.5284 77.908 17.6744C77.9773 17.7429 78.0466 17.8114 78.118 17.882C78.5991 18.3724 78.5991 18.3724 78.5991 18.8063C78.4177 18.9973 78.4177 18.9973 78.1613 19.2035C77.5803 19.6843 77.0736 20.2185 76.5624 20.7721C76.2645 21.0112 76.2645 21.0112 76.0322 21.0035C75.6136 20.8253 75.33 20.5239 75.0141 20.2061C74.9457 20.1385 74.8773 20.0708 74.8069 20.001C74.663 19.8579 74.5195 19.7143 74.3766 19.5703C74.1573 19.3499 73.9358 19.1321 73.714 18.9144C73.5744 18.775 73.4349 18.6354 73.2955 18.4957C73.229 18.4307 73.1626 18.3657 73.0941 18.2987C72.7119 17.9089 72.6328 17.8217 72.6328 17.2499C72.8233 17.0371 72.8233 17.0371 73.0868 16.8283C73.4912 16.4946 73.8744 16.1528 74.246 15.7826C74.3741 15.6549 74.3741 15.6549 74.5049 15.5247C74.7185 15.3135 74.7185 15.3135 74.8377 15.0449Z" fill="white"/>
<path d="M70.0397 19.9746C70.5543 20.1827 70.9047 20.5405 71.2901 20.9266C71.3927 21.0283 71.3927 21.0283 71.4973 21.1321C71.641 21.2751 71.7845 21.4185 71.9276 21.5622C72.1473 21.7823 72.3686 22.0006 72.5902 22.2188C72.7298 22.3581 72.8693 22.4975 73.0087 22.637C73.0751 22.7023 73.1416 22.7676 73.2101 22.8348C73.6714 23.3023 73.6714 23.3023 73.6714 23.736C73.49 23.927 73.49 23.927 73.2336 24.1332C72.6526 24.6139 72.1459 25.1481 71.6346 25.7017C71.3367 25.9409 71.3367 25.9409 71.1044 25.9332C70.6859 25.755 70.4022 25.4536 70.0863 25.1358C70.018 25.0681 69.9496 25.0005 69.8792 24.9307C69.7352 24.7876 69.5918 24.644 69.4488 24.5C69.2296 24.2796 69.0081 24.0618 68.7863 23.8441C68.6466 23.7047 68.5071 23.5651 68.3678 23.4254C68.3013 23.3604 68.2348 23.2954 68.1664 23.2284C67.7842 22.8386 67.7051 22.7514 67.7051 22.1795C67.8865 21.9759 67.8865 21.9759 68.1428 21.7742C68.8195 21.2176 69.4263 20.5993 70.0397 19.9746Z" fill="white"/>
<path d="M34.1248 56.1622C34.4194 56.3167 34.5683 56.4774 34.7763 56.7372C35.4831 57.582 36.2508 58.3742 37.111 59.0637C37.234 59.1761 37.3571 59.2884 37.4839 59.4042C37.4839 59.923 37.4839 59.923 37.3025 60.1267C37.2179 60.1932 37.1333 60.2598 37.0461 60.3283C36.4621 60.8043 35.9579 61.3357 35.4471 61.8888C35.1492 62.1279 35.1492 62.1279 34.8711 62.1224C34.5482 61.9558 34.3681 61.7026 34.1481 61.4196C33.9727 61.1952 33.9727 61.1952 33.6658 60.9687C33.3068 60.6798 33.0411 60.3643 32.7487 60.0106C32.4969 59.7278 32.2026 59.5095 31.9067 59.2745C31.9067 59.1889 31.9067 59.1033 31.9067 59.0151C31.7783 58.9723 31.6499 58.9295 31.5176 58.8854C31.5176 58.3666 31.5176 58.3666 31.699 58.1629C31.7836 58.0964 31.8682 58.0298 31.9553 57.9613C32.5394 57.4853 33.0435 56.9538 33.5543 56.4008C33.8522 56.1616 33.8522 56.1616 34.1248 56.1622Z" fill="white"/>
<path d="M39.054 51.2346C39.3406 51.3847 39.4823 51.537 39.6797 51.7924C39.9098 52.0765 40.1048 52.2928 40.3931 52.522C40.7829 52.8357 41.08 53.1923 41.4023 53.5733C41.6152 53.8071 41.8284 53.9927 42.0792 54.1838C42.2437 54.3282 42.2437 54.3282 42.4116 54.4756C42.4116 54.9944 42.4116 54.9944 42.2302 55.1981C42.1456 55.2646 42.061 55.3312 41.9738 55.3997C41.2971 55.9564 40.6904 56.5746 40.077 57.1993C39.583 56.97 39.2921 56.6826 38.9096 56.2914C38.647 56.0571 38.3811 55.8268 38.1142 55.5973C37.6718 55.2067 37.6718 55.2067 37.4829 54.9944C37.4829 54.9088 37.4829 54.8232 37.4829 54.735C37.3973 54.735 37.3117 54.735 37.2235 54.735C36.7382 54.3207 36.539 54.0641 36.4453 53.438C36.5351 53.3623 36.5351 53.3623 36.6267 53.285C37.2887 52.7172 37.8902 52.113 38.482 51.4722C38.7799 51.2331 38.7799 51.2331 39.054 51.2346Z" fill="white"/>
</g>
<defs>
<clipPath id="clip0_454_928">
<rect width="100" height="98.5733" fill="white"/>
</clipPath>
</defs>
</svg>
