<svg width="100" height="95" viewBox="0 0 100 95" fill="none" xmlns="http://www.w3.org/2000/svg">
<g clip-path="url(#clip0_454_925)">
<path d="M38.033 -0.0468472C38.1399 -0.047425 38.2469 -0.0480028 38.3571 -0.0485981C38.7124 -0.0500654 39.0678 -0.0489089 39.4232 -0.0477401C39.6792 -0.0482424 39.9352 -0.0489021 40.1912 -0.0497068C40.8845 -0.0513915 41.5778 -0.0507421 42.2711 -0.0495664C42.9978 -0.0486267 43.7245 -0.0494989 44.4512 -0.0500798C45.6716 -0.0507531 46.8919 -0.0498671 48.1123 -0.0481018C49.5215 -0.0460869 50.9307 -0.0467388 52.3399 -0.0487783C53.5515 -0.0504612 54.763 -0.0506951 55.9745 -0.0497269C56.6974 -0.0491506 57.4203 -0.0490694 58.1432 -0.050296C58.823 -0.051369 59.5029 -0.0506179 60.1827 -0.0484833C60.4316 -0.0479952 60.6806 -0.0481314 60.9295 -0.048951C62.5672 -0.053844 63.8513 0.0571261 65.3014 0.872097C65.381 0.915464 65.4607 0.958831 65.5427 1.00351C65.8865 1.19196 66.2173 1.38756 66.5436 1.60512C66.5436 1.6866 66.5436 1.76809 66.5436 1.85204C66.7066 1.89278 66.8696 1.93352 67.0375 1.97549C67.0375 2.05697 67.0375 2.13846 67.0375 2.22241C67.1081 2.25328 67.1788 2.28415 67.2516 2.31596C68.8942 3.21658 69.9101 5.32481 70.4557 7.03722C70.8141 8.35805 70.8988 9.61816 70.8887 10.9816C70.8883 11.1678 70.8879 11.3541 70.8877 11.5404C70.8868 12.0261 70.8843 12.5117 70.8816 12.9974C70.879 13.4948 70.8779 13.9923 70.8767 14.4897C70.8741 15.4624 70.8699 16.435 70.8646 17.4076C70.942 17.4072 71.0194 17.4069 71.0991 17.4066C72.9925 17.3983 74.8859 17.3922 76.7794 17.3884C77.6951 17.3865 78.6108 17.3839 79.5265 17.3797C80.3257 17.3759 81.125 17.3736 81.9243 17.3727C82.3465 17.3723 82.7686 17.3712 83.1908 17.3684C86.197 17.3511 88.8728 17.5495 91.6054 18.8891C91.6956 18.9311 91.7858 18.9731 91.8788 19.0164C94.2726 20.1521 96.5464 22.1598 97.9017 24.4446C97.9709 24.5543 98.0401 24.6639 98.1114 24.7769C98.6963 25.7297 99.1489 26.72 99.5066 27.778C99.5473 27.8939 99.5881 28.0099 99.63 28.1294C100.021 29.3463 100.07 30.4461 100.062 31.7135C100.063 31.9323 100.063 32.151 100.064 32.3698C100.066 32.9664 100.065 33.563 100.063 34.1597C100.062 34.8048 100.063 35.45 100.064 36.0951C100.066 37.357 100.065 38.6188 100.063 39.8807C100.061 41.3506 100.062 42.8206 100.062 44.2905C100.063 46.913 100.061 49.5355 100.058 52.158C100.055 54.7023 100.054 57.2465 100.056 59.7908C100.057 62.5631 100.057 65.3354 100.055 68.1077C100.055 68.4032 100.055 68.6987 100.055 68.9943C100.055 69.1397 100.055 69.2851 100.055 69.4349C100.054 70.4595 100.054 71.484 100.055 72.5086C100.055 73.7567 100.055 75.0047 100.052 76.2528C100.051 76.8895 100.05 77.5262 100.051 78.1629C100.052 78.7457 100.051 79.3286 100.049 79.9114C100.049 80.1222 100.049 80.333 100.049 80.5439C100.05 80.8306 100.049 81.1172 100.047 81.404C100.047 81.6428 100.047 81.6428 100.047 81.8864C100.001 82.3448 99.8956 82.6909 99.721 83.1124C99.5891 83.4331 99.5007 83.7641 99.4063 84.0974C99.1481 84.9553 98.7901 85.7398 98.3955 86.5434C98.314 86.5434 98.2325 86.5434 98.1486 86.5434C98.137 86.6102 98.1253 86.6771 98.1134 86.7459C97.999 87.1234 97.8122 87.4147 97.6007 87.7471C97.4864 87.9295 97.4864 87.9295 97.3697 88.1155C97.3008 88.2078 97.2319 88.3001 97.1609 88.3952C97.0794 88.3952 96.998 88.3952 96.914 88.3952C96.8808 88.4675 96.8475 88.5398 96.8132 88.6142C95.9567 90.2255 93.978 91.7288 92.3461 92.479C92.1711 92.5596 91.999 92.6465 91.8291 92.7375C90.9281 93.2176 89.9858 93.5276 89.0128 93.8273C88.8251 93.8917 88.8251 93.8917 88.6336 93.9574C88.0459 94.1231 87.4632 94.1088 86.8566 94.1064C86.7274 94.1068 86.5982 94.1073 86.4651 94.1078C86.0308 94.1091 85.5966 94.1086 85.1623 94.1081C84.8483 94.1087 84.5344 94.1093 84.2204 94.1101C83.5371 94.1114 82.8537 94.1121 82.1704 94.112C81.1541 94.1119 80.1379 94.1132 79.1217 94.1148C77.095 94.1178 75.0684 94.1189 73.0417 94.1195C72.8843 94.1196 72.8843 94.1196 72.7236 94.1196C72.6185 94.1197 72.5133 94.1197 72.4049 94.1197C71.2392 94.1201 70.0735 94.1209 68.9078 94.1217C65.3862 94.1241 61.8646 94.1262 58.3429 94.1265C58.2303 94.1265 58.1177 94.1265 58.0016 94.1266C57.5451 94.1266 57.0886 94.1266 56.6321 94.1267C56.2885 94.1267 55.945 94.1268 55.6014 94.1268C55.4879 94.1268 55.3743 94.1268 55.2573 94.1268C51.6917 94.1272 48.1261 94.1299 44.5604 94.1344C40.5539 94.1394 36.5474 94.1423 32.5408 94.1424C32.1133 94.1424 31.6858 94.1424 31.2583 94.1424C31.1004 94.1424 31.1004 94.1424 30.9393 94.1425C29.2474 94.1426 27.5554 94.1447 25.8635 94.1476C24.1618 94.1504 22.4601 94.1509 20.7585 94.1491C19.7484 94.1481 18.7383 94.1488 17.7283 94.152C16.9727 94.1542 16.2171 94.1531 15.4615 94.1508C15.1568 94.1504 14.8522 94.151 14.5475 94.1527C12.412 94.1643 10.5652 93.9517 8.64242 92.9632C8.50189 92.8934 8.36137 92.8237 8.21659 92.7519C6.27045 91.7667 4.41357 90.3951 3.08686 88.6422C3.08686 88.5607 3.08686 88.4792 3.08686 88.3952C3.00538 88.3952 2.9239 88.3952 2.83995 88.3952C2.6607 88.1631 2.49258 87.9222 2.33069 87.6777C2.24125 87.5445 2.15181 87.4113 2.05966 87.274C1.85229 86.9138 1.85229 86.9138 1.85229 86.5434C1.77081 86.5434 1.68933 86.5434 1.60538 86.5434C1.15239 85.6208 0.772388 84.7254 0.488965 83.7367C0.375294 83.3202 0.375291 83.3202 0.181231 82.8855C-0.116416 81.9868 -0.0510314 81.0347 -0.0474209 80.0991C-0.0479364 79.8819 -0.0486137 79.6648 -0.0494366 79.4476C-0.0512195 78.8524 -0.0506981 78.2572 -0.0497869 77.662C-0.0492027 77.0195 -0.0507459 76.3769 -0.0520098 75.7344C-0.0541324 74.476 -0.0542353 73.2177 -0.0535885 71.9594C-0.0530893 70.9364 -0.0532677 69.9133 -0.0539275 68.8903C-0.0540199 68.7446 -0.0541111 68.5989 -0.0542063 68.4489C-0.0543954 68.1529 -0.0545883 67.857 -0.054779 67.5611C-0.0564737 64.7862 -0.0557997 62.0113 -0.0543834 59.2363C-0.0531577 56.6993 -0.0547555 54.1622 -0.0577102 51.6251C-0.0607227 49.0188 -0.0619068 46.4125 -0.061086 43.8061C-0.0606551 42.3434 -0.0609271 40.8807 -0.0630904 39.4179C-0.0649094 38.1725 -0.0649876 36.927 -0.0628379 35.6815C-0.0617882 35.0465 -0.0615182 34.4114 -0.0634106 33.7764C-0.065124 33.1941 -0.0645252 32.612 -0.0621447 32.0297C-0.0616816 31.82 -0.062038 31.6102 -0.0633315 31.4004C-0.070768 30.1012 0.0575181 29.0146 0.49427 27.778C0.532653 27.6689 0.571033 27.5599 0.610579 27.4476C1.56299 24.8551 3.22105 22.4236 5.43254 20.7409C5.51402 20.7409 5.5955 20.7409 5.67945 20.7409C5.67945 20.6594 5.67945 20.578 5.67945 20.494C5.84242 20.4533 6.00538 20.4125 6.17328 20.3706C6.17328 20.2891 6.17328 20.2076 6.17328 20.1236C9.45393 17.7397 13.1309 17.3446 17.0582 17.37C17.4844 17.3724 17.9107 17.3726 18.3369 17.373C19.14 17.3742 19.9431 17.3772 20.7463 17.3809C21.6623 17.3851 22.5783 17.3871 23.4944 17.389C25.375 17.3928 27.2556 17.3993 29.1362 17.4076C29.135 17.256 29.135 17.256 29.1337 17.1013C29.1263 16.1408 29.1207 15.1803 29.1171 14.2198C29.1151 13.7262 29.1125 13.2326 29.1083 12.739C29.1042 12.2611 29.1021 11.7832 29.1011 11.3053C29.1004 11.1246 29.0991 10.9438 29.0971 10.7631C29.0633 7.618 30.0541 4.9178 32.2612 2.64679C32.5067 2.39939 32.5067 2.39939 32.7165 2.22241C32.798 2.22241 32.8795 2.22241 32.9634 2.22241C32.9634 2.14092 32.9634 2.05944 32.9634 1.97549C33.1264 1.93475 33.2893 1.89401 33.4572 1.85204C33.4572 1.77055 33.4572 1.68907 33.4572 1.60512C36.4766 -0.06 36.4767 -0.0600001 38.033 -0.0468472ZM36.6671 7.03722C36.5576 7.12379 36.4481 7.21037 36.3353 7.29957C34.2119 9.93947 35.4325 15.0837 35.4325 17.4076C45.0474 17.4076 54.6622 17.4076 64.5683 17.4076C65.2096 12.0254 65.2096 12.0254 63.4804 7.09895C62.0754 5.83548 60.3329 5.8891 58.5417 5.8922C58.3351 5.89166 58.1285 5.89102 57.9219 5.89029C57.3643 5.88865 56.8067 5.88856 56.2491 5.88888C55.7819 5.88901 55.3147 5.8884 54.8474 5.88781C53.7442 5.88645 52.641 5.88639 51.5378 5.88714C50.4036 5.88788 49.2695 5.88636 48.1353 5.88373C47.158 5.88155 46.1807 5.88082 45.2033 5.88122C44.6212 5.88144 44.0391 5.88113 43.4569 5.8794C42.909 5.87784 42.3611 5.8781 41.8132 5.8797C41.6134 5.87999 41.4137 5.87966 41.2139 5.87864C38.7508 5.86608 38.7508 5.86608 36.6671 7.03722ZM18.0251 23.7039C18.0251 44.9706 18.0251 66.2372 18.0251 88.1483C39.1288 88.1483 60.2325 88.1483 81.9757 88.1483C81.9757 66.8817 81.9757 45.615 81.9757 23.7039C60.872 23.7039 39.7683 23.7039 18.0251 23.7039ZM8.47218 26.323C6.46277 28.4582 6.02976 30.8681 6.03414 33.6873C6.034 33.8866 6.03381 34.0858 6.03356 34.2851C6.03305 34.8308 6.0333 35.3766 6.03368 35.9223C6.03396 36.5115 6.03353 37.1008 6.0332 37.6901C6.03265 38.8437 6.03276 39.9973 6.03312 41.151C6.0334 42.0886 6.03344 43.0263 6.0333 43.964C6.03329 44.0975 6.03326 44.231 6.03324 44.3685C6.0332 44.6397 6.03317 44.9109 6.03313 45.1821C6.03278 47.7247 6.03318 50.2673 6.03384 52.8099C6.03439 54.9911 6.0343 57.1723 6.03373 59.3535C6.03307 61.8871 6.03281 64.4206 6.03319 66.9542C6.03323 67.2244 6.03327 67.4946 6.0333 67.7648C6.03332 67.8977 6.03334 68.0307 6.03336 68.1677C6.03347 69.1041 6.03329 70.0405 6.033 70.977C6.03265 72.1183 6.03275 73.2596 6.0334 74.401C6.03373 74.9832 6.03385 75.5654 6.03344 76.1476C6.03308 76.6809 6.03328 77.2141 6.03394 77.7473C6.03407 77.9399 6.034 78.1326 6.0337 78.3252C6.02972 81.0947 6.61665 83.468 8.59419 85.5196C9.60301 86.47 10.555 87.0446 11.8523 87.5311C11.8523 66.6718 11.8523 45.8125 11.8523 24.3212C10.5963 24.3212 9.33521 25.4711 8.47218 26.323ZM88.1486 24.3212C88.1486 45.1804 88.1486 66.0397 88.1486 87.5311C90.5695 86.4551 92.3552 85.0275 93.3878 82.5388C93.4547 82.3519 93.5194 82.1642 93.5807 81.9755C93.6291 81.8304 93.6774 81.6852 93.7273 81.5357C93.9995 80.384 93.9686 79.2172 93.9667 78.0415C93.9669 77.8422 93.9671 77.6429 93.9673 77.4436C93.9678 76.8979 93.9676 76.3522 93.9672 75.8065C93.9669 75.2172 93.9673 74.6279 93.9677 74.0387C93.9682 72.885 93.9681 71.7314 93.9678 70.5778C93.9675 69.6401 93.9674 68.7025 93.9676 67.7648C93.9676 67.5646 93.9676 67.5645 93.9676 67.3603C93.9677 67.089 93.9677 66.8178 93.9678 66.5466C93.9681 64.004 93.9677 61.4615 93.967 58.9189C93.9665 56.7377 93.9666 54.5564 93.9671 52.3752C93.9678 49.8417 93.9681 47.3081 93.9677 44.7746C93.9677 44.5044 93.9676 44.2342 93.9676 43.964C93.9676 43.831 93.9675 43.6981 93.9675 43.5611C93.9674 42.6247 93.9676 41.6882 93.9679 40.7518C93.9682 39.6105 93.9681 38.4691 93.9675 37.3278C93.9671 36.7456 93.967 36.1633 93.9674 35.5811C93.9678 35.0479 93.9676 34.5147 93.9669 33.9815C93.9668 33.7888 93.9669 33.5962 93.9672 33.4035C93.9712 30.6027 93.3967 28.3223 91.4245 26.2188C90.8165 25.634 90.1797 25.1597 89.4526 24.7378C89.3796 24.6955 89.3066 24.6531 89.2314 24.6095C88.8261 24.3867 88.6242 24.3212 88.1486 24.3212Z" fill="white"/>
<path d="M45.1413 35.0435C45.3159 35.0428 45.3159 35.0428 45.4939 35.0422C45.8767 35.041 46.2594 35.0408 46.6422 35.0407C46.9095 35.0403 47.1769 35.0398 47.4442 35.0394C48.004 35.0387 48.5638 35.0384 49.1235 35.0385C49.8391 35.0385 50.5546 35.0368 51.2701 35.0347C51.8221 35.0333 52.3741 35.0331 52.9261 35.0332C53.1899 35.033 53.4536 35.0325 53.7173 35.0315C54.0869 35.0303 54.4564 35.0307 54.8259 35.0314C54.9337 35.0307 55.0415 35.03 55.1525 35.0293C56.3236 35.0352 57.242 35.2016 58.1294 36.0105C59.2126 37.1159 59.0463 38.6075 59.0361 40.0624C59.0356 40.2571 59.0353 40.4519 59.035 40.6466C59.0341 41.1552 59.0317 41.6638 59.0289 42.1724C59.0264 42.693 59.0253 43.2136 59.024 43.7342C59.0214 44.7528 59.0172 45.7713 59.012 46.7898C59.1873 46.7905 59.1873 46.7905 59.3662 46.7911C60.4705 46.7957 61.5748 46.8029 62.6791 46.8125C63.2468 46.8174 63.8145 46.8213 64.3821 46.8232C64.9305 46.8251 65.4788 46.8294 66.0271 46.8353C66.2358 46.8371 66.4445 46.8381 66.6532 46.8382C68.8815 46.8404 68.8815 46.8404 69.7826 47.6583C69.8491 47.7409 69.9156 47.8235 69.9842 47.9086C70.0526 47.9915 70.121 48.0744 70.1916 48.1599C70.865 49.0463 70.9009 50.0021 70.8958 51.084C70.8964 51.2568 70.8964 51.2568 70.8971 51.433C70.8982 51.8105 70.8974 52.1878 70.8966 52.5652C70.8968 52.8295 70.897 53.0937 70.8973 53.358C70.8977 53.9104 70.8972 54.4629 70.896 55.0154C70.8946 55.7215 70.8954 56.4276 70.8969 57.1337C70.8978 57.6789 70.8975 58.2242 70.8969 58.7694C70.8967 59.0297 70.8969 59.2899 70.8975 59.5502C70.8981 59.9147 70.8971 60.2792 70.8958 60.6437C70.8963 60.7499 70.8968 60.8562 70.8973 60.9656C70.8873 62.4087 70.5422 63.2691 69.5367 64.2975C68.4099 65.0559 67.1404 64.9876 65.8358 64.9741C65.6383 64.9734 65.4408 64.9729 65.2433 64.9725C64.7273 64.9711 64.2114 64.9675 63.6955 64.9634C63.1675 64.9596 62.6394 64.9579 62.1114 64.956C61.0782 64.9521 60.0451 64.9458 59.012 64.9379C59.0125 65.0453 59.0131 65.1526 59.0136 65.2632C59.0186 66.2785 59.0223 67.2937 59.0248 68.309C59.026 68.8308 59.0278 69.3527 59.0306 69.8745C59.0333 70.3789 59.0347 70.8832 59.0354 71.3875C59.0358 71.5792 59.0367 71.7709 59.0381 71.9626C59.0567 74.7398 59.0567 74.7398 58.0817 75.752C57.2048 76.567 56.3052 76.7218 55.1462 76.7162C54.9609 76.7175 54.9609 76.7175 54.7717 76.7188C54.3656 76.721 53.9595 76.7206 53.5533 76.7199C53.2695 76.7204 52.9858 76.7211 52.702 76.7218C52.1081 76.7229 51.5142 76.7226 50.9203 76.7214C50.1609 76.72 49.4015 76.7225 48.6421 76.7261C48.0563 76.7283 47.4705 76.7283 46.8847 76.7276C46.6048 76.7276 46.3249 76.7283 46.045 76.7299C45.6529 76.7317 45.261 76.7304 44.869 76.7283C44.7544 76.7295 44.6399 76.7307 44.5219 76.7319C43.374 76.719 42.5192 76.3076 41.6861 75.5292C40.9706 74.7582 40.9715 73.8022 40.9733 72.8006C40.9732 72.715 40.9732 72.6294 40.9732 72.5412C40.9733 72.2613 40.9742 71.9814 40.9752 71.7015C40.9754 71.5062 40.9756 71.311 40.9757 71.1157C40.9762 70.604 40.9774 70.0924 40.9788 69.5807C40.9801 69.0577 40.9806 68.5346 40.9812 68.0116C40.9826 66.987 40.9847 65.9625 40.9873 64.9379C40.8243 64.9392 40.8243 64.9392 40.6581 64.9404C39.6302 64.9479 38.6023 64.9535 37.5743 64.9571C37.046 64.959 36.5176 64.9617 35.9893 64.9659C35.4785 64.9699 34.9679 64.9721 34.4571 64.9731C34.2631 64.9738 34.0691 64.9751 33.8751 64.9771C31.2096 65.0036 31.2096 65.0036 30.2542 64.0892C30.1666 64.008 30.0789 63.9268 29.9885 63.8432C29.1827 62.9435 29.0981 61.9258 29.1035 60.7698C29.103 60.6535 29.1026 60.5371 29.1022 60.4172C29.1011 60.0351 29.1018 59.6531 29.1026 59.271C29.1025 59.0038 29.1022 58.7366 29.1019 58.4694C29.1015 57.9104 29.1021 57.3514 29.1032 56.7923C29.1046 56.0778 29.1038 55.3633 29.1023 54.6487C29.1014 54.0972 29.1017 53.5458 29.1024 52.9943C29.1025 52.7309 29.1023 52.4675 29.1018 52.2041C29.1011 51.8352 29.1021 51.4663 29.1035 51.0973C29.103 50.9897 29.1025 50.8821 29.102 50.7713C29.108 49.8882 29.1534 48.9391 29.7373 48.2327C29.8363 48.1124 29.8363 48.1124 29.9374 47.9896C29.9987 47.9196 30.0599 47.8496 30.1231 47.7774C30.202 47.6832 30.2809 47.589 30.3623 47.4919C30.9975 46.9722 31.6512 46.8582 32.4518 46.8599C32.5447 46.8586 32.6375 46.8573 32.7332 46.856C33.0371 46.8523 33.341 46.8512 33.645 46.8501C33.8569 46.848 34.0688 46.8457 34.2806 46.8434C34.8361 46.8375 35.3916 46.8338 35.9471 46.8306C36.5149 46.8269 37.0826 46.8212 37.6503 46.8156C38.7626 46.805 39.8749 46.7967 40.9873 46.7898C40.9867 46.6827 40.9862 46.5756 40.9856 46.4653C40.9806 45.4519 40.9769 44.4385 40.9745 43.4251C40.9732 42.9042 40.9715 42.3834 40.9686 41.8625C40.9659 41.359 40.9645 40.8555 40.9638 40.352C40.9634 40.1607 40.9625 39.9695 40.9612 39.7782C40.9422 36.9643 40.9422 36.9643 41.7589 36.1185C41.8512 36.0193 41.9435 35.9202 42.0386 35.818C42.9582 35.03 43.9905 35.0429 45.1413 35.0435ZM47.1601 41.3577C47.1569 42.0325 47.1537 42.7072 47.1505 43.4024C47.1474 43.8312 47.1441 44.2599 47.1403 44.6886C47.1344 45.3684 47.1289 46.0481 47.1266 46.7279C47.1248 47.2762 47.1205 47.8245 47.1146 48.3729C47.1128 48.5815 47.1118 48.7902 47.1117 48.9989C47.1105 50.2572 47.0789 51.1577 46.2805 52.191C45.1569 53.0704 43.9052 53.0372 42.5449 53.0379C42.3391 53.0397 42.1333 53.0418 41.9275 53.044C41.3896 53.0494 40.8518 53.0519 40.314 53.0538C39.6665 53.0566 39.0191 53.0631 38.3717 53.0689C37.3917 53.0774 36.4118 53.0813 35.4317 53.0861C35.4317 54.9194 35.4317 56.7527 35.4317 58.6416C36.4262 58.6443 36.4262 58.6443 37.4408 58.6469C37.8628 58.6494 38.2847 58.6521 38.7067 58.6554C39.3753 58.6606 40.0439 58.6652 40.7126 58.6658C41.2521 58.6663 41.7916 58.6698 42.3311 58.6754C42.5362 58.677 42.7412 58.6775 42.9463 58.677C44.3045 58.6741 45.3221 58.7947 46.4116 59.6756C46.9462 60.356 47.0918 60.9831 47.09 61.8346C47.0919 61.9739 47.0919 61.9739 47.0938 62.116C47.0975 62.4199 47.0987 62.7238 47.0998 63.0277C47.1019 63.2396 47.1041 63.4515 47.1065 63.6634C47.1124 64.2189 47.1161 64.7744 47.1193 65.3299C47.1236 65.9976 47.1307 66.6653 47.1373 67.333C47.1469 68.3453 47.1532 69.3576 47.1601 70.37C49.0342 70.37 50.9083 70.37 52.8391 70.37C52.8423 69.6953 52.8455 69.0205 52.8488 68.3253C52.8519 67.8966 52.8551 67.4678 52.8589 67.0391C52.8649 66.3594 52.8703 65.6796 52.8726 64.9998C52.8745 64.4515 52.8787 63.9032 52.8846 63.3549C52.8864 63.1462 52.8874 62.9375 52.8875 62.7288C52.8895 60.6821 52.8896 60.6821 53.4564 59.8762C53.6934 59.6528 53.9389 59.4585 54.1971 59.2589C54.1971 59.1774 54.1971 59.096 54.1971 59.012C54.3385 58.9853 54.3385 58.9853 54.4826 58.958C54.8245 58.8931 54.8245 58.8931 55.1848 58.7651C55.487 58.7504 55.7859 58.7422 56.0882 58.7397C56.1797 58.7385 56.2713 58.7373 56.3656 58.736C56.6682 58.7321 56.9708 58.7291 57.2734 58.726C57.4833 58.7235 57.6931 58.7209 57.9029 58.7183C58.4552 58.7114 59.0074 58.7053 59.5597 58.6994C60.2223 58.6921 60.885 58.6839 61.5476 58.6759C62.5542 58.6638 63.5609 58.6528 64.5675 58.6416C64.5675 56.8083 64.5675 54.975 64.5675 53.0861C63.9091 53.0786 63.2508 53.0711 62.5724 53.0634C62.1544 53.0584 61.7364 53.0534 61.3183 53.0482C60.6554 53.0401 59.9924 53.032 59.3294 53.0247C58.7947 53.0188 58.26 53.0123 57.7253 53.0055C57.5216 53.003 57.318 53.0006 57.1144 52.9985C56.8284 52.9955 56.5424 52.9918 56.2563 52.988C56.0125 52.9851 56.0125 52.9851 55.7637 52.9822C55.3131 52.9628 54.8887 52.9109 54.4441 52.8392C54.4441 52.7577 54.4441 52.6762 54.4441 52.5923C54.3549 52.5413 54.2658 52.4904 54.174 52.4379C53.5632 52.0579 53.1772 51.5458 52.9626 50.8639C52.9374 50.5453 52.9242 50.2396 52.9232 49.9211C52.9214 49.7819 52.9214 49.7819 52.9195 49.6399C52.9157 49.3346 52.9135 49.0294 52.9115 48.7241C52.9091 48.5119 52.9067 48.2996 52.9042 48.0874C52.8979 47.5298 52.893 46.9723 52.8884 46.4148C52.8826 45.7452 52.875 45.0757 52.8677 44.4062C52.8568 43.39 52.8482 42.3739 52.8391 41.3577C50.965 41.3577 49.091 41.3577 47.1601 41.3577Z" fill="white"/>
</g>
<defs>
<clipPath id="clip0_454_925">
<rect width="100" height="94.0741" fill="white"/>
</clipPath>
</defs>
</svg>
