<svg width="300" height="300" viewBox="0 0 300 300" fill="none" xmlns="http://www.w3.org/2000/svg">
<path d="M159.375 117.187C165.234 120.41 165.234 120.41 168.75 124.218C168.75 125.765 168.75 127.312 168.75 128.906C171.844 129.679 174.937 130.453 178.125 131.25C177.352 132.796 176.578 134.343 175.781 135.937C175.878 138.499 175.975 141.061 176.074 143.701C175.746 153.386 174.939 156.712 168.75 164.062C162.718 168.38 156.474 172.167 150 175.781C151.583 176.322 153.166 176.862 154.797 177.42C169.373 182.749 177.99 187.23 185.156 201.562C186.365 213.694 186.556 224.135 181.641 235.4C172.892 244.368 164.386 250.035 151.703 251.321C139.261 250.748 131.901 246.62 122.836 238.284C114.552 228.485 113.799 219.843 114.13 207.339C115.226 198.469 118.16 194.012 124.219 187.5C129.097 184.157 134.01 181.147 139.197 178.308C140.441 177.474 141.686 176.64 142.969 175.781C142.969 174.234 142.969 172.687 142.969 171.093C138.297 167.945 133.608 164.822 128.906 161.718C121.582 150.732 123.312 139.148 125.391 126.416C125.777 124.917 126.164 123.418 126.562 121.875C128.013 121.536 129.463 121.198 130.957 120.849C149.198 116.021 149.198 116.021 159.375 117.187Z" fill="white"/>
<path d="M225.001 128.905C236.688 134.749 244.915 142.953 250.782 154.687C252.186 168.727 249.285 178.422 241.407 189.843C232.632 198.618 225.288 199.914 213.282 200.39C201.276 199.914 193.932 198.618 185.157 189.843C178.306 180.561 174.954 172.015 175.489 160.4C177.429 148.841 183.344 141.07 192.188 133.593C202.604 127.171 213.11 127.381 225.001 128.905Z" fill="white"/>
<path d="M96.0938 128.906C106.283 134.097 113.635 140.173 119.531 150C122.849 161.173 122.991 170.485 118.213 181.201C112.971 190.073 108.069 195.016 98.4375 199.219C86.1203 200.981 76.0637 200.706 64.5996 195.703C54.603 185.95 49.953 176.417 48.0469 162.598C49.8834 150.201 55.4866 143.362 64.7461 135.205C75.0891 127.856 83.6192 127.392 96.0938 128.906Z" fill="#EC5E80"/>
<path d="M203.906 51.5631C215.293 56.9462 221.799 63.7 227.343 75.0006C229.583 87.5259 228.152 98.3071 221.063 108.967C214.125 116.889 206.688 121.009 196.307 122.764C183.66 123.424 176.22 120.946 166.406 112.501C164.569 110.954 162.732 109.407 160.839 107.813C154.711 96.4995 155.345 85.2232 157.031 72.6569C166.901 51.8196 182.403 48.7488 203.906 51.5631Z" fill="#EC5E80"/>
<path d="M119.53 51.5617C130.92 56.9461 137.34 63.7438 142.968 74.9992C144.839 89.497 142.463 100.672 133.593 112.499C125.859 119.469 118.02 122.405 107.665 122.9C94.8756 121.479 87.6035 118.421 78.9542 108.837C70.9102 97.218 71.2452 86.5219 72.6554 72.6555C82.683 51.8573 97.9428 48.7363 119.53 51.5617Z" fill="#EC5E80"/>
<path d="M164.062 187.501C164.062 189.048 164.062 190.595 164.062 192.188C166.382 192.962 168.702 193.735 171.093 194.532C169.546 194.532 167.999 194.532 166.405 194.532C165.632 196.852 164.858 199.173 164.062 201.563C167.155 202.337 170.249 203.11 173.437 203.907C174.21 201.587 174.983 199.267 175.78 196.876C176.301 201.804 176.781 206.737 177.245 211.671C177.653 215.79 177.653 215.79 178.069 219.993C178.124 227.345 178.124 227.345 173.437 234.376C165.843 239.449 159.578 239.57 150.585 239.356C148.277 239.314 145.969 239.272 143.59 239.228C141.838 239.174 140.086 239.119 138.28 239.063C137.7 237.565 137.12 236.066 136.523 234.522C134.025 229.249 134.025 229.249 128.612 227.931C127.162 227.737 125.712 227.544 124.218 227.345C122.204 202.197 122.204 202.197 129.052 193.067C140.147 184.097 150.584 183.825 164.062 187.501Z" fill="white"/>
<path d="M203.906 51.5631C215.293 56.9462 221.799 63.7 227.343 75.0006C229.583 87.5259 228.152 98.3071 221.063 108.967C214.125 116.889 206.688 121.009 196.307 122.764C183.66 123.424 176.22 120.946 166.406 112.501C164.569 110.954 162.732 109.407 160.839 107.813C154.711 96.4995 155.345 85.2232 157.031 72.6569C166.901 51.8196 182.403 48.7488 203.906 51.5631ZM167.577 67.2369C163.354 72.606 163.354 72.606 164.355 79.9811C165.897 86.9463 165.897 86.9463 171.093 91.4069C179.304 92.2994 183.662 92.3501 190.722 87.8912C191.979 86.7311 193.236 85.5709 194.531 84.3756C194.047 85.7775 193.564 87.1793 193.066 88.6237C191.468 94.4174 191.468 94.4174 196.874 100.782C194.554 99.235 192.234 97.6881 189.843 96.0944C184.798 96.8172 184.798 96.8172 180.468 98.4381C181.815 107.651 181.815 107.651 187.499 114.844C199.718 115.028 199.718 115.028 210.003 109.36C219.204 98.3564 221.278 91.5884 220.312 77.3444C217.335 70.6472 214.959 66.8411 209.033 62.5494C195.979 58.4469 178.927 59.5761 167.577 67.2369Z" fill="white"/>
<path d="M164.062 182.812C172.185 186.73 176.822 192.282 181.347 200.097C184.068 211.525 184.358 220.87 179.003 231.445C173.789 239.559 168.674 243.053 159.374 246.094C148.868 247.774 142.366 247.014 132.861 241.992C123.462 234.124 119.407 229.23 117.333 217.09C116.667 208.812 117.175 206.274 120.995 198.486C123.751 195.368 123.751 195.368 126.562 192.187C128.955 189.432 128.955 189.432 131.396 186.621C142.054 180.725 152.174 180.79 164.062 182.812ZM135.937 187.5C127.634 194.212 124.644 197.586 123.504 208.227C123.487 214.644 123.706 220.949 124.218 227.344C125.668 227.537 127.118 227.73 128.613 227.929C133.593 229.687 133.593 229.687 136.523 234.521C137.103 236.02 137.683 237.518 138.281 239.062C155.149 240.022 155.149 240.022 171.386 236.279C177.181 230.677 177.78 228.405 178.124 220.312C177.583 212.466 176.765 204.678 175.781 196.875C175.007 199.195 174.234 201.515 173.437 203.906C170.343 203.133 167.249 202.359 164.062 201.562C164.835 199.242 165.609 196.922 166.406 194.531C167.952 193.758 169.499 192.984 171.093 192.187C168.773 192.187 166.452 192.187 164.062 192.187C164.062 190.64 164.062 189.094 164.062 187.5C154.001 184.756 146.034 184.795 135.937 187.5Z" fill="#EC5E80"/>
<path d="M227.343 133.593C236.021 137.915 240.745 144.32 246.093 152.343C246.798 157.827 246.798 157.827 246.826 163.915C246.885 166.92 246.885 166.92 246.945 169.985C245.941 176.817 243.569 180.03 239.062 185.155C238.974 182.53 238.887 179.905 238.797 177.2C238.643 173.748 238.487 170.296 238.33 166.845C238.277 165.115 238.224 163.386 238.169 161.604C237.711 151.766 237.711 151.766 233.66 142.986C224.415 137.49 212.924 140.146 203.027 142.529C196.216 144.956 196.216 144.956 192.187 152.343C191.531 159.153 191.531 159.153 191.748 166.552C191.763 169.044 191.778 171.537 191.793 174.105C191.766 180.389 191.766 180.389 194.531 185.155C205.354 189.643 215.795 190.992 227.343 192.187C222.656 196.874 222.656 196.874 214.013 197.753C202.769 197.426 196.513 194.215 187.5 187.499C181.07 178.374 179.195 170.233 179.635 159.274C181.373 149.704 187.036 143.215 194 136.788C204.11 130.598 215.941 131.931 227.343 133.593Z" fill="#EC5E80"/>
<path d="M173.438 196.875C174.211 196.875 174.984 196.875 175.781 196.875C176.302 201.803 176.782 206.736 177.246 211.67C177.654 215.789 177.654 215.789 178.07 219.992C178.125 227.344 178.125 227.344 173.438 234.375C165.844 239.449 159.579 239.57 150.586 239.355C148.278 239.313 145.969 239.271 143.591 239.227C141.839 239.173 140.087 239.119 138.281 239.062C137.701 237.564 137.121 236.065 136.523 234.521C133.673 228.539 133.673 228.539 124.219 227.344C124.219 218.836 124.219 210.328 124.219 201.562C126.539 201.562 128.859 201.562 131.25 201.562C130.477 204.656 129.703 207.75 128.906 210.938C132 210.938 135.094 210.938 138.281 210.938C138.281 212.484 138.281 214.031 138.281 215.625C134.414 215.625 130.547 215.625 126.562 215.625C127.336 218.719 128.109 221.812 128.906 225C134.691 222.301 138.393 220.2 142.969 215.625C142.969 217.172 142.969 218.719 142.969 220.312C146.836 220.312 150.703 220.312 154.688 220.312C154.688 225.727 154.688 231.141 154.688 236.719C157.008 235.172 159.328 233.625 161.719 232.031C160.172 228.164 158.625 224.297 157.031 220.312C158.578 220.312 160.125 220.312 161.719 220.312C162.492 222.633 163.266 224.953 164.062 227.344C167.156 228.117 170.25 228.891 173.438 229.688C172.664 222.727 171.891 215.766 171.094 208.594C167.227 208.594 163.359 208.594 159.375 208.594C159.375 207.047 159.375 205.5 159.375 203.906C164.016 203.906 168.656 203.906 173.438 203.906C173.438 201.586 173.438 199.266 173.438 196.875Z" fill="white"/>
<path d="M84.2285 158.935C86.8366 158.892 86.8366 158.892 89.4974 158.848C94.0433 158.836 98.5881 159.089 103.125 159.375C107.812 164.062 107.812 164.062 108.545 169.335C107.595 177.693 105.527 182.883 100.781 189.843C90.3239 193.408 81.0384 191.774 70.3125 189.843C71.0859 188.296 71.8594 186.75 72.6562 185.156C75.75 185.156 78.8437 185.156 82.0312 185.156C82.0312 181.289 82.0312 177.421 82.0312 173.437C84.3516 173.437 86.6719 173.437 89.0625 173.437C89.0625 170.343 89.0625 167.25 89.0625 164.062C81.3803 165.823 81.3803 165.823 77.3438 173.437C76.5703 170.343 75.7969 167.25 75 164.062C70.4514 164.709 70.4514 164.709 65.625 166.406C64.0781 168.726 62.5313 171.046 60.9375 173.437C63.87 157.099 68.7058 158.948 84.2285 158.935Z" fill="white"/>
<path d="M119.53 51.5617C130.92 56.9461 137.34 63.7438 142.968 74.9992C144.839 89.497 142.463 100.672 133.593 112.499C125.859 119.469 118.02 122.405 107.665 122.9C94.8756 121.479 87.6035 118.421 78.9542 108.837C70.9102 97.218 71.2452 86.5219 72.6554 72.6555C82.683 51.8573 97.9428 48.7363 119.53 51.5617ZM82.0304 63.2805C75.0291 73.4435 73.6914 81.5441 74.9991 93.7492C79.0418 104.601 83.4823 111.626 93.7491 117.187C104.692 119.152 114.897 119.843 124.767 114.184C132.263 107.865 137.769 102.905 138.921 92.8337C139.697 77.5713 139.697 77.5713 133.153 64.3059C124.193 56.54 118.642 54.3276 106.933 53.0266C96.669 54.0883 89.9446 56.6751 82.0304 63.2805Z" fill="white"/>
<path d="M214.307 141.797C220.313 142.969 220.313 142.969 224.708 148.096C227.698 155.572 227.514 158.866 225 166.406C222.657 168.75 222.657 168.75 214.6 169.336C211.845 169.143 209.089 168.949 206.25 168.75C201.563 161.719 201.563 161.719 202.149 155.859C204.494 148.042 205.92 143.517 214.307 141.797Z" fill="#EC5E80"/>
<path d="M189.844 145.312C192.398 152.975 192.344 158.51 192.188 166.553C191.692 176.22 191.692 176.22 194.532 185.156C205.355 189.644 215.795 190.993 227.344 192.188C222.657 196.875 222.657 196.875 214.014 197.754C202.769 197.427 196.514 194.216 187.5 187.5C179.786 176.551 179.006 167.644 180.469 154.688C185.157 148.828 185.157 148.828 189.844 145.312Z" fill="#EC5E80"/>
<path d="M67.9697 161.719C72.6572 162.598 72.6572 162.598 77.3447 164.062C78.8916 164.062 80.4385 164.062 82.0322 164.062C84.3525 164.062 86.6729 164.062 89.0635 164.062C89.0635 167.156 89.0635 170.25 89.0635 173.438C86.7432 174.598 86.7432 174.598 84.376 175.781C82.8395 181.705 82.8395 181.705 82.0322 187.5C75.0713 186.34 75.0713 186.34 67.9697 185.156C67.9697 182.836 67.9697 180.516 67.9697 178.125C66.4229 178.125 64.876 178.125 63.2822 178.125C62.9893 172.559 62.9893 172.559 63.2822 166.406C64.8291 164.859 66.376 163.313 67.9697 161.719Z" fill="white"/>
<path d="M220.312 140.626C218.476 141.206 216.639 141.786 214.746 142.384C208.478 144.791 208.478 144.791 205.371 149.562C203.496 156.126 204.048 159.972 206.25 166.407C208.57 167.954 210.891 169.501 213.281 171.095C211.106 171.385 211.106 171.385 208.887 171.681C203.474 172.999 203.474 172.999 200.977 178.272C200.396 179.771 199.816 181.27 199.219 182.813C199.992 176.626 200.766 170.438 201.562 164.063C200.016 164.063 198.469 164.063 196.875 164.063C195.328 167.157 193.781 170.251 192.187 173.438C188.468 154.884 188.468 154.884 193.652 145.313C202.424 137.926 209.534 137.033 220.312 140.626Z" fill="white"/>
<path d="M203.906 171.094C210.867 171.094 217.828 171.094 225 171.094C226.465 176.66 226.465 176.66 227.344 182.812C222.656 187.5 222.656 187.5 214.453 188.086C206.25 187.5 206.25 187.5 201.562 182.812C202.441 176.66 202.441 176.66 203.906 171.094Z" fill="#EC5E80"/>
<path d="M124.219 229.688C127.313 229.688 130.406 229.688 133.594 229.688C135.141 232.008 136.687 234.328 138.281 236.719C144.124 237.754 144.124 237.754 150.732 237.451C154.054 237.438 154.054 237.438 157.443 237.424C164.316 236.692 169.522 234.893 175.781 232.031C173.438 239.062 173.438 239.062 167.432 243.018C157.988 246.623 150.595 247.917 140.625 246.094C127.355 239.097 127.355 239.097 124.219 229.688Z" fill="#EC5E80"/>
<path d="M196.875 164.062C198.422 164.062 199.969 164.062 201.562 164.062C200.789 170.25 200.016 176.437 199.219 182.812C212.003 186.059 223.517 188.062 236.719 187.5C233.826 191.034 233.826 191.034 229.688 194.531C216.785 195.681 203.033 191.935 192.188 185.156C189.99 176.514 189.99 176.514 189.844 168.75C191.391 168.75 192.937 168.75 194.531 168.75C195.305 167.203 196.078 165.656 196.875 164.062Z" fill="white"/>
<path d="M140.625 75C141.398 75 142.172 75 142.969 75C144.017 89.682 142.605 100.485 133.594 112.5C125.419 119.868 117.714 122.384 106.787 122.461C104.032 122.268 101.276 122.074 98.4375 121.875C99.2109 120.328 99.9844 118.781 100.781 117.188C105.725 116.199 105.725 116.199 111.914 115.43C121.01 113.725 124.039 112.65 131.396 106.494C136.344 97.7154 137.487 91.5948 137.952 81.6925C138.281 77.3438 138.281 77.3438 140.625 75Z" fill="white"/>
<path d="M166.406 194.531C170.273 194.531 174.141 194.531 178.125 194.531C182.818 204.21 183.591 211.951 182.812 222.656C180.469 228.369 180.469 228.369 178.125 232.031C175.273 226.327 175.032 221.676 174.463 215.332C174.267 213.199 174.07 211.066 173.868 208.868C173.726 207.231 173.584 205.593 173.438 203.906C169.57 203.906 165.703 203.906 161.719 203.906C163.266 200.812 164.812 197.719 166.406 194.531Z" fill="#EC5E80"/>
<path d="M206.25 58.5938C214.213 61.8888 218.15 65.3068 222.656 72.6562C224.367 83.9106 224.022 94.795 220.02 105.469C214.533 111.321 208.906 114.087 201.562 117.188C200.789 115.641 200.016 114.094 199.219 112.5C201.007 111.582 202.796 110.663 204.639 109.717C211.819 104.874 214.546 101.676 217.969 93.75C218.831 83.9251 219.135 76.164 213.281 67.9688C208.516 63.9041 208.516 63.9041 203.906 60.9375C204.68 60.1641 205.453 59.3906 206.25 58.5938Z" fill="white"/>
<path d="M96.5327 68.8474C97.9346 69.3308 99.3364 69.8142 100.781 70.3122C101.22 75.8786 101.22 75.8786 100.781 82.031C93.7495 86.7185 93.7495 86.7185 88.6226 85.8396C87.2207 85.3562 85.8188 84.8728 84.3745 84.3747C83.9351 78.8083 83.9351 78.8083 84.3745 72.656C91.4058 67.9685 91.4058 67.9685 96.5327 68.8474Z" fill="white"/>
<path d="M168.75 128.906C171.844 129.68 174.937 130.453 178.125 131.25C177.352 132.797 176.578 134.344 175.781 135.938C175.878 138.5 175.975 141.062 176.074 143.701C175.758 153.02 174.367 156.781 168.75 164.062C166.43 165.609 164.109 167.156 161.719 168.75C159.398 167.977 157.078 167.203 154.688 166.406C158.168 164.303 158.168 164.303 161.719 162.158C167.388 157.58 168.633 155.506 169.684 148.169C169.634 141.698 169.359 135.347 168.75 128.906Z" fill="white"/>
<path d="M159.375 117.187C165.234 121.874 165.234 121.874 168.75 126.562C167.433 126.178 166.115 125.794 164.758 125.399C159.069 124.151 154.057 123.986 148.242 124.072C145.432 124.103 145.432 124.103 142.566 124.136C140.445 124.176 140.445 124.176 138.281 124.218C137.508 126.538 136.734 128.859 135.938 131.249C132.844 131.249 129.75 131.249 126.562 131.249C127.002 126.855 127.002 126.855 128.906 121.874C138.73 115.92 148.255 116.128 159.375 117.187Z" fill="white"/>
<path d="M239.062 152.344C241.383 152.344 243.703 152.344 246.094 152.344C246.285 156.053 246.421 159.764 246.533 163.477C246.656 166.576 246.656 166.576 246.78 169.739C246.094 175.781 246.094 175.781 239.062 185.156C239.062 174.328 239.062 163.5 239.062 152.344Z" fill="#EC5E80"/>
<path d="M124.22 135.938C124.993 135.938 125.767 135.938 126.563 135.938C126.847 137.406 127.131 138.874 127.424 140.387C127.817 142.302 128.21 144.218 128.614 146.191C128.995 148.095 129.376 149.998 129.768 151.959C130.938 157.469 130.938 157.469 135.938 161.719C141.994 162.11 141.994 162.11 147.657 161.719C148.431 164.813 149.204 167.906 150.001 171.094C140.505 171.094 136.418 167.312 128.907 161.719C122.628 152.299 123.854 147.09 124.22 135.938Z" fill="white"/>
<path d="M146.631 222.51C149.459 222.582 149.459 222.582 152.344 222.656C152.344 226.523 152.344 230.391 152.344 234.375C148.477 235.148 144.609 235.922 140.625 236.719C139.729 232.837 138.952 228.927 138.281 225C140.625 222.656 140.625 222.656 146.631 222.51Z" fill="#EC5E80"/>
<path d="M189.844 79.6875C192.938 79.6875 196.031 79.6875 199.219 79.6875C199.219 87.4219 199.219 95.1562 199.219 103.125C188.086 101.367 188.086 101.367 182.812 96.0938C187.895 97.2798 192.187 98.4371 196.875 100.781C196.053 98.9443 195.231 97.1074 194.385 95.2148C193.66 93.1846 192.935 91.1543 192.188 89.0625C192.961 87.5156 193.734 85.9688 194.531 84.375C192.211 85.1484 189.891 85.9219 187.5 86.7188C188.273 84.3984 189.047 82.0781 189.844 79.6875Z" fill="white"/>
<path d="M124.218 203.906C124.992 212.414 125.765 220.922 126.562 229.688C124.242 230.848 124.242 230.848 121.875 232.031C117.651 223.055 116.727 216.138 117.187 206.25C121.875 203.906 121.875 203.906 124.218 203.906Z" fill="#EC5E80"/>
<path d="M145.312 203.906C149.18 203.906 153.047 203.906 157.031 203.906C156.258 209.32 155.484 214.734 154.688 220.312C151.594 219.539 148.5 218.766 145.312 217.969C145.312 213.281 145.312 208.594 145.312 203.906Z" fill="#EC5E80"/>
<path d="M199.219 187.5C213.141 189.82 213.141 189.82 227.344 192.188C221.233 198.298 216.859 197.435 208.53 197.498C203.906 196.875 203.906 196.875 196.875 192.188C197.648 190.641 198.422 189.094 199.219 187.5Z" fill="#EC5E80"/>
<path d="M93.75 164.062C97.6172 164.836 101.484 165.609 105.469 166.406C104.695 169.5 103.922 172.594 103.125 175.781C99.2578 175.008 95.3906 174.234 91.4062 173.438C92.1797 170.344 92.9531 167.25 93.75 164.062Z" fill="#EC5E80"/>
<path d="M67.9688 161.719C72.6094 162.879 72.6094 162.879 77.3438 164.062C76.5703 167.93 75.7969 171.797 75 175.781C71.9062 175.008 68.8125 174.234 65.625 173.438C66.3984 169.57 67.1719 165.703 67.9688 161.719Z" fill="#EC5E80"/>
<path d="M229.688 164.062C233.203 166.846 233.203 166.846 236.719 171.094C237.159 177.393 237.159 177.393 236.719 182.812C232.078 185.133 232.078 185.133 227.344 187.5C227.281 184.033 227.235 180.567 227.198 177.1C227.17 175.169 227.143 173.238 227.115 171.249C227.344 166.406 227.344 166.406 229.688 164.062Z" fill="#EC5E80"/>
<path d="M222.656 140.625C230.065 143.836 232.014 145.287 236.719 152.344C236.719 155.438 236.719 158.531 236.719 161.719C229.688 159.375 229.688 159.375 225.732 152.49C222.656 145.312 222.656 145.312 222.656 140.625Z" fill="#EC5E80"/>
<path d="M189.844 84.375C191.391 84.375 192.937 84.375 194.531 84.375C195.305 89.7891 196.078 95.2031 196.875 100.781C189.914 98.4609 182.953 96.1406 175.781 93.75C178.875 92.2031 181.969 90.6563 185.156 89.0625C186.703 87.5156 188.25 85.9688 189.844 84.375Z" fill="#EC5E80"/>
<path d="M138.281 213.281C139.055 215.602 139.828 217.922 140.625 220.312C138.305 222.633 135.984 224.953 133.594 227.344C131.273 226.57 128.953 225.797 126.562 225C126.562 221.906 126.562 218.813 126.562 215.625C130.43 214.852 134.297 214.078 138.281 213.281Z" fill="#EC5E80"/>
<path d="M164.062 217.969C167.156 217.969 170.25 217.969 173.438 217.969C173.438 221.836 173.438 225.703 173.438 229.688C169.57 228.914 165.703 228.141 161.719 227.344C162.492 224.25 163.266 221.156 164.062 217.969Z" fill="#EC5E80"/>
<path d="M161.719 206.25C165.646 206.92 169.556 207.698 173.438 208.594C172.664 210.914 171.891 213.234 171.094 215.625C166.453 216.398 161.812 217.172 157.031 217.969C159.082 208.887 159.082 208.887 161.719 206.25Z" fill="#EC5E80"/>
<path d="M166.406 194.531C170.273 194.531 174.141 194.531 178.125 194.531C178.898 196.852 179.672 199.172 180.469 201.562C178.922 203.109 177.375 204.656 175.781 206.25C175.008 205.477 174.234 204.703 173.438 203.906C169.532 203.811 165.624 203.806 161.719 203.906C163.266 200.812 164.812 197.719 166.406 194.531Z" fill="#EC5E80"/>
<path d="M131.25 199.219C135.891 200.379 135.891 200.379 140.625 201.562C139.852 204.656 139.078 207.75 138.281 210.938C135.187 210.938 132.094 210.938 128.906 210.938C129.68 207.07 130.453 203.203 131.25 199.219Z" fill="#EC5E80"/>
<path d="M84.375 175.781C83.6016 179.648 82.8281 183.516 82.0312 187.5C78.9375 187.5 75.8438 187.5 72.6562 187.5C72.6562 184.406 72.6562 181.313 72.6562 178.125C77.3438 175.781 77.3438 175.781 84.375 175.781Z" fill="#EC5E80"/>
<path d="M138.281 189.844C142.922 191.004 142.922 191.004 147.656 192.188C147.656 195.281 147.656 198.375 147.656 201.562C141.855 199.242 141.855 199.242 135.938 196.875C136.711 194.555 137.484 192.234 138.281 189.844Z" fill="#EC5E80"/>
<path d="M152.344 189.844C155.438 190.617 158.531 191.391 161.719 192.188C160.945 195.281 160.172 198.375 159.375 201.562C157.055 201.562 154.734 201.562 152.344 201.562C152.344 197.695 152.344 193.828 152.344 189.844Z" fill="#EC5E80"/>
<path d="M89.0625 72.6562C92.1563 72.6562 95.25 72.6562 98.4375 72.6562C97.6641 75.75 96.8906 78.8437 96.0938 82.0312C93 82.0312 89.9063 82.0312 86.7188 82.0312C87.4922 78.9375 88.2656 75.8438 89.0625 72.6562Z" fill="#EC5E80"/>
<path d="M154.688 220.312C161.212 223.575 161.67 227.709 164.062 234.375C160.969 235.148 157.875 235.922 154.688 236.719C154.688 231.305 154.688 225.891 154.688 220.312Z" fill="#EC5E80"/>
<path d="M196.874 164.062C198.421 164.062 199.968 164.062 201.562 164.062C200.788 170.25 200.015 176.437 199.218 182.812C197.671 182.812 196.124 182.812 194.531 182.812C194.238 169.336 194.238 169.336 196.874 164.062Z" fill="#EC5E80"/>
<path d="M142.969 121.875C137.873 127.735 134.225 129.929 126.562 131.25C127.295 126.709 127.295 126.709 128.906 121.875C135.938 119.531 135.938 119.531 142.969 121.875Z" fill="white"/>
</svg>
