<svg width="300" height="300" viewBox="0 0 300 300" fill="none" xmlns="http://www.w3.org/2000/svg">
<path d="M209.666 70.4413C229.796 85.8407 241.56 107.071 248.438 131.251C251.224 163.907 244.525 191.935 223.389 217.383C203.019 239.015 178.284 248.544 148.975 249.464C120.523 248.777 98.8591 237.941 77.9396 218.94C56.9877 196.628 50.3143 170.011 50.9224 140.287C52.7428 114.618 66.2045 91.8906 84.8152 74.4147C122.821 44.0967 170.018 43.7116 209.666 70.4413Z" fill="white"/>
<path d="M209.666 70.4413C229.796 85.8407 241.56 107.071 248.438 131.251C251.224 163.907 244.525 191.935 223.389 217.383C203.019 239.015 178.284 248.544 148.975 249.464C120.523 248.777 98.8591 237.941 77.9396 218.94C56.9877 196.628 50.3143 170.011 50.9224 140.287C52.7428 114.618 66.2045 91.8906 84.8152 74.4147C122.821 44.0967 170.018 43.7116 209.666 70.4413ZM84.3757 84.3756C72.6803 99.8926 70.0004 114.423 72.657 133.594C76.0724 141.409 76.0724 141.409 79.6882 147.657C79.2321 154.042 78.0139 158.152 74.9549 163.743C69.6788 175.241 70.8554 187.294 75.1472 198.954C85.6358 219.846 99.792 231.434 121.876 239.063C146.993 244.481 173.439 243.796 196.015 230.833C217.534 216.54 233.871 198.079 240.519 172.532C244.469 145.287 242.039 120.928 226.759 97.8522C211.393 77.301 191.888 63.5263 166.407 58.5944C137.041 56.5728 105.122 60.9862 84.3757 84.3756Z" fill="white"/>
<path d="M133.804 83.497C145.271 89.1177 152.323 98.4381 157.031 110.157C159.521 121.758 158.012 130.967 152.344 141.358C144.342 152.62 134.807 157.863 121.326 160.337C109.192 161.153 100.647 158.308 90.7745 151.274C81.1144 142.66 76.8922 133.764 76.0254 120.851C76.7774 105.654 84.5145 95.7387 95.2148 85.5478C107.784 79.9617 120.568 79.5384 133.804 83.497Z" fill="#EC5E80"/>
<path d="M192.188 140.626C203.912 146.381 212.106 154.681 217.969 166.407C219.275 180.369 219.192 192.076 210.938 203.907C201.064 213.596 193.748 218.342 179.883 218.702C167.955 218.577 161.429 216.793 152.344 208.595C141.509 196.296 139.797 189.03 139.966 172.88C141.195 160.81 147.376 154.656 156.152 146.925C167.616 138.779 178.424 139.224 192.188 140.626Z" fill="#EC5E80"/>
<path d="M200.391 71.5028C221.596 86.9055 237.126 107.46 241.406 133.594C242.608 152.733 242.527 169.943 234.375 187.5C233.605 189.252 232.834 191.005 232.04 192.81C220.913 215.451 201.391 230.088 178.125 239.063C152.847 245.463 125.733 242.221 102.805 230.045C96.0329 225.857 90.2891 220.948 84.375 215.625C91.4062 215.625 91.4062 215.625 98.7305 220.313C108.688 226.182 117.576 227.067 128.906 225C133.953 222.735 138.662 220.136 143.472 217.41C147.656 215.625 147.656 215.625 154.248 217.236C155.94 218.252 157.632 219.267 159.375 220.313C172.461 224.675 185.46 223.898 198.633 220.166C208.774 214.121 217.962 206.227 221.823 194.714C224.075 181.548 225.182 168.996 217.676 157.471C213.281 150 213.281 150 214.893 143.555C215.908 141.815 216.923 140.074 217.969 138.281C222.683 124.139 222.838 108.363 216.357 94.922C207.373 85.2087 197.877 76.1573 184.378 74.2128C173.932 74.0483 166.339 74.2071 157.324 79.8341C150 84.3751 150 84.3751 144.873 84.0822C140.625 82.0314 140.625 82.0314 136.533 79.6144C126.021 75.0966 114.315 76.0608 103.125 77.3439C97.2193 79.85 93.9118 82.4084 89.0625 86.7189C87.5156 85.9454 85.9687 85.172 84.375 84.3751C118.321 56.2795 160.508 47.4487 200.391 71.5028Z" fill="#EC5E80"/>
<path d="M189.844 79.6869C201.274 85.294 208.147 93.083 215.625 103.124C219.406 114.467 219.269 123.371 214.746 134.472C210.938 140.624 210.938 140.624 206.25 142.968C204.461 141.856 202.673 140.744 200.83 139.599C189.061 133.11 174.708 135.417 161.719 135.937C161.631 133.873 161.544 131.81 161.453 129.684C161.299 126.962 161.145 124.24 160.986 121.435C160.85 118.743 160.714 116.051 160.574 113.278C159.316 105.084 156.767 100.627 152.344 93.7494C153.958 87.4717 155.697 85.1892 161.215 81.82C170.554 77.9823 179.94 78.4312 189.844 79.6869Z" fill="#EC5E80"/>
<path d="M86.7184 157.031C88.507 157.756 90.2956 158.481 92.1384 159.229C102.463 163.31 110.042 164.319 121.142 164.209C123.907 164.188 126.671 164.167 129.519 164.145C131.637 164.118 133.755 164.091 135.937 164.062C135.856 165.537 135.774 167.011 135.69 168.53C135.231 183.055 137.349 192.905 142.968 206.25C142.968 208.57 142.968 210.891 142.968 213.281C131.349 219.091 120.981 222.921 107.812 220.312C96.698 215.94 89.0069 210.016 83.2028 199.512C78.7969 189.075 77.5315 179.72 81.2894 168.768C82.9575 164.794 84.8223 160.902 86.7184 157.031Z" fill="#EC5E80"/>
<path d="M187.5 60.9375C205.279 63.4328 217.836 76.0236 229.102 89.3555C246.738 113.611 251.198 138.18 247.76 167.496C243.15 193.211 228.503 215.934 207.687 231.537C187.724 244.261 168.881 249.578 145.312 248.438C145.312 246.891 145.312 245.344 145.312 243.75C147.802 243.182 150.292 242.614 152.856 242.029C180.83 235.475 206.36 228.366 223.846 203.586C226.912 198.327 229.542 193.053 232.031 187.5C232.781 185.89 233.53 184.279 234.302 182.62C242.629 161.841 242.014 136.702 234.604 115.714C224.048 92.9103 207.986 79.2824 187.5 65.625C187.5 64.0781 187.5 62.5313 187.5 60.9375Z" fill="white"/>
<path d="M75.001 96.0938C75.7744 97.6406 76.5478 99.1875 77.3447 100.781C76.5713 102.328 75.7978 103.875 75.001 105.469C73.7503 121.535 74.0387 133.407 82.0322 147.656C81.576 154.043 80.3788 158.133 77.2806 163.705C73.1464 172.854 73.6891 182.371 75.001 192.188C77.6092 198.157 80.8239 203.094 84.376 208.594C83.6025 210.141 82.8291 211.687 82.0322 213.281C63.3868 192.15 56.9389 169.403 57.8348 141.412C59.5283 123.988 64.3944 109.992 75.001 96.0938Z" fill="#EC5E80"/>
<path d="M112.646 176.074C119.531 178.125 119.531 178.125 124.219 185.156C123.459 192.943 122.794 195.955 117.188 201.562C110.156 202.148 110.156 202.148 103.125 201.562C98.4375 196.875 98.4375 196.875 97.7051 189.99C98.4375 182.812 98.4375 182.812 101.074 178.271C105.469 175.781 105.469 175.781 112.646 176.074Z" fill="white"/>
<path d="M129.053 94.0426C135.938 96.0934 135.938 96.0934 140.625 103.125C139.865 110.912 139.201 113.924 133.594 119.531C126.562 120.117 126.562 120.117 119.531 119.531C114.844 114.843 114.844 114.843 114.111 107.959C114.844 100.781 114.844 100.781 117.48 96.2399C121.875 93.7497 121.875 93.7497 129.053 94.0426Z" fill="white"/>
<path d="M172.12 187.061C180.469 187.5 180.469 187.5 185.157 192.188C185.743 199.219 185.743 199.219 185.157 206.25C180.469 210.938 180.469 210.938 172.266 211.67C168.206 211.307 168.206 211.307 164.063 210.938C159.376 203.906 159.376 203.906 160.108 196.582C162.256 187.599 162.256 187.599 172.12 187.061Z" fill="white"/>
<path d="M199.219 104.883C206.25 105.469 206.25 105.469 210.938 110.156C211.523 117.188 211.523 117.188 210.938 124.219C206.25 128.906 206.25 128.906 199.219 129.492C192.188 128.906 192.188 128.906 187.5 124.219C186.914 117.188 186.914 117.188 187.5 110.156C192.188 105.469 192.188 105.469 199.219 104.883Z" fill="white"/>
<path d="M107.813 77.3438C107.813 78.8906 107.813 80.4375 107.813 82.0312C104.533 84.3139 101.142 86.4377 97.7053 88.4766C88.1968 94.696 82.9426 98.8729 79.6878 110.156C79.1925 118.01 79.2686 125.738 79.6878 133.594C77.3674 133.594 75.0471 133.594 72.6565 133.594C71.4283 117.218 70.8588 104.139 80.8688 90.5273C89.2753 81.3965 95.3761 77.3438 107.813 77.3438Z" fill="white"/>
<path d="M217.969 110.156C218.705 122.428 217.445 130.113 210.938 140.625C208.617 141.785 208.617 141.785 206.25 142.969C201.489 140.779 196.792 138.44 192.188 135.938C192.961 133.617 193.734 131.297 194.531 128.906C201.709 126.123 201.709 126.123 208.594 124.219C209.029 121.391 209.029 121.391 209.473 118.506C209.956 116.524 210.439 114.542 210.938 112.5C215.625 110.156 215.625 110.156 217.969 110.156Z" fill="#EC5E80"/>
<path d="M114.844 236.719C127.992 238.266 141.141 239.812 154.688 241.406C151.594 242.18 148.5 242.953 145.312 243.75C145.312 245.297 145.312 246.844 145.312 248.438C141.6 248.168 137.889 247.87 134.18 247.559C132.113 247.395 130.047 247.232 127.917 247.064C121.897 246.097 117.754 244.426 112.5 241.406C113.273 239.859 114.047 238.313 114.844 236.719Z" fill="white"/>
<path d="M105.469 60.9375C107.016 61.7109 108.562 62.4844 110.156 63.2812C110.156 64.8281 110.156 66.375 110.156 67.9688C105.276 71.8506 105.276 71.8506 98.877 76.1719C95.7364 78.3109 95.7364 78.3109 92.5323 80.4932C88.2519 83.3513 83.9701 86.2075 79.6875 89.0625C85.3167 76.3968 92.7885 66.9439 105.469 60.9375Z" fill="white"/>
<path d="M86.7188 72.6562C88.2656 73.4297 89.8125 74.2031 91.4062 75C89.0859 77.6829 89.0859 77.6829 86.7188 80.4199C81.3316 86.3503 81.3316 86.3503 82.0312 93.75C78.1641 95.2969 74.2969 96.8437 70.3125 98.4375C70.3125 89.5802 72.6493 87.9819 78.5156 81.5918C80.0383 79.915 81.561 78.2382 83.1299 76.5106C84.3142 75.2387 85.4985 73.9667 86.7188 72.6562Z" fill="white"/>
<path d="M168.75 192.188C173.584 193.213 173.584 193.213 178.125 194.531C177.352 198.398 176.578 202.266 175.781 206.25C173.461 206.25 171.141 206.25 168.75 206.25C167.854 202.368 167.077 198.458 166.406 194.531C167.18 193.758 167.953 192.984 168.75 192.188Z" fill="#EC5E80"/>
<path d="M196.875 110.156C199.969 111.703 203.062 113.25 206.25 114.844C204.703 117.938 203.156 121.031 201.562 124.219C198.469 122.672 195.375 121.125 192.188 119.531C193.734 116.437 195.281 113.344 196.875 110.156Z" fill="#EC5E80"/>
<path d="M75 96.0938C75.7734 97.6406 76.5469 99.1875 77.3438 100.781C76.5703 102.328 75.7969 103.875 75 105.469C74.4734 109.07 74.0438 112.687 73.6816 116.309C73.4853 118.224 73.2889 120.14 73.0865 122.113C72.9445 123.581 72.8026 125.05 72.6562 126.562C71.1094 123.469 69.5625 120.375 67.9688 117.188C65.6484 118.348 65.6484 118.348 63.2812 119.531C65.9903 110.362 68.8016 103.419 75 96.0938Z" fill="#EC5E80"/>
<path d="M196.875 72.6562C207.232 75.8208 211.742 80.2996 217.969 89.0625C208.733 89.0625 206.042 85.6363 199.219 79.6875C197.672 78.1406 196.125 76.5938 194.531 75C195.305 74.2266 196.078 73.4531 196.875 72.6562Z" fill="#EC5E80"/>
<path d="M196.875 217.969C194.385 221.485 194.385 221.485 189.844 225C181.201 225.44 181.201 225.44 173.438 225C173.438 223.454 173.438 221.907 173.438 220.313C176.459 219.463 179.488 218.637 182.52 217.823C184.205 217.361 185.891 216.898 187.628 216.422C192.188 215.625 192.188 215.625 196.875 217.969Z" fill="white"/>
<path d="M107.812 182.812C112.453 183.973 112.453 183.973 117.188 185.156C116.414 188.25 115.641 191.344 114.844 194.531C111.75 194.531 108.656 194.531 105.469 194.531C106.242 190.664 107.016 186.797 107.812 182.812Z" fill="#EC5E80"/>
<path d="M124.219 100.781C128.859 101.941 128.859 101.941 133.594 103.125C132.82 106.219 132.047 109.312 131.25 112.5C128.156 112.5 125.063 112.5 121.875 112.5C122.648 108.633 123.422 104.766 124.219 100.781Z" fill="#EC5E80"/>
<path d="M217.969 201.562C219.516 203.883 221.062 206.203 222.656 208.594C215.695 214.395 215.695 214.395 208.594 220.312C208.594 211.152 212.123 208.322 217.969 201.562Z" fill="#EC5E80"/>
</svg>
