<svg width="300" height="300" viewBox="0 0 300 300" fill="none" xmlns="http://www.w3.org/2000/svg">
<g clip-path="url(#clip0_454_680)">
<path d="M239.062 51.5625C235.729 59.1962 231.691 64.125 225.714 69.8914C224.037 71.5319 222.361 73.1724 220.633 74.8627C218.009 77.396 218.009 77.396 215.332 79.9805C211.849 83.3448 208.375 86.7195 204.913 90.1062C203.372 91.593 201.831 93.0799 200.243 94.6117C196.359 98.1744 196.359 98.1744 196.875 103.125C204.512 99.7817 209.537 95.7022 215.369 89.7766C217.03 88.0998 218.692 86.423 220.404 84.6954C222.114 82.9461 223.824 81.1968 225.586 79.3945C227.332 77.6271 229.078 75.8597 230.878 74.0387C235.179 69.682 239.469 65.3148 243.75 60.9375C246.07 62.0977 246.07 62.0977 248.438 63.2812C245.094 70.9187 241.015 75.9433 235.089 81.7749C233.412 83.4366 231.736 85.0983 230.008 86.8103C228.259 88.5203 226.509 90.2303 224.707 91.9922C222.94 93.7385 221.172 95.4847 219.351 97.2839C214.995 101.585 210.627 105.876 206.25 110.156C208.632 116.142 211.036 122.105 213.574 128.027C218.314 146.311 217.548 165.953 208.594 182.812C196.52 199.993 182.494 211.439 161.719 215.625C145.142 216.964 132.337 215.454 117.188 208.594C117.236 210.866 117.284 213.138 117.334 215.479C115.512 228.978 103.973 238.087 93.75 246.094C88.3759 247.87 88.3759 247.87 84.375 248.438C86.724 238.748 91.158 234.735 98.7305 228.809C107.079 222.007 107.079 222.007 108.984 211.084C108.598 208.715 108.211 206.347 107.812 203.906C106.829 205.651 106.829 205.651 105.826 207.431C98.6905 219.522 90.6906 230.193 79.6875 239.062C78.1406 239.062 76.5938 239.062 75 239.062C76.3362 230.792 79.0864 227.32 85.2539 221.777C92.4866 214.901 96.9147 208.544 100.781 199.219C90.9345 204.867 82.0954 210.4 74.2676 218.701C72.189 220.78 70.1104 222.858 67.9688 225C65.6484 225 63.3281 225 60.9375 225C67.9269 209.411 80.423 198.685 96.0938 192.188C89.2441 190.73 86.2611 190.152 79.6875 192.188C73.6173 197.907 68.5035 203.971 63.3179 210.498C60.9794 213.036 60.9794 213.036 58.5938 215.625C56.2734 215.625 53.9531 215.625 51.5625 215.625C55.2606 206.762 60.8284 200.893 67.5293 194.092C69.5263 192.028 71.5234 189.965 73.5809 187.839C79.8726 182.66 83.4094 181.201 91.4062 180.469C89.8594 178.148 88.3125 175.828 86.7188 173.438C81.2006 155.227 82.5986 134.037 91.4062 117.188C103.483 99.9742 117.509 88.6071 138.281 84.375C154.411 82.8255 166.37 84.0566 180.533 92.157C185.142 94.3002 185.142 94.3002 189.578 92.0471C195.099 88.7206 198.953 85.06 203.403 80.4016C205.033 78.7248 206.663 77.048 208.342 75.3204C211.746 71.7724 215.146 68.2201 218.541 64.6637C220.168 62.993 221.795 61.3222 223.471 59.6008C224.946 58.0596 226.42 56.5184 227.939 54.9305C232.031 51.5625 232.031 51.5625 239.062 51.5625Z" fill="white"/>
<path d="M154.688 107.813C160.254 112.501 160.254 112.501 164.063 117.188C163.32 118.457 162.577 119.726 161.811 121.034C158.946 127.538 158.416 132.967 157.911 140.04C157.735 142.348 157.56 144.656 157.38 147.034C157.265 148.787 157.15 150.539 157.032 152.345C165.314 147.743 171.668 142.874 178.126 135.938C189.551 140.04 189.551 140.04 192.188 145.313C192.282 150 192.29 154.689 192.188 159.376C191.415 159.376 190.641 159.376 189.844 159.376C189.844 155.509 189.844 151.641 189.844 147.657C187.524 147.657 185.204 147.657 182.813 147.657C183.176 150.34 183.176 150.34 183.545 153.077C183.304 155.156 183.062 157.234 182.813 159.376C177.1 163.184 177.1 163.184 171.094 166.407C170.321 168.727 169.547 171.048 168.751 173.438C164.064 173.538 159.375 173.534 154.688 173.438C153.915 172.665 153.141 171.891 152.344 171.095C146.085 170.764 139.865 170.995 133.594 171.095C135.141 174.962 136.688 178.829 138.282 182.813C150.316 181.309 161.871 179.507 173.438 175.782C176.31 171.211 176.31 171.211 178.126 166.407C184.278 163.477 184.278 163.477 189.844 161.72C189.652 168.252 188.526 172.308 184.104 177.183C171.319 188.47 160.812 193.378 143.61 192.921C131.409 191.244 123.073 184.728 115.137 175.636C106.253 163.355 105.662 150.671 107.813 135.938C113.661 124.262 123.102 113.145 135.645 108.546C142.298 107.567 147.967 107.113 154.688 107.813Z" fill="#EC5E80"/>
<path d="M182.813 100.781C178.946 105.422 175.078 110.063 171.094 114.844C169.257 113.345 167.42 111.847 165.528 110.303C155.324 102.286 149.768 102.857 137.201 104.288C126.081 106.495 119.522 112.38 111.914 120.41C103.746 132.663 101.426 144.793 103.125 159.375C106.309 174.773 113.714 183.449 126.563 192.188C137.352 198.603 149.525 198.327 161.719 196.875C177.399 192.506 186.391 182.468 194.532 168.75C197.442 160.02 198.478 152.02 196.875 142.969C193.5 137.363 189.837 133.587 185.157 128.906C189.797 125.039 194.438 121.172 199.219 117.188C209.49 134.199 211.674 148.513 207.129 167.999C201.015 185.961 189.907 196.009 173.841 205.463C159.577 211.47 142.904 210.861 127.954 207.221C113.018 200.76 100.581 186.925 93.2743 172.595C88.6887 157.4 88.419 137.869 94.9222 123.194C103.602 108.952 117.154 97.453 133.127 92.4319C152.221 88.6334 166.234 90.7718 182.813 100.781Z" fill="#EC5E80"/>
<path d="M121.876 107.812C123.423 108.586 124.97 109.359 126.563 110.156C124.787 112.499 124.787 112.499 122.974 114.89C113.296 128.62 107.79 138.817 109.003 155.832C111.359 167.855 116.486 175.302 125.538 183.691C136.341 190.893 146.782 191.311 159.376 189.844C171.927 185.792 180.106 179.842 187.501 168.75C186.727 167.977 185.954 167.203 185.157 166.406C182.837 167.18 180.516 167.953 178.126 168.75C177.44 170.261 176.754 171.771 176.048 173.328C173.438 178.125 173.438 178.125 168.266 180.579C166.25 181.122 164.235 181.666 162.159 182.227C159.163 183.079 159.163 183.079 156.107 183.948C149.898 185.177 144.589 185.713 138.282 185.156C136.735 183.609 135.188 182.063 133.595 180.469C133.595 177.375 133.595 174.281 133.595 171.094C145.112 165.335 157.237 169.753 168.751 173.438C169.041 171.987 169.331 170.537 169.63 169.043C171.095 164.062 171.095 164.062 175.782 159.375C178.102 159.375 180.423 159.375 182.813 159.375C182.813 155.508 182.813 151.641 182.813 147.656C185.134 147.656 187.454 147.656 189.845 147.656C191.005 151.137 191.005 151.137 192.188 154.688C193.735 153.141 195.282 151.594 196.876 150C198.471 164.886 196.151 171.735 186.805 183.371C176.122 194.422 165.788 199.416 150.44 200.098C136.186 199.738 125.93 195.716 115.412 186.063C104.25 173.903 99.6605 162.286 100.205 145.496C102.198 128.669 109.441 118.865 121.876 107.812Z" fill="white"/>
<path d="M133.594 133.594C139.16 137.402 139.16 137.402 142.969 142.969C144.403 151.574 144.11 155.363 139.16 162.598C133.594 166.406 133.594 166.406 126.562 167.725C119.531 166.406 119.531 166.406 113.818 161.426C110.156 154.688 110.156 154.688 110.303 147.363C114.54 134.368 119.917 131.64 133.594 133.594Z" fill="white"/>
<path d="M182.812 147.656C185.133 147.656 187.453 147.656 189.844 147.656C190.617 153.07 191.391 158.484 192.188 164.062C189.964 164.643 187.74 165.223 185.449 165.82C177.885 167.867 177.885 167.867 176.028 173.364C173.438 178.125 173.438 178.125 168.265 180.579C166.25 181.122 164.234 181.666 162.158 182.227C159.163 183.079 159.163 183.079 156.107 183.948C149.897 185.177 144.588 185.713 138.281 185.156C136.734 183.609 135.188 182.063 133.594 180.469C133.594 177.375 133.594 174.281 133.594 171.094C145.111 165.335 157.236 169.753 168.75 173.438C169.04 171.987 169.33 170.537 169.629 169.043C171.094 164.062 171.094 164.062 175.781 159.375C178.102 159.375 180.422 159.375 182.812 159.375C182.812 155.508 182.812 151.641 182.812 147.656Z" fill="white"/>
<path d="M121.875 140.625C126.579 141.297 131.27 142.075 135.938 142.969C135.938 147.609 135.938 152.25 135.938 157.031C129.199 158.496 129.199 158.496 121.875 159.375C120.328 157.828 118.781 156.281 117.188 154.688C118.49 144.01 118.49 144.01 121.875 140.625Z" fill="#EC5E80"/>
<path d="M187.5 105.469C189.82 107.789 192.141 110.109 194.531 112.5C189.117 117.914 183.703 123.328 178.125 128.906C175.805 126.586 173.484 124.266 171.094 121.875C176.508 116.461 181.922 111.047 187.5 105.469Z" fill="#EC5E80"/>
<path d="M147.757 207.906C152.411 208.135 157.065 208.364 161.719 208.593C161.719 210.913 161.719 213.234 161.719 215.624C153.211 215.624 144.703 215.624 135.938 215.624C142.969 208.593 142.969 208.593 147.757 207.906Z" fill="white"/>
<path d="M89.0633 142.969C89.8368 142.969 90.6102 142.969 91.4071 142.969C92.1805 151.477 92.9539 159.984 93.7508 168.75C92.2039 168.75 90.6571 168.75 89.0633 168.75C88.2899 170.297 87.5164 171.844 86.7196 173.438C84.3594 161.636 84.437 154.126 89.0633 142.969Z" fill="white"/>
</g>
<defs>
<clipPath id="clip0_454_680">
<rect width="300" height="300" fill="white"/>
</clipPath>
</defs>
</svg>
