<svg width="300" height="300" viewBox="0 0 300 300" fill="none" xmlns="http://www.w3.org/2000/svg">
<g clip-path="url(#clip0_454_692)">
<path d="M96.0937 49.2191C100.85 52.2378 105.551 55.3494 110.156 58.5941C116.557 58.2893 120.346 57.2058 125.757 53.8242C133.64 50.579 141.32 50.792 149.707 50.8305C151.335 50.7927 152.964 50.7549 154.642 50.716C165.87 50.7055 173.112 53.1439 182.812 58.5941C189.246 58.2043 192.05 56.3485 197.314 52.5883C208.14 47.0552 218.508 47.3726 230.118 50.6748C242.96 56.137 250.238 64.4603 255.469 77.3441C257.287 90.3024 253.86 98.4776 248.437 110.157C246.683 115.59 245.215 121.041 243.75 126.563C242.203 126.563 240.656 126.563 239.062 126.563C238.12 122.647 238.12 122.647 237.158 118.653C235.176 109.645 235.176 109.645 227.344 105.469C219.042 104.688 219.042 104.688 210.937 105.469C209.391 107.016 207.844 108.563 206.25 110.157C206.458 117.266 206.458 117.266 208.594 124.219C215.393 128.752 217.727 129.613 225.439 130.371C228.388 130.662 231.337 130.952 234.375 131.25C233.602 133.571 232.828 135.891 232.031 138.282C213.758 139.195 213.758 139.195 203.906 131.25C195.345 129.552 195.345 129.552 187.5 128.907C180.336 138.74 179.692 145.732 180.029 157.764C180.093 160.704 180.156 163.643 180.222 166.672C180.344 170.021 180.344 170.021 180.469 173.438C182.139 172.68 183.81 171.921 185.532 171.14C198.609 166.445 212.594 167.026 225.732 171.241C235.969 178.621 244.407 187.127 248.437 199.219C250.392 213.372 248.459 223.287 240.234 235.016C232.389 244.047 222.871 249.781 210.983 251.423C195.959 252.114 187.718 247.794 175.781 239.063C173.461 237.903 173.461 237.903 171.094 236.719C170.03 238.604 168.967 240.49 167.871 242.432C164.062 248.438 164.062 248.438 159.375 250.782C142.987 251.839 142.987 251.839 135.736 248.594C128.6 240.89 127.121 231.992 124.805 221.924C124.291 219.767 123.778 217.61 123.249 215.387C119.235 196.835 118.64 178.963 119.552 160.045C120.064 147.639 119.408 139.77 112.5 128.907C100.826 129.999 100.826 129.999 90.3808 134.913C81.4477 139.924 75.8232 139.415 65.625 138.282C59.9121 134.62 59.9121 134.62 56.25 128.907C55.3734 123.452 54.5914 117.982 53.9062 112.5C50.5314 107.414 50.5314 107.414 46.875 103.125C43.2046 93.4491 42.3726 82.1892 46.6278 72.6383C48.911 68.6528 51.3947 64.7836 53.9062 60.9379C55.4531 60.9379 57 60.9379 58.5937 60.9379C56.5429 72.0707 56.5429 72.0707 53.9062 77.3441C53.4052 90.4856 53.4052 90.4856 56.25 103.125C57.7968 103.125 59.3437 103.125 60.9375 103.125C60.3574 101.385 60.3574 101.385 59.7656 99.6098C58.0735 91.1494 56.6335 83.4568 58.5937 75.0004C63.1036 68.6571 67.9392 64.2254 75 60.9379C89.5522 59.0172 97.2555 63.3039 108.691 71.3383C110.163 72.3247 111.634 73.3112 113.15 74.3275C123.501 81.3137 123.501 81.3137 126.562 84.3754C126.689 88.9157 126.78 93.457 126.855 97.9984C127.642 110.691 130.109 117.999 137.256 128.467C148.317 145.284 146.858 161.142 145.312 180.469C139.893 181.934 139.893 181.934 133.594 182.813C131.273 181.266 128.953 179.719 126.562 178.125C127.159 181.599 127.803 185.065 128.467 188.526C128.82 190.456 129.174 192.387 129.538 194.376C130.103 195.974 130.668 197.572 131.25 199.219C138.95 201.786 144.695 201.796 152.783 201.709C155.33 201.688 157.877 201.667 160.501 201.645C162.45 201.618 164.398 201.591 166.406 201.563C166.742 199.765 167.077 197.968 167.422 196.116C168.776 189.72 170.867 184.123 173.437 178.125C171.117 179.672 168.797 181.219 166.406 182.813C160.107 181.934 160.107 181.934 154.687 180.469C154.687 175.055 154.687 169.641 154.687 164.063C157.008 164.836 159.328 165.61 161.719 166.407C162.492 168.727 163.266 171.047 164.062 173.438C168.703 172.278 168.703 172.278 173.437 171.094C172.664 169.547 171.891 168 171.094 166.407C169.764 154.675 169.429 144.54 175.781 134.327C183.696 120.866 181.176 104.148 180.469 89.0629C180.378 91.782 180.378 91.782 180.286 94.5561C179.21 114.305 174.888 126.73 164.062 142.969C163.16 146.849 162.356 150.756 161.719 154.688C159.398 154.688 157.078 154.688 154.687 154.688C155.184 143.256 157.59 136.919 164.062 127.442C170.542 117.526 171.734 110.962 171.68 99.1703C172.055 85.8787 172.055 85.8787 178.345 79.0379C184.366 74.8498 190.366 71.3392 196.875 67.9691C198.845 66.67 200.815 65.3709 202.844 64.0324C212.073 59.0651 219.853 60.4184 229.687 63.2816C236.865 68.1156 236.865 68.1156 241.406 75.0004C243.004 84.4759 242.104 94.0008 239.062 103.125C240.609 103.125 242.156 103.125 243.75 103.125C246.661 94.3914 247.346 86.4158 246.094 77.3441C241.147 67.8046 237.241 62.6143 227.344 58.5941C212.704 55.6453 202.818 58.3751 190.43 66.5043C188.411 67.9726 186.393 69.4409 184.314 70.9538C173.251 78.1875 163.389 80.3003 150.293 79.9809C148.027 79.9386 145.761 79.8963 143.426 79.8527C140.88 79.7711 140.88 79.7711 138.281 79.6879C138.281 77.3676 138.281 75.0473 138.281 72.6566C158.004 70.3363 158.004 70.3363 178.125 67.9691C178.125 66.4223 178.125 64.8754 178.125 63.2816C158.252 56.6574 141.881 58.095 121.875 63.2816C121.875 64.8285 121.875 66.3754 121.875 67.9691C124.195 68.7426 126.516 69.516 128.906 70.3129C128.906 71.8598 128.906 73.4066 128.906 75.0004C119.72 73.7405 114.903 71.337 107.812 65.4789C94.4882 56.0324 81.3627 57.2806 65.625 58.5941C65.625 56.2738 65.625 53.9535 65.625 51.5629C75.8146 48.7273 85.5777 47.7901 96.0937 49.2191Z" fill="white"/>
<path d="M53.9062 60.9377C55.4531 60.9377 57 60.9377 58.5937 60.9377C56.5429 72.0705 56.5429 72.0705 53.9062 77.344C53.4052 90.4854 53.4052 90.4854 56.25 103.125C57.7968 103.125 59.3437 103.125 60.9375 103.125C60.3574 101.385 60.3574 101.385 59.7656 99.6096C58.0735 91.1492 56.6335 83.4566 58.5937 75.0002C63.1036 68.6569 67.9392 64.2252 75 60.9377C89.5522 59.017 97.2555 63.3037 108.691 71.3381C110.163 72.3245 111.634 73.311 113.15 74.3273C123.501 81.3135 123.501 81.3135 126.562 84.3752C126.689 88.9155 126.78 93.4568 126.855 97.9982C127.642 110.69 130.109 117.999 137.256 128.467C148.317 145.284 146.858 161.142 145.312 180.469C137.609 182.343 134.273 183.039 126.562 180.469C125.789 183.563 125.016 186.656 124.219 189.844C122.672 189.844 121.125 189.844 119.531 189.844C119.586 187.824 119.586 187.824 119.643 185.764C119.79 179.605 119.881 173.446 119.971 167.285C120.03 165.167 120.088 163.05 120.149 160.868C120.286 148.336 119.412 139.828 112.5 128.906C100.826 129.999 100.826 129.999 90.3808 134.912C81.4477 139.924 75.8232 139.415 65.625 138.281C59.9121 134.619 59.9121 134.619 56.25 128.906C55.3734 123.452 54.5914 117.982 53.9062 112.5C50.5314 107.414 50.5314 107.414 46.875 103.125C43.2046 93.4489 42.3726 82.189 46.6278 72.6381C48.911 68.6526 51.3947 64.7834 53.9062 60.9377Z" fill="white"/>
<path d="M96.0938 49.2191C100.85 52.2378 105.551 55.3494 110.156 58.5941C116.558 58.2893 120.346 57.2058 125.757 53.8242C133.64 50.579 141.32 50.792 149.707 50.8305C151.335 50.7927 152.964 50.7549 154.642 50.716C165.87 50.7055 173.112 53.1439 182.812 58.5941C189.246 58.2043 192.05 56.3485 197.314 52.5883C208.14 47.0552 218.508 47.3726 230.118 50.6748C242.96 56.137 250.238 64.4603 255.469 77.3441C257.287 90.3024 253.86 98.4776 248.438 110.157C246.683 115.59 245.215 121.041 243.75 126.563C242.203 126.563 240.656 126.563 239.062 126.563C238.12 122.647 238.12 122.647 237.158 118.653C235.176 109.645 235.176 109.645 227.344 105.469C219.042 104.688 219.042 104.688 210.938 105.469C209.391 107.016 207.844 108.563 206.25 110.157C206.458 117.266 206.458 117.266 208.594 124.219C215.393 128.752 217.727 129.613 225.439 130.371C228.388 130.662 231.337 130.952 234.375 131.25C233.602 133.571 232.828 135.891 232.031 138.282C213.157 139.225 213.157 139.225 203.906 131.25C197.697 129.576 197.697 129.576 192.188 128.907C192.188 126.586 192.188 124.266 192.188 121.875C193.734 121.102 195.281 120.329 196.875 119.532C193.781 117.985 190.688 116.438 187.5 114.844C186.34 118.325 186.34 118.325 185.156 121.875C184.383 121.875 183.609 121.875 182.812 121.875C182.039 111.047 181.266 100.219 180.469 89.0629C180.275 93.3168 180.082 97.5707 179.883 101.954C178.524 118.633 173.174 129.301 164.062 142.969C163.16 146.849 162.356 150.756 161.719 154.688C159.398 154.688 157.078 154.688 154.688 154.688C155.185 143.256 157.59 136.919 164.062 127.442C170.542 117.526 171.734 110.962 171.68 99.1703C172.055 85.8787 172.055 85.8787 178.345 79.0379C184.366 74.8498 190.366 71.3392 196.875 67.9691C198.845 66.67 200.815 65.3709 202.844 64.0324C212.073 59.0651 219.853 60.4184 229.688 63.2816C236.865 68.1156 236.865 68.1156 241.406 75.0004C243.004 84.4759 242.104 94.0008 239.062 103.125C240.609 103.125 242.156 103.125 243.75 103.125C246.661 94.3914 247.346 86.4158 246.094 77.3441C241.147 67.8046 237.241 62.6143 227.344 58.5941C212.704 55.6453 202.818 58.3751 190.43 66.5043C188.411 67.9726 186.393 69.4409 184.314 70.9538C173.251 78.1875 163.389 80.3003 150.293 79.9809C148.027 79.9386 145.761 79.8963 143.427 79.8527C140.88 79.7711 140.88 79.7711 138.281 79.6879C138.281 77.3676 138.281 75.0473 138.281 72.6566C158.004 70.3363 158.004 70.3363 178.125 67.9691C178.125 66.4223 178.125 64.8754 178.125 63.2816C158.252 56.6574 141.881 58.095 121.875 63.2816C121.875 64.8285 121.875 66.3754 121.875 67.9691C124.195 68.7426 126.516 69.516 128.906 70.3129C128.906 71.8598 128.906 73.4066 128.906 75.0004C119.72 73.7405 114.903 71.337 107.812 65.4789C94.4882 56.0324 81.3627 57.2806 65.625 58.5941C65.625 56.2738 65.625 53.9535 65.625 51.5629C75.8147 48.7273 85.5778 47.7901 96.0938 49.2191Z" fill="white"/>
<path d="M218.198 175.04C229.424 180.098 236.184 185.344 241.406 196.876C243.492 210.229 241.845 220.56 234.375 232.032C227.518 239.96 222.776 243.146 212.219 244.474C200.426 245.018 192.061 245.166 182.666 237.452C173.779 228.331 171.426 221.456 170.215 208.741C170.5 198.65 173.933 192.929 180.469 185.157C192.5 174.558 201.921 169.736 218.198 175.04Z" fill="#EC5E80"/>
<path d="M96.0938 49.2191C100.85 52.2378 105.551 55.3494 110.156 58.5941C116.558 58.2893 120.346 57.2058 125.757 53.8242C133.64 50.579 141.32 50.792 149.707 50.8305C151.335 50.7927 152.964 50.7549 154.642 50.716C165.87 50.7055 173.112 53.1439 182.812 58.5941C189.246 58.2043 192.05 56.3485 197.314 52.5883C208.14 47.0552 218.508 47.3726 230.118 50.6748C241.292 55.4276 247.604 61.8659 253.519 72.4095C256.499 79.9509 256.304 85.7337 255.469 93.7504C251.988 92.5902 251.988 92.5902 248.438 91.4066C247.359 86.7851 246.29 82.1608 245.306 77.5181C242.881 69.9429 238.043 65.8978 232.031 60.9379C223.059 56.452 213.636 56.9216 203.906 58.5941C196.888 62.2124 190.695 66.3112 184.314 70.9538C173.251 78.1875 163.389 80.3003 150.293 79.9809C148.027 79.9386 145.761 79.8963 143.427 79.8527C140.88 79.7711 140.88 79.7711 138.281 79.6879C138.281 77.3676 138.281 75.0473 138.281 72.6566C158.004 70.3363 158.004 70.3363 178.125 67.9691C178.125 66.4223 178.125 64.8754 178.125 63.2816C158.252 56.6574 141.881 58.095 121.875 63.2816C121.875 64.8285 121.875 66.3754 121.875 67.9691C124.195 68.7426 126.516 69.516 128.906 70.3129C128.906 71.8598 128.906 73.4066 128.906 75.0004C119.72 73.7405 114.903 71.337 107.812 65.4789C94.4882 56.0324 81.3627 57.2806 65.625 58.5941C65.625 56.2738 65.625 53.9535 65.625 51.5629C75.8147 48.7273 85.5778 47.7901 96.0938 49.2191Z" fill="white"/>
<path d="M196.875 185.156C203.063 185.156 209.25 185.156 215.625 185.156C215.625 189.797 215.625 194.438 215.625 199.219C220.266 199.219 224.906 199.219 229.688 199.219C229.688 206.18 229.688 213.141 229.688 220.312C225.82 220.312 221.953 220.312 217.969 220.312C217.969 224.18 217.969 228.047 217.969 232.031C211.008 232.031 204.047 232.031 196.875 232.031C196.875 228.164 196.875 224.297 196.875 220.312C192.234 220.312 187.594 220.312 182.812 220.312C182.812 213.352 182.812 206.391 182.812 199.219C187.453 199.219 192.094 199.219 196.875 199.219C196.875 194.578 196.875 189.937 196.875 185.156Z" fill="white"/>
<path d="M187.5 114.844C193.301 117.164 193.301 117.164 199.219 119.531C196.898 120.305 194.578 121.078 192.188 121.875C192.188 123.422 192.188 124.969 192.188 126.562C189.896 128.958 187.545 131.296 185.156 133.594C179.318 142.352 179.985 147.057 180.176 157.471C180.239 161.944 180.239 161.944 180.304 166.507C180.358 168.794 180.413 171.081 180.469 173.438C182.139 172.679 183.81 171.921 185.532 171.14C198.609 166.445 212.594 167.026 225.732 171.24C234.124 177.29 241.179 182.938 246.094 192.188C247.209 200.155 246.961 207.643 246.094 215.625C243.773 216.785 243.773 216.785 241.406 217.969C241.346 216.609 241.285 215.25 241.223 213.849C240.299 201.121 238.545 192.603 229.688 182.812C218.589 176.53 209.566 174.166 196.875 175.781C185.37 181.647 180.417 188.629 173.438 199.219C171.117 199.219 168.797 199.219 166.406 199.219C168.727 192.258 171.047 185.297 173.438 178.125C171.117 179.672 168.797 181.219 166.406 182.812C160.107 181.934 160.107 181.934 154.688 180.469C154.688 175.055 154.688 169.641 154.688 164.062C157.008 164.836 159.328 165.609 161.719 166.406C162.492 168.727 163.266 171.047 164.062 173.438C167.156 172.664 170.25 171.891 173.438 171.094C172.664 169.547 171.891 168 171.094 166.406C168.714 148.423 172.817 136.686 182.812 121.875C184.359 119.555 185.906 117.234 187.5 114.844Z" fill="white"/>
<path d="M225 67.968C232.177 72.9485 232.177 72.9485 236.718 79.6868C236.25 91.8743 236.25 91.8743 232.031 96.093C228.714 96.3397 225.392 96.5249 222.07 96.6789C210.8 97.7148 206.872 101.846 199.218 110.156C194.21 109.332 194.21 109.332 189.843 107.812C187.397 85.9882 187.397 85.9882 192.837 77.1874C203.039 67.587 211.328 65.5423 225 67.968Z" fill="#EC5E80"/>
<path d="M91.4063 67.9684C99.2904 71.3651 105.008 75.1009 110.156 82.0309C111.716 90.8454 111.29 98.9627 110.156 107.812C105.789 109.332 105.789 109.332 100.781 110.156C98.2434 107.401 98.2434 107.401 95.6543 104.589C87.6136 97.0848 83.2388 97.0591 72.6288 96.8808C70.3221 96.491 70.3221 96.491 67.9687 96.0934C63.2812 89.0621 63.2813 89.0621 63.5742 82.0309C65.625 74.9996 65.625 74.9996 69.4336 70.6051C77.5973 66.7381 82.4269 66.6215 91.4063 67.9684Z" fill="#EC5E80"/>
<path d="M53.9062 60.9375C55.4531 60.9375 57 60.9375 58.5937 60.9375C56.5429 72.0703 56.5429 72.0703 53.9062 77.3438C53.4052 90.4852 53.4052 90.4852 56.25 103.125C57.7968 103.125 59.3437 103.125 60.9375 103.125C60.164 95.3906 59.3906 87.6563 58.5937 79.6875C60.1406 78.9141 61.6875 78.1406 63.2812 77.3438C64.8281 82.7578 66.375 88.1719 67.9687 93.75C70.6516 94.1125 70.6516 94.1125 73.3886 94.4824C80.0873 96.196 82.4002 97.8973 86.7187 103.125C79.6234 104.613 79.6234 104.613 72.528 106.1C67.1004 107.632 67.1004 107.632 63.2812 114.844C62.8898 122.168 62.8898 122.168 63.2812 128.906C69.4687 129.68 75.6562 130.453 82.0312 131.25C82.0312 132.023 82.0312 132.797 82.0312 133.594C78.164 133.594 74.2968 133.594 70.3125 133.594C70.3125 135.141 70.3125 136.687 70.3125 138.281C64.5281 135.582 60.8253 133.482 56.25 128.906C55.9116 126.296 55.5732 123.686 55.2246 120.996C53.8772 112.313 52.2759 109.651 46.875 103.125C43.2046 93.4487 42.3726 82.1888 46.6278 72.6379C48.911 68.6524 51.3947 64.7832 53.9062 60.9375Z" fill="white"/>
<path d="M89.0625 103.125C93.75 105.762 93.75 105.762 96.0938 110.157C95.7952 117.322 94.8028 122.361 91.2598 128.614C83.8302 132.928 76.3235 132.501 67.9688 131.25C63.1348 128.614 63.1348 128.614 60.9375 124.219C61.1034 116.257 61.8273 111.834 67.0898 105.762C74.8374 102.092 80.6008 102.202 89.0625 103.125Z" fill="#EC5E80"/>
<path d="M117.188 86.7188C119.508 87.8789 119.508 87.8789 121.875 89.0625C122.516 94.7845 122.516 94.7845 122.754 102.1C123.85 118.831 129.158 129.284 138.281 142.969C138.739 150.833 138.739 150.833 138.574 159.814C138.532 162.796 138.49 165.778 138.446 168.851C138.365 172.281 138.365 172.281 138.281 175.781C134.414 174.234 130.547 172.688 126.563 171.094C126.671 169.281 126.78 167.468 126.892 165.601C127.793 149.107 127.793 149.107 121.875 134.18C113.473 120.334 116.507 102.296 117.188 86.7188Z" fill="#EC5E80"/>
<path d="M114.844 84.375C115.617 84.375 116.391 84.375 117.188 84.375C117.248 87.0337 117.308 89.6924 117.371 92.4316C117.815 116.657 117.815 116.657 126.892 138.657C130.913 147.265 129.957 157.137 128.906 166.406C128.133 167.953 127.359 169.5 126.562 171.094C128.109 171.867 129.656 172.641 131.25 173.438C127.383 173.438 123.516 173.438 119.531 173.438C119.613 171.401 119.694 169.365 119.778 167.267C120.668 146.993 120.668 146.993 112.5 128.906C110.953 128.133 109.406 127.359 107.812 126.562C107.812 125.016 107.812 123.469 107.812 121.875C105.492 121.102 103.172 120.328 100.781 119.531C104.648 117.984 108.516 116.438 112.5 114.844C113.273 104.789 114.047 94.7344 114.844 84.375Z" fill="white"/>
<path d="M201.562 192.188C204.656 192.188 207.75 192.188 210.938 192.188C210.938 196.828 210.938 201.469 210.938 206.25C214.805 206.25 218.672 206.25 222.656 206.25C222.656 208.57 222.656 210.891 222.656 213.281C218.789 213.281 214.922 213.281 210.938 213.281C210.938 217.922 210.938 222.563 210.938 227.344C207.844 227.344 204.75 227.344 201.562 227.344C201.562 222.703 201.562 218.062 201.562 213.281C197.695 213.281 193.828 213.281 189.844 213.281C189.844 210.961 189.844 208.641 189.844 206.25C193.711 206.25 197.578 206.25 201.562 206.25C201.562 201.609 201.562 196.969 201.562 192.188Z" fill="#EC5E80"/>
<path d="M166.405 225C162.011 241.113 162.011 241.113 159.374 243.75C155.865 243.979 152.344 244.054 148.827 244.043C146.918 244.049 145.008 244.055 143.041 244.061C138.28 243.75 138.28 243.75 135.937 241.406C135.841 236.72 135.837 232.03 135.937 227.344C140.136 226.951 144.335 226.561 148.534 226.172C150.873 225.954 153.211 225.737 155.62 225.513C161.718 225 161.718 225 166.405 225Z" fill="#EC5E80"/>
<path d="M199.219 168.749C214.412 167.963 223.849 169.024 236.023 179.076C242.247 185.243 245.738 189.642 246.973 198.467C246.973 204.255 246.719 209.872 246.094 215.624C244.547 216.398 243 217.171 241.406 217.968C241.346 216.608 241.285 215.249 241.223 213.848C240.299 201.12 238.545 192.602 229.688 182.812C218.932 176.927 209.017 174.676 196.875 173.437C197.648 171.89 198.422 170.343 199.219 168.749Z" fill="white"/>
<path d="M201.562 187.5C206.203 187.5 210.844 187.5 215.625 187.5C215.625 191.367 215.625 195.234 215.625 199.219C220.266 199.219 224.906 199.219 229.688 199.219C229.688 206.18 229.688 213.141 229.688 220.312C225.82 220.312 221.953 220.312 217.969 220.312C217.969 224.18 217.969 228.047 217.969 232.031C217.195 232.031 216.422 232.031 215.625 232.031C215.722 229.808 215.818 227.584 215.918 225.293C216.445 217.729 216.445 217.729 210.938 213.281C214.805 213.281 218.672 213.281 222.656 213.281C222.656 210.961 222.656 208.641 222.656 206.25C218.789 206.25 214.922 206.25 210.938 206.25C210.938 200.836 210.938 195.422 210.938 189.844C207.844 189.07 204.75 188.297 201.562 187.5Z" fill="white"/>
<path d="M131.25 206.25C147.492 207.41 147.492 207.41 164.062 208.594C163.289 212.461 162.516 216.328 161.719 220.312C157.52 220.439 153.321 220.53 149.121 220.605C146.783 220.66 144.444 220.714 142.035 220.77C135.938 220.312 135.938 220.312 131.25 215.625C131.25 212.531 131.25 209.438 131.25 206.25Z" fill="#EC5E80"/>
<path d="M140.625 150C142.172 150.773 143.719 151.547 145.312 152.344C145.312 161.625 145.312 170.906 145.312 180.469C133.594 182.812 133.594 182.812 126.562 180.469C125.789 183.563 125.016 186.656 124.219 189.844C122.672 189.844 121.125 189.844 119.531 189.844C119.531 184.43 119.531 179.016 119.531 173.438C125.781 170.313 129.297 171.865 135.938 173.438C135.938 174.984 135.938 176.531 135.938 178.125C137.484 178.125 139.031 178.125 140.625 178.125C140.625 168.844 140.625 159.562 140.625 150Z" fill="white"/>
<path d="M124.219 117.188C132.998 120.114 134.167 123.019 138.867 130.811C140.136 132.856 141.405 134.901 142.712 137.009C145.706 143.87 145.351 145.487 142.969 152.344C142.461 156.829 142.025 161.322 141.65 165.82C141.454 168.129 141.258 170.437 141.055 172.815C140.913 174.567 140.771 176.32 140.625 178.125C139.078 177.352 137.531 176.578 135.938 175.781C136.073 173.63 136.209 171.479 136.349 169.263C136.956 152.768 137.328 141.065 126.782 127.853C124.219 124.219 124.219 124.219 124.219 117.188Z" fill="white"/>
<path d="M124.219 180.469C124.992 180.469 125.766 180.469 126.562 180.469C126.948 182.458 126.948 182.458 127.341 184.488C127.712 186.207 128.084 187.926 128.467 189.697C128.82 191.41 129.174 193.123 129.538 194.888C130.103 196.317 130.668 197.746 131.25 199.219C133.57 199.992 135.891 200.766 138.281 201.562C138.281 203.883 138.281 206.203 138.281 208.594C134.414 209.367 130.547 210.141 126.562 210.938C125.789 213.258 125.016 215.578 124.219 217.969C122.672 208.687 121.125 199.406 119.531 189.844C121.078 189.844 122.625 189.844 124.219 189.844C124.219 186.75 124.219 183.656 124.219 180.469Z" fill="white"/>
<path d="M192.188 215.625C195.281 215.625 198.375 215.625 201.562 215.625C201.562 219.492 201.562 223.359 201.562 227.344C204.656 227.344 207.75 227.344 210.938 227.344C210.938 223.477 210.938 219.609 210.938 215.625C214.805 215.625 218.672 215.625 222.656 215.625C220.336 216.398 218.016 217.172 215.625 217.969C215.625 222.609 215.625 227.25 215.625 232.031C209.437 232.031 203.25 232.031 196.875 232.031C196.875 227.391 196.875 222.75 196.875 217.969C195.328 217.195 193.781 216.422 192.188 215.625Z" fill="white"/>
<path d="M58.594 75C60.1409 84.2813 61.6878 93.5625 63.2815 103.125C60.1878 103.125 57.094 103.125 53.9065 103.125C50.8991 94.1026 51.4071 86.8421 51.5628 77.3438C56.2503 75 56.2503 75 58.594 75Z" fill="#EC5E80"/>
<path d="M168.75 196.875C170.068 201.416 170.068 201.416 171.094 206.25C168.75 208.594 168.75 208.594 161.856 208.823C157.655 208.782 157.655 208.782 153.369 208.74C149.159 208.709 149.159 208.709 144.864 208.676C142.692 208.649 140.519 208.622 138.281 208.594C138.281 207.047 138.281 205.5 138.281 203.906C140.697 203.734 140.697 203.734 143.161 203.558C146.329 203.296 146.329 203.296 149.561 203.027C151.654 202.864 153.748 202.701 155.905 202.533C162.291 201.876 162.291 201.876 168.75 196.875Z" fill="white"/>
<path d="M117.188 86.7188C119.508 87.8789 119.508 87.8789 121.875 89.0625C122.845 96.4691 122.845 96.4691 123.34 105.615C123.515 108.639 123.69 111.664 123.871 114.78C123.986 117.121 124.1 119.463 124.219 121.875C121.898 122.648 119.578 123.422 117.188 124.219C117.188 111.844 117.188 99.4688 117.188 86.7188Z" fill="#EC5E80"/>
<path d="M168.75 232.031C170.297 232.805 171.844 233.578 173.438 234.375C165.361 247.933 165.361 247.933 158.789 250.488C157.436 250.585 156.082 250.682 154.688 250.781C154.688 249.234 154.688 247.688 154.688 246.094C151.594 245.32 148.5 244.547 145.312 243.75C147.439 243.557 149.566 243.363 151.758 243.164C160.314 241.189 163.204 238.643 168.75 232.031Z" fill="white"/>
<path d="M131.25 232.031C133.57 233.191 133.57 233.191 135.938 234.375C136.711 236.695 137.484 239.016 138.281 241.406C146.512 244.288 146.512 244.288 154.688 246.094C154.688 247.641 154.688 249.187 154.688 250.781C147.063 251.301 141.966 251.452 135.059 247.998C131.25 243.75 131.25 243.75 130.664 237.451C130.857 235.663 131.051 233.874 131.25 232.031Z" fill="white"/>
<path d="M187.5 114.844C193.301 117.164 193.301 117.164 199.219 119.531C196.898 120.305 194.578 121.078 192.188 121.875C192.188 123.422 192.188 124.969 192.188 126.562C184.075 133.594 184.075 133.594 178.125 133.594C180.761 126.628 183.335 121.091 187.5 114.844Z" fill="white"/>
<path d="M53.9069 60.9375C55.4537 60.9375 57.0006 60.9375 58.5944 60.9375C56.9067 71.7388 53.1734 81.2634 49.2194 91.4062C48.4459 91.4062 47.6725 91.4062 46.8756 91.4062C45.8317 70.8762 45.8317 70.8762 53.9069 60.9375Z" fill="white"/>
<path d="M121.875 147.656C122.648 147.656 123.422 147.656 124.219 147.656C124.219 151.523 124.219 155.391 124.219 159.375C125.766 159.375 127.312 159.375 128.906 159.375C128.133 163.242 127.359 167.109 126.562 171.094C128.109 171.867 129.656 172.641 131.25 173.438C127.383 173.438 123.516 173.438 119.531 173.438C120.305 164.93 121.078 156.422 121.875 147.656Z" fill="white"/>
<path d="M210.938 96.0938C217.969 98.4375 217.969 98.4375 222.656 103.125C220.433 103.85 218.209 104.575 215.918 105.322C208.92 107.517 208.92 107.517 203.906 110.156C202.359 108.609 200.813 107.063 199.219 105.469C204.639 100.635 204.639 100.635 210.938 96.0938Z" fill="white"/>
<path d="M213.281 51.5626C216.375 53.1095 219.469 54.6564 222.656 56.2501C214.148 57.797 205.641 59.3439 196.875 60.9376C197.648 57.8439 198.422 54.7501 199.219 51.5626C205.198 48.5732 207.03 49.5403 213.281 51.5626Z" fill="white"/>
<path d="M180.469 131.25C181.242 133.57 182.016 135.891 182.812 138.281C182.039 139.055 181.266 139.828 180.469 140.625C179.928 143.783 179.504 146.962 179.15 150.146C178.643 154.715 178.643 154.715 178.125 159.375C177.352 159.375 176.578 159.375 175.781 159.375C175.443 157.538 175.104 155.701 174.756 153.809C173.723 147.74 173.723 147.74 171.094 142.969C174.543 134.213 174.543 134.213 180.469 131.25Z" fill="white"/>
<path d="M89.0625 53.9067C89.0625 54.6801 89.0625 55.4536 89.0625 56.2504C81.3281 57.0239 73.5938 57.7973 65.625 58.5942C65.625 56.2739 65.625 53.9536 65.625 51.5629C74.5662 48.124 80.3675 50.5472 89.0625 53.9067Z" fill="white"/>
<path d="M220.312 243.75C220.312 245.297 220.312 246.844 220.312 248.438C213.383 251.902 206.854 250.923 199.219 250.781C199.219 249.234 199.219 247.688 199.219 246.094C206.387 244.819 213.018 243.75 220.312 243.75Z" fill="white"/>
<path d="M121.874 171.094C125.355 173.414 125.355 173.414 128.905 175.781C127.358 180.422 125.812 185.063 124.218 189.844C122.671 189.844 121.124 189.844 119.53 189.844C119.431 184.376 119.434 178.905 119.53 173.438C120.304 172.664 121.077 171.891 121.874 171.094Z" fill="white"/>
<path d="M246.094 199.219C246.867 199.219 247.641 199.219 248.438 199.219C248.564 202.636 248.655 206.054 248.73 209.473C248.785 211.376 248.839 213.279 248.895 215.24C248.438 220.312 248.438 220.312 243.75 225C242.203 225 240.656 225 239.062 225C239.062 222.68 239.062 220.359 239.062 217.969C240.609 217.195 242.156 216.422 243.75 215.625C244.705 210.184 245.495 204.71 246.094 199.219Z" fill="white"/>
<path d="M75 60.9368C90.8203 60.6438 90.8203 60.6438 96.0938 63.2805C95.3203 65.6008 94.5469 67.9211 93.75 70.3118C87.0117 69.5793 87.0117 69.5793 79.6875 67.968C78.1406 65.6477 76.5938 63.3274 75 60.9368Z" fill="white"/>
<path d="M213.281 49.2188C219.469 49.9922 225.656 50.7656 232.031 51.5625C232.031 53.1094 232.031 54.6562 232.031 56.25C225.07 55.4766 218.109 54.7031 210.938 53.9062C211.711 52.3594 212.484 50.8125 213.281 49.2188Z" fill="white"/>
<path d="M248.438 77.3438C248.438 82.7578 248.438 88.1719 248.438 93.75C246.117 93.75 243.797 93.75 241.406 93.75C241.406 89.1094 241.406 84.4687 241.406 79.6875C246.094 77.3438 246.094 77.3438 248.438 77.3438Z" fill="#EC5E80"/>
</g>
<defs>
<clipPath id="clip0_454_692">
<rect width="300" height="300" fill="white"/>
</clipPath>
</defs>
</svg>
