<svg width="300" height="300" viewBox="0 0 300 300" fill="none" xmlns="http://www.w3.org/2000/svg">
<path d="M148.388 43.7981C152.219 43.7414 152.219 43.7414 156.128 43.6836C177.607 43.6707 193.768 47.6215 212.108 58.886C220.579 63.7448 226.81 66.4137 236.571 66.9426C244.352 67.3888 245.669 67.6273 252.099 72.802C256.463 81.7201 257.147 88.6816 255.468 98.4367C252.392 104.296 252.392 104.296 248.437 110.155C247.312 113.312 246.242 116.488 245.214 119.677C241.883 128.743 238.512 133.667 229.687 138.28C213.064 137.973 198.952 130.654 185.155 121.874C180.586 131.526 179.808 139.673 179.442 150.292C178.82 163.607 176.663 175.446 172.722 188.168C170.268 197.751 169.775 207.329 169.243 217.181C168.749 222.655 168.749 222.655 166.405 224.999C161.719 225.095 157.029 225.099 152.343 224.999C153.503 234.28 153.503 234.28 154.687 243.749C159.551 245.046 163.695 246.093 168.749 246.093C171.994 239.984 174.175 234.307 175.927 227.636C179.841 215.213 186.89 205.146 194.416 194.646C200.727 185.503 202.312 179.752 201.562 168.749C204.784 164.355 204.784 164.355 208.593 161.718C210.14 161.718 211.687 161.718 213.28 161.718C213.667 160.268 214.054 158.818 214.452 157.323C220.081 149.349 227.347 149.469 236.718 147.655C235.171 146.882 233.624 146.109 232.03 145.312C232.03 143.765 232.03 142.218 232.03 140.624C240.88 141.853 246.617 143.733 253.124 149.999C253.124 152.32 253.124 154.64 253.124 157.03C249.257 155.484 245.39 153.937 241.405 152.343C242.952 154.663 244.499 156.984 246.093 159.374C248.11 171.48 243.892 179.833 237.899 190.044C232.975 196.311 227.936 197.524 220.312 199.218C218.765 201.538 217.218 203.859 215.624 206.249C214.077 206.249 212.53 206.249 210.937 206.249C212.499 199.999 214.062 193.749 215.624 187.499C213.304 187.499 210.983 187.499 208.593 187.499C204.632 192.76 201.171 197.87 197.753 203.466C196.798 204.972 195.844 206.478 194.86 208.03C190.877 214.394 187.537 220.198 185.155 227.343C186.896 225.554 188.636 223.766 190.429 221.923C195.53 216.938 200.44 212.681 206.249 208.593C207.022 210.14 207.796 211.687 208.593 213.28C206.091 216.823 203.543 220.332 200.976 223.827C199.562 225.785 198.148 227.743 196.691 229.76C195.204 231.283 193.718 232.805 192.187 234.374C189.093 234.374 185.999 234.374 182.812 234.374C182.28 235.679 181.748 236.985 181.2 238.329C177.1 245.554 172.919 250.287 166.405 255.468C157.605 255.295 153.917 254.698 147.655 248.437C147.198 242.852 147.198 242.852 147.362 236.425C147.405 234.292 147.447 232.159 147.49 229.961C147.545 228.324 147.599 226.686 147.655 224.999C145.383 225.048 143.111 225.096 140.771 225.146C133.593 224.999 133.593 224.999 131.249 222.655C130.918 216.396 131.15 210.177 131.249 203.905C132.796 203.905 134.343 203.905 135.937 203.905C135.937 209.32 135.937 214.734 135.937 220.312C139.804 220.312 143.671 220.312 147.655 220.312C146.882 202.523 146.108 184.734 145.312 166.405C144.538 167.179 143.765 167.952 142.968 168.749C139.063 168.844 135.154 168.849 131.249 168.749C131.636 169.909 132.022 171.07 132.421 172.265C134.078 180.549 133.734 188.429 133.593 196.874C124.758 189.053 123.411 180.076 121.874 168.749C121.385 159.644 120.998 150.574 120.794 141.457C119.355 132.503 117.15 129.749 110.155 124.218C106.457 126.393 106.457 126.393 102.685 128.613C89.4285 136.077 81.11 140.16 65.624 135.937C55.9797 127.119 51.8294 114.966 46.874 103.124C46.1006 101.577 45.3272 100.03 44.5303 98.4367C43.6817 88.0841 43.3248 82.1501 47.8994 72.802C55.4027 66.7628 60.2026 66.8505 69.57 66.3567C78.22 65.1897 84.0487 60.8103 91.4053 56.2492C93.7256 56.2492 96.0459 56.2492 98.4365 56.2492C95.1573 66.0869 89.7065 67.7574 80.8493 72.4907C72.5496 76.0496 65.2209 76.7021 56.249 77.343C52.8698 80.1882 52.8698 80.1882 53.6123 88.6223C53.685 95.3645 54.0988 101.361 56.249 107.812C58.5694 107.812 60.8897 107.812 63.2803 107.812C61.5582 106.407 61.5582 106.407 59.8013 104.974C55.2717 99.6269 55.4382 96.8467 55.6631 89.9406C55.6994 88.0735 55.7356 86.2064 55.773 84.2827C56.249 79.6867 56.249 79.6867 58.5928 77.343C61.8996 76.8511 65.2248 76.4798 68.5537 76.1711C76.3065 75.4427 83.7866 74.2765 91.4053 72.6555C91.8373 74.2447 92.2694 75.8338 92.7145 77.4712C97.8239 93.8666 104.834 104.338 116.903 116.509C126.597 126.971 129.818 134.045 129.345 148.388C129.25 152.145 129.25 152.145 129.152 155.978C129.071 157.872 128.989 159.766 128.905 161.718C132.772 162.491 136.64 163.265 140.624 164.062C134.992 119.285 134.992 119.285 112.499 82.0305C111.767 75.7317 111.767 75.7317 112.499 70.3117C119.443 63.3678 135.964 65.3217 145.22 65.3038C147.586 65.3174 147.586 65.3174 149.999 65.3313C151.576 65.3222 153.153 65.3131 154.778 65.3038C182.545 65.3574 182.545 65.3574 187.499 70.3117C188.378 75.4387 188.378 75.4387 187.499 82.0305C184.659 85.4844 181.804 88.9289 178.815 92.2552C168.386 105.443 166.469 124.56 163.622 140.624C163.207 142.887 162.791 145.15 162.363 147.482C161.351 153.006 160.355 158.532 159.374 164.062C165.175 162.902 165.175 162.902 171.093 161.718C170.984 159.851 170.875 157.984 170.763 156.06C170.245 140.848 169.953 131.36 180.468 119.53C181.942 118.008 183.417 116.485 184.936 114.916C197.318 101.794 203.658 90.0239 208.593 72.6555C214.014 73.376 219.434 74.1111 224.853 74.8528C227.871 75.2606 230.889 75.6685 233.999 76.0887C241.405 77.343 241.405 77.343 243.749 79.6867C244.143 84.2827 244.143 84.2827 244.188 89.9406C244.222 91.7957 244.255 93.6507 244.289 95.562C243.749 100.78 243.749 100.78 239.062 107.812C240.608 107.812 242.155 107.812 243.749 107.812C246.869 98.4527 246.413 89.4427 246.093 79.6867C242.56 76.1542 238.852 76.5681 233.935 75.8781C219.432 73.1745 207.443 66.7388 194.539 59.9022C184.519 54.7032 177.512 53.6058 166.35 53.5942C162.181 53.5897 162.181 53.5897 157.928 53.5851C155.021 53.5941 152.115 53.6032 149.12 53.6125C146.232 53.6035 143.344 53.5944 140.368 53.5851C137.582 53.5881 134.797 53.5911 131.927 53.5942C129.382 53.5969 126.836 53.5995 124.214 53.6022C117.7 53.8833 111.806 54.7701 105.468 56.2492C105.468 53.9289 105.468 51.6086 105.468 49.218C119.449 43.072 133.411 43.7542 148.388 43.7981Z" fill="white"/>
<path d="M148.389 43.7981C152.22 43.7414 152.22 43.7414 156.129 43.6836C177.608 43.6707 193.769 47.6215 212.109 58.886C220.58 63.7448 226.811 66.4137 236.572 66.9426C244.353 67.3888 245.67 67.6273 252.1 72.802C256.464 81.7201 257.148 88.6816 255.469 98.4367C252.393 104.296 252.393 104.296 248.438 110.155C247.313 113.312 246.243 116.488 245.215 119.677C241.884 128.743 238.513 133.667 229.688 138.28C213.065 137.973 198.953 130.654 185.156 121.874C180.587 131.526 179.809 139.673 179.443 150.292C177.361 188.264 177.361 188.264 166.406 199.218C165.328 204.38 165.328 204.38 164.941 210.058C164.766 211.973 164.591 213.889 164.41 215.862C164.296 217.331 164.181 218.799 164.062 220.312C160.195 220.312 156.328 220.312 152.344 220.312C152.106 204.548 151.942 188.784 151.829 173.019C151.782 167.658 151.718 162.298 151.637 156.938C151.523 149.223 151.47 141.51 151.428 133.794C151.38 131.406 151.331 129.018 151.282 126.557C151.277 112.501 152.476 104.543 161.719 93.7492C160.945 92.2024 160.172 90.6555 159.375 89.0617C158.312 90.9953 157.248 92.9289 156.152 94.9211C154.896 96.8547 153.639 98.7883 152.344 100.78C150.797 100.78 149.25 100.78 147.656 100.78C143.848 94.9211 143.848 94.9211 140.625 89.0617C139.942 96.1381 139.942 96.1381 144.113 100.954C149.242 110.88 148.415 119.821 148.096 130.81C148.048 133.916 148.048 133.916 148 137.086C147.917 142.172 147.791 147.258 147.656 152.343C142.21 144.174 141.402 138.256 139.746 128.613C135.953 108.131 129.297 91.8667 117.188 74.9992C138.841 70.9708 161.113 71.5955 182.812 74.9992C181.604 76.8362 180.396 78.6731 179.15 80.5656C178.039 82.5959 176.927 84.6262 175.781 86.718C176.555 88.2649 177.328 89.8117 178.125 91.4055C176.633 95.2599 176.633 95.2599 174.17 100.341C165.621 120.447 163.052 142.646 159.375 164.062C165.176 162.902 165.176 162.902 171.094 161.718C170.985 159.851 170.876 157.984 170.764 156.06C170.246 140.848 169.954 131.36 180.469 119.53C181.943 118.008 183.417 116.485 184.937 114.916C197.319 101.794 203.659 90.0239 208.594 72.6555C214.015 73.376 219.435 74.1111 224.854 74.8528C229.381 75.4646 229.381 75.4646 234 76.0887C241.406 77.343 241.406 77.343 243.75 79.6867C244.144 84.2827 244.144 84.2827 244.189 89.9406C244.223 91.7957 244.256 93.6507 244.29 95.562C243.75 100.78 243.75 100.78 239.062 107.812C240.609 107.812 242.156 107.812 243.75 107.812C246.87 98.4527 246.414 89.4427 246.094 79.6867C242.561 76.1542 238.853 76.5681 233.936 75.8781C219.433 73.1745 207.444 66.7388 194.54 59.9022C184.52 54.7032 177.513 53.6058 166.351 53.5942C162.182 53.5897 162.182 53.5897 157.928 53.5851C155.022 53.5941 152.116 53.6032 149.121 53.6125C146.233 53.6035 143.344 53.5944 140.369 53.5851C137.583 53.5881 134.797 53.5911 131.927 53.5942C129.382 53.5969 126.837 53.5995 124.215 53.6022C117.701 53.8833 111.807 54.7701 105.469 56.2492C105.469 53.9289 105.469 51.6086 105.469 49.218C119.45 43.072 133.412 43.7542 148.389 43.7981Z" fill="white"/>
<path d="M98.4365 56.25C95.1573 66.0877 89.7065 67.7581 80.8493 72.4915C72.5496 76.0503 65.2209 76.7029 56.249 77.3438C52.8698 80.189 52.8698 80.189 53.6123 88.623C53.685 95.3653 54.0988 101.362 56.249 107.812C58.5694 107.812 60.8897 107.812 63.2803 107.812C61.5582 106.408 61.5582 106.408 59.8013 104.974C55.2717 99.6276 55.4382 96.8475 55.6631 89.9414C55.6994 88.0743 55.7356 86.2072 55.773 84.2834C56.249 79.6875 56.249 79.6875 58.5928 77.3438C61.8996 76.8518 65.2248 76.4805 68.5537 76.1719C76.3065 75.4434 83.7866 74.2773 91.4053 72.6562C91.8373 74.2454 92.2694 75.8346 92.7145 77.4719C97.8537 93.9629 104.898 104.357 117.132 116.51C122.018 122.038 124.275 126.634 126.562 133.594C119.53 133.594 119.53 133.594 114.403 128.906C113.001 127.359 111.6 125.813 110.155 124.219C106.457 126.394 106.457 126.394 102.685 128.613C89.4285 136.078 81.11 140.161 65.624 135.938C55.9797 127.12 51.8294 114.967 46.874 103.125C46.1006 101.578 45.3272 100.031 44.5303 98.4375C43.6817 88.0848 43.3248 82.1508 47.8994 72.8027C55.4027 66.7635 60.2026 66.8513 69.57 66.3574C80.6416 64.8638 87.2319 56.25 98.4365 56.25Z" fill="white"/>
<path d="M148.389 43.7981C152.22 43.7414 152.22 43.7414 156.129 43.6836C177.608 43.6707 193.769 47.6215 212.109 58.886C220.58 63.7448 226.811 66.4137 236.572 66.9426C244.353 67.3888 245.67 67.6273 252.1 72.802C256.464 81.7201 257.148 88.6816 255.469 98.4367C252.393 104.296 252.393 104.296 248.438 110.155C246.606 114.907 244.966 119.69 243.384 124.529C241.093 129.598 238.697 132.452 234.375 135.937C228.076 136.376 228.076 136.376 222.656 135.937C224.493 134.148 226.33 132.36 228.223 130.517C234.545 124.431 234.545 124.431 239.062 117.187C235.195 116.413 231.328 115.64 227.344 114.843C226.184 111.363 226.184 111.363 225 107.812C226.885 106.12 228.771 104.428 230.713 102.685C236.772 96.034 238.314 93.1125 239.062 84.3742C234.422 84.3742 229.781 84.3742 225 84.3742C225 82.8274 225 81.2805 225 79.6867C231.188 79.6867 237.375 79.6867 243.75 79.6867C243.877 83.0549 243.968 86.4244 244.043 89.7942C244.097 91.6703 244.152 93.5465 244.208 95.4796C243.75 100.78 243.75 100.78 239.062 107.812C240.609 107.812 242.156 107.812 243.75 107.812C246.87 98.4527 246.414 89.4427 246.094 79.6867C242.561 76.1542 238.853 76.5681 233.936 75.8781C219.433 73.1745 207.444 66.7388 194.54 59.9022C184.52 54.7032 177.513 53.6058 166.351 53.5942C162.182 53.5897 162.182 53.5897 157.928 53.5851C155.022 53.5941 152.116 53.6032 149.121 53.6125C146.233 53.6035 143.344 53.5944 140.369 53.5851C137.583 53.5881 134.797 53.5911 131.927 53.5942C129.382 53.5969 126.837 53.5995 124.215 53.6022C117.701 53.8833 111.807 54.7701 105.469 56.2492C105.469 53.9289 105.469 51.6086 105.469 49.218C119.45 43.072 133.412 43.7542 148.389 43.7981Z" fill="white"/>
<path d="M182.812 74.999C181.889 76.1801 180.966 77.3613 180.014 78.5782C169.171 93.4495 164.773 107.706 160.84 125.536C160.233 128.124 159.625 130.712 159 133.378C157.524 139.692 156.087 146.012 154.688 152.343C153.914 152.343 153.141 152.343 152.344 152.343C152.09 145.212 151.904 138.09 151.758 130.956C151.64 127.947 151.64 127.947 151.52 124.877C151.311 111.337 153.001 104.217 161.719 93.749C160.945 92.2022 160.172 90.6553 159.375 89.0615C158.312 90.9951 157.248 92.9287 156.152 94.9209C154.896 96.8545 153.639 98.7881 152.344 100.78C150.797 100.78 149.25 100.78 147.656 100.78C143.848 94.9209 143.848 94.9209 140.625 89.0615C139.942 96.1379 139.942 96.1379 144.113 100.954C149.242 110.88 148.415 119.821 148.096 130.81C148.064 132.881 148.032 134.952 148 137.086C147.917 142.172 147.791 147.258 147.656 152.343C142.21 144.174 141.402 138.255 139.746 128.612C135.953 108.131 129.297 91.8665 117.188 74.999C138.841 70.9706 161.113 71.5952 182.812 74.999Z" fill="#EC5E80"/>
<path d="M232.031 140.625C240.881 141.854 246.618 143.734 253.125 150C253.125 152.32 253.125 154.641 253.125 157.031C249.258 155.484 245.391 153.938 241.406 152.344C243.727 155.824 243.727 155.824 246.094 159.375C248.111 171.481 243.893 179.834 237.9 190.045C232.976 196.312 227.937 197.524 220.312 199.219C218.766 201.539 217.219 203.859 215.625 206.25C214.078 206.25 212.531 206.25 210.938 206.25C212.5 200 214.062 193.75 215.625 187.5C208.593 186.688 208.593 186.688 204.932 191.016C203.82 192.176 202.708 193.336 201.562 194.531C200.016 194.531 198.469 194.531 196.875 194.531C197.648 192.888 198.422 191.244 199.219 189.551C201.987 182.848 201.987 182.848 201.416 175.488C201.562 168.75 201.562 168.75 204.785 164.355C208.594 161.719 208.594 161.719 213.281 161.719C213.668 160.269 214.055 158.818 214.453 157.324C220.082 149.349 227.348 149.47 236.719 147.656C235.172 146.883 233.625 146.109 232.031 145.312C232.031 143.766 232.031 142.219 232.031 140.625Z" fill="white"/>
<path d="M175.782 86.7188C176.556 88.2656 177.329 89.8125 178.126 91.4062C176.634 95.2606 176.634 95.2606 174.171 100.342C165.622 120.448 163.053 142.647 159.376 164.062C165.177 162.902 165.177 162.902 171.095 161.719C171.095 152.437 171.095 143.156 171.095 133.594C173.415 132.82 175.735 132.047 178.126 131.25C179.581 174.21 179.581 174.21 171.095 194.531C169.548 196.078 168.001 197.625 166.407 199.219C165.329 204.381 165.329 204.381 164.942 210.059C164.767 211.974 164.592 213.89 164.411 215.863C164.239 218.066 164.239 218.066 164.063 220.312C160.196 220.312 156.329 220.312 152.345 220.312C150.924 186.283 150.321 153.772 158.79 120.557C159.381 118.22 159.972 115.883 160.581 113.475C163.705 102.319 166.134 93.955 175.782 86.7188Z" fill="white"/>
<path d="M98.4365 56.25C95.1573 66.0877 89.7065 67.7581 80.8493 72.4915C72.5496 76.0503 65.2209 76.7029 56.249 77.3438C52.8698 80.189 52.8698 80.189 53.6123 88.623C53.6244 98.4564 53.6244 98.4564 56.249 107.812C58.5694 108.586 60.8897 109.359 63.2803 110.156C63.2803 112.477 63.2803 114.797 63.2803 117.188C65.6006 116.414 67.9209 115.641 70.3115 114.844C71.085 113.297 71.8584 111.75 72.6553 110.156C77.1963 112.061 77.1963 112.061 82.0303 114.844C82.8037 117.164 83.5772 119.484 84.374 121.875C86.5493 121.15 88.7246 120.425 90.9658 119.678C95.7998 118.066 100.634 116.455 105.468 114.844C104.296 122.607 104.296 122.607 100.78 131.25C92.1387 137.301 83.6127 138.281 73.2412 138.281C63.6517 135.331 61.4162 132.771 56.249 124.219C52.8919 117.277 49.8501 110.237 46.874 103.125C46.1006 101.578 45.3272 100.031 44.5303 98.4375C43.6817 88.0848 43.3248 82.1508 47.8994 72.8027C55.4027 66.7635 60.2026 66.8513 69.57 66.3574C80.6416 64.8638 87.2319 56.25 98.4365 56.25Z" fill="white"/>
<path d="M84.375 79.6875C89.3106 84.6231 91.2364 88.445 94.043 94.7754C94.8708 96.6093 95.6986 98.4432 96.5515 100.333C98.4375 105.469 98.4375 105.469 98.4375 112.5C94.4824 114.258 94.4824 114.258 89.0625 114.844C85.0482 111.859 81.1484 108.717 77.3438 105.469C73.4629 103.844 69.5599 102.27 65.625 100.781C60.9375 96.0938 60.9375 96.0938 60.6445 89.9414C60.7412 88.1045 60.8379 86.2676 60.9375 84.375C64.7384 83.4633 68.5489 82.5919 72.3633 81.7383C74.4842 81.2488 76.6051 80.7594 78.7903 80.2551C81.5547 79.9742 81.5547 79.9742 84.375 79.6875Z" fill="#EC5E80"/>
<path d="M213.281 79.6875C221.789 81.2344 230.297 82.7812 239.062 84.375C239.062 96.0938 239.062 96.0938 236.572 99.9023C230.104 104.493 222.9 107.038 215.625 110.156C211.218 113.764 211.218 113.764 208.594 117.188C205.5 114.094 202.406 111 199.219 107.812C200.234 106.652 201.249 105.492 202.295 104.297C207.571 96.4798 210.167 88.5866 213.281 79.6875Z" fill="#EC5E80"/>
<path d="M152.344 164.062C157.758 165.609 163.172 167.156 168.75 168.75C167.203 185.766 165.656 202.781 164.062 220.312C160.195 220.312 156.328 220.312 152.344 220.312C152.344 201.75 152.344 183.187 152.344 164.062Z" fill="#EC5E80"/>
<path d="M225 79.6875C231.188 79.6875 237.375 79.6875 243.75 79.6875C243.877 83.0557 243.968 86.4252 244.043 89.7949C244.097 91.6711 244.152 93.5473 244.208 95.4803C243.75 100.781 243.75 100.781 239.062 107.812C240.609 107.812 242.156 107.812 243.75 107.812C246.07 100.852 248.391 93.8906 250.781 86.7188C251.555 86.7188 252.328 86.7188 253.125 86.7188C254.618 104.264 248.479 116.743 239.209 131.396C234.375 135.938 234.375 135.938 227.93 136.67C226.189 136.428 224.449 136.187 222.656 135.938C224.493 134.149 226.33 132.36 228.223 130.518C234.545 124.432 234.545 124.432 239.062 117.188C235.195 116.414 231.328 115.641 227.344 114.844C226.57 112.523 225.797 110.203 225 107.812C226.885 106.121 228.771 104.429 230.713 102.686C236.772 96.0348 238.314 93.1133 239.062 84.375C234.422 84.375 229.781 84.375 225 84.375C225 82.8281 225 81.2813 225 79.6875Z" fill="white"/>
<path d="M199.219 192.188C199.992 194.508 200.766 196.828 201.562 199.219C198.798 204.272 198.798 204.272 194.824 209.766C190.471 215.84 187.536 220.206 185.156 227.344C186.896 225.555 188.637 223.767 190.43 221.924C195.53 216.939 200.441 212.681 206.25 208.594C207.023 210.141 207.797 211.687 208.594 213.281C206.092 216.823 203.544 220.333 200.977 223.828C199.563 225.786 198.149 227.744 196.692 229.761C195.205 231.283 193.719 232.806 192.188 234.375C189.094 234.375 186 234.375 182.812 234.375C182.281 235.68 181.749 236.985 181.201 238.33C177.173 245.427 172.669 250.25 166.406 255.469C160.986 255.029 160.986 255.029 157.031 253.125C160.254 249.609 160.254 249.609 164.062 246.094C165.609 246.094 167.156 246.094 168.75 246.094C172.096 239.784 174.418 233.762 176.367 226.904C180.293 214.765 186.566 204.472 194.531 194.531C196.078 193.758 197.625 192.984 199.219 192.188Z" fill="white"/>
<path d="M222.656 110.156C224.203 110.156 225.75 110.156 227.344 110.156C228.117 111.703 228.891 113.25 229.688 114.844C234.433 116.372 234.433 116.372 239.062 117.188C236.363 122.972 234.263 126.675 229.688 131.25C215.266 130.761 206.579 127.312 194.531 119.531C194.531 117.984 194.531 116.438 194.531 114.844C195.836 115.666 197.142 116.487 198.486 117.334C205.352 120.117 208.655 119.511 215.625 117.188C219.532 113.672 219.532 113.672 222.656 110.156Z" fill="#EC5E80"/>
<path d="M72.6562 110.156C77.1973 112.061 77.1973 112.061 82.0312 114.844C82.8047 117.164 83.5781 119.484 84.375 121.875C86.5503 121.15 88.7256 120.425 90.9668 119.678C95.8008 118.066 100.635 116.455 105.469 114.844C103.125 121.875 103.125 121.875 98.6938 124.612C78.8287 133.197 78.8287 133.197 70.3125 131.25C64.8926 126.855 64.8926 126.855 60.9375 121.875C60.9375 120.328 60.9375 118.781 60.9375 117.188C62.436 116.897 63.9346 116.607 65.4785 116.309C67.8713 115.583 67.8713 115.583 70.3125 114.844C71.0859 113.297 71.8594 111.75 72.6562 110.156Z" fill="#EC5E80"/>
<path d="M232.031 140.625C240.881 141.854 246.618 143.734 253.125 150C253.125 152.32 253.125 154.641 253.125 157.031C247.324 154.711 247.324 154.711 241.406 152.344C243.727 155.824 243.727 155.824 246.094 159.375C246.387 166.846 246.387 166.846 246.094 173.438C243.773 172.664 241.453 171.891 239.062 171.094C236.279 165.088 236.279 165.088 234.375 159.375C227.414 159.375 220.453 159.375 213.281 159.375C220.5 150.768 225.582 148.669 236.719 147.656C235.172 146.883 233.625 146.109 232.031 145.312C232.031 143.766 232.031 142.219 232.031 140.625Z" fill="white"/>
<path d="M161.72 93.75C163.266 93.75 164.813 93.75 166.407 93.75C164.94 107.343 162.484 120.324 159.229 133.594C158.793 135.41 158.356 137.225 157.906 139.096C156.843 143.514 155.767 147.929 154.688 152.344C153.915 152.344 153.141 152.344 152.345 152.344C152.09 145.213 151.905 138.091 151.759 130.957C151.68 128.951 151.602 126.945 151.521 124.878C151.314 111.448 152.703 103.935 161.72 93.75Z" fill="#EC5E80"/>
<path d="M133.594 96.0938C135.914 96.0938 138.234 96.0938 140.625 96.0938C149.807 106.432 148.474 117.806 148.096 130.811C148.064 132.882 148.032 134.953 148 137.086C147.917 142.173 147.791 147.258 147.656 152.344C142.375 144.422 140.989 137.334 139.307 128.174C138.724 125.137 138.14 122.101 137.54 118.973C136.156 111.356 134.838 103.735 133.594 96.0938Z" fill="#EC5E80"/>
<path d="M228.369 156.592C234.375 157.031 234.375 157.031 239.062 161.719C239.355 167.871 239.355 167.871 239.062 173.438C235.107 175.049 235.107 175.049 229.688 175.781C223.242 172.412 223.242 172.412 217.969 168.75C220.579 157.191 220.579 157.191 228.369 156.592Z" fill="#EC5E80"/>
<path d="M175.781 86.7188C176.555 88.2656 177.328 89.8125 178.125 91.4062C176.468 96.2494 176.468 96.2494 173.877 102.1C169.163 113.305 166.37 124.017 164.062 135.938C162.516 135.938 160.969 135.938 159.375 135.938C160.301 120.642 161.752 105.283 168.75 91.4062C171.07 89.8594 173.391 88.3125 175.781 86.7188Z" fill="white"/>
<path d="M98.4375 56.25C95.6765 64.5331 92.331 66.6976 84.8145 70.816C75.4919 74.1622 66.0053 73.3629 56.25 72.6563C57.0234 71.1094 57.7969 69.5625 58.5938 67.9688C63.0249 66.7328 63.0249 66.7328 68.5547 65.7715C79.3668 63.6262 87.7809 56.25 98.4375 56.25Z" fill="white"/>
<path d="M53.9055 67.9688C64.3469 70.2891 64.3469 70.2891 74.9993 72.6562C74.9993 73.4297 74.9993 74.2031 74.9993 75C68.8118 75.7734 62.6243 76.5469 56.2493 77.3438C55.6208 79.9541 54.9924 82.5645 54.345 85.2539C51.5618 93.75 51.5618 93.75 44.5305 98.4375C43.3767 81.4183 43.3767 81.4183 49.218 72.6562C50.7649 71.1094 52.3118 69.5625 53.9055 67.9688Z" fill="white"/>
<path d="M185.156 67.9686C187.5 70.3123 187.5 70.3123 188.232 75.8787C187.5 82.0311 187.5 82.0311 183.105 86.2791C178.125 89.0623 178.125 89.0623 173.438 89.0623C177.832 79.9803 177.832 79.9803 180.469 77.3436C175.055 76.5702 169.641 75.7967 164.062 74.9998C171.216 68.6416 175.585 66.9339 185.156 67.9686Z" fill="white"/>
<path d="M222.656 110.156C224.203 110.93 225.75 111.703 227.344 112.5C216.211 126.27 216.211 126.27 210.938 128.906C205.137 126.295 199.971 122.856 194.531 119.531C194.531 117.984 194.531 116.438 194.531 114.844C195.836 115.666 197.142 116.487 198.486 117.334C205.352 120.117 208.655 119.511 215.625 117.188C219.829 113.771 219.829 113.771 222.656 110.156Z" fill="#EC5E80"/>
<path d="M56.25 79.6875C62.4375 79.6875 68.625 79.6875 75 79.6875C75 81.2344 75 82.7812 75 84.375C70.3594 84.375 65.7187 84.375 60.9375 84.375C61.7109 89.0156 62.4844 93.6563 63.2812 98.4375C60.9609 99.2109 58.6406 99.9844 56.25 100.781C56.25 93.8203 56.25 86.8594 56.25 79.6875Z" fill="white"/>
<path d="M203.906 126.562C207.331 127.161 210.747 127.805 214.16 128.467C217.015 128.997 217.015 128.997 219.928 129.538C225 131.25 225 131.25 229.688 138.281C219.568 137.091 210.86 135.476 201.562 131.25C202.336 129.703 203.109 128.156 203.906 126.562Z" fill="white"/>
<path d="M225 79.6875C231.188 79.6875 237.375 79.6875 243.75 79.6875C243.75 85.875 243.75 92.0625 243.75 98.4375C242.203 97.6641 240.656 96.8906 239.062 96.0938C239.062 92.2266 239.062 88.3594 239.062 84.375C234.422 84.375 229.781 84.375 225 84.375C225 82.8281 225 81.2813 225 79.6875Z" fill="white"/>
<path d="M166.406 178.125C167.18 179.672 167.953 181.219 168.75 182.812C170.297 182.812 171.844 182.812 173.438 182.812C172.705 188.379 172.705 188.379 171.094 194.531C168.773 196.078 166.453 197.625 164.062 199.219C164.836 192.258 165.609 185.297 166.406 178.125Z" fill="white"/>
<path d="M140.625 128.906C141.398 128.906 142.172 128.906 142.969 128.906C143.742 135.867 144.516 142.828 145.312 150C143.766 150 142.219 150 140.625 150C139.852 151.547 139.078 153.094 138.281 154.688C137.508 148.5 136.734 142.313 135.938 135.938C137.484 135.938 139.031 135.938 140.625 135.938C140.625 133.617 140.625 131.297 140.625 128.906Z" fill="white"/>
<path d="M185.156 46.875C189.797 48.4219 194.438 49.9687 199.219 51.5625C199.219 53.8828 199.219 56.2031 199.219 58.5938C193.031 57.0469 186.844 55.5 180.469 53.9062C182.016 53.1328 183.562 52.3594 185.156 51.5625C185.156 50.0156 185.156 48.4688 185.156 46.875Z" fill="white"/>
<path d="M157.031 131.25C157.805 132.797 158.578 134.344 159.375 135.938C160.922 135.938 162.469 135.938 164.062 135.938C163.289 142.125 162.516 148.312 161.719 154.688C159.398 153.141 157.078 151.594 154.688 150C155.461 143.812 156.234 137.625 157.031 131.25Z" fill="white"/>
<path d="M133.594 114.844C135.141 114.844 136.687 114.844 138.281 114.844C139.055 121.805 139.828 128.766 140.625 135.938C139.078 135.938 137.531 135.938 135.938 135.938C135.164 128.977 134.391 122.016 133.594 114.844Z" fill="white"/>
<path d="M119.531 49.2186C118.758 50.7655 117.984 52.3123 117.188 53.9061C111.182 55.3709 111.182 55.3709 105.469 56.2498C105.469 53.9295 105.469 51.6092 105.469 49.2186C111.307 46.2995 113.463 47.3981 119.531 49.2186Z" fill="white"/>
</svg>
